%
M48
M72
T01C0.0130
T02C0.0236
%
T01
X1680Y680
X2680Y680
X3680Y680
X4680Y680
X5680Y680
X6680Y680
X7680Y680
X8680Y680
X8680Y1680
X7680Y1680
X6680Y1680
X5680Y1680
X4680Y1680
X3680Y1680
X2680Y1680
X1680Y1680
X1680Y2680
X2680Y2680
X3680Y2680
X4680Y2680
X5680Y2680
X6680Y2680
X7680Y2680
X8680Y2680
X8680Y3680
X7680Y3680
X6680Y3680
X5680Y3680
X4680Y3680
X3680Y3680
X2680Y3680
X1680Y3680
X1680Y4680
X2680Y4680
X3680Y4680
X4680Y4680
X5680Y4680
X6680Y4680
X7680Y4680
X8680Y4680
X8680Y5680
X7680Y5680
X6680Y5680
X5680Y5680
X4680Y5680
X3680Y5680
X2680Y5680
X1680Y5680
X1680Y6680
X2680Y6680
X3680Y6680
X4680Y6680
X5680Y6680
X6680Y6680
X7680Y6680
X8680Y6680
X8680Y7680
X7680Y7680
X6680Y7680
X5680Y7680
X4680Y7680
X3680Y7680
X2680Y7680
X1680Y7680
T02
X680Y680
X680Y1680
X680Y2680
X680Y3680
X680Y4680
X680Y5680
X680Y6680
X680Y7680
X9680Y7680
X9680Y6680
X9680Y5680
X9680Y4680
X9680Y3680
X9680Y2680
X9680Y1680
X9680Y680
M30
