G75*
%MOIN*%
%OFA0B0*%
%FSLAX25Y25*%
%IPPOS*%
%LPD*%
%AMOC8*
5,1,8,0,0,1.08239X$1,22.5*
%
%ADD10C,0.03800*%
%ADD11C,0.06200*%
D10*
X0016800Y0006800D03*
X0026800Y0006800D03*
X0036800Y0006800D03*
X0046800Y0006800D03*
X0056800Y0006800D03*
X0066800Y0006800D03*
X0076800Y0006800D03*
X0086800Y0006800D03*
X0086800Y0016800D03*
X0076800Y0016800D03*
X0066800Y0016800D03*
X0056800Y0016800D03*
X0046800Y0016800D03*
X0036800Y0016800D03*
X0026800Y0016800D03*
X0016800Y0016800D03*
X0016800Y0026800D03*
X0026800Y0026800D03*
X0036800Y0026800D03*
X0046800Y0026800D03*
X0056800Y0026800D03*
X0066800Y0026800D03*
X0076800Y0026800D03*
X0086800Y0026800D03*
X0086800Y0036800D03*
X0076800Y0036800D03*
X0066800Y0036800D03*
X0056800Y0036800D03*
X0046800Y0036800D03*
X0036800Y0036800D03*
X0026800Y0036800D03*
X0016800Y0036800D03*
X0016800Y0046800D03*
X0026800Y0046800D03*
X0036800Y0046800D03*
X0046800Y0046800D03*
X0056800Y0046800D03*
X0066800Y0046800D03*
X0076800Y0046800D03*
X0086800Y0046800D03*
X0086800Y0056800D03*
X0076800Y0056800D03*
X0066800Y0056800D03*
X0056800Y0056800D03*
X0046800Y0056800D03*
X0036800Y0056800D03*
X0026800Y0056800D03*
X0016800Y0056800D03*
X0016800Y0066800D03*
X0026800Y0066800D03*
X0036800Y0066800D03*
X0046800Y0066800D03*
X0056800Y0066800D03*
X0066800Y0066800D03*
X0076800Y0066800D03*
X0086800Y0066800D03*
X0086800Y0076800D03*
X0076800Y0076800D03*
X0066800Y0076800D03*
X0056800Y0076800D03*
X0046800Y0076800D03*
X0036800Y0076800D03*
X0026800Y0076800D03*
X0016800Y0076800D03*
D11*
X0006800Y0006800D03*
X0006800Y0016800D03*
X0006800Y0026800D03*
X0006800Y0036800D03*
X0006800Y0046800D03*
X0006800Y0056800D03*
X0006800Y0066800D03*
X0006800Y0076800D03*
X0096800Y0076800D03*
X0096800Y0066800D03*
X0096800Y0056800D03*
X0096800Y0046800D03*
X0096800Y0036800D03*
X0096800Y0026800D03*
X0096800Y0016800D03*
X0096800Y0006800D03*
M02*
