%
M48
M72
T01C0.01969
T02C0.02362
T03C0.04000
%
T01
X26000Y26000
X26000Y36000
X26000Y46000
X26000Y56000
X26000Y66000
X26000Y76000
X26000Y86000
X26000Y96000
X36000Y96000
X36000Y86000
X36000Y76000
X36000Y66000
X36000Y56000
X36000Y46000
X36000Y36000
X36000Y31000
X36000Y31000
X36000Y26000
X36000Y22000
X46000Y26000
X46000Y36000
X46000Y41000
X46000Y41000
X46000Y46000
X46000Y56000
X46000Y66000
X46000Y76000
X51000Y76000
X51000Y76000
X56000Y76000
X56000Y86000
X56000Y96000
X46000Y96000
X46000Y86000
X66000Y86000
X66000Y76000
X66000Y66000
X61000Y66000
X61000Y56000
X61000Y56000
X56000Y56000
X56000Y46000
X56000Y36000
X51000Y36000
X56000Y26000
X66000Y26000
X66000Y36000
X66000Y46000
X66000Y51000
X66000Y56000
X71000Y66000
X76000Y66000
X76000Y56000
X76000Y46000
X76000Y36000
X76000Y26000
X86000Y26000
X86000Y36000
X86000Y46000
X86000Y56000
X86000Y66000
X86000Y76000
X86000Y86000
X86000Y96000
X76000Y96000
X76000Y86000
X76000Y76000
X96000Y76000
X96000Y66000
X96000Y56000
X96000Y46000
X96000Y36000
X96000Y26000
X96000Y86000
X96000Y96000
X66000Y96000
T02
X56000Y66000
T03
X11000Y26000
X11000Y36000
X11000Y46000
X11000Y56000
X11000Y66000
X11000Y76000
X11000Y86000
X11000Y96000
X26000Y111000
X36000Y111000
X46000Y111000
X56000Y111000
X66000Y111000
X76000Y111000
X86000Y111000
X96000Y111000
X111000Y96000
X111000Y86000
X111000Y76000
X111000Y66000
X111000Y56000
X111000Y46000
X111000Y36000
X111000Y26000
X96000Y11000
X86000Y11000
X76000Y11000
X66000Y11000
X56000Y11000
X46000Y11000
X36000Y11000
X26000Y11000
M30
