G75*
%MOIN*%
%OFA0B0*%
%FSLAX25Y25*%
%IPPOS*%
%LPD*%
%AMOC8*
5,1,8,0,0,1.08239X$1,22.5*
%
%ADD10C,0.00000*%
%ADD11C,0.00500*%
D10*
X0001000Y0001000D02*
X0001000Y0125961D01*
X0124701Y0125961D01*
X0124701Y0001000D01*
X0001000Y0001000D01*
D11*
X0006000Y0021000D02*
X0006000Y0101000D01*
X0016000Y0101000D01*
X0016000Y0021000D01*
X0006000Y0021000D01*
X0020950Y0019201D02*
X0021701Y0018450D01*
X0022451Y0018450D01*
X0023202Y0019201D01*
X0023202Y0022954D01*
X0022451Y0022954D02*
X0023953Y0022954D01*
X0025554Y0022954D02*
X0027806Y0022954D01*
X0028556Y0022203D01*
X0028556Y0020702D01*
X0027806Y0019951D01*
X0025554Y0019951D01*
X0025554Y0018450D02*
X0025554Y0022954D01*
X0030158Y0022203D02*
X0030908Y0022954D01*
X0032410Y0022954D01*
X0033160Y0022203D01*
X0033160Y0021453D01*
X0032410Y0020702D01*
X0033160Y0019951D01*
X0033160Y0019201D01*
X0032410Y0018450D01*
X0030908Y0018450D01*
X0030158Y0019201D01*
X0031659Y0020702D02*
X0032410Y0020702D01*
X0021000Y0016000D02*
X0021000Y0006000D01*
X0101000Y0006000D01*
X0101000Y0016000D01*
X0021000Y0016000D01*
X0022199Y0087738D02*
X0022950Y0088489D01*
X0022950Y0089239D01*
X0022199Y0089990D01*
X0018446Y0089990D01*
X0018446Y0089239D02*
X0018446Y0090741D01*
X0018446Y0092342D02*
X0018446Y0094594D01*
X0019197Y0095345D01*
X0020698Y0095345D01*
X0021449Y0094594D01*
X0021449Y0092342D01*
X0022950Y0092342D02*
X0018446Y0092342D01*
X0019947Y0096946D02*
X0018446Y0098447D01*
X0022950Y0098447D01*
X0022950Y0096946D02*
X0022950Y0099949D01*
X0021000Y0106000D02*
X0021000Y0116000D01*
X0101000Y0116000D01*
X0101000Y0106000D01*
X0021000Y0106000D01*
X0021701Y0118450D02*
X0020950Y0119201D01*
X0021701Y0118450D02*
X0022451Y0118450D01*
X0023202Y0119201D01*
X0023202Y0122954D01*
X0022451Y0122954D02*
X0023953Y0122954D01*
X0025554Y0122954D02*
X0027806Y0122954D01*
X0028556Y0122203D01*
X0028556Y0120702D01*
X0027806Y0119951D01*
X0025554Y0119951D01*
X0025554Y0118450D02*
X0025554Y0122954D01*
X0030158Y0120702D02*
X0033160Y0120702D01*
X0032410Y0122954D02*
X0030158Y0120702D01*
X0032410Y0118450D02*
X0032410Y0122954D01*
X0106000Y0101000D02*
X0116000Y0101000D01*
X0116000Y0021000D01*
X0106000Y0021000D01*
X0106000Y0101000D01*
X0118446Y0099198D02*
X0118446Y0097697D01*
X0119197Y0096946D01*
X0119197Y0095345D02*
X0120698Y0095345D01*
X0121449Y0094594D01*
X0121449Y0092342D01*
X0122950Y0092342D02*
X0118446Y0092342D01*
X0118446Y0094594D01*
X0119197Y0095345D01*
X0118446Y0099198D02*
X0119197Y0099949D01*
X0119947Y0099949D01*
X0122950Y0096946D01*
X0122950Y0099949D01*
X0118446Y0090741D02*
X0118446Y0089239D01*
X0118446Y0089990D02*
X0122199Y0089990D01*
X0122950Y0089239D01*
X0122950Y0088489D01*
X0122199Y0087738D01*
M02*
