%
M48
M72
T01C0.0130
T02C0.0236
%
T01
X1700Y700
X2700Y700
X3700Y700
X4700Y700
X5700Y700
X6700Y700
X7700Y700
X8700Y700
X8700Y1700
X8700Y2700
X7700Y2700
X6700Y2700
X6700Y1700
X7700Y1700
X5700Y1700
X5700Y2700
X4700Y2700
X4700Y1700
X3700Y1700
X3700Y2700
X2700Y2700
X1700Y2700
X1700Y1700
X2700Y1700
X2700Y3700
X1700Y3700
X1700Y4700
X2700Y4700
X3700Y4700
X4700Y4700
X5700Y4700
X6700Y4700
X7700Y4700
X8700Y4700
X8700Y3700
X7700Y3700
X6700Y3700
X5700Y3700
X4700Y3700
X3700Y3700
X3700Y5700
X2700Y5700
X1700Y5700
X1700Y6700
X2700Y6700
X3700Y6700
X4700Y6700
X5700Y6700
X6700Y6700
X7700Y6700
X8700Y6700
X8700Y5700
X7700Y5700
X6700Y5700
X5700Y5700
X4700Y5700
X4700Y7700
X3700Y7700
X2700Y7700
X1700Y7700
X1700Y9200
X2700Y9200
X3700Y9200
X4700Y9200
X5700Y9200
X6700Y9200
X7700Y9200
X8700Y9200
X8700Y10200
X7700Y10200
X6700Y10200
X5700Y10200
X4700Y10200
X3700Y10200
X2700Y10200
X1700Y10200
X1700Y11200
X2700Y11200
X3700Y11200
X4700Y11200
X5700Y11200
X6700Y11200
X7700Y11200
X8700Y11200
X8700Y12200
X7700Y12200
X6700Y12200
X5700Y12200
X4700Y12200
X3700Y12200
X2700Y12200
X1700Y12200
X1700Y13200
X2700Y13200
X3700Y13200
X4700Y13200
X5700Y13200
X6700Y13200
X7700Y13200
X8700Y13200
X8700Y14200
X8700Y15200
X7700Y15200
X6700Y15200
X6700Y14200
X7700Y14200
X5700Y14200
X5700Y15200
X4700Y15200
X4700Y14200
X3700Y14200
X3700Y15200
X2700Y15200
X1700Y15200
X1700Y14200
X2700Y14200
X2700Y16200
X1700Y16200
X3700Y16200
X4700Y16200
X5700Y16200
X6700Y16200
X7700Y16200
X8700Y16200
X12200Y16200
X13200Y16200
X14200Y16200
X15200Y16200
X16200Y16200
X17200Y16200
X18200Y16200
X19200Y16200
X19200Y15200
X18200Y15200
X18200Y14200
X19200Y14200
X19200Y13200
X18200Y13200
X17200Y13200
X16200Y13200
X15200Y13200
X14200Y13200
X13200Y13200
X12200Y13200
X12200Y12200
X13200Y12200
X14200Y12200
X15200Y12200
X16200Y12200
X17200Y12200
X18200Y12200
X19200Y12200
X19200Y11200
X18200Y11200
X17200Y11200
X16200Y11200
X15200Y11200
X14200Y11200
X13200Y11200
X12200Y11200
X12200Y10200
X13200Y10200
X14200Y10200
X15200Y10200
X16200Y10200
X17200Y10200
X18200Y10200
X19200Y10200
X19200Y9200
X18200Y9200
X17200Y9200
X16200Y9200
X15200Y9200
X14200Y9200
X13200Y9200
X12200Y9200
X12200Y7700
X13200Y7700
X14200Y7700
X15200Y7700
X16200Y7700
X17200Y7700
X18200Y7700
X19200Y7700
X19200Y6700
X18200Y6700
X17200Y6700
X16200Y6700
X15200Y6700
X14200Y6700
X13200Y6700
X12200Y6700
X12200Y5700
X13200Y5700
X14200Y5700
X15200Y5700
X16200Y5700
X17200Y5700
X18200Y5700
X19200Y5700
X19200Y4700
X18200Y4700
X17200Y4700
X16200Y4700
X15200Y4700
X14200Y4700
X13200Y4700
X12200Y4700
X12200Y3700
X13200Y3700
X14200Y3700
X15200Y3700
X16200Y3700
X17200Y3700
X18200Y3700
X19200Y3700
X19200Y2700
X18200Y2700
X18200Y1700
X19200Y1700
X19200Y700
X18200Y700
X17200Y700
X16200Y700
X15200Y700
X14200Y700
X13200Y700
X12200Y700
X12200Y1700
X12200Y2700
X13200Y2700
X14200Y2700
X14200Y1700
X13200Y1700
X15200Y1700
X15200Y2700
X16200Y2700
X16200Y1700
X17200Y1700
X17200Y2700
X8700Y7700
X7700Y7700
X6700Y7700
X5700Y7700
X12200Y14200
X12200Y15200
X13200Y15200
X14200Y15200
X14200Y14200
X13200Y14200
X15200Y14200
X15200Y15200
X16200Y15200
X16200Y14200
X17200Y14200
X17200Y15200
T02
X700Y700
X700Y1700
X700Y2700
X700Y3700
X700Y4700
X700Y5700
X700Y6700
X700Y7700
X700Y9200
X700Y10200
X700Y11200
X700Y12200
X700Y13200
X700Y14200
X700Y15200
X700Y16200
X9700Y16200
X9700Y15200
X9700Y14200
X9700Y13200
X9700Y12200
X9700Y11200
X9700Y10200
X9700Y9200
X11200Y9200
X11200Y10200
X11200Y11200
X11200Y12200
X11200Y13200
X11200Y14200
X11200Y15200
X11200Y16200
X20200Y16200
X20200Y15200
X20200Y14200
X20200Y13200
X20200Y12200
X20200Y11200
X20200Y10200
X20200Y9200
X20200Y7700
X20200Y6700
X20200Y5700
X20200Y4700
X20200Y3700
X20200Y2700
X20200Y1700
X20200Y700
X11200Y700
X11200Y1700
X11200Y2700
X11200Y3700
X11200Y4700
X11200Y5700
X11200Y6700
X11200Y7700
X9700Y7700
X9700Y6700
X9700Y5700
X9700Y4700
X9700Y3700
X9700Y2700
X9700Y1700
X9700Y700
M30
