G75*
%MOIN*%
%OFA0B0*%
%FSLAX25Y25*%
%IPPOS*%
%LPD*%
%AMOC8*
5,1,8,0,0,1.08239X$1,22.5*
%
%ADD10C,0.05600*%
%ADD11C,0.03200*%
%ADD12C,0.01600*%
D10*
X0007000Y0007000D03*
X0007000Y0017000D03*
X0007000Y0027000D03*
X0007000Y0037000D03*
X0007000Y0047000D03*
X0007000Y0057000D03*
X0007000Y0067000D03*
X0007000Y0077000D03*
X0007000Y0092000D03*
X0007000Y0102000D03*
X0007000Y0112000D03*
X0007000Y0122000D03*
X0007000Y0132000D03*
X0007000Y0142000D03*
X0007000Y0152000D03*
X0007000Y0162000D03*
X0097000Y0162000D03*
X0097000Y0152000D03*
X0097000Y0142000D03*
X0097000Y0132000D03*
X0097000Y0122000D03*
X0097000Y0112000D03*
X0097000Y0102000D03*
X0097000Y0092000D03*
X0112000Y0092000D03*
X0112000Y0102000D03*
X0112000Y0112000D03*
X0112000Y0122000D03*
X0112000Y0132000D03*
X0112000Y0142000D03*
X0112000Y0152000D03*
X0112000Y0162000D03*
X0202000Y0162000D03*
X0202000Y0152000D03*
X0202000Y0142000D03*
X0202000Y0132000D03*
X0202000Y0122000D03*
X0202000Y0112000D03*
X0202000Y0102000D03*
X0202000Y0092000D03*
X0202000Y0077000D03*
X0202000Y0067000D03*
X0202000Y0057000D03*
X0202000Y0047000D03*
X0202000Y0037000D03*
X0202000Y0027000D03*
X0202000Y0017000D03*
X0202000Y0007000D03*
X0112000Y0007000D03*
X0112000Y0017000D03*
X0112000Y0027000D03*
X0112000Y0037000D03*
X0112000Y0047000D03*
X0112000Y0057000D03*
X0112000Y0067000D03*
X0112000Y0077000D03*
X0097000Y0077000D03*
X0097000Y0067000D03*
X0097000Y0057000D03*
X0097000Y0047000D03*
X0097000Y0037000D03*
X0097000Y0027000D03*
X0097000Y0017000D03*
X0097000Y0007000D03*
D11*
X0087000Y0007000D03*
X0077000Y0007000D03*
X0067000Y0007000D03*
X0057000Y0007000D03*
X0047000Y0007000D03*
X0037000Y0007000D03*
X0027000Y0007000D03*
X0017000Y0007000D03*
X0017000Y0017000D03*
X0027000Y0017000D03*
X0027000Y0027000D03*
X0017000Y0027000D03*
X0017000Y0037000D03*
X0027000Y0037000D03*
X0037000Y0037000D03*
X0047000Y0037000D03*
X0057000Y0037000D03*
X0067000Y0037000D03*
X0077000Y0037000D03*
X0087000Y0037000D03*
X0087000Y0027000D03*
X0087000Y0017000D03*
X0077000Y0017000D03*
X0067000Y0017000D03*
X0067000Y0027000D03*
X0077000Y0027000D03*
X0057000Y0027000D03*
X0057000Y0017000D03*
X0047000Y0017000D03*
X0047000Y0027000D03*
X0037000Y0027000D03*
X0037000Y0017000D03*
X0037000Y0047000D03*
X0027000Y0047000D03*
X0017000Y0047000D03*
X0017000Y0057000D03*
X0027000Y0057000D03*
X0037000Y0057000D03*
X0047000Y0057000D03*
X0057000Y0057000D03*
X0067000Y0057000D03*
X0077000Y0057000D03*
X0087000Y0057000D03*
X0087000Y0047000D03*
X0077000Y0047000D03*
X0067000Y0047000D03*
X0057000Y0047000D03*
X0047000Y0047000D03*
X0047000Y0067000D03*
X0037000Y0067000D03*
X0027000Y0067000D03*
X0017000Y0067000D03*
X0017000Y0077000D03*
X0027000Y0077000D03*
X0037000Y0077000D03*
X0047000Y0077000D03*
X0057000Y0077000D03*
X0067000Y0077000D03*
X0077000Y0077000D03*
X0087000Y0077000D03*
X0087000Y0067000D03*
X0077000Y0067000D03*
X0067000Y0067000D03*
X0057000Y0067000D03*
X0057000Y0092000D03*
X0047000Y0092000D03*
X0037000Y0092000D03*
X0027000Y0092000D03*
X0017000Y0092000D03*
X0017000Y0102000D03*
X0027000Y0102000D03*
X0037000Y0102000D03*
X0047000Y0102000D03*
X0057000Y0102000D03*
X0067000Y0102000D03*
X0077000Y0102000D03*
X0087000Y0102000D03*
X0087000Y0092000D03*
X0077000Y0092000D03*
X0067000Y0092000D03*
X0067000Y0112000D03*
X0077000Y0112000D03*
X0087000Y0112000D03*
X0087000Y0122000D03*
X0077000Y0122000D03*
X0067000Y0122000D03*
X0057000Y0122000D03*
X0047000Y0122000D03*
X0037000Y0122000D03*
X0027000Y0122000D03*
X0017000Y0122000D03*
X0017000Y0112000D03*
X0027000Y0112000D03*
X0037000Y0112000D03*
X0047000Y0112000D03*
X0057000Y0112000D03*
X0057000Y0132000D03*
X0047000Y0132000D03*
X0037000Y0132000D03*
X0027000Y0132000D03*
X0017000Y0132000D03*
X0017000Y0142000D03*
X0027000Y0142000D03*
X0027000Y0152000D03*
X0017000Y0152000D03*
X0017000Y0162000D03*
X0027000Y0162000D03*
X0037000Y0162000D03*
X0047000Y0162000D03*
X0057000Y0162000D03*
X0067000Y0162000D03*
X0077000Y0162000D03*
X0087000Y0162000D03*
X0087000Y0152000D03*
X0087000Y0142000D03*
X0077000Y0142000D03*
X0067000Y0142000D03*
X0067000Y0152000D03*
X0077000Y0152000D03*
X0057000Y0152000D03*
X0057000Y0142000D03*
X0047000Y0142000D03*
X0047000Y0152000D03*
X0037000Y0152000D03*
X0037000Y0142000D03*
X0067000Y0132000D03*
X0077000Y0132000D03*
X0087000Y0132000D03*
X0122000Y0132000D03*
X0132000Y0132000D03*
X0142000Y0132000D03*
X0152000Y0132000D03*
X0162000Y0132000D03*
X0172000Y0132000D03*
X0182000Y0132000D03*
X0192000Y0132000D03*
X0192000Y0122000D03*
X0182000Y0122000D03*
X0172000Y0122000D03*
X0162000Y0122000D03*
X0152000Y0122000D03*
X0142000Y0122000D03*
X0132000Y0122000D03*
X0122000Y0122000D03*
X0122000Y0112000D03*
X0132000Y0112000D03*
X0142000Y0112000D03*
X0152000Y0112000D03*
X0162000Y0112000D03*
X0172000Y0112000D03*
X0182000Y0112000D03*
X0192000Y0112000D03*
X0192000Y0102000D03*
X0182000Y0102000D03*
X0172000Y0102000D03*
X0162000Y0102000D03*
X0152000Y0102000D03*
X0142000Y0102000D03*
X0132000Y0102000D03*
X0122000Y0102000D03*
X0122000Y0092000D03*
X0132000Y0092000D03*
X0142000Y0092000D03*
X0152000Y0092000D03*
X0162000Y0092000D03*
X0172000Y0092000D03*
X0182000Y0092000D03*
X0192000Y0092000D03*
X0192000Y0077000D03*
X0182000Y0077000D03*
X0172000Y0077000D03*
X0162000Y0077000D03*
X0152000Y0077000D03*
X0142000Y0077000D03*
X0132000Y0077000D03*
X0122000Y0077000D03*
X0122000Y0067000D03*
X0132000Y0067000D03*
X0142000Y0067000D03*
X0152000Y0067000D03*
X0162000Y0067000D03*
X0172000Y0067000D03*
X0182000Y0067000D03*
X0192000Y0067000D03*
X0192000Y0057000D03*
X0182000Y0057000D03*
X0172000Y0057000D03*
X0162000Y0057000D03*
X0152000Y0057000D03*
X0142000Y0057000D03*
X0132000Y0057000D03*
X0122000Y0057000D03*
X0122000Y0047000D03*
X0132000Y0047000D03*
X0142000Y0047000D03*
X0152000Y0047000D03*
X0162000Y0047000D03*
X0172000Y0047000D03*
X0182000Y0047000D03*
X0192000Y0047000D03*
X0192000Y0037000D03*
X0182000Y0037000D03*
X0172000Y0037000D03*
X0162000Y0037000D03*
X0152000Y0037000D03*
X0142000Y0037000D03*
X0132000Y0037000D03*
X0122000Y0037000D03*
X0122000Y0027000D03*
X0122000Y0017000D03*
X0132000Y0017000D03*
X0142000Y0017000D03*
X0142000Y0027000D03*
X0132000Y0027000D03*
X0152000Y0027000D03*
X0152000Y0017000D03*
X0162000Y0017000D03*
X0162000Y0027000D03*
X0172000Y0027000D03*
X0172000Y0017000D03*
X0182000Y0017000D03*
X0192000Y0017000D03*
X0192000Y0027000D03*
X0182000Y0027000D03*
X0182000Y0007000D03*
X0192000Y0007000D03*
X0172000Y0007000D03*
X0162000Y0007000D03*
X0152000Y0007000D03*
X0142000Y0007000D03*
X0132000Y0007000D03*
X0122000Y0007000D03*
X0122000Y0142000D03*
X0122000Y0152000D03*
X0132000Y0152000D03*
X0142000Y0152000D03*
X0142000Y0142000D03*
X0132000Y0142000D03*
X0152000Y0142000D03*
X0152000Y0152000D03*
X0162000Y0152000D03*
X0162000Y0142000D03*
X0172000Y0142000D03*
X0172000Y0152000D03*
X0182000Y0152000D03*
X0192000Y0152000D03*
X0192000Y0142000D03*
X0182000Y0142000D03*
X0182000Y0162000D03*
X0192000Y0162000D03*
X0172000Y0162000D03*
X0162000Y0162000D03*
X0152000Y0162000D03*
X0142000Y0162000D03*
X0132000Y0162000D03*
X0122000Y0162000D03*
D12*
X0097000Y0152000D02*
X0092000Y0147000D01*
X0052000Y0147000D01*
X0047000Y0152000D01*
X0042000Y0157000D02*
X0052000Y0157000D01*
X0057000Y0152000D01*
X0062000Y0157000D01*
X0072000Y0157000D01*
X0077000Y0152000D01*
X0072000Y0137000D02*
X0062000Y0137000D01*
X0057000Y0132000D01*
X0052000Y0137000D01*
X0042000Y0137000D01*
X0037000Y0132000D01*
X0032000Y0137000D01*
X0022000Y0137000D01*
X0017000Y0132000D01*
X0007000Y0132000D01*
X0022000Y0117000D02*
X0032000Y0117000D01*
X0037000Y0112000D01*
X0042000Y0117000D01*
X0052000Y0117000D01*
X0057000Y0112000D01*
X0062000Y0117000D01*
X0072000Y0117000D01*
X0077000Y0112000D01*
X0082000Y0107000D02*
X0082000Y0097000D01*
X0087000Y0092000D01*
X0077000Y0092000D02*
X0072000Y0097000D01*
X0062000Y0097000D01*
X0057000Y0092000D01*
X0052000Y0097000D01*
X0042000Y0097000D01*
X0037000Y0092000D01*
X0032000Y0097000D01*
X0022000Y0097000D01*
X0017000Y0092000D01*
X0007000Y0092000D01*
X0007000Y0112000D02*
X0017000Y0112000D01*
X0022000Y0117000D01*
X0017000Y0152000D02*
X0007000Y0152000D01*
X0017000Y0152000D02*
X0022000Y0157000D01*
X0032000Y0157000D01*
X0037000Y0152000D01*
X0042000Y0157000D01*
X0072000Y0137000D02*
X0077000Y0132000D01*
X0087000Y0112000D02*
X0082000Y0107000D01*
X0082000Y0077000D02*
X0087000Y0077000D01*
X0082000Y0077000D02*
X0067000Y0062000D01*
X0067000Y0057000D01*
X0062000Y0057000D01*
X0047000Y0042000D01*
X0047000Y0037000D01*
X0042000Y0037000D01*
X0027000Y0022000D01*
X0027000Y0017000D01*
X0022000Y0017000D01*
X0017000Y0012000D01*
X0012000Y0012000D01*
X0007000Y0017000D01*
X0027000Y0037000D02*
X0027000Y0042000D01*
X0062000Y0077000D01*
X0067000Y0077000D01*
X0047000Y0077000D02*
X0042000Y0077000D01*
X0027000Y0062000D01*
X0027000Y0057000D01*
X0022000Y0057000D01*
X0017000Y0052000D01*
X0012000Y0052000D01*
X0007000Y0057000D01*
X0047000Y0022000D02*
X0082000Y0057000D01*
X0087000Y0057000D01*
X0087000Y0037000D02*
X0082000Y0037000D01*
X0067000Y0022000D01*
X0067000Y0017000D01*
X0047000Y0017000D02*
X0047000Y0022000D01*
X0112000Y0037000D02*
X0122000Y0037000D01*
X0127000Y0037000D01*
X0142000Y0022000D01*
X0157000Y0022000D01*
X0162000Y0017000D01*
X0162000Y0022000D02*
X0177000Y0022000D01*
X0182000Y0017000D01*
X0187000Y0022000D01*
X0187000Y0027000D01*
X0192000Y0032000D01*
X0197000Y0032000D01*
X0202000Y0037000D01*
X0202000Y0047000D02*
X0197000Y0052000D01*
X0187000Y0052000D01*
X0182000Y0057000D01*
X0182000Y0062000D01*
X0172000Y0072000D01*
X0147000Y0072000D01*
X0142000Y0077000D01*
X0127000Y0077000D02*
X0142000Y0062000D01*
X0157000Y0062000D01*
X0162000Y0057000D01*
X0167000Y0057000D01*
X0182000Y0042000D01*
X0182000Y0037000D01*
X0162000Y0022000D02*
X0147000Y0037000D01*
X0142000Y0037000D01*
X0142000Y0042000D01*
X0127000Y0057000D01*
X0122000Y0057000D01*
X0122000Y0077000D02*
X0112000Y0077000D01*
X0122000Y0077000D02*
X0127000Y0077000D01*
M02*
