G75*
%MOIN*%
%OFA0B0*%
%FSLAX25Y25*%
%IPPOS*%
%LPD*%
%AMOC8*
5,1,8,0,0,1.08239X$1,22.5*
%
%ADD10R,0.05000X0.01000*%
%ADD11R,0.01000X0.05000*%
%ADD12C,0.00100*%
%ADD13C,0.01000*%
D10*
X0022000Y0007000D03*
X0022000Y0017000D03*
X0022000Y0027000D03*
X0022000Y0037000D03*
X0022000Y0047000D03*
X0022000Y0057000D03*
X0022000Y0067000D03*
X0022000Y0077000D03*
X0022000Y0092000D03*
X0022000Y0102000D03*
X0022000Y0112000D03*
X0022000Y0122000D03*
X0022000Y0132000D03*
X0022000Y0142000D03*
X0022000Y0152000D03*
X0022000Y0162000D03*
X0042000Y0162000D03*
X0042000Y0152000D03*
X0042000Y0142000D03*
X0042000Y0132000D03*
X0042000Y0122000D03*
X0042000Y0112000D03*
X0042000Y0102000D03*
X0042000Y0092000D03*
X0042000Y0077000D03*
X0042000Y0067000D03*
X0042000Y0057000D03*
X0042000Y0047000D03*
X0042000Y0037000D03*
X0042000Y0027000D03*
X0042000Y0017000D03*
X0042000Y0007000D03*
X0062000Y0007000D03*
X0062000Y0017000D03*
X0062000Y0027000D03*
X0062000Y0037000D03*
X0062000Y0047000D03*
X0062000Y0057000D03*
X0062000Y0067000D03*
X0062000Y0077000D03*
X0062000Y0092000D03*
X0062000Y0102000D03*
X0062000Y0112000D03*
X0062000Y0122000D03*
X0062000Y0132000D03*
X0062000Y0142000D03*
X0062000Y0152000D03*
X0062000Y0162000D03*
X0082000Y0162000D03*
X0082000Y0152000D03*
X0082000Y0142000D03*
X0082000Y0132000D03*
X0082000Y0122000D03*
X0082000Y0112000D03*
X0082000Y0102000D03*
X0082000Y0092000D03*
X0082000Y0077000D03*
X0082000Y0067000D03*
X0082000Y0057000D03*
X0082000Y0047000D03*
X0082000Y0037000D03*
X0082000Y0027000D03*
X0082000Y0017000D03*
X0082000Y0007000D03*
X0127000Y0007000D03*
X0127000Y0017000D03*
X0127000Y0027000D03*
X0127000Y0037000D03*
X0127000Y0047000D03*
X0127000Y0057000D03*
X0127000Y0067000D03*
X0127000Y0077000D03*
X0127000Y0092000D03*
X0127000Y0102000D03*
X0127000Y0112000D03*
X0127000Y0122000D03*
X0127000Y0132000D03*
X0127000Y0142000D03*
X0127000Y0152000D03*
X0127000Y0162000D03*
X0147000Y0162000D03*
X0147000Y0152000D03*
X0147000Y0142000D03*
X0147000Y0132000D03*
X0147000Y0122000D03*
X0147000Y0112000D03*
X0147000Y0102000D03*
X0147000Y0092000D03*
X0147000Y0077000D03*
X0147000Y0067000D03*
X0147000Y0057000D03*
X0147000Y0047000D03*
X0147000Y0037000D03*
X0147000Y0027000D03*
X0147000Y0017000D03*
X0147000Y0007000D03*
X0167000Y0007000D03*
X0167000Y0017000D03*
X0167000Y0027000D03*
X0167000Y0037000D03*
X0167000Y0047000D03*
X0167000Y0057000D03*
X0167000Y0067000D03*
X0167000Y0077000D03*
X0167000Y0092000D03*
X0167000Y0102000D03*
X0167000Y0112000D03*
X0167000Y0122000D03*
X0167000Y0132000D03*
X0167000Y0142000D03*
X0167000Y0152000D03*
X0167000Y0162000D03*
X0187000Y0162000D03*
X0187000Y0152000D03*
X0187000Y0142000D03*
X0187000Y0132000D03*
X0187000Y0122000D03*
X0187000Y0112000D03*
X0187000Y0102000D03*
X0187000Y0092000D03*
X0187000Y0077000D03*
X0187000Y0067000D03*
X0187000Y0057000D03*
X0187000Y0047000D03*
X0187000Y0037000D03*
X0187000Y0027000D03*
X0187000Y0017000D03*
X0187000Y0007000D03*
D11*
X0017000Y0012000D03*
X0027000Y0012000D03*
X0037000Y0012000D03*
X0047000Y0012000D03*
X0057000Y0012000D03*
X0067000Y0012000D03*
X0077000Y0012000D03*
X0087000Y0012000D03*
X0087000Y0032000D03*
X0077000Y0032000D03*
X0067000Y0032000D03*
X0057000Y0032000D03*
X0047000Y0032000D03*
X0037000Y0032000D03*
X0027000Y0032000D03*
X0017000Y0032000D03*
X0017000Y0052000D03*
X0027000Y0052000D03*
X0037000Y0052000D03*
X0047000Y0052000D03*
X0057000Y0052000D03*
X0067000Y0052000D03*
X0077000Y0052000D03*
X0087000Y0052000D03*
X0087000Y0072000D03*
X0077000Y0072000D03*
X0067000Y0072000D03*
X0057000Y0072000D03*
X0047000Y0072000D03*
X0037000Y0072000D03*
X0027000Y0072000D03*
X0017000Y0072000D03*
X0017000Y0097000D03*
X0027000Y0097000D03*
X0037000Y0097000D03*
X0047000Y0097000D03*
X0057000Y0097000D03*
X0067000Y0097000D03*
X0077000Y0097000D03*
X0087000Y0097000D03*
X0087000Y0117000D03*
X0077000Y0117000D03*
X0067000Y0117000D03*
X0057000Y0117000D03*
X0047000Y0117000D03*
X0037000Y0117000D03*
X0027000Y0117000D03*
X0017000Y0117000D03*
X0017000Y0137000D03*
X0027000Y0137000D03*
X0037000Y0137000D03*
X0047000Y0137000D03*
X0057000Y0137000D03*
X0067000Y0137000D03*
X0077000Y0137000D03*
X0087000Y0137000D03*
X0087000Y0157000D03*
X0077000Y0157000D03*
X0067000Y0157000D03*
X0057000Y0157000D03*
X0047000Y0157000D03*
X0037000Y0157000D03*
X0027000Y0157000D03*
X0017000Y0157000D03*
X0122000Y0157000D03*
X0132000Y0157000D03*
X0142000Y0157000D03*
X0152000Y0157000D03*
X0162000Y0157000D03*
X0172000Y0157000D03*
X0182000Y0157000D03*
X0192000Y0157000D03*
X0192000Y0137000D03*
X0182000Y0137000D03*
X0172000Y0137000D03*
X0162000Y0137000D03*
X0152000Y0137000D03*
X0142000Y0137000D03*
X0132000Y0137000D03*
X0122000Y0137000D03*
X0122000Y0117000D03*
X0132000Y0117000D03*
X0142000Y0117000D03*
X0152000Y0117000D03*
X0162000Y0117000D03*
X0172000Y0117000D03*
X0182000Y0117000D03*
X0192000Y0117000D03*
X0192000Y0097000D03*
X0182000Y0097000D03*
X0172000Y0097000D03*
X0162000Y0097000D03*
X0152000Y0097000D03*
X0142000Y0097000D03*
X0132000Y0097000D03*
X0122000Y0097000D03*
X0122000Y0072000D03*
X0132000Y0072000D03*
X0142000Y0072000D03*
X0152000Y0072000D03*
X0162000Y0072000D03*
X0172000Y0072000D03*
X0182000Y0072000D03*
X0192000Y0072000D03*
X0192000Y0052000D03*
X0182000Y0052000D03*
X0172000Y0052000D03*
X0162000Y0052000D03*
X0152000Y0052000D03*
X0142000Y0052000D03*
X0132000Y0052000D03*
X0122000Y0052000D03*
X0122000Y0032000D03*
X0132000Y0032000D03*
X0142000Y0032000D03*
X0152000Y0032000D03*
X0162000Y0032000D03*
X0172000Y0032000D03*
X0182000Y0032000D03*
X0192000Y0032000D03*
X0192000Y0012000D03*
X0182000Y0012000D03*
X0172000Y0012000D03*
X0162000Y0012000D03*
X0152000Y0012000D03*
X0142000Y0012000D03*
X0132000Y0012000D03*
X0122000Y0012000D03*
D12*
X0124476Y0011750D02*
X0124476Y0011500D01*
X0124726Y0011250D01*
X0125227Y0011250D01*
X0125477Y0011500D01*
X0125949Y0011250D02*
X0126950Y0011250D01*
X0126450Y0011250D02*
X0126450Y0012751D01*
X0126950Y0012251D01*
X0127422Y0012501D02*
X0127673Y0012751D01*
X0128173Y0012751D01*
X0128423Y0012501D01*
X0128423Y0012251D01*
X0128173Y0012001D01*
X0127673Y0012001D01*
X0127422Y0011750D01*
X0127422Y0011500D01*
X0127673Y0011250D01*
X0128173Y0011250D01*
X0128423Y0011500D01*
X0128896Y0011500D02*
X0128896Y0012751D01*
X0129897Y0012751D02*
X0129897Y0011500D01*
X0129646Y0011250D01*
X0129146Y0011250D01*
X0128896Y0011500D01*
X0127923Y0011000D02*
X0127923Y0013001D01*
X0125477Y0012501D02*
X0125227Y0012751D01*
X0124726Y0012751D01*
X0124476Y0012501D01*
X0124476Y0012251D01*
X0124726Y0012001D01*
X0124476Y0011750D01*
X0124726Y0012001D02*
X0124976Y0012001D01*
X0125187Y0013750D02*
X0125187Y0015251D01*
X0124436Y0015251D01*
X0124186Y0015001D01*
X0124186Y0014501D01*
X0124436Y0014250D01*
X0125187Y0014250D01*
X0124686Y0014250D02*
X0124186Y0013750D01*
X0124436Y0009751D02*
X0124936Y0009751D01*
X0125187Y0009501D01*
X0125187Y0008500D01*
X0124936Y0008250D01*
X0124436Y0008250D01*
X0124186Y0008500D01*
X0124186Y0009001D01*
X0124686Y0009001D01*
X0124186Y0009501D02*
X0124436Y0009751D01*
X0129186Y0009501D02*
X0129186Y0009251D01*
X0129436Y0009001D01*
X0130187Y0009001D01*
X0130187Y0009751D02*
X0129436Y0009751D01*
X0129186Y0009501D01*
X0129436Y0009001D02*
X0129186Y0008750D01*
X0129186Y0008500D01*
X0129436Y0008250D01*
X0130187Y0008250D01*
X0130187Y0009751D01*
X0144186Y0009501D02*
X0144436Y0009751D01*
X0144936Y0009751D01*
X0145187Y0009501D01*
X0145187Y0008500D01*
X0144936Y0008250D01*
X0144436Y0008250D01*
X0144186Y0008500D01*
X0144186Y0009001D01*
X0144686Y0009001D01*
X0144726Y0011250D02*
X0144726Y0012751D01*
X0145477Y0012001D01*
X0144476Y0012001D01*
X0145949Y0011250D02*
X0146950Y0011250D01*
X0146450Y0011250D02*
X0146450Y0012751D01*
X0146950Y0012251D01*
X0147422Y0012501D02*
X0147673Y0012751D01*
X0148173Y0012751D01*
X0148423Y0012501D01*
X0148423Y0012251D01*
X0148173Y0012001D01*
X0147673Y0012001D01*
X0147422Y0011750D01*
X0147422Y0011500D01*
X0147673Y0011250D01*
X0148173Y0011250D01*
X0148423Y0011500D01*
X0148896Y0011500D02*
X0148896Y0012751D01*
X0149897Y0012751D02*
X0149897Y0011500D01*
X0149646Y0011250D01*
X0149146Y0011250D01*
X0148896Y0011500D01*
X0147923Y0011000D02*
X0147923Y0013001D01*
X0145187Y0013750D02*
X0145187Y0015251D01*
X0144436Y0015251D01*
X0144186Y0015001D01*
X0144186Y0014501D01*
X0144436Y0014250D01*
X0145187Y0014250D01*
X0144686Y0014250D02*
X0144186Y0013750D01*
X0149186Y0009501D02*
X0149186Y0009251D01*
X0149436Y0009001D01*
X0150187Y0009001D01*
X0150187Y0009751D02*
X0149436Y0009751D01*
X0149186Y0009501D01*
X0149436Y0009001D02*
X0149186Y0008750D01*
X0149186Y0008500D01*
X0149436Y0008250D01*
X0150187Y0008250D01*
X0150187Y0009751D01*
X0164186Y0009501D02*
X0164436Y0009751D01*
X0164936Y0009751D01*
X0165187Y0009501D01*
X0165187Y0008500D01*
X0164936Y0008250D01*
X0164436Y0008250D01*
X0164186Y0008500D01*
X0164186Y0009001D01*
X0164686Y0009001D01*
X0164726Y0011250D02*
X0165227Y0011250D01*
X0165477Y0011500D01*
X0165477Y0012001D02*
X0164976Y0012251D01*
X0164726Y0012251D01*
X0164476Y0012001D01*
X0164476Y0011500D01*
X0164726Y0011250D01*
X0165477Y0012001D02*
X0165477Y0012751D01*
X0164476Y0012751D01*
X0164186Y0013750D02*
X0164686Y0014250D01*
X0164436Y0014250D02*
X0165187Y0014250D01*
X0165187Y0013750D02*
X0165187Y0015251D01*
X0164436Y0015251D01*
X0164186Y0015001D01*
X0164186Y0014501D01*
X0164436Y0014250D01*
X0166450Y0012751D02*
X0166450Y0011250D01*
X0166950Y0011250D02*
X0165949Y0011250D01*
X0166950Y0012251D02*
X0166450Y0012751D01*
X0167422Y0012501D02*
X0167673Y0012751D01*
X0168173Y0012751D01*
X0168423Y0012501D01*
X0168423Y0012251D01*
X0168173Y0012001D01*
X0167673Y0012001D01*
X0167422Y0011750D01*
X0167422Y0011500D01*
X0167673Y0011250D01*
X0168173Y0011250D01*
X0168423Y0011500D01*
X0168896Y0011500D02*
X0168896Y0012751D01*
X0169897Y0012751D02*
X0169897Y0011500D01*
X0169646Y0011250D01*
X0169146Y0011250D01*
X0168896Y0011500D01*
X0167923Y0011000D02*
X0167923Y0013001D01*
X0169436Y0009751D02*
X0169186Y0009501D01*
X0169186Y0009251D01*
X0169436Y0009001D01*
X0170187Y0009001D01*
X0170187Y0009751D02*
X0169436Y0009751D01*
X0169436Y0009001D02*
X0169186Y0008750D01*
X0169186Y0008500D01*
X0169436Y0008250D01*
X0170187Y0008250D01*
X0170187Y0009751D01*
X0184186Y0009501D02*
X0184436Y0009751D01*
X0184936Y0009751D01*
X0185187Y0009501D01*
X0185187Y0008500D01*
X0184936Y0008250D01*
X0184436Y0008250D01*
X0184186Y0008500D01*
X0184186Y0009001D01*
X0184686Y0009001D01*
X0184726Y0011250D02*
X0184476Y0011500D01*
X0184476Y0011750D01*
X0184726Y0012001D01*
X0185477Y0012001D01*
X0185477Y0011500D01*
X0185227Y0011250D01*
X0184726Y0011250D01*
X0185477Y0012001D02*
X0184976Y0012501D01*
X0184476Y0012751D01*
X0184186Y0013750D02*
X0184686Y0014250D01*
X0184436Y0014250D02*
X0185187Y0014250D01*
X0185187Y0013750D02*
X0185187Y0015251D01*
X0184436Y0015251D01*
X0184186Y0015001D01*
X0184186Y0014501D01*
X0184436Y0014250D01*
X0186450Y0012751D02*
X0186450Y0011250D01*
X0186950Y0011250D02*
X0185949Y0011250D01*
X0186950Y0012251D02*
X0186450Y0012751D01*
X0187422Y0012501D02*
X0187673Y0012751D01*
X0188173Y0012751D01*
X0188423Y0012501D01*
X0188423Y0012251D01*
X0188173Y0012001D01*
X0187673Y0012001D01*
X0187422Y0011750D01*
X0187422Y0011500D01*
X0187673Y0011250D01*
X0188173Y0011250D01*
X0188423Y0011500D01*
X0188896Y0011500D02*
X0188896Y0012751D01*
X0189897Y0012751D02*
X0189897Y0011500D01*
X0189646Y0011250D01*
X0189146Y0011250D01*
X0188896Y0011500D01*
X0187923Y0011000D02*
X0187923Y0013001D01*
X0189436Y0009751D02*
X0189186Y0009501D01*
X0189186Y0009251D01*
X0189436Y0009001D01*
X0190187Y0009001D01*
X0190187Y0009751D02*
X0189436Y0009751D01*
X0189436Y0009001D02*
X0189186Y0008750D01*
X0189186Y0008500D01*
X0189436Y0008250D01*
X0190187Y0008250D01*
X0190187Y0009751D01*
X0190187Y0028250D02*
X0189436Y0028250D01*
X0189186Y0028500D01*
X0189186Y0028750D01*
X0189436Y0029001D01*
X0190187Y0029001D01*
X0190187Y0029751D02*
X0189436Y0029751D01*
X0189186Y0029501D01*
X0189186Y0029251D01*
X0189436Y0029001D01*
X0190187Y0029751D02*
X0190187Y0028250D01*
X0189646Y0031250D02*
X0189146Y0031250D01*
X0188896Y0031500D01*
X0188896Y0032751D01*
X0188423Y0032501D02*
X0188173Y0032751D01*
X0187673Y0032751D01*
X0187422Y0032501D01*
X0186950Y0032251D02*
X0186450Y0032751D01*
X0186450Y0031250D01*
X0186950Y0031250D02*
X0185949Y0031250D01*
X0185477Y0031250D02*
X0184476Y0032251D01*
X0184476Y0032501D01*
X0184726Y0032751D01*
X0185227Y0032751D01*
X0185477Y0032501D01*
X0185477Y0031250D02*
X0184476Y0031250D01*
X0184436Y0029751D02*
X0184936Y0029751D01*
X0185187Y0029501D01*
X0185187Y0028500D01*
X0184936Y0028250D01*
X0184436Y0028250D01*
X0184186Y0028500D01*
X0184186Y0029001D01*
X0184686Y0029001D01*
X0184186Y0029501D02*
X0184436Y0029751D01*
X0187422Y0031500D02*
X0187422Y0031750D01*
X0187673Y0032001D01*
X0188173Y0032001D01*
X0188423Y0032251D01*
X0188423Y0032501D01*
X0187923Y0033001D02*
X0187923Y0031000D01*
X0188173Y0031250D02*
X0187673Y0031250D01*
X0187422Y0031500D01*
X0188173Y0031250D02*
X0188423Y0031500D01*
X0189646Y0031250D02*
X0189897Y0031500D01*
X0189897Y0032751D01*
X0185187Y0033750D02*
X0185187Y0035251D01*
X0184436Y0035251D01*
X0184186Y0035001D01*
X0184186Y0034501D01*
X0184436Y0034250D01*
X0185187Y0034250D01*
X0184686Y0034250D02*
X0184186Y0033750D01*
X0169897Y0032751D02*
X0169897Y0031500D01*
X0169646Y0031250D01*
X0169146Y0031250D01*
X0168896Y0031500D01*
X0168896Y0032751D01*
X0168423Y0032501D02*
X0168173Y0032751D01*
X0167673Y0032751D01*
X0167422Y0032501D01*
X0166950Y0032251D02*
X0166450Y0032751D01*
X0166450Y0031250D01*
X0166950Y0031250D02*
X0165949Y0031250D01*
X0165477Y0031250D02*
X0164476Y0031250D01*
X0164976Y0031250D02*
X0164976Y0032751D01*
X0165477Y0032251D01*
X0165187Y0033750D02*
X0165187Y0035251D01*
X0164436Y0035251D01*
X0164186Y0035001D01*
X0164186Y0034501D01*
X0164436Y0034250D01*
X0165187Y0034250D01*
X0164686Y0034250D02*
X0164186Y0033750D01*
X0167422Y0031750D02*
X0167673Y0032001D01*
X0168173Y0032001D01*
X0168423Y0032251D01*
X0168423Y0032501D01*
X0167923Y0033001D02*
X0167923Y0031000D01*
X0168173Y0031250D02*
X0167673Y0031250D01*
X0167422Y0031500D01*
X0167422Y0031750D01*
X0168173Y0031250D02*
X0168423Y0031500D01*
X0169436Y0029751D02*
X0169186Y0029501D01*
X0169186Y0029251D01*
X0169436Y0029001D01*
X0170187Y0029001D01*
X0170187Y0029751D02*
X0169436Y0029751D01*
X0169436Y0029001D02*
X0169186Y0028750D01*
X0169186Y0028500D01*
X0169436Y0028250D01*
X0170187Y0028250D01*
X0170187Y0029751D01*
X0165187Y0029501D02*
X0165187Y0028500D01*
X0164936Y0028250D01*
X0164436Y0028250D01*
X0164186Y0028500D01*
X0164186Y0029001D01*
X0164686Y0029001D01*
X0164186Y0029501D02*
X0164436Y0029751D01*
X0164936Y0029751D01*
X0165187Y0029501D01*
X0150187Y0029751D02*
X0150187Y0028250D01*
X0149436Y0028250D01*
X0149186Y0028500D01*
X0149186Y0028750D01*
X0149436Y0029001D01*
X0150187Y0029001D01*
X0150187Y0029751D02*
X0149436Y0029751D01*
X0149186Y0029501D01*
X0149186Y0029251D01*
X0149436Y0029001D01*
X0149646Y0031250D02*
X0149146Y0031250D01*
X0148896Y0031500D01*
X0148896Y0032751D01*
X0148423Y0032501D02*
X0148173Y0032751D01*
X0147673Y0032751D01*
X0147422Y0032501D01*
X0146950Y0032251D02*
X0146450Y0032751D01*
X0146450Y0031250D01*
X0146950Y0031250D02*
X0145949Y0031250D01*
X0145477Y0031500D02*
X0144476Y0032501D01*
X0144476Y0031500D01*
X0144726Y0031250D01*
X0145227Y0031250D01*
X0145477Y0031500D01*
X0145477Y0032501D01*
X0145227Y0032751D01*
X0144726Y0032751D01*
X0144476Y0032501D01*
X0144186Y0033750D02*
X0144686Y0034250D01*
X0144436Y0034250D02*
X0145187Y0034250D01*
X0145187Y0033750D02*
X0145187Y0035251D01*
X0144436Y0035251D01*
X0144186Y0035001D01*
X0144186Y0034501D01*
X0144436Y0034250D01*
X0147923Y0033001D02*
X0147923Y0031000D01*
X0148173Y0031250D02*
X0147673Y0031250D01*
X0147422Y0031500D01*
X0147422Y0031750D01*
X0147673Y0032001D01*
X0148173Y0032001D01*
X0148423Y0032251D01*
X0148423Y0032501D01*
X0148423Y0031500D02*
X0148173Y0031250D01*
X0149646Y0031250D02*
X0149897Y0031500D01*
X0149897Y0032751D01*
X0145187Y0029501D02*
X0145187Y0028500D01*
X0144936Y0028250D01*
X0144436Y0028250D01*
X0144186Y0028500D01*
X0144186Y0029001D01*
X0144686Y0029001D01*
X0144186Y0029501D02*
X0144436Y0029751D01*
X0144936Y0029751D01*
X0145187Y0029501D01*
X0130187Y0029751D02*
X0130187Y0028250D01*
X0129436Y0028250D01*
X0129186Y0028500D01*
X0129186Y0028750D01*
X0129436Y0029001D01*
X0130187Y0029001D01*
X0130187Y0029751D02*
X0129436Y0029751D01*
X0129186Y0029501D01*
X0129186Y0029251D01*
X0129436Y0029001D01*
X0128910Y0031250D02*
X0128409Y0031250D01*
X0128159Y0031500D01*
X0128159Y0032751D01*
X0127687Y0032501D02*
X0127436Y0032751D01*
X0126936Y0032751D01*
X0126686Y0032501D01*
X0126213Y0032501D02*
X0126213Y0032251D01*
X0125963Y0032001D01*
X0125213Y0032001D01*
X0125213Y0032501D02*
X0125213Y0031500D01*
X0125463Y0031250D01*
X0125963Y0031250D01*
X0126213Y0031500D01*
X0126686Y0031500D02*
X0126686Y0031750D01*
X0126936Y0032001D01*
X0127436Y0032001D01*
X0127687Y0032251D01*
X0127687Y0032501D01*
X0127186Y0033001D02*
X0127186Y0031000D01*
X0126936Y0031250D02*
X0126686Y0031500D01*
X0126936Y0031250D02*
X0127436Y0031250D01*
X0127687Y0031500D01*
X0128910Y0031250D02*
X0129160Y0031500D01*
X0129160Y0032751D01*
X0126213Y0032501D02*
X0125963Y0032751D01*
X0125463Y0032751D01*
X0125213Y0032501D01*
X0125187Y0033750D02*
X0125187Y0035251D01*
X0124436Y0035251D01*
X0124186Y0035001D01*
X0124186Y0034501D01*
X0124436Y0034250D01*
X0125187Y0034250D01*
X0124686Y0034250D02*
X0124186Y0033750D01*
X0124436Y0029751D02*
X0124936Y0029751D01*
X0125187Y0029501D01*
X0125187Y0028500D01*
X0124936Y0028250D01*
X0124436Y0028250D01*
X0124186Y0028500D01*
X0124186Y0029001D01*
X0124686Y0029001D01*
X0124186Y0029501D02*
X0124436Y0029751D01*
X0124436Y0048250D02*
X0124186Y0048500D01*
X0124186Y0049001D01*
X0124686Y0049001D01*
X0124186Y0049501D02*
X0124436Y0049751D01*
X0124936Y0049751D01*
X0125187Y0049501D01*
X0125187Y0048500D01*
X0124936Y0048250D01*
X0124436Y0048250D01*
X0125463Y0051250D02*
X0125213Y0051500D01*
X0125213Y0052001D01*
X0125463Y0052251D01*
X0125713Y0052251D01*
X0126213Y0052001D01*
X0126213Y0052751D01*
X0125213Y0052751D01*
X0125187Y0053750D02*
X0125187Y0055251D01*
X0124436Y0055251D01*
X0124186Y0055001D01*
X0124186Y0054501D01*
X0124436Y0054250D01*
X0125187Y0054250D01*
X0124686Y0054250D02*
X0124186Y0053750D01*
X0126686Y0052501D02*
X0126936Y0052751D01*
X0127436Y0052751D01*
X0127687Y0052501D01*
X0127687Y0052251D01*
X0127436Y0052001D01*
X0126936Y0052001D01*
X0126686Y0051750D01*
X0126686Y0051500D01*
X0126936Y0051250D01*
X0127436Y0051250D01*
X0127687Y0051500D01*
X0128159Y0051500D02*
X0128159Y0052751D01*
X0129160Y0052751D02*
X0129160Y0051500D01*
X0128910Y0051250D01*
X0128409Y0051250D01*
X0128159Y0051500D01*
X0127186Y0051000D02*
X0127186Y0053001D01*
X0126213Y0051500D02*
X0125963Y0051250D01*
X0125463Y0051250D01*
X0129186Y0049501D02*
X0129186Y0049251D01*
X0129436Y0049001D01*
X0130187Y0049001D01*
X0130187Y0049751D02*
X0130187Y0048250D01*
X0129436Y0048250D01*
X0129186Y0048500D01*
X0129186Y0048750D01*
X0129436Y0049001D01*
X0129186Y0049501D02*
X0129436Y0049751D01*
X0130187Y0049751D01*
X0144186Y0049501D02*
X0144436Y0049751D01*
X0144936Y0049751D01*
X0145187Y0049501D01*
X0145187Y0048500D01*
X0144936Y0048250D01*
X0144436Y0048250D01*
X0144186Y0048500D01*
X0144186Y0049001D01*
X0144686Y0049001D01*
X0145463Y0051250D02*
X0145213Y0051500D01*
X0145213Y0051750D01*
X0145463Y0052001D01*
X0146213Y0052001D01*
X0146213Y0051500D01*
X0145963Y0051250D01*
X0145463Y0051250D01*
X0146213Y0052001D02*
X0145713Y0052501D01*
X0145213Y0052751D01*
X0145187Y0053750D02*
X0145187Y0055251D01*
X0144436Y0055251D01*
X0144186Y0055001D01*
X0144186Y0054501D01*
X0144436Y0054250D01*
X0145187Y0054250D01*
X0144686Y0054250D02*
X0144186Y0053750D01*
X0146686Y0052501D02*
X0146936Y0052751D01*
X0147436Y0052751D01*
X0147687Y0052501D01*
X0147687Y0052251D01*
X0147436Y0052001D01*
X0146936Y0052001D01*
X0146686Y0051750D01*
X0146686Y0051500D01*
X0146936Y0051250D01*
X0147436Y0051250D01*
X0147687Y0051500D01*
X0148159Y0051500D02*
X0148159Y0052751D01*
X0149160Y0052751D02*
X0149160Y0051500D01*
X0148910Y0051250D01*
X0148409Y0051250D01*
X0148159Y0051500D01*
X0147186Y0051000D02*
X0147186Y0053001D01*
X0149436Y0049751D02*
X0149186Y0049501D01*
X0149186Y0049251D01*
X0149436Y0049001D01*
X0150187Y0049001D01*
X0150187Y0049751D02*
X0150187Y0048250D01*
X0149436Y0048250D01*
X0149186Y0048500D01*
X0149186Y0048750D01*
X0149436Y0049001D01*
X0149436Y0049751D02*
X0150187Y0049751D01*
X0164186Y0049501D02*
X0164436Y0049751D01*
X0164936Y0049751D01*
X0165187Y0049501D01*
X0165187Y0048500D01*
X0164936Y0048250D01*
X0164436Y0048250D01*
X0164186Y0048500D01*
X0164186Y0049001D01*
X0164686Y0049001D01*
X0166213Y0051250D02*
X0166213Y0051500D01*
X0165213Y0052501D01*
X0165213Y0052751D01*
X0166213Y0052751D01*
X0166686Y0052501D02*
X0166936Y0052751D01*
X0167436Y0052751D01*
X0167687Y0052501D01*
X0167687Y0052251D01*
X0167436Y0052001D01*
X0166936Y0052001D01*
X0166686Y0051750D01*
X0166686Y0051500D01*
X0166936Y0051250D01*
X0167436Y0051250D01*
X0167687Y0051500D01*
X0168159Y0051500D02*
X0168159Y0052751D01*
X0169160Y0052751D02*
X0169160Y0051500D01*
X0168910Y0051250D01*
X0168409Y0051250D01*
X0168159Y0051500D01*
X0167186Y0051000D02*
X0167186Y0053001D01*
X0165187Y0053750D02*
X0165187Y0055251D01*
X0164436Y0055251D01*
X0164186Y0055001D01*
X0164186Y0054501D01*
X0164436Y0054250D01*
X0165187Y0054250D01*
X0164686Y0054250D02*
X0164186Y0053750D01*
X0169186Y0049501D02*
X0169186Y0049251D01*
X0169436Y0049001D01*
X0170187Y0049001D01*
X0170187Y0049751D02*
X0170187Y0048250D01*
X0169436Y0048250D01*
X0169186Y0048500D01*
X0169186Y0048750D01*
X0169436Y0049001D01*
X0169186Y0049501D02*
X0169436Y0049751D01*
X0170187Y0049751D01*
X0184186Y0049501D02*
X0184436Y0049751D01*
X0184936Y0049751D01*
X0185187Y0049501D01*
X0185187Y0048500D01*
X0184936Y0048250D01*
X0184436Y0048250D01*
X0184186Y0048500D01*
X0184186Y0049001D01*
X0184686Y0049001D01*
X0185463Y0051250D02*
X0185963Y0051250D01*
X0186213Y0051500D01*
X0186213Y0051750D01*
X0185963Y0052001D01*
X0185463Y0052001D01*
X0185213Y0051750D01*
X0185213Y0051500D01*
X0185463Y0051250D01*
X0185463Y0052001D02*
X0185213Y0052251D01*
X0185213Y0052501D01*
X0185463Y0052751D01*
X0185963Y0052751D01*
X0186213Y0052501D01*
X0186213Y0052251D01*
X0185963Y0052001D01*
X0186686Y0051750D02*
X0186936Y0052001D01*
X0187436Y0052001D01*
X0187687Y0052251D01*
X0187687Y0052501D01*
X0187436Y0052751D01*
X0186936Y0052751D01*
X0186686Y0052501D01*
X0187186Y0053001D02*
X0187186Y0051000D01*
X0186936Y0051250D02*
X0186686Y0051500D01*
X0186686Y0051750D01*
X0186936Y0051250D02*
X0187436Y0051250D01*
X0187687Y0051500D01*
X0188159Y0051500D02*
X0188159Y0052751D01*
X0189160Y0052751D02*
X0189160Y0051500D01*
X0188910Y0051250D01*
X0188409Y0051250D01*
X0188159Y0051500D01*
X0189436Y0049751D02*
X0189186Y0049501D01*
X0189186Y0049251D01*
X0189436Y0049001D01*
X0190187Y0049001D01*
X0190187Y0049751D02*
X0190187Y0048250D01*
X0189436Y0048250D01*
X0189186Y0048500D01*
X0189186Y0048750D01*
X0189436Y0049001D01*
X0189436Y0049751D02*
X0190187Y0049751D01*
X0185187Y0053750D02*
X0185187Y0055251D01*
X0184436Y0055251D01*
X0184186Y0055001D01*
X0184186Y0054501D01*
X0184436Y0054250D01*
X0185187Y0054250D01*
X0184686Y0054250D02*
X0184186Y0053750D01*
X0184436Y0068250D02*
X0184186Y0068500D01*
X0184186Y0069001D01*
X0184686Y0069001D01*
X0184186Y0069501D02*
X0184436Y0069751D01*
X0184936Y0069751D01*
X0185187Y0069501D01*
X0185187Y0068500D01*
X0184936Y0068250D01*
X0184436Y0068250D01*
X0185463Y0071250D02*
X0185463Y0072751D01*
X0186213Y0072001D01*
X0185213Y0072001D01*
X0186686Y0071750D02*
X0186936Y0072001D01*
X0187436Y0072001D01*
X0187687Y0072251D01*
X0187687Y0072501D01*
X0187436Y0072751D01*
X0186936Y0072751D01*
X0186686Y0072501D01*
X0187186Y0073001D02*
X0187186Y0071000D01*
X0186936Y0071250D02*
X0186686Y0071500D01*
X0186686Y0071750D01*
X0186936Y0071250D02*
X0187436Y0071250D01*
X0187687Y0071500D01*
X0188159Y0071500D02*
X0188159Y0072751D01*
X0189160Y0072751D02*
X0189160Y0071500D01*
X0188910Y0071250D01*
X0188409Y0071250D01*
X0188159Y0071500D01*
X0189436Y0069751D02*
X0189186Y0069501D01*
X0189186Y0069251D01*
X0189436Y0069001D01*
X0190187Y0069001D01*
X0190187Y0069751D02*
X0190187Y0068250D01*
X0189436Y0068250D01*
X0189186Y0068500D01*
X0189186Y0068750D01*
X0189436Y0069001D01*
X0189436Y0069751D02*
X0190187Y0069751D01*
X0185187Y0073750D02*
X0185187Y0075251D01*
X0184436Y0075251D01*
X0184186Y0075001D01*
X0184186Y0074501D01*
X0184436Y0074250D01*
X0185187Y0074250D01*
X0184686Y0074250D02*
X0184186Y0073750D01*
X0170187Y0069751D02*
X0170187Y0068250D01*
X0169436Y0068250D01*
X0169186Y0068500D01*
X0169186Y0068750D01*
X0169436Y0069001D01*
X0170187Y0069001D01*
X0170187Y0069751D02*
X0169436Y0069751D01*
X0169186Y0069501D01*
X0169186Y0069251D01*
X0169436Y0069001D01*
X0168910Y0071250D02*
X0168409Y0071250D01*
X0168159Y0071500D01*
X0168159Y0072751D01*
X0167687Y0072501D02*
X0167436Y0072751D01*
X0166936Y0072751D01*
X0166686Y0072501D01*
X0166213Y0072501D02*
X0165963Y0072751D01*
X0165463Y0072751D01*
X0165213Y0072501D01*
X0165213Y0072251D01*
X0165463Y0072001D01*
X0165213Y0071750D01*
X0165213Y0071500D01*
X0165463Y0071250D01*
X0165963Y0071250D01*
X0166213Y0071500D01*
X0166686Y0071500D02*
X0166686Y0071750D01*
X0166936Y0072001D01*
X0167436Y0072001D01*
X0167687Y0072251D01*
X0167687Y0072501D01*
X0167186Y0073001D02*
X0167186Y0071000D01*
X0166936Y0071250D02*
X0166686Y0071500D01*
X0166936Y0071250D02*
X0167436Y0071250D01*
X0167687Y0071500D01*
X0168910Y0071250D02*
X0169160Y0071500D01*
X0169160Y0072751D01*
X0165713Y0072001D02*
X0165463Y0072001D01*
X0165187Y0073750D02*
X0165187Y0075251D01*
X0164436Y0075251D01*
X0164186Y0075001D01*
X0164186Y0074501D01*
X0164436Y0074250D01*
X0165187Y0074250D01*
X0164686Y0074250D02*
X0164186Y0073750D01*
X0164436Y0069751D02*
X0164936Y0069751D01*
X0165187Y0069501D01*
X0165187Y0068500D01*
X0164936Y0068250D01*
X0164436Y0068250D01*
X0164186Y0068500D01*
X0164186Y0069001D01*
X0164686Y0069001D01*
X0164186Y0069501D02*
X0164436Y0069751D01*
X0150187Y0069751D02*
X0150187Y0068250D01*
X0149436Y0068250D01*
X0149186Y0068500D01*
X0149186Y0068750D01*
X0149436Y0069001D01*
X0150187Y0069001D01*
X0150187Y0069751D02*
X0149436Y0069751D01*
X0149186Y0069501D01*
X0149186Y0069251D01*
X0149436Y0069001D01*
X0148910Y0071250D02*
X0148409Y0071250D01*
X0148159Y0071500D01*
X0148159Y0072751D01*
X0147687Y0072501D02*
X0147436Y0072751D01*
X0146936Y0072751D01*
X0146686Y0072501D01*
X0146213Y0072501D02*
X0145963Y0072751D01*
X0145463Y0072751D01*
X0145213Y0072501D01*
X0145213Y0072251D01*
X0146213Y0071250D01*
X0145213Y0071250D01*
X0146686Y0071500D02*
X0146686Y0071750D01*
X0146936Y0072001D01*
X0147436Y0072001D01*
X0147687Y0072251D01*
X0147687Y0072501D01*
X0147186Y0073001D02*
X0147186Y0071000D01*
X0146936Y0071250D02*
X0146686Y0071500D01*
X0146936Y0071250D02*
X0147436Y0071250D01*
X0147687Y0071500D01*
X0148910Y0071250D02*
X0149160Y0071500D01*
X0149160Y0072751D01*
X0145187Y0073750D02*
X0145187Y0075251D01*
X0144436Y0075251D01*
X0144186Y0075001D01*
X0144186Y0074501D01*
X0144436Y0074250D01*
X0145187Y0074250D01*
X0144686Y0074250D02*
X0144186Y0073750D01*
X0144436Y0069751D02*
X0144186Y0069501D01*
X0144436Y0069751D02*
X0144936Y0069751D01*
X0145187Y0069501D01*
X0145187Y0068500D01*
X0144936Y0068250D01*
X0144436Y0068250D01*
X0144186Y0068500D01*
X0144186Y0069001D01*
X0144686Y0069001D01*
X0130187Y0069001D02*
X0129436Y0069001D01*
X0129186Y0068750D01*
X0129186Y0068500D01*
X0129436Y0068250D01*
X0130187Y0068250D01*
X0130187Y0069751D01*
X0129436Y0069751D01*
X0129186Y0069501D01*
X0129186Y0069251D01*
X0129436Y0069001D01*
X0128910Y0071250D02*
X0128409Y0071250D01*
X0128159Y0071500D01*
X0128159Y0072751D01*
X0127687Y0072501D02*
X0127436Y0072751D01*
X0126936Y0072751D01*
X0126686Y0072501D01*
X0126213Y0072251D02*
X0125713Y0072751D01*
X0125713Y0071250D01*
X0126213Y0071250D02*
X0125213Y0071250D01*
X0126686Y0071500D02*
X0126686Y0071750D01*
X0126936Y0072001D01*
X0127436Y0072001D01*
X0127687Y0072251D01*
X0127687Y0072501D01*
X0127186Y0073001D02*
X0127186Y0071000D01*
X0126936Y0071250D02*
X0126686Y0071500D01*
X0126936Y0071250D02*
X0127436Y0071250D01*
X0127687Y0071500D01*
X0128910Y0071250D02*
X0129160Y0071500D01*
X0129160Y0072751D01*
X0125187Y0073750D02*
X0125187Y0075251D01*
X0124436Y0075251D01*
X0124186Y0075001D01*
X0124186Y0074501D01*
X0124436Y0074250D01*
X0125187Y0074250D01*
X0124686Y0074250D02*
X0124186Y0073750D01*
X0124436Y0069751D02*
X0124936Y0069751D01*
X0125187Y0069501D01*
X0125187Y0068500D01*
X0124936Y0068250D01*
X0124436Y0068250D01*
X0124186Y0068500D01*
X0124186Y0069001D01*
X0124686Y0069001D01*
X0124186Y0069501D02*
X0124436Y0069751D01*
X0124436Y0093250D02*
X0124186Y0093500D01*
X0124186Y0094001D01*
X0124686Y0094001D01*
X0124186Y0094501D02*
X0124436Y0094751D01*
X0124936Y0094751D01*
X0125187Y0094501D01*
X0125187Y0093500D01*
X0124936Y0093250D01*
X0124436Y0093250D01*
X0124726Y0096250D02*
X0125227Y0096250D01*
X0125477Y0096500D01*
X0125949Y0096500D02*
X0125949Y0096750D01*
X0126199Y0097001D01*
X0126950Y0097001D01*
X0126950Y0096500D01*
X0126700Y0096250D01*
X0126199Y0096250D01*
X0125949Y0096500D01*
X0125477Y0097001D02*
X0124976Y0097251D01*
X0124726Y0097251D01*
X0124476Y0097001D01*
X0124476Y0096500D01*
X0124726Y0096250D01*
X0125477Y0097001D02*
X0125477Y0097751D01*
X0124476Y0097751D01*
X0124186Y0098750D02*
X0124686Y0099250D01*
X0124436Y0099250D02*
X0125187Y0099250D01*
X0125187Y0098750D02*
X0125187Y0100251D01*
X0124436Y0100251D01*
X0124186Y0100001D01*
X0124186Y0099501D01*
X0124436Y0099250D01*
X0125949Y0097751D02*
X0126450Y0097501D01*
X0126950Y0097001D01*
X0127422Y0096750D02*
X0127673Y0097001D01*
X0128173Y0097001D01*
X0128423Y0097251D01*
X0128423Y0097501D01*
X0128173Y0097751D01*
X0127673Y0097751D01*
X0127422Y0097501D01*
X0127923Y0098001D02*
X0127923Y0096000D01*
X0128173Y0096250D02*
X0127673Y0096250D01*
X0127422Y0096500D01*
X0127422Y0096750D01*
X0128173Y0096250D02*
X0128423Y0096500D01*
X0128896Y0096500D02*
X0128896Y0097751D01*
X0129897Y0097751D02*
X0129897Y0096500D01*
X0129646Y0096250D01*
X0129146Y0096250D01*
X0128896Y0096500D01*
X0129436Y0094751D02*
X0129186Y0094501D01*
X0129186Y0094251D01*
X0129436Y0094001D01*
X0130187Y0094001D01*
X0130187Y0094751D02*
X0130187Y0093250D01*
X0129436Y0093250D01*
X0129186Y0093500D01*
X0129186Y0093750D01*
X0129436Y0094001D01*
X0129436Y0094751D02*
X0130187Y0094751D01*
X0144186Y0094501D02*
X0144436Y0094751D01*
X0144936Y0094751D01*
X0145187Y0094501D01*
X0145187Y0093500D01*
X0144936Y0093250D01*
X0144436Y0093250D01*
X0144186Y0093500D01*
X0144186Y0094001D01*
X0144686Y0094001D01*
X0144726Y0096250D02*
X0144476Y0096500D01*
X0144476Y0096750D01*
X0144726Y0097001D01*
X0145477Y0097001D01*
X0145477Y0096500D01*
X0145227Y0096250D01*
X0144726Y0096250D01*
X0145477Y0097001D02*
X0144976Y0097501D01*
X0144476Y0097751D01*
X0144186Y0098750D02*
X0144686Y0099250D01*
X0144436Y0099250D02*
X0145187Y0099250D01*
X0145187Y0098750D02*
X0145187Y0100251D01*
X0144436Y0100251D01*
X0144186Y0100001D01*
X0144186Y0099501D01*
X0144436Y0099250D01*
X0145949Y0097751D02*
X0146450Y0097501D01*
X0146950Y0097001D01*
X0146199Y0097001D01*
X0145949Y0096750D01*
X0145949Y0096500D01*
X0146199Y0096250D01*
X0146700Y0096250D01*
X0146950Y0096500D01*
X0146950Y0097001D01*
X0147422Y0096750D02*
X0147673Y0097001D01*
X0148173Y0097001D01*
X0148423Y0097251D01*
X0148423Y0097501D01*
X0148173Y0097751D01*
X0147673Y0097751D01*
X0147422Y0097501D01*
X0147923Y0098001D02*
X0147923Y0096000D01*
X0148173Y0096250D02*
X0147673Y0096250D01*
X0147422Y0096500D01*
X0147422Y0096750D01*
X0148173Y0096250D02*
X0148423Y0096500D01*
X0148896Y0096500D02*
X0148896Y0097751D01*
X0149897Y0097751D02*
X0149897Y0096500D01*
X0149646Y0096250D01*
X0149146Y0096250D01*
X0148896Y0096500D01*
X0149436Y0094751D02*
X0149186Y0094501D01*
X0149186Y0094251D01*
X0149436Y0094001D01*
X0150187Y0094001D01*
X0150187Y0094751D02*
X0150187Y0093250D01*
X0149436Y0093250D01*
X0149186Y0093500D01*
X0149186Y0093750D01*
X0149436Y0094001D01*
X0149436Y0094751D02*
X0150187Y0094751D01*
X0164186Y0094501D02*
X0164436Y0094751D01*
X0164936Y0094751D01*
X0165187Y0094501D01*
X0165187Y0093500D01*
X0164936Y0093250D01*
X0164436Y0093250D01*
X0164186Y0093500D01*
X0164186Y0094001D01*
X0164686Y0094001D01*
X0165477Y0096250D02*
X0165477Y0096500D01*
X0164476Y0097501D01*
X0164476Y0097751D01*
X0165477Y0097751D01*
X0165949Y0097751D02*
X0166450Y0097501D01*
X0166950Y0097001D01*
X0166199Y0097001D01*
X0165949Y0096750D01*
X0165949Y0096500D01*
X0166199Y0096250D01*
X0166700Y0096250D01*
X0166950Y0096500D01*
X0166950Y0097001D01*
X0167422Y0096750D02*
X0167673Y0097001D01*
X0168173Y0097001D01*
X0168423Y0097251D01*
X0168423Y0097501D01*
X0168173Y0097751D01*
X0167673Y0097751D01*
X0167422Y0097501D01*
X0167923Y0098001D02*
X0167923Y0096000D01*
X0168173Y0096250D02*
X0167673Y0096250D01*
X0167422Y0096500D01*
X0167422Y0096750D01*
X0168173Y0096250D02*
X0168423Y0096500D01*
X0168896Y0096500D02*
X0168896Y0097751D01*
X0169897Y0097751D02*
X0169897Y0096500D01*
X0169646Y0096250D01*
X0169146Y0096250D01*
X0168896Y0096500D01*
X0169436Y0094751D02*
X0169186Y0094501D01*
X0169186Y0094251D01*
X0169436Y0094001D01*
X0170187Y0094001D01*
X0170187Y0094751D02*
X0170187Y0093250D01*
X0169436Y0093250D01*
X0169186Y0093500D01*
X0169186Y0093750D01*
X0169436Y0094001D01*
X0169436Y0094751D02*
X0170187Y0094751D01*
X0165187Y0098750D02*
X0165187Y0100251D01*
X0164436Y0100251D01*
X0164186Y0100001D01*
X0164186Y0099501D01*
X0164436Y0099250D01*
X0165187Y0099250D01*
X0164686Y0099250D02*
X0164186Y0098750D01*
X0164436Y0113250D02*
X0164186Y0113500D01*
X0164186Y0114001D01*
X0164686Y0114001D01*
X0164186Y0114501D02*
X0164436Y0114751D01*
X0164936Y0114751D01*
X0165187Y0114501D01*
X0165187Y0113500D01*
X0164936Y0113250D01*
X0164436Y0113250D01*
X0164726Y0116250D02*
X0165227Y0116250D01*
X0165477Y0116500D01*
X0165949Y0116500D02*
X0165949Y0116750D01*
X0166199Y0117001D01*
X0166950Y0117001D01*
X0166950Y0116500D01*
X0166700Y0116250D01*
X0166199Y0116250D01*
X0165949Y0116500D01*
X0164976Y0117001D02*
X0164726Y0117001D01*
X0164476Y0116750D01*
X0164476Y0116500D01*
X0164726Y0116250D01*
X0164726Y0117001D02*
X0164476Y0117251D01*
X0164476Y0117501D01*
X0164726Y0117751D01*
X0165227Y0117751D01*
X0165477Y0117501D01*
X0165949Y0117751D02*
X0166450Y0117501D01*
X0166950Y0117001D01*
X0167422Y0116750D02*
X0167422Y0116500D01*
X0167673Y0116250D01*
X0168173Y0116250D01*
X0168423Y0116500D01*
X0168896Y0116500D02*
X0168896Y0117751D01*
X0168423Y0117501D02*
X0168173Y0117751D01*
X0167673Y0117751D01*
X0167422Y0117501D01*
X0167673Y0117001D02*
X0168173Y0117001D01*
X0168423Y0117251D01*
X0168423Y0117501D01*
X0167923Y0118001D02*
X0167923Y0116000D01*
X0167422Y0116750D02*
X0167673Y0117001D01*
X0168896Y0116500D02*
X0169146Y0116250D01*
X0169646Y0116250D01*
X0169897Y0116500D01*
X0169897Y0117751D01*
X0170187Y0114751D02*
X0169436Y0114751D01*
X0169186Y0114501D01*
X0169186Y0114251D01*
X0169436Y0114001D01*
X0170187Y0114001D01*
X0170187Y0114751D02*
X0170187Y0113250D01*
X0169436Y0113250D01*
X0169186Y0113500D01*
X0169186Y0113750D01*
X0169436Y0114001D01*
X0165187Y0118750D02*
X0165187Y0120251D01*
X0164436Y0120251D01*
X0164186Y0120001D01*
X0164186Y0119501D01*
X0164436Y0119250D01*
X0165187Y0119250D01*
X0164686Y0119250D02*
X0164186Y0118750D01*
X0149897Y0117751D02*
X0149897Y0116500D01*
X0149646Y0116250D01*
X0149146Y0116250D01*
X0148896Y0116500D01*
X0148896Y0117751D01*
X0148423Y0117501D02*
X0148173Y0117751D01*
X0147673Y0117751D01*
X0147422Y0117501D01*
X0147673Y0117001D02*
X0148173Y0117001D01*
X0148423Y0117251D01*
X0148423Y0117501D01*
X0147923Y0118001D02*
X0147923Y0116000D01*
X0148173Y0116250D02*
X0147673Y0116250D01*
X0147422Y0116500D01*
X0147422Y0116750D01*
X0147673Y0117001D01*
X0146950Y0117001D02*
X0146199Y0117001D01*
X0145949Y0116750D01*
X0145949Y0116500D01*
X0146199Y0116250D01*
X0146700Y0116250D01*
X0146950Y0116500D01*
X0146950Y0117001D01*
X0146450Y0117501D01*
X0145949Y0117751D01*
X0145477Y0117501D02*
X0145227Y0117751D01*
X0144726Y0117751D01*
X0144476Y0117501D01*
X0144476Y0117251D01*
X0145477Y0116250D01*
X0144476Y0116250D01*
X0144436Y0114751D02*
X0144186Y0114501D01*
X0144436Y0114751D02*
X0144936Y0114751D01*
X0145187Y0114501D01*
X0145187Y0113500D01*
X0144936Y0113250D01*
X0144436Y0113250D01*
X0144186Y0113500D01*
X0144186Y0114001D01*
X0144686Y0114001D01*
X0148173Y0116250D02*
X0148423Y0116500D01*
X0149436Y0114751D02*
X0149186Y0114501D01*
X0149186Y0114251D01*
X0149436Y0114001D01*
X0150187Y0114001D01*
X0150187Y0114751D02*
X0149436Y0114751D01*
X0149436Y0114001D02*
X0149186Y0113750D01*
X0149186Y0113500D01*
X0149436Y0113250D01*
X0150187Y0113250D01*
X0150187Y0114751D01*
X0145187Y0118750D02*
X0145187Y0120251D01*
X0144436Y0120251D01*
X0144186Y0120001D01*
X0144186Y0119501D01*
X0144436Y0119250D01*
X0145187Y0119250D01*
X0144686Y0119250D02*
X0144186Y0118750D01*
X0129897Y0117751D02*
X0129897Y0116500D01*
X0129646Y0116250D01*
X0129146Y0116250D01*
X0128896Y0116500D01*
X0128896Y0117751D01*
X0128423Y0117501D02*
X0128173Y0117751D01*
X0127673Y0117751D01*
X0127422Y0117501D01*
X0127673Y0117001D02*
X0127422Y0116750D01*
X0127422Y0116500D01*
X0127673Y0116250D01*
X0128173Y0116250D01*
X0128423Y0116500D01*
X0128173Y0117001D02*
X0128423Y0117251D01*
X0128423Y0117501D01*
X0128173Y0117001D02*
X0127673Y0117001D01*
X0126950Y0117001D02*
X0126950Y0116500D01*
X0126700Y0116250D01*
X0126199Y0116250D01*
X0125949Y0116500D01*
X0125949Y0116750D01*
X0126199Y0117001D01*
X0126950Y0117001D01*
X0126450Y0117501D01*
X0125949Y0117751D01*
X0125477Y0117251D02*
X0124976Y0117751D01*
X0124976Y0116250D01*
X0124476Y0116250D02*
X0125477Y0116250D01*
X0124936Y0114751D02*
X0125187Y0114501D01*
X0125187Y0113500D01*
X0124936Y0113250D01*
X0124436Y0113250D01*
X0124186Y0113500D01*
X0124186Y0114001D01*
X0124686Y0114001D01*
X0124186Y0114501D02*
X0124436Y0114751D01*
X0124936Y0114751D01*
X0127923Y0116000D02*
X0127923Y0118001D01*
X0125187Y0118750D02*
X0125187Y0120251D01*
X0124436Y0120251D01*
X0124186Y0120001D01*
X0124186Y0119501D01*
X0124436Y0119250D01*
X0125187Y0119250D01*
X0124686Y0119250D02*
X0124186Y0118750D01*
X0129186Y0114501D02*
X0129186Y0114251D01*
X0129436Y0114001D01*
X0130187Y0114001D01*
X0130187Y0114751D02*
X0129436Y0114751D01*
X0129186Y0114501D01*
X0129436Y0114001D02*
X0129186Y0113750D01*
X0129186Y0113500D01*
X0129436Y0113250D01*
X0130187Y0113250D01*
X0130187Y0114751D01*
X0130187Y0133250D02*
X0129436Y0133250D01*
X0129186Y0133500D01*
X0129186Y0133750D01*
X0129436Y0134001D01*
X0130187Y0134001D01*
X0130187Y0134751D02*
X0129436Y0134751D01*
X0129186Y0134501D01*
X0129186Y0134251D01*
X0129436Y0134001D01*
X0130187Y0134751D02*
X0130187Y0133250D01*
X0129646Y0136250D02*
X0129146Y0136250D01*
X0128896Y0136500D01*
X0128896Y0137751D01*
X0128423Y0137501D02*
X0128173Y0137751D01*
X0127673Y0137751D01*
X0127422Y0137501D01*
X0126950Y0137751D02*
X0126950Y0137001D01*
X0126450Y0137251D01*
X0126199Y0137251D01*
X0125949Y0137001D01*
X0125949Y0136500D01*
X0126199Y0136250D01*
X0126700Y0136250D01*
X0126950Y0136500D01*
X0127422Y0136500D02*
X0127422Y0136750D01*
X0127673Y0137001D01*
X0128173Y0137001D01*
X0128423Y0137251D01*
X0128423Y0137501D01*
X0127923Y0138001D02*
X0127923Y0136000D01*
X0128173Y0136250D02*
X0127673Y0136250D01*
X0127422Y0136500D01*
X0128173Y0136250D02*
X0128423Y0136500D01*
X0129646Y0136250D02*
X0129897Y0136500D01*
X0129897Y0137751D01*
X0126950Y0137751D02*
X0125949Y0137751D01*
X0125477Y0137751D02*
X0124476Y0137751D01*
X0124476Y0137501D01*
X0125477Y0136500D01*
X0125477Y0136250D01*
X0124936Y0134751D02*
X0125187Y0134501D01*
X0125187Y0133500D01*
X0124936Y0133250D01*
X0124436Y0133250D01*
X0124186Y0133500D01*
X0124186Y0134001D01*
X0124686Y0134001D01*
X0124186Y0134501D02*
X0124436Y0134751D01*
X0124936Y0134751D01*
X0125187Y0138750D02*
X0125187Y0140251D01*
X0124436Y0140251D01*
X0124186Y0140001D01*
X0124186Y0139501D01*
X0124436Y0139250D01*
X0125187Y0139250D01*
X0124686Y0139250D02*
X0124186Y0138750D01*
X0124436Y0153250D02*
X0124186Y0153500D01*
X0124186Y0154001D01*
X0124686Y0154001D01*
X0124186Y0154501D02*
X0124436Y0154751D01*
X0124936Y0154751D01*
X0125187Y0154501D01*
X0125187Y0153500D01*
X0124936Y0153250D01*
X0124436Y0153250D01*
X0124726Y0156250D02*
X0125227Y0156250D01*
X0125477Y0156500D01*
X0125949Y0156500D02*
X0126199Y0156250D01*
X0126700Y0156250D01*
X0126950Y0156500D01*
X0127422Y0156500D02*
X0127422Y0156750D01*
X0127673Y0157001D01*
X0128173Y0157001D01*
X0128423Y0157251D01*
X0128423Y0157501D01*
X0128173Y0157751D01*
X0127673Y0157751D01*
X0127422Y0157501D01*
X0126950Y0157751D02*
X0126950Y0157001D01*
X0126450Y0157251D01*
X0126199Y0157251D01*
X0125949Y0157001D01*
X0125949Y0156500D01*
X0124976Y0157001D02*
X0124726Y0157001D01*
X0124476Y0156750D01*
X0124476Y0156500D01*
X0124726Y0156250D01*
X0124726Y0157001D02*
X0124476Y0157251D01*
X0124476Y0157501D01*
X0124726Y0157751D01*
X0125227Y0157751D01*
X0125477Y0157501D01*
X0125949Y0157751D02*
X0126950Y0157751D01*
X0127923Y0158001D02*
X0127923Y0156000D01*
X0128173Y0156250D02*
X0127673Y0156250D01*
X0127422Y0156500D01*
X0128173Y0156250D02*
X0128423Y0156500D01*
X0128896Y0156500D02*
X0128896Y0157751D01*
X0129897Y0157751D02*
X0129897Y0156500D01*
X0129646Y0156250D01*
X0129146Y0156250D01*
X0128896Y0156500D01*
X0129436Y0154751D02*
X0129186Y0154501D01*
X0129186Y0154251D01*
X0129436Y0154001D01*
X0130187Y0154001D01*
X0130187Y0154751D02*
X0129436Y0154751D01*
X0129436Y0154001D02*
X0129186Y0153750D01*
X0129186Y0153500D01*
X0129436Y0153250D01*
X0130187Y0153250D01*
X0130187Y0154751D01*
X0125187Y0158750D02*
X0125187Y0160251D01*
X0124436Y0160251D01*
X0124186Y0160001D01*
X0124186Y0159501D01*
X0124436Y0159250D01*
X0125187Y0159250D01*
X0124686Y0159250D02*
X0124186Y0158750D01*
X0144186Y0158750D02*
X0144686Y0159250D01*
X0144436Y0159250D02*
X0145187Y0159250D01*
X0145187Y0158750D02*
X0145187Y0160251D01*
X0144436Y0160251D01*
X0144186Y0160001D01*
X0144186Y0159501D01*
X0144436Y0159250D01*
X0144726Y0157751D02*
X0145477Y0157001D01*
X0144476Y0157001D01*
X0144726Y0157751D02*
X0144726Y0156250D01*
X0145949Y0156500D02*
X0146199Y0156250D01*
X0146700Y0156250D01*
X0146950Y0156500D01*
X0147422Y0156500D02*
X0147422Y0156750D01*
X0147673Y0157001D01*
X0148173Y0157001D01*
X0148423Y0157251D01*
X0148423Y0157501D01*
X0148173Y0157751D01*
X0147673Y0157751D01*
X0147422Y0157501D01*
X0146950Y0157751D02*
X0146950Y0157001D01*
X0146450Y0157251D01*
X0146199Y0157251D01*
X0145949Y0157001D01*
X0145949Y0156500D01*
X0145949Y0157751D02*
X0146950Y0157751D01*
X0147923Y0158001D02*
X0147923Y0156000D01*
X0148173Y0156250D02*
X0147673Y0156250D01*
X0147422Y0156500D01*
X0148173Y0156250D02*
X0148423Y0156500D01*
X0148896Y0156500D02*
X0148896Y0157751D01*
X0149897Y0157751D02*
X0149897Y0156500D01*
X0149646Y0156250D01*
X0149146Y0156250D01*
X0148896Y0156500D01*
X0149436Y0154751D02*
X0149186Y0154501D01*
X0149186Y0154251D01*
X0149436Y0154001D01*
X0150187Y0154001D01*
X0150187Y0154751D02*
X0149436Y0154751D01*
X0149436Y0154001D02*
X0149186Y0153750D01*
X0149186Y0153500D01*
X0149436Y0153250D01*
X0150187Y0153250D01*
X0150187Y0154751D01*
X0145187Y0154501D02*
X0145187Y0153500D01*
X0144936Y0153250D01*
X0144436Y0153250D01*
X0144186Y0153500D01*
X0144186Y0154001D01*
X0144686Y0154001D01*
X0144186Y0154501D02*
X0144436Y0154751D01*
X0144936Y0154751D01*
X0145187Y0154501D01*
X0145187Y0140251D02*
X0144436Y0140251D01*
X0144186Y0140001D01*
X0144186Y0139501D01*
X0144436Y0139250D01*
X0145187Y0139250D01*
X0145187Y0138750D02*
X0145187Y0140251D01*
X0144686Y0139250D02*
X0144186Y0138750D01*
X0144726Y0137751D02*
X0144476Y0137501D01*
X0144476Y0137251D01*
X0144726Y0137001D01*
X0145227Y0137001D01*
X0145477Y0137251D01*
X0145477Y0137501D01*
X0145227Y0137751D01*
X0144726Y0137751D01*
X0144726Y0137001D02*
X0144476Y0136750D01*
X0144476Y0136500D01*
X0144726Y0136250D01*
X0145227Y0136250D01*
X0145477Y0136500D01*
X0145477Y0136750D01*
X0145227Y0137001D01*
X0145949Y0137001D02*
X0145949Y0136500D01*
X0146199Y0136250D01*
X0146700Y0136250D01*
X0146950Y0136500D01*
X0147422Y0136500D02*
X0147422Y0136750D01*
X0147673Y0137001D01*
X0148173Y0137001D01*
X0148423Y0137251D01*
X0148423Y0137501D01*
X0148173Y0137751D01*
X0147673Y0137751D01*
X0147422Y0137501D01*
X0146950Y0137751D02*
X0146950Y0137001D01*
X0146450Y0137251D01*
X0146199Y0137251D01*
X0145949Y0137001D01*
X0145949Y0137751D02*
X0146950Y0137751D01*
X0147923Y0138001D02*
X0147923Y0136000D01*
X0148173Y0136250D02*
X0147673Y0136250D01*
X0147422Y0136500D01*
X0148173Y0136250D02*
X0148423Y0136500D01*
X0148896Y0136500D02*
X0148896Y0137751D01*
X0149897Y0137751D02*
X0149897Y0136500D01*
X0149646Y0136250D01*
X0149146Y0136250D01*
X0148896Y0136500D01*
X0149436Y0134751D02*
X0149186Y0134501D01*
X0149186Y0134251D01*
X0149436Y0134001D01*
X0150187Y0134001D01*
X0150187Y0134751D02*
X0149436Y0134751D01*
X0149436Y0134001D02*
X0149186Y0133750D01*
X0149186Y0133500D01*
X0149436Y0133250D01*
X0150187Y0133250D01*
X0150187Y0134751D01*
X0145187Y0134501D02*
X0145187Y0133500D01*
X0144936Y0133250D01*
X0144436Y0133250D01*
X0144186Y0133500D01*
X0144186Y0134001D01*
X0144686Y0134001D01*
X0144186Y0134501D02*
X0144436Y0134751D01*
X0144936Y0134751D01*
X0145187Y0134501D01*
X0164186Y0134501D02*
X0164436Y0134751D01*
X0164936Y0134751D01*
X0165187Y0134501D01*
X0165187Y0133500D01*
X0164936Y0133250D01*
X0164436Y0133250D01*
X0164186Y0133500D01*
X0164186Y0134001D01*
X0164686Y0134001D01*
X0164726Y0136250D02*
X0164476Y0136500D01*
X0164476Y0137501D01*
X0164726Y0137751D01*
X0165227Y0137751D01*
X0165477Y0137501D01*
X0165477Y0137251D01*
X0165227Y0137001D01*
X0164476Y0137001D01*
X0164726Y0136250D02*
X0165227Y0136250D01*
X0165477Y0136500D01*
X0165949Y0136500D02*
X0166199Y0136250D01*
X0166700Y0136250D01*
X0166950Y0136500D01*
X0167422Y0136500D02*
X0167422Y0136750D01*
X0167673Y0137001D01*
X0168173Y0137001D01*
X0168423Y0137251D01*
X0168423Y0137501D01*
X0168173Y0137751D01*
X0167673Y0137751D01*
X0167422Y0137501D01*
X0166950Y0137751D02*
X0166950Y0137001D01*
X0166450Y0137251D01*
X0166199Y0137251D01*
X0165949Y0137001D01*
X0165949Y0136500D01*
X0165949Y0137751D02*
X0166950Y0137751D01*
X0167923Y0138001D02*
X0167923Y0136000D01*
X0168173Y0136250D02*
X0167673Y0136250D01*
X0167422Y0136500D01*
X0168173Y0136250D02*
X0168423Y0136500D01*
X0168896Y0136500D02*
X0168896Y0137751D01*
X0169897Y0137751D02*
X0169897Y0136500D01*
X0169646Y0136250D01*
X0169146Y0136250D01*
X0168896Y0136500D01*
X0169436Y0134751D02*
X0169186Y0134501D01*
X0169186Y0134251D01*
X0169436Y0134001D01*
X0170187Y0134001D01*
X0170187Y0134751D02*
X0169436Y0134751D01*
X0169436Y0134001D02*
X0169186Y0133750D01*
X0169186Y0133500D01*
X0169436Y0133250D01*
X0170187Y0133250D01*
X0170187Y0134751D01*
X0165187Y0138750D02*
X0165187Y0140251D01*
X0164436Y0140251D01*
X0164186Y0140001D01*
X0164186Y0139501D01*
X0164436Y0139250D01*
X0165187Y0139250D01*
X0164686Y0139250D02*
X0164186Y0138750D01*
X0164436Y0153250D02*
X0164186Y0153500D01*
X0164186Y0154001D01*
X0164686Y0154001D01*
X0164186Y0154501D02*
X0164436Y0154751D01*
X0164936Y0154751D01*
X0165187Y0154501D01*
X0165187Y0153500D01*
X0164936Y0153250D01*
X0164436Y0153250D01*
X0164726Y0156250D02*
X0165227Y0156250D01*
X0165477Y0156500D01*
X0165949Y0156500D02*
X0166199Y0156250D01*
X0166700Y0156250D01*
X0166950Y0156500D01*
X0167422Y0156500D02*
X0167422Y0156750D01*
X0167673Y0157001D01*
X0168173Y0157001D01*
X0168423Y0157251D01*
X0168423Y0157501D01*
X0168173Y0157751D01*
X0167673Y0157751D01*
X0167422Y0157501D01*
X0166950Y0157751D02*
X0166950Y0157001D01*
X0166450Y0157251D01*
X0166199Y0157251D01*
X0165949Y0157001D01*
X0165949Y0156500D01*
X0165477Y0157001D02*
X0164976Y0157251D01*
X0164726Y0157251D01*
X0164476Y0157001D01*
X0164476Y0156500D01*
X0164726Y0156250D01*
X0165477Y0157001D02*
X0165477Y0157751D01*
X0164476Y0157751D01*
X0164186Y0158750D02*
X0164686Y0159250D01*
X0164436Y0159250D02*
X0165187Y0159250D01*
X0165187Y0158750D02*
X0165187Y0160251D01*
X0164436Y0160251D01*
X0164186Y0160001D01*
X0164186Y0159501D01*
X0164436Y0159250D01*
X0165949Y0157751D02*
X0166950Y0157751D01*
X0167923Y0158001D02*
X0167923Y0156000D01*
X0168173Y0156250D02*
X0167673Y0156250D01*
X0167422Y0156500D01*
X0168173Y0156250D02*
X0168423Y0156500D01*
X0168896Y0156500D02*
X0168896Y0157751D01*
X0169897Y0157751D02*
X0169897Y0156500D01*
X0169646Y0156250D01*
X0169146Y0156250D01*
X0168896Y0156500D01*
X0169436Y0154751D02*
X0169186Y0154501D01*
X0169186Y0154251D01*
X0169436Y0154001D01*
X0170187Y0154001D01*
X0170187Y0154751D02*
X0169436Y0154751D01*
X0169436Y0154001D02*
X0169186Y0153750D01*
X0169186Y0153500D01*
X0169436Y0153250D01*
X0170187Y0153250D01*
X0170187Y0154751D01*
X0184186Y0154501D02*
X0184436Y0154751D01*
X0184936Y0154751D01*
X0185187Y0154501D01*
X0185187Y0153500D01*
X0184936Y0153250D01*
X0184436Y0153250D01*
X0184186Y0153500D01*
X0184186Y0154001D01*
X0184686Y0154001D01*
X0184726Y0156250D02*
X0184476Y0156500D01*
X0184476Y0156750D01*
X0184726Y0157001D01*
X0185477Y0157001D01*
X0185477Y0156500D01*
X0185227Y0156250D01*
X0184726Y0156250D01*
X0185477Y0157001D02*
X0184976Y0157501D01*
X0184476Y0157751D01*
X0184186Y0158750D02*
X0184686Y0159250D01*
X0184436Y0159250D02*
X0185187Y0159250D01*
X0185187Y0158750D02*
X0185187Y0160251D01*
X0184436Y0160251D01*
X0184186Y0160001D01*
X0184186Y0159501D01*
X0184436Y0159250D01*
X0185949Y0157751D02*
X0186950Y0157751D01*
X0186950Y0157001D01*
X0186450Y0157251D01*
X0186199Y0157251D01*
X0185949Y0157001D01*
X0185949Y0156500D01*
X0186199Y0156250D01*
X0186700Y0156250D01*
X0186950Y0156500D01*
X0187422Y0156500D02*
X0187422Y0156750D01*
X0187673Y0157001D01*
X0188173Y0157001D01*
X0188423Y0157251D01*
X0188423Y0157501D01*
X0188173Y0157751D01*
X0187673Y0157751D01*
X0187422Y0157501D01*
X0187923Y0158001D02*
X0187923Y0156000D01*
X0188173Y0156250D02*
X0187673Y0156250D01*
X0187422Y0156500D01*
X0188173Y0156250D02*
X0188423Y0156500D01*
X0188896Y0156500D02*
X0188896Y0157751D01*
X0189897Y0157751D02*
X0189897Y0156500D01*
X0189646Y0156250D01*
X0189146Y0156250D01*
X0188896Y0156500D01*
X0189436Y0154751D02*
X0189186Y0154501D01*
X0189186Y0154251D01*
X0189436Y0154001D01*
X0190187Y0154001D01*
X0190187Y0154751D02*
X0189436Y0154751D01*
X0189436Y0154001D02*
X0189186Y0153750D01*
X0189186Y0153500D01*
X0189436Y0153250D01*
X0190187Y0153250D01*
X0190187Y0154751D01*
X0185187Y0140251D02*
X0184436Y0140251D01*
X0184186Y0140001D01*
X0184186Y0139501D01*
X0184436Y0139250D01*
X0185187Y0139250D01*
X0185187Y0138750D02*
X0185187Y0140251D01*
X0184686Y0139250D02*
X0184186Y0138750D01*
X0184726Y0137751D02*
X0184476Y0137501D01*
X0185477Y0136500D01*
X0185227Y0136250D01*
X0184726Y0136250D01*
X0184476Y0136500D01*
X0184476Y0137501D01*
X0184726Y0137751D02*
X0185227Y0137751D01*
X0185477Y0137501D01*
X0185477Y0136500D01*
X0185949Y0136500D02*
X0185949Y0136750D01*
X0186199Y0137001D01*
X0186950Y0137001D01*
X0186950Y0136500D01*
X0186700Y0136250D01*
X0186199Y0136250D01*
X0185949Y0136500D01*
X0186450Y0137501D02*
X0186950Y0137001D01*
X0187422Y0136750D02*
X0187673Y0137001D01*
X0188173Y0137001D01*
X0188423Y0137251D01*
X0188423Y0137501D01*
X0188173Y0137751D01*
X0187673Y0137751D01*
X0187422Y0137501D01*
X0187923Y0138001D02*
X0187923Y0136000D01*
X0188173Y0136250D02*
X0187673Y0136250D01*
X0187422Y0136500D01*
X0187422Y0136750D01*
X0188173Y0136250D02*
X0188423Y0136500D01*
X0188896Y0136500D02*
X0188896Y0137751D01*
X0189897Y0137751D02*
X0189897Y0136500D01*
X0189646Y0136250D01*
X0189146Y0136250D01*
X0188896Y0136500D01*
X0189436Y0134751D02*
X0189186Y0134501D01*
X0189186Y0134251D01*
X0189436Y0134001D01*
X0190187Y0134001D01*
X0190187Y0134751D02*
X0189436Y0134751D01*
X0189436Y0134001D02*
X0189186Y0133750D01*
X0189186Y0133500D01*
X0189436Y0133250D01*
X0190187Y0133250D01*
X0190187Y0134751D01*
X0186450Y0137501D02*
X0185949Y0137751D01*
X0184936Y0134751D02*
X0185187Y0134501D01*
X0185187Y0133500D01*
X0184936Y0133250D01*
X0184436Y0133250D01*
X0184186Y0133500D01*
X0184186Y0134001D01*
X0184686Y0134001D01*
X0184186Y0134501D02*
X0184436Y0134751D01*
X0184936Y0134751D01*
X0185187Y0120251D02*
X0184436Y0120251D01*
X0184186Y0120001D01*
X0184186Y0119501D01*
X0184436Y0119250D01*
X0185187Y0119250D01*
X0185187Y0118750D02*
X0185187Y0120251D01*
X0184686Y0119250D02*
X0184186Y0118750D01*
X0184726Y0117751D02*
X0185477Y0117001D01*
X0184476Y0117001D01*
X0184726Y0117751D02*
X0184726Y0116250D01*
X0185949Y0116500D02*
X0185949Y0116750D01*
X0186199Y0117001D01*
X0186950Y0117001D01*
X0186950Y0116500D01*
X0186700Y0116250D01*
X0186199Y0116250D01*
X0185949Y0116500D01*
X0186450Y0117501D02*
X0186950Y0117001D01*
X0187422Y0116750D02*
X0187673Y0117001D01*
X0188173Y0117001D01*
X0188423Y0117251D01*
X0188423Y0117501D01*
X0188173Y0117751D01*
X0187673Y0117751D01*
X0187422Y0117501D01*
X0187923Y0118001D02*
X0187923Y0116000D01*
X0188173Y0116250D02*
X0187673Y0116250D01*
X0187422Y0116500D01*
X0187422Y0116750D01*
X0188173Y0116250D02*
X0188423Y0116500D01*
X0188896Y0116500D02*
X0188896Y0117751D01*
X0189897Y0117751D02*
X0189897Y0116500D01*
X0189646Y0116250D01*
X0189146Y0116250D01*
X0188896Y0116500D01*
X0189436Y0114751D02*
X0189186Y0114501D01*
X0189186Y0114251D01*
X0189436Y0114001D01*
X0190187Y0114001D01*
X0190187Y0114751D02*
X0189436Y0114751D01*
X0189436Y0114001D02*
X0189186Y0113750D01*
X0189186Y0113500D01*
X0189436Y0113250D01*
X0190187Y0113250D01*
X0190187Y0114751D01*
X0186450Y0117501D02*
X0185949Y0117751D01*
X0184936Y0114751D02*
X0185187Y0114501D01*
X0185187Y0113500D01*
X0184936Y0113250D01*
X0184436Y0113250D01*
X0184186Y0113500D01*
X0184186Y0114001D01*
X0184686Y0114001D01*
X0184186Y0114501D02*
X0184436Y0114751D01*
X0184936Y0114751D01*
X0185187Y0100251D02*
X0184436Y0100251D01*
X0184186Y0100001D01*
X0184186Y0099501D01*
X0184436Y0099250D01*
X0185187Y0099250D01*
X0185187Y0098750D02*
X0185187Y0100251D01*
X0184686Y0099250D02*
X0184186Y0098750D01*
X0184726Y0097751D02*
X0184476Y0097501D01*
X0184476Y0097251D01*
X0184726Y0097001D01*
X0185227Y0097001D01*
X0185477Y0097251D01*
X0185477Y0097501D01*
X0185227Y0097751D01*
X0184726Y0097751D01*
X0184726Y0097001D02*
X0184476Y0096750D01*
X0184476Y0096500D01*
X0184726Y0096250D01*
X0185227Y0096250D01*
X0185477Y0096500D01*
X0185477Y0096750D01*
X0185227Y0097001D01*
X0185949Y0096750D02*
X0186199Y0097001D01*
X0186950Y0097001D01*
X0186950Y0096500D01*
X0186700Y0096250D01*
X0186199Y0096250D01*
X0185949Y0096500D01*
X0185949Y0096750D01*
X0186450Y0097501D02*
X0185949Y0097751D01*
X0186450Y0097501D02*
X0186950Y0097001D01*
X0187422Y0096750D02*
X0187673Y0097001D01*
X0188173Y0097001D01*
X0188423Y0097251D01*
X0188423Y0097501D01*
X0188173Y0097751D01*
X0187673Y0097751D01*
X0187422Y0097501D01*
X0187923Y0098001D02*
X0187923Y0096000D01*
X0188173Y0096250D02*
X0187673Y0096250D01*
X0187422Y0096500D01*
X0187422Y0096750D01*
X0188173Y0096250D02*
X0188423Y0096500D01*
X0188896Y0096500D02*
X0188896Y0097751D01*
X0189897Y0097751D02*
X0189897Y0096500D01*
X0189646Y0096250D01*
X0189146Y0096250D01*
X0188896Y0096500D01*
X0189436Y0094751D02*
X0189186Y0094501D01*
X0189186Y0094251D01*
X0189436Y0094001D01*
X0190187Y0094001D01*
X0190187Y0094751D02*
X0190187Y0093250D01*
X0189436Y0093250D01*
X0189186Y0093500D01*
X0189186Y0093750D01*
X0189436Y0094001D01*
X0189436Y0094751D02*
X0190187Y0094751D01*
X0185187Y0094501D02*
X0185187Y0093500D01*
X0184936Y0093250D01*
X0184436Y0093250D01*
X0184186Y0093500D01*
X0184186Y0094001D01*
X0184686Y0094001D01*
X0184186Y0094501D02*
X0184436Y0094751D01*
X0184936Y0094751D01*
X0185187Y0094501D01*
X0085187Y0094751D02*
X0085187Y0093250D01*
X0084436Y0093250D01*
X0084186Y0093500D01*
X0084186Y0093750D01*
X0084436Y0094001D01*
X0085187Y0094001D01*
X0085187Y0094751D02*
X0084436Y0094751D01*
X0084186Y0094501D01*
X0084186Y0094251D01*
X0084436Y0094001D01*
X0084646Y0096250D02*
X0084146Y0096250D01*
X0083896Y0096500D01*
X0083896Y0097751D01*
X0083423Y0097501D02*
X0083173Y0097751D01*
X0082673Y0097751D01*
X0082422Y0097501D01*
X0081950Y0097751D02*
X0081950Y0097001D01*
X0081450Y0097251D01*
X0081199Y0097251D01*
X0080949Y0097001D01*
X0080949Y0096500D01*
X0081199Y0096250D01*
X0081700Y0096250D01*
X0081950Y0096500D01*
X0082422Y0096500D02*
X0082422Y0096750D01*
X0082673Y0097001D01*
X0083173Y0097001D01*
X0083423Y0097251D01*
X0083423Y0097501D01*
X0082923Y0098001D02*
X0082923Y0096000D01*
X0083173Y0096250D02*
X0082673Y0096250D01*
X0082422Y0096500D01*
X0083173Y0096250D02*
X0083423Y0096500D01*
X0084646Y0096250D02*
X0084897Y0096500D01*
X0084897Y0097751D01*
X0081950Y0097751D02*
X0080949Y0097751D01*
X0080477Y0097501D02*
X0080227Y0097751D01*
X0079726Y0097751D01*
X0079476Y0097501D01*
X0080477Y0096500D01*
X0080227Y0096250D01*
X0079726Y0096250D01*
X0079476Y0096500D01*
X0079476Y0097501D01*
X0080477Y0097501D02*
X0080477Y0096500D01*
X0079936Y0094751D02*
X0080187Y0094501D01*
X0080187Y0093500D01*
X0079936Y0093250D01*
X0079436Y0093250D01*
X0079186Y0093500D01*
X0079186Y0094001D01*
X0079686Y0094001D01*
X0079186Y0094501D02*
X0079436Y0094751D01*
X0079936Y0094751D01*
X0080187Y0098750D02*
X0080187Y0100251D01*
X0079436Y0100251D01*
X0079186Y0100001D01*
X0079186Y0099501D01*
X0079436Y0099250D01*
X0080187Y0099250D01*
X0079686Y0099250D02*
X0079186Y0098750D01*
X0064897Y0097751D02*
X0064897Y0096500D01*
X0064646Y0096250D01*
X0064146Y0096250D01*
X0063896Y0096500D01*
X0063896Y0097751D01*
X0063423Y0097501D02*
X0063173Y0097751D01*
X0062673Y0097751D01*
X0062422Y0097501D01*
X0062673Y0097001D02*
X0063173Y0097001D01*
X0063423Y0097251D01*
X0063423Y0097501D01*
X0062923Y0098001D02*
X0062923Y0096000D01*
X0063173Y0096250D02*
X0062673Y0096250D01*
X0062422Y0096500D01*
X0062422Y0096750D01*
X0062673Y0097001D01*
X0061950Y0097001D02*
X0060949Y0097001D01*
X0060477Y0097251D02*
X0060227Y0097001D01*
X0059476Y0097001D01*
X0059476Y0097501D02*
X0059726Y0097751D01*
X0060227Y0097751D01*
X0060477Y0097501D01*
X0060477Y0097251D01*
X0060477Y0096500D02*
X0060227Y0096250D01*
X0059726Y0096250D01*
X0059476Y0096500D01*
X0059476Y0097501D01*
X0059186Y0098750D02*
X0059686Y0099250D01*
X0059436Y0099250D02*
X0060187Y0099250D01*
X0060187Y0098750D02*
X0060187Y0100251D01*
X0059436Y0100251D01*
X0059186Y0100001D01*
X0059186Y0099501D01*
X0059436Y0099250D01*
X0061199Y0097751D02*
X0061950Y0097001D01*
X0061199Y0097751D02*
X0061199Y0096250D01*
X0059936Y0094751D02*
X0060187Y0094501D01*
X0060187Y0093500D01*
X0059936Y0093250D01*
X0059436Y0093250D01*
X0059186Y0093500D01*
X0059186Y0094001D01*
X0059686Y0094001D01*
X0059186Y0094501D02*
X0059436Y0094751D01*
X0059936Y0094751D01*
X0063173Y0096250D02*
X0063423Y0096500D01*
X0064436Y0094751D02*
X0064186Y0094501D01*
X0064186Y0094251D01*
X0064436Y0094001D01*
X0065187Y0094001D01*
X0065187Y0094751D02*
X0065187Y0093250D01*
X0064436Y0093250D01*
X0064186Y0093500D01*
X0064186Y0093750D01*
X0064436Y0094001D01*
X0064436Y0094751D02*
X0065187Y0094751D01*
X0045187Y0094751D02*
X0045187Y0093250D01*
X0044436Y0093250D01*
X0044186Y0093500D01*
X0044186Y0093750D01*
X0044436Y0094001D01*
X0045187Y0094001D01*
X0045187Y0094751D02*
X0044436Y0094751D01*
X0044186Y0094501D01*
X0044186Y0094251D01*
X0044436Y0094001D01*
X0044646Y0096250D02*
X0044146Y0096250D01*
X0043896Y0096500D01*
X0043896Y0097751D01*
X0043423Y0097501D02*
X0043173Y0097751D01*
X0042673Y0097751D01*
X0042422Y0097501D01*
X0042673Y0097001D02*
X0043173Y0097001D01*
X0043423Y0097251D01*
X0043423Y0097501D01*
X0042923Y0098001D02*
X0042923Y0096000D01*
X0043173Y0096250D02*
X0042673Y0096250D01*
X0042422Y0096500D01*
X0042422Y0096750D01*
X0042673Y0097001D01*
X0041950Y0097001D02*
X0040949Y0097001D01*
X0040477Y0097251D02*
X0040477Y0097501D01*
X0040227Y0097751D01*
X0039726Y0097751D01*
X0039476Y0097501D01*
X0039476Y0097251D01*
X0039726Y0097001D01*
X0040227Y0097001D01*
X0040477Y0097251D01*
X0040227Y0097001D02*
X0040477Y0096750D01*
X0040477Y0096500D01*
X0040227Y0096250D01*
X0039726Y0096250D01*
X0039476Y0096500D01*
X0039476Y0096750D01*
X0039726Y0097001D01*
X0041199Y0097751D02*
X0041950Y0097001D01*
X0041199Y0097751D02*
X0041199Y0096250D01*
X0039936Y0094751D02*
X0040187Y0094501D01*
X0040187Y0093500D01*
X0039936Y0093250D01*
X0039436Y0093250D01*
X0039186Y0093500D01*
X0039186Y0094001D01*
X0039686Y0094001D01*
X0039186Y0094501D02*
X0039436Y0094751D01*
X0039936Y0094751D01*
X0043173Y0096250D02*
X0043423Y0096500D01*
X0044646Y0096250D02*
X0044897Y0096500D01*
X0044897Y0097751D01*
X0040187Y0098750D02*
X0040187Y0100251D01*
X0039436Y0100251D01*
X0039186Y0100001D01*
X0039186Y0099501D01*
X0039436Y0099250D01*
X0040187Y0099250D01*
X0039686Y0099250D02*
X0039186Y0098750D01*
X0025187Y0094751D02*
X0025187Y0093250D01*
X0024436Y0093250D01*
X0024186Y0093500D01*
X0024186Y0093750D01*
X0024436Y0094001D01*
X0025187Y0094001D01*
X0025187Y0094751D02*
X0024436Y0094751D01*
X0024186Y0094501D01*
X0024186Y0094251D01*
X0024436Y0094001D01*
X0024646Y0096250D02*
X0024146Y0096250D01*
X0023896Y0096500D01*
X0023896Y0097751D01*
X0023423Y0097501D02*
X0023173Y0097751D01*
X0022673Y0097751D01*
X0022422Y0097501D01*
X0022673Y0097001D02*
X0023173Y0097001D01*
X0023423Y0097251D01*
X0023423Y0097501D01*
X0022923Y0098001D02*
X0022923Y0096000D01*
X0023173Y0096250D02*
X0022673Y0096250D01*
X0022422Y0096500D01*
X0022422Y0096750D01*
X0022673Y0097001D01*
X0021950Y0097001D02*
X0020949Y0097001D01*
X0020477Y0096500D02*
X0020477Y0096250D01*
X0020477Y0096500D02*
X0019476Y0097501D01*
X0019476Y0097751D01*
X0020477Y0097751D01*
X0021199Y0097751D02*
X0021199Y0096250D01*
X0021950Y0097001D02*
X0021199Y0097751D01*
X0020187Y0098750D02*
X0020187Y0100251D01*
X0019436Y0100251D01*
X0019186Y0100001D01*
X0019186Y0099501D01*
X0019436Y0099250D01*
X0020187Y0099250D01*
X0019686Y0099250D02*
X0019186Y0098750D01*
X0019436Y0094751D02*
X0019936Y0094751D01*
X0020187Y0094501D01*
X0020187Y0093500D01*
X0019936Y0093250D01*
X0019436Y0093250D01*
X0019186Y0093500D01*
X0019186Y0094001D01*
X0019686Y0094001D01*
X0019186Y0094501D02*
X0019436Y0094751D01*
X0023173Y0096250D02*
X0023423Y0096500D01*
X0024646Y0096250D02*
X0024897Y0096500D01*
X0024897Y0097751D01*
X0025187Y0113250D02*
X0024436Y0113250D01*
X0024186Y0113500D01*
X0024186Y0113750D01*
X0024436Y0114001D01*
X0025187Y0114001D01*
X0025187Y0114751D02*
X0024436Y0114751D01*
X0024186Y0114501D01*
X0024186Y0114251D01*
X0024436Y0114001D01*
X0025187Y0114751D02*
X0025187Y0113250D01*
X0024646Y0116250D02*
X0024146Y0116250D01*
X0023896Y0116500D01*
X0023896Y0117751D01*
X0023423Y0117501D02*
X0023173Y0117751D01*
X0022673Y0117751D01*
X0022422Y0117501D01*
X0022673Y0117001D02*
X0023173Y0117001D01*
X0023423Y0117251D01*
X0023423Y0117501D01*
X0022923Y0118001D02*
X0022923Y0116000D01*
X0023173Y0116250D02*
X0022673Y0116250D01*
X0022422Y0116500D01*
X0022422Y0116750D01*
X0022673Y0117001D01*
X0021950Y0117001D02*
X0020949Y0117001D01*
X0020477Y0117501D02*
X0020227Y0117751D01*
X0019726Y0117751D01*
X0019476Y0117501D01*
X0019476Y0117251D01*
X0019726Y0117001D01*
X0019476Y0116750D01*
X0019476Y0116500D01*
X0019726Y0116250D01*
X0020227Y0116250D01*
X0020477Y0116500D01*
X0019976Y0117001D02*
X0019726Y0117001D01*
X0021199Y0117751D02*
X0021199Y0116250D01*
X0021950Y0117001D02*
X0021199Y0117751D01*
X0020187Y0118750D02*
X0020187Y0120251D01*
X0019436Y0120251D01*
X0019186Y0120001D01*
X0019186Y0119501D01*
X0019436Y0119250D01*
X0020187Y0119250D01*
X0019686Y0119250D02*
X0019186Y0118750D01*
X0023173Y0116250D02*
X0023423Y0116500D01*
X0024646Y0116250D02*
X0024897Y0116500D01*
X0024897Y0117751D01*
X0020187Y0114501D02*
X0020187Y0113500D01*
X0019936Y0113250D01*
X0019436Y0113250D01*
X0019186Y0113500D01*
X0019186Y0114001D01*
X0019686Y0114001D01*
X0019186Y0114501D02*
X0019436Y0114751D01*
X0019936Y0114751D01*
X0020187Y0114501D01*
X0039186Y0114501D02*
X0039436Y0114751D01*
X0039936Y0114751D01*
X0040187Y0114501D01*
X0040187Y0113500D01*
X0039936Y0113250D01*
X0039436Y0113250D01*
X0039186Y0113500D01*
X0039186Y0114001D01*
X0039686Y0114001D01*
X0039726Y0116250D02*
X0039726Y0117751D01*
X0040477Y0117001D01*
X0039476Y0117001D01*
X0040949Y0117001D02*
X0041950Y0117001D01*
X0041199Y0117751D01*
X0041199Y0116250D01*
X0042422Y0116500D02*
X0042422Y0116750D01*
X0042673Y0117001D01*
X0043173Y0117001D01*
X0043423Y0117251D01*
X0043423Y0117501D01*
X0043173Y0117751D01*
X0042673Y0117751D01*
X0042422Y0117501D01*
X0042923Y0118001D02*
X0042923Y0116000D01*
X0043173Y0116250D02*
X0042673Y0116250D01*
X0042422Y0116500D01*
X0043173Y0116250D02*
X0043423Y0116500D01*
X0043896Y0116500D02*
X0043896Y0117751D01*
X0044897Y0117751D02*
X0044897Y0116500D01*
X0044646Y0116250D01*
X0044146Y0116250D01*
X0043896Y0116500D01*
X0044436Y0114751D02*
X0044186Y0114501D01*
X0044186Y0114251D01*
X0044436Y0114001D01*
X0045187Y0114001D01*
X0045187Y0114751D02*
X0044436Y0114751D01*
X0044436Y0114001D02*
X0044186Y0113750D01*
X0044186Y0113500D01*
X0044436Y0113250D01*
X0045187Y0113250D01*
X0045187Y0114751D01*
X0040187Y0118750D02*
X0040187Y0120251D01*
X0039436Y0120251D01*
X0039186Y0120001D01*
X0039186Y0119501D01*
X0039436Y0119250D01*
X0040187Y0119250D01*
X0039686Y0119250D02*
X0039186Y0118750D01*
X0039436Y0133250D02*
X0039186Y0133500D01*
X0039186Y0134001D01*
X0039686Y0134001D01*
X0039186Y0134501D02*
X0039436Y0134751D01*
X0039936Y0134751D01*
X0040187Y0134501D01*
X0040187Y0133500D01*
X0039936Y0133250D01*
X0039436Y0133250D01*
X0039726Y0136250D02*
X0039476Y0136500D01*
X0039476Y0137501D01*
X0040477Y0136500D01*
X0040227Y0136250D01*
X0039726Y0136250D01*
X0040477Y0136500D02*
X0040477Y0137501D01*
X0040227Y0137751D01*
X0039726Y0137751D01*
X0039476Y0137501D01*
X0039186Y0138750D02*
X0039686Y0139250D01*
X0039436Y0139250D02*
X0040187Y0139250D01*
X0040187Y0138750D02*
X0040187Y0140251D01*
X0039436Y0140251D01*
X0039186Y0140001D01*
X0039186Y0139501D01*
X0039436Y0139250D01*
X0041199Y0137751D02*
X0041950Y0137001D01*
X0040949Y0137001D01*
X0041199Y0137751D02*
X0041199Y0136250D01*
X0042422Y0136500D02*
X0042422Y0136750D01*
X0042673Y0137001D01*
X0043173Y0137001D01*
X0043423Y0137251D01*
X0043423Y0137501D01*
X0043173Y0137751D01*
X0042673Y0137751D01*
X0042422Y0137501D01*
X0042923Y0138001D02*
X0042923Y0136000D01*
X0043173Y0136250D02*
X0042673Y0136250D01*
X0042422Y0136500D01*
X0043173Y0136250D02*
X0043423Y0136500D01*
X0043896Y0136500D02*
X0043896Y0137751D01*
X0044897Y0137751D02*
X0044897Y0136500D01*
X0044646Y0136250D01*
X0044146Y0136250D01*
X0043896Y0136500D01*
X0044436Y0134751D02*
X0044186Y0134501D01*
X0044186Y0134251D01*
X0044436Y0134001D01*
X0045187Y0134001D01*
X0045187Y0134751D02*
X0044436Y0134751D01*
X0044436Y0134001D02*
X0044186Y0133750D01*
X0044186Y0133500D01*
X0044436Y0133250D01*
X0045187Y0133250D01*
X0045187Y0134751D01*
X0059186Y0134501D02*
X0059436Y0134751D01*
X0059936Y0134751D01*
X0060187Y0134501D01*
X0060187Y0133500D01*
X0059936Y0133250D01*
X0059436Y0133250D01*
X0059186Y0133500D01*
X0059186Y0134001D01*
X0059686Y0134001D01*
X0059476Y0136250D02*
X0060477Y0136250D01*
X0059976Y0136250D02*
X0059976Y0137751D01*
X0060477Y0137251D01*
X0060949Y0137001D02*
X0061950Y0137001D01*
X0061199Y0137751D01*
X0061199Y0136250D01*
X0062422Y0136500D02*
X0062422Y0136750D01*
X0062673Y0137001D01*
X0063173Y0137001D01*
X0063423Y0137251D01*
X0063423Y0137501D01*
X0063173Y0137751D01*
X0062673Y0137751D01*
X0062422Y0137501D01*
X0062923Y0138001D02*
X0062923Y0136000D01*
X0063173Y0136250D02*
X0062673Y0136250D01*
X0062422Y0136500D01*
X0063173Y0136250D02*
X0063423Y0136500D01*
X0063896Y0136500D02*
X0063896Y0137751D01*
X0064897Y0137751D02*
X0064897Y0136500D01*
X0064646Y0136250D01*
X0064146Y0136250D01*
X0063896Y0136500D01*
X0064436Y0134751D02*
X0064186Y0134501D01*
X0064186Y0134251D01*
X0064436Y0134001D01*
X0065187Y0134001D01*
X0065187Y0134751D02*
X0064436Y0134751D01*
X0064436Y0134001D02*
X0064186Y0133750D01*
X0064186Y0133500D01*
X0064436Y0133250D01*
X0065187Y0133250D01*
X0065187Y0134751D01*
X0060187Y0138750D02*
X0060187Y0140251D01*
X0059436Y0140251D01*
X0059186Y0140001D01*
X0059186Y0139501D01*
X0059436Y0139250D01*
X0060187Y0139250D01*
X0059686Y0139250D02*
X0059186Y0138750D01*
X0059436Y0153250D02*
X0059186Y0153500D01*
X0059186Y0154001D01*
X0059686Y0154001D01*
X0059186Y0154501D02*
X0059436Y0154751D01*
X0059936Y0154751D01*
X0060187Y0154501D01*
X0060187Y0153500D01*
X0059936Y0153250D01*
X0059436Y0153250D01*
X0060477Y0156250D02*
X0060477Y0156500D01*
X0059476Y0157501D01*
X0059476Y0157751D01*
X0060477Y0157751D01*
X0060949Y0157501D02*
X0060949Y0157251D01*
X0061199Y0157001D01*
X0060949Y0156750D01*
X0060949Y0156500D01*
X0061199Y0156250D01*
X0061700Y0156250D01*
X0061950Y0156500D01*
X0062422Y0156500D02*
X0062422Y0156750D01*
X0062673Y0157001D01*
X0063173Y0157001D01*
X0063423Y0157251D01*
X0063423Y0157501D01*
X0063173Y0157751D01*
X0062673Y0157751D01*
X0062422Y0157501D01*
X0061950Y0157501D02*
X0061700Y0157751D01*
X0061199Y0157751D01*
X0060949Y0157501D01*
X0061199Y0157001D02*
X0061450Y0157001D01*
X0062422Y0156500D02*
X0062673Y0156250D01*
X0063173Y0156250D01*
X0063423Y0156500D01*
X0063896Y0156500D02*
X0063896Y0157751D01*
X0064897Y0157751D02*
X0064897Y0156500D01*
X0064646Y0156250D01*
X0064146Y0156250D01*
X0063896Y0156500D01*
X0062923Y0156000D02*
X0062923Y0158001D01*
X0060187Y0158750D02*
X0060187Y0160251D01*
X0059436Y0160251D01*
X0059186Y0160001D01*
X0059186Y0159501D01*
X0059436Y0159250D01*
X0060187Y0159250D01*
X0059686Y0159250D02*
X0059186Y0158750D01*
X0064186Y0154501D02*
X0064186Y0154251D01*
X0064436Y0154001D01*
X0065187Y0154001D01*
X0065187Y0154751D02*
X0064436Y0154751D01*
X0064186Y0154501D01*
X0064436Y0154001D02*
X0064186Y0153750D01*
X0064186Y0153500D01*
X0064436Y0153250D01*
X0065187Y0153250D01*
X0065187Y0154751D01*
X0079186Y0154501D02*
X0079436Y0154751D01*
X0079936Y0154751D01*
X0080187Y0154501D01*
X0080187Y0153500D01*
X0079936Y0153250D01*
X0079436Y0153250D01*
X0079186Y0153500D01*
X0079186Y0154001D01*
X0079686Y0154001D01*
X0079726Y0156250D02*
X0080227Y0156250D01*
X0080477Y0156500D01*
X0080477Y0156750D01*
X0080227Y0157001D01*
X0079726Y0157001D01*
X0079476Y0156750D01*
X0079476Y0156500D01*
X0079726Y0156250D01*
X0079726Y0157001D02*
X0079476Y0157251D01*
X0079476Y0157501D01*
X0079726Y0157751D01*
X0080227Y0157751D01*
X0080477Y0157501D01*
X0080477Y0157251D01*
X0080227Y0157001D01*
X0080949Y0157251D02*
X0081199Y0157001D01*
X0080949Y0156750D01*
X0080949Y0156500D01*
X0081199Y0156250D01*
X0081700Y0156250D01*
X0081950Y0156500D01*
X0082422Y0156500D02*
X0082422Y0156750D01*
X0082673Y0157001D01*
X0083173Y0157001D01*
X0083423Y0157251D01*
X0083423Y0157501D01*
X0083173Y0157751D01*
X0082673Y0157751D01*
X0082422Y0157501D01*
X0081950Y0157501D02*
X0081700Y0157751D01*
X0081199Y0157751D01*
X0080949Y0157501D01*
X0080949Y0157251D01*
X0081199Y0157001D02*
X0081450Y0157001D01*
X0082422Y0156500D02*
X0082673Y0156250D01*
X0083173Y0156250D01*
X0083423Y0156500D01*
X0083896Y0156500D02*
X0083896Y0157751D01*
X0084897Y0157751D02*
X0084897Y0156500D01*
X0084646Y0156250D01*
X0084146Y0156250D01*
X0083896Y0156500D01*
X0082923Y0156000D02*
X0082923Y0158001D01*
X0080187Y0158750D02*
X0080187Y0160251D01*
X0079436Y0160251D01*
X0079186Y0160001D01*
X0079186Y0159501D01*
X0079436Y0159250D01*
X0080187Y0159250D01*
X0079686Y0159250D02*
X0079186Y0158750D01*
X0084186Y0154501D02*
X0084186Y0154251D01*
X0084436Y0154001D01*
X0085187Y0154001D01*
X0085187Y0154751D02*
X0084436Y0154751D01*
X0084186Y0154501D01*
X0084436Y0154001D02*
X0084186Y0153750D01*
X0084186Y0153500D01*
X0084436Y0153250D01*
X0085187Y0153250D01*
X0085187Y0154751D01*
X0080187Y0140251D02*
X0079436Y0140251D01*
X0079186Y0140001D01*
X0079186Y0139501D01*
X0079436Y0139250D01*
X0080187Y0139250D01*
X0080187Y0138750D02*
X0080187Y0140251D01*
X0079686Y0139250D02*
X0079186Y0138750D01*
X0079726Y0137751D02*
X0080227Y0137751D01*
X0080477Y0137501D01*
X0080949Y0137001D02*
X0081950Y0137001D01*
X0081199Y0137751D01*
X0081199Y0136250D01*
X0080477Y0136250D02*
X0079476Y0137251D01*
X0079476Y0137501D01*
X0079726Y0137751D01*
X0079476Y0136250D02*
X0080477Y0136250D01*
X0079936Y0134751D02*
X0080187Y0134501D01*
X0080187Y0133500D01*
X0079936Y0133250D01*
X0079436Y0133250D01*
X0079186Y0133500D01*
X0079186Y0134001D01*
X0079686Y0134001D01*
X0079186Y0134501D02*
X0079436Y0134751D01*
X0079936Y0134751D01*
X0082422Y0136500D02*
X0082422Y0136750D01*
X0082673Y0137001D01*
X0083173Y0137001D01*
X0083423Y0137251D01*
X0083423Y0137501D01*
X0083173Y0137751D01*
X0082673Y0137751D01*
X0082422Y0137501D01*
X0082923Y0138001D02*
X0082923Y0136000D01*
X0083173Y0136250D02*
X0082673Y0136250D01*
X0082422Y0136500D01*
X0083173Y0136250D02*
X0083423Y0136500D01*
X0083896Y0136500D02*
X0083896Y0137751D01*
X0084897Y0137751D02*
X0084897Y0136500D01*
X0084646Y0136250D01*
X0084146Y0136250D01*
X0083896Y0136500D01*
X0084436Y0134751D02*
X0084186Y0134501D01*
X0084186Y0134251D01*
X0084436Y0134001D01*
X0085187Y0134001D01*
X0085187Y0134751D02*
X0084436Y0134751D01*
X0084436Y0134001D02*
X0084186Y0133750D01*
X0084186Y0133500D01*
X0084436Y0133250D01*
X0085187Y0133250D01*
X0085187Y0134751D01*
X0080187Y0120251D02*
X0079436Y0120251D01*
X0079186Y0120001D01*
X0079186Y0119501D01*
X0079436Y0119250D01*
X0080187Y0119250D01*
X0080187Y0118750D02*
X0080187Y0120251D01*
X0079686Y0119250D02*
X0079186Y0118750D01*
X0079476Y0117751D02*
X0079976Y0117501D01*
X0080477Y0117001D01*
X0079726Y0117001D01*
X0079476Y0116750D01*
X0079476Y0116500D01*
X0079726Y0116250D01*
X0080227Y0116250D01*
X0080477Y0116500D01*
X0080477Y0117001D01*
X0080949Y0117001D02*
X0081950Y0117001D01*
X0081199Y0117751D01*
X0081199Y0116250D01*
X0082422Y0116500D02*
X0082422Y0116750D01*
X0082673Y0117001D01*
X0083173Y0117001D01*
X0083423Y0117251D01*
X0083423Y0117501D01*
X0083173Y0117751D01*
X0082673Y0117751D01*
X0082422Y0117501D01*
X0082923Y0118001D02*
X0082923Y0116000D01*
X0083173Y0116250D02*
X0082673Y0116250D01*
X0082422Y0116500D01*
X0083173Y0116250D02*
X0083423Y0116500D01*
X0083896Y0116500D02*
X0083896Y0117751D01*
X0084897Y0117751D02*
X0084897Y0116500D01*
X0084646Y0116250D01*
X0084146Y0116250D01*
X0083896Y0116500D01*
X0084436Y0114751D02*
X0084186Y0114501D01*
X0084186Y0114251D01*
X0084436Y0114001D01*
X0085187Y0114001D01*
X0085187Y0114751D02*
X0084436Y0114751D01*
X0084436Y0114001D02*
X0084186Y0113750D01*
X0084186Y0113500D01*
X0084436Y0113250D01*
X0085187Y0113250D01*
X0085187Y0114751D01*
X0080187Y0114501D02*
X0080187Y0113500D01*
X0079936Y0113250D01*
X0079436Y0113250D01*
X0079186Y0113500D01*
X0079186Y0114001D01*
X0079686Y0114001D01*
X0079186Y0114501D02*
X0079436Y0114751D01*
X0079936Y0114751D01*
X0080187Y0114501D01*
X0065187Y0114751D02*
X0064436Y0114751D01*
X0064186Y0114501D01*
X0064186Y0114251D01*
X0064436Y0114001D01*
X0065187Y0114001D01*
X0065187Y0114751D02*
X0065187Y0113250D01*
X0064436Y0113250D01*
X0064186Y0113500D01*
X0064186Y0113750D01*
X0064436Y0114001D01*
X0064646Y0116250D02*
X0064146Y0116250D01*
X0063896Y0116500D01*
X0063896Y0117751D01*
X0063423Y0117501D02*
X0063173Y0117751D01*
X0062673Y0117751D01*
X0062422Y0117501D01*
X0062673Y0117001D02*
X0063173Y0117001D01*
X0063423Y0117251D01*
X0063423Y0117501D01*
X0062923Y0118001D02*
X0062923Y0116000D01*
X0063173Y0116250D02*
X0062673Y0116250D01*
X0062422Y0116500D01*
X0062422Y0116750D01*
X0062673Y0117001D01*
X0061950Y0117001D02*
X0060949Y0117001D01*
X0060477Y0117001D02*
X0059976Y0117251D01*
X0059726Y0117251D01*
X0059476Y0117001D01*
X0059476Y0116500D01*
X0059726Y0116250D01*
X0060227Y0116250D01*
X0060477Y0116500D01*
X0060477Y0117001D02*
X0060477Y0117751D01*
X0059476Y0117751D01*
X0059186Y0118750D02*
X0059686Y0119250D01*
X0059436Y0119250D02*
X0060187Y0119250D01*
X0060187Y0118750D02*
X0060187Y0120251D01*
X0059436Y0120251D01*
X0059186Y0120001D01*
X0059186Y0119501D01*
X0059436Y0119250D01*
X0061199Y0117751D02*
X0061950Y0117001D01*
X0061199Y0117751D02*
X0061199Y0116250D01*
X0059936Y0114751D02*
X0060187Y0114501D01*
X0060187Y0113500D01*
X0059936Y0113250D01*
X0059436Y0113250D01*
X0059186Y0113500D01*
X0059186Y0114001D01*
X0059686Y0114001D01*
X0059186Y0114501D02*
X0059436Y0114751D01*
X0059936Y0114751D01*
X0063173Y0116250D02*
X0063423Y0116500D01*
X0064646Y0116250D02*
X0064897Y0116500D01*
X0064897Y0117751D01*
X0025187Y0133250D02*
X0024436Y0133250D01*
X0024186Y0133500D01*
X0024186Y0133750D01*
X0024436Y0134001D01*
X0025187Y0134001D01*
X0025187Y0134751D02*
X0024436Y0134751D01*
X0024186Y0134501D01*
X0024186Y0134251D01*
X0024436Y0134001D01*
X0025187Y0134751D02*
X0025187Y0133250D01*
X0024646Y0136250D02*
X0024146Y0136250D01*
X0023896Y0136500D01*
X0023896Y0137751D01*
X0023423Y0137501D02*
X0023173Y0137751D01*
X0022673Y0137751D01*
X0022422Y0137501D01*
X0021950Y0137501D02*
X0021700Y0137751D01*
X0021199Y0137751D01*
X0020949Y0137501D01*
X0020949Y0137251D01*
X0021199Y0137001D01*
X0020949Y0136750D01*
X0020949Y0136500D01*
X0021199Y0136250D01*
X0021700Y0136250D01*
X0021950Y0136500D01*
X0022422Y0136500D02*
X0022422Y0136750D01*
X0022673Y0137001D01*
X0023173Y0137001D01*
X0023423Y0137251D01*
X0023423Y0137501D01*
X0022923Y0138001D02*
X0022923Y0136000D01*
X0023173Y0136250D02*
X0022673Y0136250D01*
X0022422Y0136500D01*
X0023173Y0136250D02*
X0023423Y0136500D01*
X0024646Y0136250D02*
X0024897Y0136500D01*
X0024897Y0137751D01*
X0021450Y0137001D02*
X0021199Y0137001D01*
X0020477Y0137251D02*
X0020227Y0137001D01*
X0019476Y0137001D01*
X0019476Y0137501D02*
X0019726Y0137751D01*
X0020227Y0137751D01*
X0020477Y0137501D01*
X0020477Y0137251D01*
X0020477Y0136500D02*
X0020227Y0136250D01*
X0019726Y0136250D01*
X0019476Y0136500D01*
X0019476Y0137501D01*
X0019186Y0138750D02*
X0019686Y0139250D01*
X0019436Y0139250D02*
X0020187Y0139250D01*
X0020187Y0138750D02*
X0020187Y0140251D01*
X0019436Y0140251D01*
X0019186Y0140001D01*
X0019186Y0139501D01*
X0019436Y0139250D01*
X0019436Y0134751D02*
X0019936Y0134751D01*
X0020187Y0134501D01*
X0020187Y0133500D01*
X0019936Y0133250D01*
X0019436Y0133250D01*
X0019186Y0133500D01*
X0019186Y0134001D01*
X0019686Y0134001D01*
X0019186Y0134501D02*
X0019436Y0134751D01*
X0019436Y0153250D02*
X0019186Y0153500D01*
X0019186Y0154001D01*
X0019686Y0154001D01*
X0019186Y0154501D02*
X0019436Y0154751D01*
X0019936Y0154751D01*
X0020187Y0154501D01*
X0020187Y0153500D01*
X0019936Y0153250D01*
X0019436Y0153250D01*
X0019726Y0156250D02*
X0020227Y0156250D01*
X0020477Y0156500D01*
X0020949Y0156500D02*
X0021199Y0156250D01*
X0021700Y0156250D01*
X0021950Y0156500D01*
X0022422Y0156500D02*
X0022422Y0156750D01*
X0022673Y0157001D01*
X0023173Y0157001D01*
X0023423Y0157251D01*
X0023423Y0157501D01*
X0023173Y0157751D01*
X0022673Y0157751D01*
X0022422Y0157501D01*
X0021950Y0157501D02*
X0021700Y0157751D01*
X0021199Y0157751D01*
X0020949Y0157501D01*
X0020949Y0157251D01*
X0021199Y0157001D01*
X0020949Y0156750D01*
X0020949Y0156500D01*
X0021199Y0157001D02*
X0021450Y0157001D01*
X0020477Y0157001D02*
X0019976Y0157251D01*
X0019726Y0157251D01*
X0019476Y0157001D01*
X0019476Y0156500D01*
X0019726Y0156250D01*
X0020477Y0157001D02*
X0020477Y0157751D01*
X0019476Y0157751D01*
X0019186Y0158750D02*
X0019686Y0159250D01*
X0019436Y0159250D02*
X0020187Y0159250D01*
X0020187Y0158750D02*
X0020187Y0160251D01*
X0019436Y0160251D01*
X0019186Y0160001D01*
X0019186Y0159501D01*
X0019436Y0159250D01*
X0022923Y0158001D02*
X0022923Y0156000D01*
X0023173Y0156250D02*
X0022673Y0156250D01*
X0022422Y0156500D01*
X0023173Y0156250D02*
X0023423Y0156500D01*
X0023896Y0156500D02*
X0023896Y0157751D01*
X0024897Y0157751D02*
X0024897Y0156500D01*
X0024646Y0156250D01*
X0024146Y0156250D01*
X0023896Y0156500D01*
X0024436Y0154751D02*
X0024186Y0154501D01*
X0024186Y0154251D01*
X0024436Y0154001D01*
X0025187Y0154001D01*
X0025187Y0154751D02*
X0024436Y0154751D01*
X0024436Y0154001D02*
X0024186Y0153750D01*
X0024186Y0153500D01*
X0024436Y0153250D01*
X0025187Y0153250D01*
X0025187Y0154751D01*
X0039186Y0154501D02*
X0039436Y0154751D01*
X0039936Y0154751D01*
X0040187Y0154501D01*
X0040187Y0153500D01*
X0039936Y0153250D01*
X0039436Y0153250D01*
X0039186Y0153500D01*
X0039186Y0154001D01*
X0039686Y0154001D01*
X0039726Y0156250D02*
X0039476Y0156500D01*
X0039476Y0156750D01*
X0039726Y0157001D01*
X0040477Y0157001D01*
X0040477Y0156500D01*
X0040227Y0156250D01*
X0039726Y0156250D01*
X0040477Y0157001D02*
X0039976Y0157501D01*
X0039476Y0157751D01*
X0039186Y0158750D02*
X0039686Y0159250D01*
X0039436Y0159250D02*
X0040187Y0159250D01*
X0040187Y0158750D02*
X0040187Y0160251D01*
X0039436Y0160251D01*
X0039186Y0160001D01*
X0039186Y0159501D01*
X0039436Y0159250D01*
X0040949Y0157501D02*
X0040949Y0157251D01*
X0041199Y0157001D01*
X0040949Y0156750D01*
X0040949Y0156500D01*
X0041199Y0156250D01*
X0041700Y0156250D01*
X0041950Y0156500D01*
X0042422Y0156500D02*
X0042422Y0156750D01*
X0042673Y0157001D01*
X0043173Y0157001D01*
X0043423Y0157251D01*
X0043423Y0157501D01*
X0043173Y0157751D01*
X0042673Y0157751D01*
X0042422Y0157501D01*
X0041950Y0157501D02*
X0041700Y0157751D01*
X0041199Y0157751D01*
X0040949Y0157501D01*
X0041199Y0157001D02*
X0041450Y0157001D01*
X0042422Y0156500D02*
X0042673Y0156250D01*
X0043173Y0156250D01*
X0043423Y0156500D01*
X0043896Y0156500D02*
X0043896Y0157751D01*
X0044897Y0157751D02*
X0044897Y0156500D01*
X0044646Y0156250D01*
X0044146Y0156250D01*
X0043896Y0156500D01*
X0042923Y0156000D02*
X0042923Y0158001D01*
X0044436Y0154751D02*
X0044186Y0154501D01*
X0044186Y0154251D01*
X0044436Y0154001D01*
X0045187Y0154001D01*
X0045187Y0154751D02*
X0044436Y0154751D01*
X0044436Y0154001D02*
X0044186Y0153750D01*
X0044186Y0153500D01*
X0044436Y0153250D01*
X0045187Y0153250D01*
X0045187Y0154751D01*
X0040187Y0075251D02*
X0039436Y0075251D01*
X0039186Y0075001D01*
X0039186Y0074501D01*
X0039436Y0074250D01*
X0040187Y0074250D01*
X0040187Y0073750D02*
X0040187Y0075251D01*
X0039686Y0074250D02*
X0039186Y0073750D01*
X0039726Y0072751D02*
X0039476Y0072501D01*
X0039476Y0072251D01*
X0039726Y0072001D01*
X0040227Y0072001D01*
X0040477Y0072251D01*
X0040477Y0072501D01*
X0040227Y0072751D01*
X0039726Y0072751D01*
X0039726Y0072001D02*
X0039476Y0071750D01*
X0039476Y0071500D01*
X0039726Y0071250D01*
X0040227Y0071250D01*
X0040477Y0071500D01*
X0040477Y0071750D01*
X0040227Y0072001D01*
X0040949Y0071250D02*
X0041950Y0071250D01*
X0041450Y0071250D02*
X0041450Y0072751D01*
X0041950Y0072251D01*
X0042422Y0072501D02*
X0042673Y0072751D01*
X0043173Y0072751D01*
X0043423Y0072501D01*
X0043423Y0072251D01*
X0043173Y0072001D01*
X0042673Y0072001D01*
X0042422Y0071750D01*
X0042422Y0071500D01*
X0042673Y0071250D01*
X0043173Y0071250D01*
X0043423Y0071500D01*
X0043896Y0071500D02*
X0043896Y0072751D01*
X0044897Y0072751D02*
X0044897Y0071500D01*
X0044646Y0071250D01*
X0044146Y0071250D01*
X0043896Y0071500D01*
X0042923Y0071000D02*
X0042923Y0073001D01*
X0044436Y0069751D02*
X0044186Y0069501D01*
X0044186Y0069251D01*
X0044436Y0069001D01*
X0045187Y0069001D01*
X0045187Y0069751D02*
X0045187Y0068250D01*
X0044436Y0068250D01*
X0044186Y0068500D01*
X0044186Y0068750D01*
X0044436Y0069001D01*
X0044436Y0069751D02*
X0045187Y0069751D01*
X0040187Y0069501D02*
X0040187Y0068500D01*
X0039936Y0068250D01*
X0039436Y0068250D01*
X0039186Y0068500D01*
X0039186Y0069001D01*
X0039686Y0069001D01*
X0039186Y0069501D02*
X0039436Y0069751D01*
X0039936Y0069751D01*
X0040187Y0069501D01*
X0025187Y0069751D02*
X0025187Y0068250D01*
X0024436Y0068250D01*
X0024186Y0068500D01*
X0024186Y0068750D01*
X0024436Y0069001D01*
X0025187Y0069001D01*
X0025187Y0069751D02*
X0024436Y0069751D01*
X0024186Y0069501D01*
X0024186Y0069251D01*
X0024436Y0069001D01*
X0024646Y0071250D02*
X0024146Y0071250D01*
X0023896Y0071500D01*
X0023896Y0072751D01*
X0023423Y0072501D02*
X0023173Y0072751D01*
X0022673Y0072751D01*
X0022422Y0072501D01*
X0021950Y0072251D02*
X0021450Y0072751D01*
X0021450Y0071250D01*
X0021950Y0071250D02*
X0020949Y0071250D01*
X0020477Y0071250D02*
X0020477Y0071500D01*
X0019476Y0072501D01*
X0019476Y0072751D01*
X0020477Y0072751D01*
X0020187Y0073750D02*
X0020187Y0075251D01*
X0019436Y0075251D01*
X0019186Y0075001D01*
X0019186Y0074501D01*
X0019436Y0074250D01*
X0020187Y0074250D01*
X0019686Y0074250D02*
X0019186Y0073750D01*
X0022422Y0071750D02*
X0022673Y0072001D01*
X0023173Y0072001D01*
X0023423Y0072251D01*
X0023423Y0072501D01*
X0022923Y0073001D02*
X0022923Y0071000D01*
X0023173Y0071250D02*
X0022673Y0071250D01*
X0022422Y0071500D01*
X0022422Y0071750D01*
X0023173Y0071250D02*
X0023423Y0071500D01*
X0024646Y0071250D02*
X0024897Y0071500D01*
X0024897Y0072751D01*
X0020187Y0069501D02*
X0020187Y0068500D01*
X0019936Y0068250D01*
X0019436Y0068250D01*
X0019186Y0068500D01*
X0019186Y0069001D01*
X0019686Y0069001D01*
X0019186Y0069501D02*
X0019436Y0069751D01*
X0019936Y0069751D01*
X0020187Y0069501D01*
X0020187Y0055251D02*
X0019436Y0055251D01*
X0019186Y0055001D01*
X0019186Y0054501D01*
X0019436Y0054250D01*
X0020187Y0054250D01*
X0020187Y0053750D02*
X0020187Y0055251D01*
X0019686Y0054250D02*
X0019186Y0053750D01*
X0019976Y0052751D02*
X0019976Y0051250D01*
X0019476Y0051250D02*
X0020477Y0051250D01*
X0020949Y0051250D02*
X0021950Y0051250D01*
X0020949Y0052251D01*
X0020949Y0052501D01*
X0021199Y0052751D01*
X0021700Y0052751D01*
X0021950Y0052501D01*
X0022422Y0052501D02*
X0022673Y0052751D01*
X0023173Y0052751D01*
X0023423Y0052501D01*
X0023423Y0052251D01*
X0023173Y0052001D01*
X0022673Y0052001D01*
X0022422Y0051750D01*
X0022422Y0051500D01*
X0022673Y0051250D01*
X0023173Y0051250D01*
X0023423Y0051500D01*
X0023896Y0051500D02*
X0023896Y0052751D01*
X0024897Y0052751D02*
X0024897Y0051500D01*
X0024646Y0051250D01*
X0024146Y0051250D01*
X0023896Y0051500D01*
X0022923Y0051000D02*
X0022923Y0053001D01*
X0020477Y0052251D02*
X0019976Y0052751D01*
X0019936Y0049751D02*
X0020187Y0049501D01*
X0020187Y0048500D01*
X0019936Y0048250D01*
X0019436Y0048250D01*
X0019186Y0048500D01*
X0019186Y0049001D01*
X0019686Y0049001D01*
X0019186Y0049501D02*
X0019436Y0049751D01*
X0019936Y0049751D01*
X0024186Y0049501D02*
X0024186Y0049251D01*
X0024436Y0049001D01*
X0025187Y0049001D01*
X0025187Y0049751D02*
X0025187Y0048250D01*
X0024436Y0048250D01*
X0024186Y0048500D01*
X0024186Y0048750D01*
X0024436Y0049001D01*
X0024186Y0049501D02*
X0024436Y0049751D01*
X0025187Y0049751D01*
X0039186Y0049501D02*
X0039436Y0049751D01*
X0039936Y0049751D01*
X0040187Y0049501D01*
X0040187Y0048500D01*
X0039936Y0048250D01*
X0039436Y0048250D01*
X0039186Y0048500D01*
X0039186Y0049001D01*
X0039686Y0049001D01*
X0039476Y0051250D02*
X0040477Y0051250D01*
X0039476Y0052251D01*
X0039476Y0052501D01*
X0039726Y0052751D01*
X0040227Y0052751D01*
X0040477Y0052501D01*
X0040949Y0052501D02*
X0041199Y0052751D01*
X0041700Y0052751D01*
X0041950Y0052501D01*
X0042422Y0052501D02*
X0042673Y0052751D01*
X0043173Y0052751D01*
X0043423Y0052501D01*
X0043423Y0052251D01*
X0043173Y0052001D01*
X0042673Y0052001D01*
X0042422Y0051750D01*
X0042422Y0051500D01*
X0042673Y0051250D01*
X0043173Y0051250D01*
X0043423Y0051500D01*
X0043896Y0051500D02*
X0043896Y0052751D01*
X0044897Y0052751D02*
X0044897Y0051500D01*
X0044646Y0051250D01*
X0044146Y0051250D01*
X0043896Y0051500D01*
X0042923Y0051000D02*
X0042923Y0053001D01*
X0041950Y0051250D02*
X0040949Y0052251D01*
X0040949Y0052501D01*
X0040949Y0051250D02*
X0041950Y0051250D01*
X0044186Y0049501D02*
X0044186Y0049251D01*
X0044436Y0049001D01*
X0045187Y0049001D01*
X0045187Y0049751D02*
X0045187Y0048250D01*
X0044436Y0048250D01*
X0044186Y0048500D01*
X0044186Y0048750D01*
X0044436Y0049001D01*
X0044186Y0049501D02*
X0044436Y0049751D01*
X0045187Y0049751D01*
X0040187Y0053750D02*
X0040187Y0055251D01*
X0039436Y0055251D01*
X0039186Y0055001D01*
X0039186Y0054501D01*
X0039436Y0054250D01*
X0040187Y0054250D01*
X0039686Y0054250D02*
X0039186Y0053750D01*
X0059186Y0053750D02*
X0059686Y0054250D01*
X0059436Y0054250D02*
X0060187Y0054250D01*
X0060187Y0053750D02*
X0060187Y0055251D01*
X0059436Y0055251D01*
X0059186Y0055001D01*
X0059186Y0054501D01*
X0059436Y0054250D01*
X0059726Y0052751D02*
X0059476Y0052501D01*
X0059476Y0052251D01*
X0059726Y0052001D01*
X0059476Y0051750D01*
X0059476Y0051500D01*
X0059726Y0051250D01*
X0060227Y0051250D01*
X0060477Y0051500D01*
X0060949Y0051250D02*
X0061950Y0051250D01*
X0060949Y0052251D01*
X0060949Y0052501D01*
X0061199Y0052751D01*
X0061700Y0052751D01*
X0061950Y0052501D01*
X0062422Y0052501D02*
X0062673Y0052751D01*
X0063173Y0052751D01*
X0063423Y0052501D01*
X0063423Y0052251D01*
X0063173Y0052001D01*
X0062673Y0052001D01*
X0062422Y0051750D01*
X0062422Y0051500D01*
X0062673Y0051250D01*
X0063173Y0051250D01*
X0063423Y0051500D01*
X0063896Y0051500D02*
X0063896Y0052751D01*
X0064897Y0052751D02*
X0064897Y0051500D01*
X0064646Y0051250D01*
X0064146Y0051250D01*
X0063896Y0051500D01*
X0062923Y0051000D02*
X0062923Y0053001D01*
X0060477Y0052501D02*
X0060227Y0052751D01*
X0059726Y0052751D01*
X0059726Y0052001D02*
X0059976Y0052001D01*
X0059936Y0049751D02*
X0060187Y0049501D01*
X0060187Y0048500D01*
X0059936Y0048250D01*
X0059436Y0048250D01*
X0059186Y0048500D01*
X0059186Y0049001D01*
X0059686Y0049001D01*
X0059186Y0049501D02*
X0059436Y0049751D01*
X0059936Y0049751D01*
X0064186Y0049501D02*
X0064186Y0049251D01*
X0064436Y0049001D01*
X0065187Y0049001D01*
X0065187Y0049751D02*
X0065187Y0048250D01*
X0064436Y0048250D01*
X0064186Y0048500D01*
X0064186Y0048750D01*
X0064436Y0049001D01*
X0064186Y0049501D02*
X0064436Y0049751D01*
X0065187Y0049751D01*
X0079186Y0049501D02*
X0079436Y0049751D01*
X0079936Y0049751D01*
X0080187Y0049501D01*
X0080187Y0048500D01*
X0079936Y0048250D01*
X0079436Y0048250D01*
X0079186Y0048500D01*
X0079186Y0049001D01*
X0079686Y0049001D01*
X0079726Y0051250D02*
X0079726Y0052751D01*
X0080477Y0052001D01*
X0079476Y0052001D01*
X0080949Y0052251D02*
X0080949Y0052501D01*
X0081199Y0052751D01*
X0081700Y0052751D01*
X0081950Y0052501D01*
X0082422Y0052501D02*
X0082673Y0052751D01*
X0083173Y0052751D01*
X0083423Y0052501D01*
X0083423Y0052251D01*
X0083173Y0052001D01*
X0082673Y0052001D01*
X0082422Y0051750D01*
X0082422Y0051500D01*
X0082673Y0051250D01*
X0083173Y0051250D01*
X0083423Y0051500D01*
X0083896Y0051500D02*
X0083896Y0052751D01*
X0084897Y0052751D02*
X0084897Y0051500D01*
X0084646Y0051250D01*
X0084146Y0051250D01*
X0083896Y0051500D01*
X0082923Y0051000D02*
X0082923Y0053001D01*
X0081950Y0051250D02*
X0080949Y0052251D01*
X0080949Y0051250D02*
X0081950Y0051250D01*
X0084186Y0049501D02*
X0084186Y0049251D01*
X0084436Y0049001D01*
X0085187Y0049001D01*
X0085187Y0049751D02*
X0085187Y0048250D01*
X0084436Y0048250D01*
X0084186Y0048500D01*
X0084186Y0048750D01*
X0084436Y0049001D01*
X0084186Y0049501D02*
X0084436Y0049751D01*
X0085187Y0049751D01*
X0080187Y0053750D02*
X0080187Y0055251D01*
X0079436Y0055251D01*
X0079186Y0055001D01*
X0079186Y0054501D01*
X0079436Y0054250D01*
X0080187Y0054250D01*
X0079686Y0054250D02*
X0079186Y0053750D01*
X0079436Y0068250D02*
X0079186Y0068500D01*
X0079186Y0069001D01*
X0079686Y0069001D01*
X0079186Y0069501D02*
X0079436Y0069751D01*
X0079936Y0069751D01*
X0080187Y0069501D01*
X0080187Y0068500D01*
X0079936Y0068250D01*
X0079436Y0068250D01*
X0079726Y0071250D02*
X0080227Y0071250D01*
X0080477Y0071500D01*
X0079476Y0072501D01*
X0079476Y0071500D01*
X0079726Y0071250D01*
X0080477Y0071500D02*
X0080477Y0072501D01*
X0080227Y0072751D01*
X0079726Y0072751D01*
X0079476Y0072501D01*
X0079186Y0073750D02*
X0079686Y0074250D01*
X0079436Y0074250D02*
X0080187Y0074250D01*
X0080187Y0073750D02*
X0080187Y0075251D01*
X0079436Y0075251D01*
X0079186Y0075001D01*
X0079186Y0074501D01*
X0079436Y0074250D01*
X0080949Y0072501D02*
X0081199Y0072751D01*
X0081700Y0072751D01*
X0081950Y0072501D01*
X0082422Y0072501D02*
X0082673Y0072751D01*
X0083173Y0072751D01*
X0083423Y0072501D01*
X0083423Y0072251D01*
X0083173Y0072001D01*
X0082673Y0072001D01*
X0082422Y0071750D01*
X0082422Y0071500D01*
X0082673Y0071250D01*
X0083173Y0071250D01*
X0083423Y0071500D01*
X0083896Y0071500D02*
X0083896Y0072751D01*
X0084897Y0072751D02*
X0084897Y0071500D01*
X0084646Y0071250D01*
X0084146Y0071250D01*
X0083896Y0071500D01*
X0082923Y0071000D02*
X0082923Y0073001D01*
X0081950Y0071250D02*
X0080949Y0072251D01*
X0080949Y0072501D01*
X0080949Y0071250D02*
X0081950Y0071250D01*
X0084186Y0069501D02*
X0084186Y0069251D01*
X0084436Y0069001D01*
X0085187Y0069001D01*
X0085187Y0069751D02*
X0085187Y0068250D01*
X0084436Y0068250D01*
X0084186Y0068500D01*
X0084186Y0068750D01*
X0084436Y0069001D01*
X0084186Y0069501D02*
X0084436Y0069751D01*
X0085187Y0069751D01*
X0065187Y0069751D02*
X0065187Y0068250D01*
X0064436Y0068250D01*
X0064186Y0068500D01*
X0064186Y0068750D01*
X0064436Y0069001D01*
X0065187Y0069001D01*
X0065187Y0069751D02*
X0064436Y0069751D01*
X0064186Y0069501D01*
X0064186Y0069251D01*
X0064436Y0069001D01*
X0064646Y0071250D02*
X0064146Y0071250D01*
X0063896Y0071500D01*
X0063896Y0072751D01*
X0063423Y0072501D02*
X0063173Y0072751D01*
X0062673Y0072751D01*
X0062422Y0072501D01*
X0061950Y0072251D02*
X0061450Y0072751D01*
X0061450Y0071250D01*
X0061950Y0071250D02*
X0060949Y0071250D01*
X0060477Y0071500D02*
X0060227Y0071250D01*
X0059726Y0071250D01*
X0059476Y0071500D01*
X0059476Y0072501D01*
X0059726Y0072751D01*
X0060227Y0072751D01*
X0060477Y0072501D01*
X0060477Y0072251D01*
X0060227Y0072001D01*
X0059476Y0072001D01*
X0059186Y0073750D02*
X0059686Y0074250D01*
X0059436Y0074250D02*
X0060187Y0074250D01*
X0060187Y0073750D02*
X0060187Y0075251D01*
X0059436Y0075251D01*
X0059186Y0075001D01*
X0059186Y0074501D01*
X0059436Y0074250D01*
X0062422Y0071750D02*
X0062673Y0072001D01*
X0063173Y0072001D01*
X0063423Y0072251D01*
X0063423Y0072501D01*
X0062923Y0073001D02*
X0062923Y0071000D01*
X0063173Y0071250D02*
X0062673Y0071250D01*
X0062422Y0071500D01*
X0062422Y0071750D01*
X0063173Y0071250D02*
X0063423Y0071500D01*
X0064646Y0071250D02*
X0064897Y0071500D01*
X0064897Y0072751D01*
X0060187Y0069501D02*
X0060187Y0068500D01*
X0059936Y0068250D01*
X0059436Y0068250D01*
X0059186Y0068500D01*
X0059186Y0069001D01*
X0059686Y0069001D01*
X0059186Y0069501D02*
X0059436Y0069751D01*
X0059936Y0069751D01*
X0060187Y0069501D01*
X0060187Y0035251D02*
X0059436Y0035251D01*
X0059186Y0035001D01*
X0059186Y0034501D01*
X0059436Y0034250D01*
X0060187Y0034250D01*
X0060187Y0033750D02*
X0060187Y0035251D01*
X0059686Y0034250D02*
X0059186Y0033750D01*
X0059476Y0032751D02*
X0059476Y0032501D01*
X0060477Y0031500D01*
X0060477Y0031250D01*
X0060949Y0031250D02*
X0061950Y0031250D01*
X0060949Y0032251D01*
X0060949Y0032501D01*
X0061199Y0032751D01*
X0061700Y0032751D01*
X0061950Y0032501D01*
X0062422Y0032501D02*
X0062673Y0032751D01*
X0063173Y0032751D01*
X0063423Y0032501D01*
X0063423Y0032251D01*
X0063173Y0032001D01*
X0062673Y0032001D01*
X0062422Y0031750D01*
X0062422Y0031500D01*
X0062673Y0031250D01*
X0063173Y0031250D01*
X0063423Y0031500D01*
X0063896Y0031500D02*
X0063896Y0032751D01*
X0064897Y0032751D02*
X0064897Y0031500D01*
X0064646Y0031250D01*
X0064146Y0031250D01*
X0063896Y0031500D01*
X0062923Y0031000D02*
X0062923Y0033001D01*
X0060477Y0032751D02*
X0059476Y0032751D01*
X0059436Y0029751D02*
X0059936Y0029751D01*
X0060187Y0029501D01*
X0060187Y0028500D01*
X0059936Y0028250D01*
X0059436Y0028250D01*
X0059186Y0028500D01*
X0059186Y0029001D01*
X0059686Y0029001D01*
X0059186Y0029501D02*
X0059436Y0029751D01*
X0064186Y0029501D02*
X0064186Y0029251D01*
X0064436Y0029001D01*
X0065187Y0029001D01*
X0065187Y0029751D02*
X0064436Y0029751D01*
X0064186Y0029501D01*
X0064436Y0029001D02*
X0064186Y0028750D01*
X0064186Y0028500D01*
X0064436Y0028250D01*
X0065187Y0028250D01*
X0065187Y0029751D01*
X0079186Y0029501D02*
X0079436Y0029751D01*
X0079936Y0029751D01*
X0080187Y0029501D01*
X0080187Y0028500D01*
X0079936Y0028250D01*
X0079436Y0028250D01*
X0079186Y0028500D01*
X0079186Y0029001D01*
X0079686Y0029001D01*
X0079726Y0031250D02*
X0080227Y0031250D01*
X0080477Y0031500D01*
X0080477Y0031750D01*
X0080227Y0032001D01*
X0079726Y0032001D01*
X0079476Y0031750D01*
X0079476Y0031500D01*
X0079726Y0031250D01*
X0079726Y0032001D02*
X0079476Y0032251D01*
X0079476Y0032501D01*
X0079726Y0032751D01*
X0080227Y0032751D01*
X0080477Y0032501D01*
X0080477Y0032251D01*
X0080227Y0032001D01*
X0080949Y0032251D02*
X0080949Y0032501D01*
X0081199Y0032751D01*
X0081700Y0032751D01*
X0081950Y0032501D01*
X0082422Y0032501D02*
X0082673Y0032751D01*
X0083173Y0032751D01*
X0083423Y0032501D01*
X0083423Y0032251D01*
X0083173Y0032001D01*
X0082673Y0032001D01*
X0082422Y0031750D01*
X0082422Y0031500D01*
X0082673Y0031250D01*
X0083173Y0031250D01*
X0083423Y0031500D01*
X0083896Y0031500D02*
X0083896Y0032751D01*
X0084897Y0032751D02*
X0084897Y0031500D01*
X0084646Y0031250D01*
X0084146Y0031250D01*
X0083896Y0031500D01*
X0082923Y0031000D02*
X0082923Y0033001D01*
X0081950Y0031250D02*
X0080949Y0031250D01*
X0081950Y0031250D02*
X0080949Y0032251D01*
X0080187Y0033750D02*
X0080187Y0035251D01*
X0079436Y0035251D01*
X0079186Y0035001D01*
X0079186Y0034501D01*
X0079436Y0034250D01*
X0080187Y0034250D01*
X0079686Y0034250D02*
X0079186Y0033750D01*
X0084186Y0029501D02*
X0084186Y0029251D01*
X0084436Y0029001D01*
X0085187Y0029001D01*
X0085187Y0029751D02*
X0084436Y0029751D01*
X0084186Y0029501D01*
X0084436Y0029001D02*
X0084186Y0028750D01*
X0084186Y0028500D01*
X0084436Y0028250D01*
X0085187Y0028250D01*
X0085187Y0029751D01*
X0080187Y0015251D02*
X0079436Y0015251D01*
X0079186Y0015001D01*
X0079186Y0014501D01*
X0079436Y0014250D01*
X0080187Y0014250D01*
X0080187Y0013750D02*
X0080187Y0015251D01*
X0079686Y0014250D02*
X0079186Y0013750D01*
X0079726Y0012751D02*
X0080227Y0012751D01*
X0080477Y0012501D01*
X0080949Y0012501D02*
X0080949Y0012251D01*
X0081199Y0012001D01*
X0080949Y0011750D01*
X0080949Y0011500D01*
X0081199Y0011250D01*
X0081700Y0011250D01*
X0081950Y0011500D01*
X0082422Y0011500D02*
X0082422Y0011750D01*
X0082673Y0012001D01*
X0083173Y0012001D01*
X0083423Y0012251D01*
X0083423Y0012501D01*
X0083173Y0012751D01*
X0082673Y0012751D01*
X0082422Y0012501D01*
X0081950Y0012501D02*
X0081700Y0012751D01*
X0081199Y0012751D01*
X0080949Y0012501D01*
X0081199Y0012001D02*
X0081450Y0012001D01*
X0082422Y0011500D02*
X0082673Y0011250D01*
X0083173Y0011250D01*
X0083423Y0011500D01*
X0083896Y0011500D02*
X0083896Y0012751D01*
X0084897Y0012751D02*
X0084897Y0011500D01*
X0084646Y0011250D01*
X0084146Y0011250D01*
X0083896Y0011500D01*
X0082923Y0011000D02*
X0082923Y0013001D01*
X0080477Y0011250D02*
X0079476Y0012251D01*
X0079476Y0012501D01*
X0079726Y0012751D01*
X0079476Y0011250D02*
X0080477Y0011250D01*
X0079936Y0009751D02*
X0080187Y0009501D01*
X0080187Y0008500D01*
X0079936Y0008250D01*
X0079436Y0008250D01*
X0079186Y0008500D01*
X0079186Y0009001D01*
X0079686Y0009001D01*
X0079186Y0009501D02*
X0079436Y0009751D01*
X0079936Y0009751D01*
X0084186Y0009501D02*
X0084186Y0009251D01*
X0084436Y0009001D01*
X0085187Y0009001D01*
X0085187Y0009751D02*
X0084436Y0009751D01*
X0084186Y0009501D01*
X0084436Y0009001D02*
X0084186Y0008750D01*
X0084186Y0008500D01*
X0084436Y0008250D01*
X0085187Y0008250D01*
X0085187Y0009751D01*
X0065187Y0009751D02*
X0065187Y0008250D01*
X0064436Y0008250D01*
X0064186Y0008500D01*
X0064186Y0008750D01*
X0064436Y0009001D01*
X0065187Y0009001D01*
X0065187Y0009751D02*
X0064436Y0009751D01*
X0064186Y0009501D01*
X0064186Y0009251D01*
X0064436Y0009001D01*
X0064646Y0011250D02*
X0064146Y0011250D01*
X0063896Y0011500D01*
X0063896Y0012751D01*
X0063423Y0012501D02*
X0063173Y0012751D01*
X0062673Y0012751D01*
X0062422Y0012501D01*
X0061950Y0012501D02*
X0061700Y0012751D01*
X0061199Y0012751D01*
X0060949Y0012501D01*
X0060949Y0012251D01*
X0061199Y0012001D01*
X0060949Y0011750D01*
X0060949Y0011500D01*
X0061199Y0011250D01*
X0061700Y0011250D01*
X0061950Y0011500D01*
X0062422Y0011500D02*
X0062422Y0011750D01*
X0062673Y0012001D01*
X0063173Y0012001D01*
X0063423Y0012251D01*
X0063423Y0012501D01*
X0062923Y0013001D02*
X0062923Y0011000D01*
X0063173Y0011250D02*
X0062673Y0011250D01*
X0062422Y0011500D01*
X0063173Y0011250D02*
X0063423Y0011500D01*
X0064646Y0011250D02*
X0064897Y0011500D01*
X0064897Y0012751D01*
X0061450Y0012001D02*
X0061199Y0012001D01*
X0060477Y0012251D02*
X0059976Y0012751D01*
X0059976Y0011250D01*
X0059476Y0011250D02*
X0060477Y0011250D01*
X0059936Y0009751D02*
X0060187Y0009501D01*
X0060187Y0008500D01*
X0059936Y0008250D01*
X0059436Y0008250D01*
X0059186Y0008500D01*
X0059186Y0009001D01*
X0059686Y0009001D01*
X0059186Y0009501D02*
X0059436Y0009751D01*
X0059936Y0009751D01*
X0060187Y0013750D02*
X0060187Y0015251D01*
X0059436Y0015251D01*
X0059186Y0015001D01*
X0059186Y0014501D01*
X0059436Y0014250D01*
X0060187Y0014250D01*
X0059686Y0014250D02*
X0059186Y0013750D01*
X0044897Y0012751D02*
X0044897Y0011500D01*
X0044646Y0011250D01*
X0044146Y0011250D01*
X0043896Y0011500D01*
X0043896Y0012751D01*
X0043423Y0012501D02*
X0043173Y0012751D01*
X0042673Y0012751D01*
X0042422Y0012501D01*
X0041950Y0012501D02*
X0041700Y0012751D01*
X0041199Y0012751D01*
X0040949Y0012501D01*
X0040949Y0012251D01*
X0041199Y0012001D01*
X0040949Y0011750D01*
X0040949Y0011500D01*
X0041199Y0011250D01*
X0041700Y0011250D01*
X0041950Y0011500D01*
X0042422Y0011500D02*
X0042422Y0011750D01*
X0042673Y0012001D01*
X0043173Y0012001D01*
X0043423Y0012251D01*
X0043423Y0012501D01*
X0042923Y0013001D02*
X0042923Y0011000D01*
X0043173Y0011250D02*
X0042673Y0011250D01*
X0042422Y0011500D01*
X0043173Y0011250D02*
X0043423Y0011500D01*
X0044436Y0009751D02*
X0044186Y0009501D01*
X0044186Y0009251D01*
X0044436Y0009001D01*
X0045187Y0009001D01*
X0045187Y0009751D02*
X0044436Y0009751D01*
X0044436Y0009001D02*
X0044186Y0008750D01*
X0044186Y0008500D01*
X0044436Y0008250D01*
X0045187Y0008250D01*
X0045187Y0009751D01*
X0041450Y0012001D02*
X0041199Y0012001D01*
X0040477Y0012501D02*
X0040227Y0012751D01*
X0039726Y0012751D01*
X0039476Y0012501D01*
X0040477Y0011500D01*
X0040227Y0011250D01*
X0039726Y0011250D01*
X0039476Y0011500D01*
X0039476Y0012501D01*
X0040477Y0012501D02*
X0040477Y0011500D01*
X0039936Y0009751D02*
X0039436Y0009751D01*
X0039186Y0009501D01*
X0039186Y0009001D02*
X0039686Y0009001D01*
X0039186Y0009001D02*
X0039186Y0008500D01*
X0039436Y0008250D01*
X0039936Y0008250D01*
X0040187Y0008500D01*
X0040187Y0009501D01*
X0039936Y0009751D01*
X0040187Y0013750D02*
X0040187Y0015251D01*
X0039436Y0015251D01*
X0039186Y0015001D01*
X0039186Y0014501D01*
X0039436Y0014250D01*
X0040187Y0014250D01*
X0039686Y0014250D02*
X0039186Y0013750D01*
X0025187Y0009751D02*
X0025187Y0008250D01*
X0024436Y0008250D01*
X0024186Y0008500D01*
X0024186Y0008750D01*
X0024436Y0009001D01*
X0025187Y0009001D01*
X0025187Y0009751D02*
X0024436Y0009751D01*
X0024186Y0009501D01*
X0024186Y0009251D01*
X0024436Y0009001D01*
X0024646Y0011250D02*
X0024146Y0011250D01*
X0023896Y0011500D01*
X0023896Y0012751D01*
X0023423Y0012501D02*
X0023173Y0012751D01*
X0022673Y0012751D01*
X0022422Y0012501D01*
X0021950Y0012501D02*
X0021700Y0012751D01*
X0021199Y0012751D01*
X0020949Y0012501D01*
X0020949Y0012251D01*
X0021950Y0011250D01*
X0020949Y0011250D01*
X0020477Y0011500D02*
X0020227Y0011250D01*
X0019726Y0011250D01*
X0019476Y0011500D01*
X0019476Y0012501D01*
X0019726Y0012751D01*
X0020227Y0012751D01*
X0020477Y0012501D01*
X0020477Y0012251D01*
X0020227Y0012001D01*
X0019476Y0012001D01*
X0019186Y0013750D02*
X0019686Y0014250D01*
X0019436Y0014250D02*
X0020187Y0014250D01*
X0020187Y0013750D02*
X0020187Y0015251D01*
X0019436Y0015251D01*
X0019186Y0015001D01*
X0019186Y0014501D01*
X0019436Y0014250D01*
X0022923Y0013001D02*
X0022923Y0011000D01*
X0023173Y0011250D02*
X0022673Y0011250D01*
X0022422Y0011500D01*
X0022422Y0011750D01*
X0022673Y0012001D01*
X0023173Y0012001D01*
X0023423Y0012251D01*
X0023423Y0012501D01*
X0023423Y0011500D02*
X0023173Y0011250D01*
X0024646Y0011250D02*
X0024897Y0011500D01*
X0024897Y0012751D01*
X0020187Y0009501D02*
X0020187Y0008500D01*
X0019936Y0008250D01*
X0019436Y0008250D01*
X0019186Y0008500D01*
X0019186Y0009001D01*
X0019686Y0009001D01*
X0019186Y0009501D02*
X0019436Y0009751D01*
X0019936Y0009751D01*
X0020187Y0009501D01*
X0019936Y0028250D02*
X0019436Y0028250D01*
X0019186Y0028500D01*
X0019186Y0029001D01*
X0019686Y0029001D01*
X0019186Y0029501D02*
X0019436Y0029751D01*
X0019936Y0029751D01*
X0020187Y0029501D01*
X0020187Y0028500D01*
X0019936Y0028250D01*
X0019726Y0031250D02*
X0020227Y0031250D01*
X0020477Y0031500D01*
X0020477Y0032001D02*
X0019976Y0032251D01*
X0019726Y0032251D01*
X0019476Y0032001D01*
X0019476Y0031500D01*
X0019726Y0031250D01*
X0020477Y0032001D02*
X0020477Y0032751D01*
X0019476Y0032751D01*
X0019186Y0033750D02*
X0019686Y0034250D01*
X0019436Y0034250D02*
X0020187Y0034250D01*
X0020187Y0033750D02*
X0020187Y0035251D01*
X0019436Y0035251D01*
X0019186Y0035001D01*
X0019186Y0034501D01*
X0019436Y0034250D01*
X0020949Y0032501D02*
X0021199Y0032751D01*
X0021700Y0032751D01*
X0021950Y0032501D01*
X0022422Y0032501D02*
X0022673Y0032751D01*
X0023173Y0032751D01*
X0023423Y0032501D01*
X0023423Y0032251D01*
X0023173Y0032001D01*
X0022673Y0032001D01*
X0022422Y0031750D01*
X0022422Y0031500D01*
X0022673Y0031250D01*
X0023173Y0031250D01*
X0023423Y0031500D01*
X0023896Y0031500D02*
X0023896Y0032751D01*
X0024897Y0032751D02*
X0024897Y0031500D01*
X0024646Y0031250D01*
X0024146Y0031250D01*
X0023896Y0031500D01*
X0022923Y0031000D02*
X0022923Y0033001D01*
X0021950Y0031250D02*
X0020949Y0032251D01*
X0020949Y0032501D01*
X0020949Y0031250D02*
X0021950Y0031250D01*
X0024186Y0029501D02*
X0024186Y0029251D01*
X0024436Y0029001D01*
X0025187Y0029001D01*
X0025187Y0029751D02*
X0024436Y0029751D01*
X0024186Y0029501D01*
X0024436Y0029001D02*
X0024186Y0028750D01*
X0024186Y0028500D01*
X0024436Y0028250D01*
X0025187Y0028250D01*
X0025187Y0029751D01*
X0039186Y0029501D02*
X0039436Y0029751D01*
X0039936Y0029751D01*
X0040187Y0029501D01*
X0040187Y0028500D01*
X0039936Y0028250D01*
X0039436Y0028250D01*
X0039186Y0028500D01*
X0039186Y0029001D01*
X0039686Y0029001D01*
X0039726Y0031250D02*
X0039476Y0031500D01*
X0039476Y0031750D01*
X0039726Y0032001D01*
X0040477Y0032001D01*
X0040477Y0031500D01*
X0040227Y0031250D01*
X0039726Y0031250D01*
X0040477Y0032001D02*
X0039976Y0032501D01*
X0039476Y0032751D01*
X0039186Y0033750D02*
X0039686Y0034250D01*
X0039436Y0034250D02*
X0040187Y0034250D01*
X0040187Y0033750D02*
X0040187Y0035251D01*
X0039436Y0035251D01*
X0039186Y0035001D01*
X0039186Y0034501D01*
X0039436Y0034250D01*
X0040949Y0032501D02*
X0041199Y0032751D01*
X0041700Y0032751D01*
X0041950Y0032501D01*
X0042422Y0032501D02*
X0042673Y0032751D01*
X0043173Y0032751D01*
X0043423Y0032501D01*
X0043423Y0032251D01*
X0043173Y0032001D01*
X0042673Y0032001D01*
X0042422Y0031750D01*
X0042422Y0031500D01*
X0042673Y0031250D01*
X0043173Y0031250D01*
X0043423Y0031500D01*
X0043896Y0031500D02*
X0043896Y0032751D01*
X0044897Y0032751D02*
X0044897Y0031500D01*
X0044646Y0031250D01*
X0044146Y0031250D01*
X0043896Y0031500D01*
X0042923Y0031000D02*
X0042923Y0033001D01*
X0041950Y0031250D02*
X0040949Y0031250D01*
X0040949Y0032251D02*
X0040949Y0032501D01*
X0040949Y0032251D02*
X0041950Y0031250D01*
X0044186Y0029501D02*
X0044186Y0029251D01*
X0044436Y0029001D01*
X0045187Y0029001D01*
X0045187Y0029751D02*
X0044436Y0029751D01*
X0044186Y0029501D01*
X0044436Y0029001D02*
X0044186Y0028750D01*
X0044186Y0028500D01*
X0044436Y0028250D01*
X0045187Y0028250D01*
X0045187Y0029751D01*
D13*
X0044500Y0035000D03*
X0064500Y0035000D03*
X0084500Y0035000D03*
X0084500Y0015000D03*
X0064500Y0015000D03*
X0044500Y0015000D03*
X0024500Y0015000D03*
X0024500Y0035000D03*
X0024500Y0055000D03*
X0044500Y0055000D03*
X0064500Y0055000D03*
X0084500Y0055000D03*
X0084500Y0075000D03*
X0064500Y0075000D03*
X0044500Y0075000D03*
X0024500Y0075000D03*
X0024500Y0100000D03*
X0044500Y0100000D03*
X0064500Y0100000D03*
X0084500Y0100000D03*
X0084500Y0120000D03*
X0064500Y0120000D03*
X0044500Y0120000D03*
X0024500Y0120000D03*
X0024500Y0140000D03*
X0044500Y0140000D03*
X0064500Y0140000D03*
X0084500Y0140000D03*
X0084500Y0160000D03*
X0064500Y0160000D03*
X0044500Y0160000D03*
X0024500Y0160000D03*
X0129500Y0160000D03*
X0149500Y0160000D03*
X0169500Y0160000D03*
X0189500Y0160000D03*
X0189500Y0140000D03*
X0169500Y0140000D03*
X0149500Y0140000D03*
X0129500Y0140000D03*
X0129500Y0120000D03*
X0149500Y0120000D03*
X0169500Y0120000D03*
X0189500Y0120000D03*
X0189500Y0100000D03*
X0169500Y0100000D03*
X0149500Y0100000D03*
X0129500Y0100000D03*
X0129500Y0075000D03*
X0149500Y0075000D03*
X0169500Y0075000D03*
X0189500Y0075000D03*
X0189500Y0055000D03*
X0169500Y0055000D03*
X0149500Y0055000D03*
X0129500Y0055000D03*
X0129500Y0035000D03*
X0149500Y0035000D03*
X0169500Y0035000D03*
X0189500Y0035000D03*
X0189500Y0015000D03*
X0169500Y0015000D03*
X0149500Y0015000D03*
X0129500Y0015000D03*
M02*
