G75*
%MOIN*%
%OFA0B0*%
%FSLAX25Y25*%
%IPPOS*%
%LPD*%
%AMOC8*
5,1,8,0,0,1.08239X$1,22.5*
%
%ADD10OC8,0.07000*%
%ADD11C,0.03200*%
%ADD12C,0.02700*%
%ADD13C,0.01600*%
%ADD14C,0.03762*%
D10*
X0021000Y0026000D03*
X0021000Y0036000D03*
X0021000Y0046000D03*
X0021000Y0056000D03*
X0021000Y0066000D03*
X0021000Y0076000D03*
X0021000Y0086000D03*
X0021000Y0096000D03*
X0111000Y0096000D03*
X0111000Y0086000D03*
X0111000Y0076000D03*
X0111000Y0066000D03*
X0111000Y0056000D03*
X0111000Y0046000D03*
X0111000Y0036000D03*
X0111000Y0026000D03*
D11*
X0101000Y0026000D03*
X0091000Y0026000D03*
X0081000Y0026000D03*
X0071000Y0026000D03*
X0061000Y0026000D03*
X0051000Y0026000D03*
X0041000Y0026000D03*
X0031000Y0026000D03*
X0031000Y0036000D03*
X0041000Y0036000D03*
X0051000Y0036000D03*
X0061000Y0036000D03*
X0071000Y0036000D03*
X0081000Y0036000D03*
X0091000Y0036000D03*
X0101000Y0036000D03*
X0101000Y0046000D03*
X0091000Y0046000D03*
X0081000Y0046000D03*
X0071000Y0046000D03*
X0061000Y0046000D03*
X0051000Y0046000D03*
X0041000Y0046000D03*
X0031000Y0046000D03*
X0031000Y0056000D03*
X0031000Y0066000D03*
X0041000Y0066000D03*
X0041000Y0056000D03*
X0051000Y0056000D03*
X0061000Y0056000D03*
X0061000Y0066000D03*
X0051000Y0066000D03*
X0051000Y0076000D03*
X0061000Y0076000D03*
X0071000Y0076000D03*
X0081000Y0076000D03*
X0091000Y0076000D03*
X0101000Y0076000D03*
X0101000Y0066000D03*
X0101000Y0056000D03*
X0091000Y0056000D03*
X0091000Y0066000D03*
X0081000Y0066000D03*
X0071000Y0066000D03*
X0071000Y0056000D03*
X0081000Y0056000D03*
X0081000Y0086000D03*
X0071000Y0086000D03*
X0061000Y0086000D03*
X0051000Y0086000D03*
X0041000Y0086000D03*
X0031000Y0086000D03*
X0031000Y0076000D03*
X0041000Y0076000D03*
X0041000Y0096000D03*
X0031000Y0096000D03*
X0051000Y0096000D03*
X0061000Y0096000D03*
X0071000Y0096000D03*
X0081000Y0096000D03*
X0091000Y0096000D03*
X0101000Y0096000D03*
X0101000Y0086000D03*
X0091000Y0086000D03*
D12*
X0101000Y0076000D03*
D13*
X0111000Y0076000D01*
X0101000Y0076000D02*
X0101000Y0081000D01*
X0086000Y0096000D01*
X0081000Y0096000D01*
X0066000Y0096000D02*
X0061000Y0096000D01*
X0066000Y0096000D02*
X0101000Y0061000D01*
X0101000Y0056000D01*
X0111000Y0046000D02*
X0101000Y0036000D01*
X0101000Y0041000D01*
X0086000Y0056000D01*
X0081000Y0056000D01*
X0081000Y0061000D01*
X0066000Y0076000D01*
X0061000Y0076000D01*
X0061000Y0081000D01*
X0046000Y0096000D01*
X0041000Y0096000D01*
D14*
X0101000Y0056000D03*
M02*
