G75*
%MOIN*%
%OFA0B0*%
%FSLAX25Y25*%
%IPPOS*%
%LPD*%
%AMOC8*
5,1,8,0,0,1.08239X$1,22.5*
%
%ADD10C,0.04500*%
%ADD11C,0.05600*%
%ADD12C,0.00600*%
%ADD13C,0.02700*%
D10*
X0007000Y0017000D03*
X0007000Y0027000D03*
X0007000Y0037000D03*
X0007000Y0047000D03*
X0007000Y0057000D03*
X0007000Y0067000D03*
X0007000Y0077000D03*
X0007000Y0087000D03*
X0017000Y0087000D03*
X0017000Y0077000D03*
X0017000Y0067000D03*
X0017000Y0057000D03*
X0017000Y0047000D03*
X0017000Y0037000D03*
X0017000Y0027000D03*
X0017000Y0017000D03*
X0027000Y0017000D03*
X0027000Y0027000D03*
X0027000Y0037000D03*
X0027000Y0047000D03*
X0027000Y0057000D03*
X0027000Y0067000D03*
X0027000Y0077000D03*
X0027000Y0087000D03*
X0037000Y0087000D03*
X0037000Y0077000D03*
X0037000Y0067000D03*
X0037000Y0057000D03*
X0037000Y0047000D03*
X0037000Y0037000D03*
X0037000Y0027000D03*
X0037000Y0017000D03*
X0047000Y0017000D03*
X0047000Y0027000D03*
X0057000Y0027000D03*
X0057000Y0017000D03*
X0067000Y0017000D03*
X0067000Y0027000D03*
X0067000Y0037000D03*
X0067000Y0047000D03*
X0067000Y0057000D03*
X0067000Y0067000D03*
X0067000Y0077000D03*
X0067000Y0087000D03*
X0057000Y0087000D03*
X0057000Y0077000D03*
X0047000Y0077000D03*
X0047000Y0087000D03*
X0047000Y0067000D03*
X0057000Y0067000D03*
X0057000Y0057000D03*
X0057000Y0047000D03*
X0047000Y0047000D03*
X0047000Y0057000D03*
X0047000Y0037000D03*
X0057000Y0037000D03*
X0077000Y0037000D03*
X0077000Y0027000D03*
X0077000Y0017000D03*
X0077000Y0047000D03*
X0077000Y0057000D03*
X0077000Y0067000D03*
X0077000Y0077000D03*
X0077000Y0087000D03*
D11*
X0007000Y0007000D03*
X0017000Y0007000D03*
X0027000Y0007000D03*
X0037000Y0007000D03*
X0047000Y0007000D03*
X0057000Y0007000D03*
X0067000Y0007000D03*
X0077000Y0007000D03*
X0077000Y0097000D03*
X0067000Y0097000D03*
X0057000Y0097000D03*
X0047000Y0097000D03*
X0037000Y0097000D03*
X0027000Y0097000D03*
X0017000Y0097000D03*
X0007000Y0097000D03*
D12*
X0006600Y0096800D01*
X0003600Y0093800D01*
X0003600Y0085400D01*
X0005400Y0083600D01*
X0009000Y0083600D01*
X0015600Y0090200D01*
X0018600Y0090200D01*
X0021600Y0087200D01*
X0027000Y0087200D01*
X0027000Y0087000D01*
X0025800Y0081200D02*
X0020400Y0086600D01*
X0017400Y0086600D01*
X0017000Y0087000D01*
X0016800Y0093200D02*
X0033000Y0093200D01*
X0036600Y0096800D01*
X0037000Y0097000D01*
X0038400Y0101000D02*
X0025200Y0101000D01*
X0022200Y0098000D01*
X0016800Y0093200D02*
X0010800Y0087200D01*
X0007200Y0087200D01*
X0007000Y0087000D01*
X0007000Y0077000D02*
X0006600Y0077000D01*
X0003600Y0074000D01*
X0003600Y0015800D01*
X0006600Y0012800D01*
X0006600Y0007400D01*
X0007000Y0007000D01*
X0007000Y0017000D02*
X0012000Y0017000D01*
X0015600Y0020600D01*
X0023400Y0020600D01*
X0027000Y0017000D01*
X0037000Y0007000D01*
X0037200Y0007400D01*
X0046800Y0017000D01*
X0047000Y0017000D01*
X0047400Y0017000D01*
X0052200Y0021800D01*
X0059400Y0021800D01*
X0064200Y0017000D01*
X0067000Y0017000D01*
X0066000Y0013400D02*
X0073200Y0013400D01*
X0076800Y0017000D01*
X0077000Y0017000D01*
X0077400Y0017000D01*
X0077400Y0022400D01*
X0080400Y0025400D01*
X0080400Y0033800D01*
X0077400Y0036800D01*
X0077000Y0037000D01*
X0080400Y0040400D01*
X0080400Y0048200D01*
X0077400Y0051200D01*
X0077400Y0056600D01*
X0077000Y0057000D01*
X0078600Y0063800D02*
X0071400Y0063800D01*
X0071400Y0038000D01*
X0076800Y0032600D01*
X0076800Y0027200D01*
X0077000Y0027000D01*
X0067000Y0037000D02*
X0063600Y0040400D01*
X0055800Y0040400D01*
X0052800Y0037400D01*
X0047400Y0037400D01*
X0047000Y0037000D01*
X0042600Y0038600D02*
X0041400Y0037400D01*
X0046800Y0032000D01*
X0046800Y0027200D01*
X0047000Y0027000D01*
X0046800Y0023600D02*
X0048600Y0023600D01*
X0062400Y0037400D01*
X0067200Y0042200D02*
X0070200Y0045200D01*
X0070200Y0063800D01*
X0067000Y0067000D01*
X0068400Y0070400D02*
X0052200Y0070400D01*
X0050400Y0068600D01*
X0050400Y0065000D01*
X0043800Y0058400D01*
X0043800Y0055400D01*
X0045600Y0053600D01*
X0050400Y0053600D01*
X0057000Y0047000D01*
X0055800Y0043400D02*
X0046800Y0052400D01*
X0045000Y0052400D01*
X0042600Y0054800D01*
X0042600Y0062600D01*
X0047000Y0067000D01*
X0045600Y0070400D02*
X0048600Y0070400D01*
X0050400Y0068600D01*
X0045600Y0070400D02*
X0042600Y0067400D01*
X0037200Y0067400D01*
X0037000Y0067000D01*
X0033600Y0065600D02*
X0036600Y0062600D01*
X0036600Y0057200D01*
X0037000Y0057000D01*
X0037200Y0056600D01*
X0037200Y0053600D01*
X0041400Y0049400D01*
X0041400Y0041600D01*
X0037200Y0037400D01*
X0037000Y0037000D01*
X0040200Y0033800D01*
X0040200Y0025400D01*
X0037200Y0022400D01*
X0037200Y0017000D01*
X0037000Y0017000D01*
X0033600Y0017000D02*
X0033600Y0015800D01*
X0036000Y0013400D01*
X0038400Y0013400D01*
X0042600Y0017600D01*
X0042600Y0019400D01*
X0046800Y0023600D01*
X0047400Y0020600D02*
X0045600Y0020600D01*
X0043800Y0018800D01*
X0043800Y0017000D01*
X0039000Y0012200D01*
X0035400Y0012200D01*
X0030600Y0017000D01*
X0030600Y0018200D01*
X0025200Y0023600D01*
X0015600Y0023600D01*
X0013800Y0025400D01*
X0013800Y0029000D01*
X0015000Y0030200D01*
X0015000Y0034400D01*
X0013800Y0035600D01*
X0013800Y0063800D01*
X0017000Y0067000D01*
X0020400Y0068600D02*
X0020400Y0060200D01*
X0017400Y0057200D01*
X0017000Y0057000D01*
X0017400Y0056600D01*
X0017400Y0051200D01*
X0020400Y0048200D01*
X0020400Y0040400D01*
X0017000Y0037000D01*
X0017400Y0032000D02*
X0032400Y0047000D01*
X0037000Y0047000D01*
X0040200Y0048800D02*
X0040200Y0045200D01*
X0033600Y0038600D01*
X0033600Y0035600D01*
X0036600Y0032600D01*
X0036600Y0027200D01*
X0037000Y0027000D01*
X0033600Y0017000D02*
X0027000Y0023600D01*
X0027000Y0027000D01*
X0017400Y0027200D02*
X0017000Y0027000D01*
X0017400Y0027200D02*
X0017400Y0032000D01*
X0012600Y0031400D02*
X0012600Y0071000D01*
X0017400Y0071600D02*
X0020400Y0068600D01*
X0017400Y0071600D02*
X0017400Y0077000D01*
X0017000Y0077000D01*
X0015600Y0080600D02*
X0022800Y0080600D01*
X0026400Y0077000D01*
X0027000Y0077000D01*
X0031800Y0081800D01*
X0039000Y0081800D01*
X0043800Y0077000D01*
X0047000Y0077000D01*
X0052200Y0077000D01*
X0055800Y0080600D01*
X0063000Y0080600D01*
X0066600Y0077000D01*
X0067000Y0077000D01*
X0070200Y0077000D02*
X0070200Y0078800D01*
X0062400Y0086600D01*
X0057000Y0086600D01*
X0057000Y0087000D01*
X0057000Y0097000D01*
X0052800Y0097400D02*
X0052800Y0098600D01*
X0055200Y0101000D01*
X0063000Y0101000D01*
X0067000Y0097000D01*
X0073800Y0088400D02*
X0073800Y0075200D01*
X0080400Y0068600D01*
X0080400Y0065600D01*
X0078600Y0063800D01*
X0077000Y0067000D02*
X0076800Y0067400D01*
X0076800Y0070400D01*
X0071400Y0075800D01*
X0069000Y0073400D01*
X0045600Y0073400D01*
X0038400Y0080600D01*
X0036000Y0080600D01*
X0032400Y0077000D01*
X0032400Y0056600D01*
X0040200Y0048800D01*
X0042600Y0050000D02*
X0042600Y0038600D01*
X0047000Y0047000D02*
X0050400Y0047000D01*
X0055200Y0042200D01*
X0067200Y0042200D01*
X0067000Y0047000D02*
X0061800Y0047000D01*
X0058200Y0043400D01*
X0055800Y0043400D01*
X0055800Y0053600D02*
X0063600Y0053600D01*
X0067000Y0057000D01*
X0071400Y0063800D02*
X0071400Y0067400D01*
X0068400Y0070400D01*
X0071400Y0075800D02*
X0070200Y0077000D01*
X0079800Y0072800D02*
X0080400Y0073400D01*
X0080400Y0088400D01*
X0079800Y0089000D01*
X0079800Y0092600D01*
X0076800Y0091400D02*
X0073800Y0088400D01*
X0076800Y0091400D02*
X0076800Y0096800D01*
X0077000Y0097000D01*
X0052800Y0097400D02*
X0042600Y0087200D01*
X0037200Y0087200D01*
X0037000Y0087000D01*
X0037000Y0077000D02*
X0036600Y0077000D01*
X0033600Y0074000D01*
X0033600Y0065600D01*
X0041400Y0065000D02*
X0041400Y0051200D01*
X0042600Y0050000D01*
X0047400Y0056600D02*
X0047000Y0057000D01*
X0047400Y0056600D02*
X0052800Y0056600D01*
X0055800Y0053600D01*
X0057000Y0027000D02*
X0057000Y0026600D01*
X0053400Y0026600D01*
X0047400Y0020600D01*
X0055800Y0020600D02*
X0047400Y0012200D01*
X0047400Y0007400D01*
X0047000Y0007000D01*
X0057000Y0007000D02*
X0057000Y0017000D01*
X0055800Y0020600D02*
X0058800Y0020600D01*
X0066000Y0013400D01*
X0072600Y0006800D02*
X0069000Y0003200D01*
X0035400Y0003200D01*
X0031200Y0007400D01*
X0031200Y0008600D01*
X0026400Y0013400D01*
X0021000Y0013400D01*
X0017400Y0017000D01*
X0017000Y0017000D01*
X0007200Y0047000D02*
X0007000Y0047000D01*
X0007200Y0047000D02*
X0010200Y0050000D01*
X0010200Y0060200D01*
X0012000Y0077000D02*
X0007000Y0077000D01*
X0012000Y0077000D02*
X0015600Y0080600D01*
X0038400Y0101000D02*
X0042000Y0097400D01*
X0046800Y0097400D01*
X0047000Y0097000D01*
X0072600Y0006800D02*
X0076800Y0006800D01*
X0077000Y0007000D01*
D13*
X0062400Y0037400D03*
X0041400Y0037400D03*
X0041400Y0065000D03*
X0025800Y0081200D03*
X0012600Y0071000D03*
X0010200Y0060200D03*
X0012600Y0031400D03*
X0022200Y0098000D03*
X0079800Y0092600D03*
X0079800Y0072800D03*
M02*
