%
M48
M72
T01C0.0130
T02C0.0236
%
T01
X872Y1700
X1132Y2300
X872Y2700
X1872Y2700
X2872Y2700
X2872Y1700
X1872Y1700
X3872Y1700
X4872Y1700
X4872Y2700
X4852Y3260
X4872Y3700
X4192Y3020
X3872Y2700
X3872Y3700
X3872Y4700
X4192Y5420
X3872Y5700
X3112Y6260
X2872Y6700
X1872Y6700
X1872Y5700
X2872Y5700
X2872Y4700
X1872Y4700
X1872Y3700
X2872Y3700
X872Y3700
X872Y4700
X872Y5700
X872Y6700
X872Y7700
X872Y8700
X1872Y8700
X2872Y8700
X2872Y7700
X1872Y7700
X3872Y7700
X4552Y7400
X4872Y7700
X4872Y8700
X5572Y9020
X5872Y8700
X5872Y7700
X6872Y7700
X7872Y7700
X7872Y8700
X6872Y8700
X6872Y6700
X7872Y6700
X7872Y5700
X7872Y4700
X6872Y4700
X6872Y5700
X5872Y5700
X5872Y4700
X5872Y3700
X6872Y3700
X6952Y3260
X6872Y2700
X7872Y2700
X7872Y1700
X6872Y1700
X5872Y1700
X5872Y2700
X7872Y3700
X4872Y4700
X4872Y5700
X4432Y6620
X4872Y6700
X3872Y6700
X5872Y6700
X3872Y8700
T02
X872Y700
X1872Y700
X2872Y700
X3872Y700
X4872Y700
X5872Y700
X6872Y700
X7872Y700
X7872Y9700
X6872Y9700
X5872Y9700
X4872Y9700
X3872Y9700
X2872Y9700
X1872Y9700
X872Y9700
M30
