G75*
%MOIN*%
%OFA0B0*%
%FSLAX25Y25*%
%IPPOS*%
%LPD*%
%AMOC8*
5,1,8,0,0,1.08239X$1,22.5*
%
%ADD10C,0.00600*%
%ADD11C,0.00300*%
%ADD12R,0.05000X0.01000*%
%ADD13R,0.01000X0.05000*%
%ADD14C,0.01000*%
%ADD15C,0.00100*%
%ADD16C,0.00500*%
D10*
X0020652Y0048800D02*
X0020652Y0053070D01*
X0022788Y0055205D01*
X0024923Y0053070D01*
X0024923Y0048800D01*
X0024923Y0052003D02*
X0020652Y0052003D01*
X0040652Y0053070D02*
X0041720Y0052003D01*
X0044923Y0052003D01*
X0044923Y0055205D02*
X0041720Y0055205D01*
X0040652Y0054138D01*
X0040652Y0053070D01*
X0041720Y0052003D02*
X0040652Y0050935D01*
X0040652Y0049868D01*
X0041720Y0048800D01*
X0044923Y0048800D01*
X0044923Y0055205D01*
X0060652Y0054138D02*
X0061720Y0055205D01*
X0063855Y0055205D01*
X0064923Y0054138D01*
X0064923Y0049868D01*
X0063855Y0048800D01*
X0061720Y0048800D01*
X0060652Y0049868D01*
D11*
X0006850Y0011550D02*
X0004915Y0011550D01*
X0004915Y0013485D02*
X0004915Y0013969D01*
X0005399Y0014452D01*
X0006366Y0014452D01*
X0006850Y0013969D01*
X0007862Y0013969D02*
X0008345Y0014452D01*
X0009797Y0014452D01*
X0009797Y0011550D01*
X0008345Y0011550D01*
X0007862Y0012034D01*
X0007862Y0013969D01*
X0006850Y0011550D02*
X0004915Y0013485D01*
X0010399Y0020550D02*
X0011366Y0020550D01*
X0011850Y0021034D01*
X0012862Y0020550D02*
X0014797Y0020550D01*
X0013829Y0020550D02*
X0013829Y0023452D01*
X0014797Y0022485D01*
X0011850Y0022969D02*
X0011366Y0023452D01*
X0010399Y0023452D01*
X0009915Y0022969D01*
X0009915Y0022485D01*
X0010399Y0022001D01*
X0009915Y0021517D01*
X0009915Y0021034D01*
X0010399Y0020550D01*
X0010399Y0022001D02*
X0010883Y0022001D01*
X0015399Y0014452D02*
X0014915Y0013969D01*
X0014915Y0013485D01*
X0015399Y0013001D01*
X0014915Y0012517D01*
X0014915Y0012034D01*
X0015399Y0011550D01*
X0016366Y0011550D01*
X0016850Y0012034D01*
X0017862Y0012034D02*
X0017862Y0013969D01*
X0018345Y0014452D01*
X0019797Y0014452D01*
X0019797Y0011550D01*
X0018345Y0011550D01*
X0017862Y0012034D01*
X0016850Y0013969D02*
X0016366Y0014452D01*
X0015399Y0014452D01*
X0015399Y0013001D02*
X0015883Y0013001D01*
X0024915Y0013001D02*
X0026850Y0013001D01*
X0025399Y0014452D01*
X0025399Y0011550D01*
X0027862Y0012034D02*
X0027862Y0013969D01*
X0028345Y0014452D01*
X0029797Y0014452D01*
X0029797Y0011550D01*
X0028345Y0011550D01*
X0027862Y0012034D01*
X0034915Y0012034D02*
X0035399Y0011550D01*
X0036366Y0011550D01*
X0036850Y0012034D01*
X0036850Y0013001D02*
X0035883Y0013485D01*
X0035399Y0013485D01*
X0034915Y0013001D01*
X0034915Y0012034D01*
X0036850Y0013001D02*
X0036850Y0014452D01*
X0034915Y0014452D01*
X0037862Y0013969D02*
X0037862Y0012034D01*
X0038345Y0011550D01*
X0039797Y0011550D01*
X0039797Y0014452D01*
X0038345Y0014452D01*
X0037862Y0013969D01*
X0034797Y0020550D02*
X0032862Y0020550D01*
X0033829Y0020550D02*
X0033829Y0023452D01*
X0034797Y0022485D01*
X0031850Y0022001D02*
X0029915Y0022001D01*
X0030399Y0020550D02*
X0030399Y0023452D01*
X0031850Y0022001D01*
X0044915Y0014452D02*
X0045883Y0013969D01*
X0046850Y0013001D01*
X0045399Y0013001D01*
X0044915Y0012517D01*
X0044915Y0012034D01*
X0045399Y0011550D01*
X0046366Y0011550D01*
X0046850Y0012034D01*
X0046850Y0013001D01*
X0047862Y0012034D02*
X0047862Y0013969D01*
X0048345Y0014452D01*
X0049797Y0014452D01*
X0049797Y0011550D01*
X0048345Y0011550D01*
X0047862Y0012034D01*
X0054915Y0013969D02*
X0056850Y0012034D01*
X0056850Y0011550D01*
X0057862Y0012034D02*
X0057862Y0013969D01*
X0058345Y0014452D01*
X0059797Y0014452D01*
X0059797Y0011550D01*
X0058345Y0011550D01*
X0057862Y0012034D01*
X0056850Y0014452D02*
X0054915Y0014452D01*
X0054915Y0013969D01*
X0054797Y0020550D02*
X0052862Y0020550D01*
X0053829Y0020550D02*
X0053829Y0023452D01*
X0054797Y0022485D01*
X0051850Y0022001D02*
X0050883Y0022485D01*
X0050399Y0022485D01*
X0049915Y0022001D01*
X0049915Y0021034D01*
X0050399Y0020550D01*
X0051366Y0020550D01*
X0051850Y0021034D01*
X0051850Y0022001D02*
X0051850Y0023452D01*
X0049915Y0023452D01*
X0064915Y0013969D02*
X0064915Y0013485D01*
X0065399Y0013001D01*
X0066366Y0013001D01*
X0066850Y0013485D01*
X0066850Y0013969D01*
X0066366Y0014452D01*
X0065399Y0014452D01*
X0064915Y0013969D01*
X0065399Y0013001D02*
X0064915Y0012517D01*
X0064915Y0012034D01*
X0065399Y0011550D01*
X0066366Y0011550D01*
X0066850Y0012034D01*
X0066850Y0012517D01*
X0066366Y0013001D01*
X0067862Y0012034D02*
X0067862Y0013969D01*
X0068345Y0014452D01*
X0069797Y0014452D01*
X0069797Y0011550D01*
X0068345Y0011550D01*
X0067862Y0012034D01*
X0074915Y0012034D02*
X0074915Y0013969D01*
X0075399Y0014452D01*
X0076366Y0014452D01*
X0076850Y0013969D01*
X0076850Y0013485D01*
X0076366Y0013001D01*
X0074915Y0013001D01*
X0074915Y0012034D02*
X0075399Y0011550D01*
X0076366Y0011550D01*
X0076850Y0012034D01*
X0077862Y0012034D02*
X0077862Y0013969D01*
X0078345Y0014452D01*
X0079797Y0014452D01*
X0079797Y0011550D01*
X0078345Y0011550D01*
X0077862Y0012034D01*
X0074797Y0020550D02*
X0072862Y0020550D01*
X0073829Y0020550D02*
X0073829Y0023452D01*
X0074797Y0022485D01*
X0071850Y0022001D02*
X0071850Y0021034D01*
X0071366Y0020550D01*
X0070399Y0020550D01*
X0069915Y0021034D01*
X0069915Y0021517D01*
X0070399Y0022001D01*
X0071850Y0022001D01*
X0070883Y0022969D01*
X0069915Y0023452D01*
X0069915Y0040550D02*
X0071850Y0040550D01*
X0069915Y0042485D01*
X0069915Y0042969D01*
X0070399Y0043452D01*
X0071366Y0043452D01*
X0071850Y0042969D01*
X0073829Y0043452D02*
X0073829Y0040550D01*
X0072862Y0040550D02*
X0074797Y0040550D01*
X0074797Y0042485D02*
X0073829Y0043452D01*
X0072840Y0060550D02*
X0071872Y0060550D01*
X0071388Y0061034D01*
X0071388Y0061517D01*
X0071872Y0062001D01*
X0072840Y0062001D01*
X0073323Y0062485D01*
X0073323Y0062969D01*
X0072840Y0063452D01*
X0071872Y0063452D01*
X0071388Y0062969D01*
X0071388Y0062485D01*
X0071872Y0062001D01*
X0072840Y0062001D02*
X0073323Y0061517D01*
X0073323Y0061034D01*
X0072840Y0060550D01*
X0054797Y0042485D02*
X0053829Y0043452D01*
X0053829Y0040550D01*
X0052862Y0040550D02*
X0054797Y0040550D01*
X0051850Y0040550D02*
X0049915Y0040550D01*
X0050883Y0040550D02*
X0050883Y0043452D01*
X0051850Y0042485D01*
X0034797Y0042485D02*
X0033829Y0043452D01*
X0033829Y0040550D01*
X0032862Y0040550D02*
X0034797Y0040550D01*
X0031850Y0041034D02*
X0031850Y0042969D01*
X0031366Y0043452D01*
X0030399Y0043452D01*
X0029915Y0042969D01*
X0031850Y0041034D01*
X0031366Y0040550D01*
X0030399Y0040550D01*
X0029915Y0041034D01*
X0029915Y0042969D01*
X0013323Y0042969D02*
X0013323Y0042485D01*
X0012840Y0042001D01*
X0011388Y0042001D01*
X0011388Y0041034D02*
X0011388Y0042969D01*
X0011872Y0043452D01*
X0012840Y0043452D01*
X0013323Y0042969D01*
X0013323Y0041034D02*
X0012840Y0040550D01*
X0011872Y0040550D01*
X0011388Y0041034D01*
X0011872Y0060550D02*
X0012840Y0060550D01*
X0013323Y0061034D01*
X0013323Y0062001D02*
X0012356Y0062485D01*
X0011872Y0062485D01*
X0011388Y0062001D01*
X0011388Y0061034D01*
X0011872Y0060550D01*
X0013323Y0062001D02*
X0013323Y0063452D01*
X0011388Y0063452D01*
X0011388Y0080550D02*
X0013323Y0080550D01*
X0012356Y0080550D02*
X0012356Y0083452D01*
X0013323Y0082485D01*
X0010533Y0090150D02*
X0010533Y0092619D01*
X0009299Y0093853D01*
X0008064Y0092619D01*
X0008064Y0090150D01*
X0006850Y0090767D02*
X0006233Y0090150D01*
X0004998Y0090150D01*
X0004381Y0090767D01*
X0004381Y0091384D01*
X0004998Y0092002D01*
X0005616Y0092002D01*
X0004998Y0092002D02*
X0004381Y0092619D01*
X0004381Y0093236D01*
X0004998Y0093853D01*
X0006233Y0093853D01*
X0006850Y0093236D01*
X0008064Y0092002D02*
X0010533Y0092002D01*
X0014915Y0092485D02*
X0014915Y0092969D01*
X0015399Y0093452D01*
X0016366Y0093452D01*
X0016850Y0092969D01*
X0017862Y0092485D02*
X0017862Y0090550D01*
X0016850Y0090550D02*
X0014915Y0092485D01*
X0014915Y0090550D02*
X0016850Y0090550D01*
X0017862Y0092001D02*
X0019797Y0092001D01*
X0019797Y0092485D02*
X0018829Y0093452D01*
X0017862Y0092485D01*
X0019797Y0092485D02*
X0019797Y0090550D01*
X0024915Y0090550D02*
X0026850Y0090550D01*
X0025883Y0090550D02*
X0025883Y0093452D01*
X0026850Y0092485D01*
X0027862Y0092485D02*
X0027862Y0090550D01*
X0027862Y0092001D02*
X0029797Y0092001D01*
X0029797Y0092485D02*
X0028829Y0093452D01*
X0027862Y0092485D01*
X0029797Y0092485D02*
X0029797Y0090550D01*
X0034915Y0091034D02*
X0035399Y0090550D01*
X0036366Y0090550D01*
X0036850Y0091034D01*
X0034915Y0092969D01*
X0034915Y0091034D01*
X0034915Y0092969D02*
X0035399Y0093452D01*
X0036366Y0093452D01*
X0036850Y0092969D01*
X0036850Y0091034D01*
X0037862Y0090550D02*
X0037862Y0092485D01*
X0038829Y0093452D01*
X0039797Y0092485D01*
X0039797Y0090550D01*
X0039797Y0092001D02*
X0037862Y0092001D01*
X0043442Y0091517D02*
X0043442Y0091034D01*
X0043926Y0090550D01*
X0044893Y0090550D01*
X0045377Y0091034D01*
X0046388Y0090550D02*
X0048323Y0090550D01*
X0047356Y0090550D02*
X0047356Y0093452D01*
X0048323Y0092485D01*
X0049335Y0092969D02*
X0049335Y0091034D01*
X0049819Y0090550D01*
X0051270Y0090550D01*
X0051270Y0093452D01*
X0049819Y0093452D01*
X0049335Y0092969D01*
X0045377Y0092969D02*
X0044893Y0093452D01*
X0043926Y0093452D01*
X0043442Y0092969D01*
X0043442Y0092485D01*
X0043926Y0092001D01*
X0043442Y0091517D01*
X0043926Y0092001D02*
X0044409Y0092001D01*
X0051872Y0083452D02*
X0051388Y0082969D01*
X0051388Y0082485D01*
X0051872Y0082001D01*
X0051388Y0081517D01*
X0051388Y0081034D01*
X0051872Y0080550D01*
X0052840Y0080550D01*
X0053323Y0081034D01*
X0052356Y0082001D02*
X0051872Y0082001D01*
X0051872Y0083452D02*
X0052840Y0083452D01*
X0053323Y0082969D01*
X0053442Y0090550D02*
X0055377Y0090550D01*
X0053442Y0092485D01*
X0053442Y0092969D01*
X0053926Y0093452D01*
X0054893Y0093452D01*
X0055377Y0092969D01*
X0057356Y0093452D02*
X0057356Y0090550D01*
X0058323Y0090550D02*
X0056388Y0090550D01*
X0058323Y0092485D02*
X0057356Y0093452D01*
X0059335Y0092969D02*
X0059335Y0091034D01*
X0059819Y0090550D01*
X0061270Y0090550D01*
X0061270Y0093452D01*
X0059819Y0093452D01*
X0059335Y0092969D01*
X0063442Y0090550D02*
X0065377Y0090550D01*
X0064409Y0090550D02*
X0064409Y0093452D01*
X0065377Y0092485D01*
X0066388Y0090550D02*
X0068323Y0090550D01*
X0067356Y0090550D02*
X0067356Y0093452D01*
X0068323Y0092485D01*
X0069335Y0092969D02*
X0069335Y0091034D01*
X0069819Y0090550D01*
X0071270Y0090550D01*
X0071270Y0093452D01*
X0069819Y0093452D01*
X0069335Y0092969D01*
X0073442Y0092969D02*
X0073442Y0091034D01*
X0073926Y0090550D01*
X0074893Y0090550D01*
X0075377Y0091034D01*
X0073442Y0092969D01*
X0073926Y0093452D01*
X0074893Y0093452D01*
X0075377Y0092969D01*
X0075377Y0091034D01*
X0076388Y0090550D02*
X0078323Y0090550D01*
X0077356Y0090550D02*
X0077356Y0093452D01*
X0078323Y0092485D01*
X0079335Y0092969D02*
X0079335Y0091034D01*
X0079819Y0090550D01*
X0081270Y0090550D01*
X0081270Y0093452D01*
X0079819Y0093452D01*
X0079335Y0092969D01*
X0071872Y0083452D02*
X0073323Y0082001D01*
X0071388Y0082001D01*
X0071872Y0080550D02*
X0071872Y0083452D01*
X0053323Y0063452D02*
X0051388Y0063452D01*
X0051388Y0062969D01*
X0053323Y0061034D01*
X0053323Y0060550D01*
X0033323Y0061034D02*
X0032840Y0060550D01*
X0031872Y0060550D01*
X0031388Y0061034D01*
X0031388Y0061517D01*
X0031872Y0062001D01*
X0033323Y0062001D01*
X0033323Y0061034D01*
X0033323Y0062001D02*
X0032356Y0062969D01*
X0031388Y0063452D01*
X0031388Y0080550D02*
X0033323Y0080550D01*
X0031388Y0082485D01*
X0031388Y0082969D01*
X0031872Y0083452D01*
X0032840Y0083452D01*
X0033323Y0082969D01*
D12*
X0032000Y0087000D03*
X0032000Y0077000D03*
X0032000Y0067000D03*
X0032000Y0057000D03*
X0032000Y0047000D03*
X0032000Y0037000D03*
X0032000Y0027000D03*
X0032000Y0017000D03*
X0052000Y0017000D03*
X0052000Y0027000D03*
X0052000Y0037000D03*
X0052000Y0047000D03*
X0052000Y0057000D03*
X0052000Y0067000D03*
X0052000Y0077000D03*
X0052000Y0087000D03*
X0072000Y0087000D03*
X0072000Y0077000D03*
X0072000Y0067000D03*
X0072000Y0057000D03*
X0072000Y0047000D03*
X0072000Y0037000D03*
X0072000Y0027000D03*
X0072000Y0017000D03*
X0012000Y0017000D03*
X0012000Y0027000D03*
X0012000Y0037000D03*
X0012000Y0047000D03*
X0012000Y0057000D03*
X0012000Y0067000D03*
X0012000Y0077000D03*
X0012000Y0087000D03*
D13*
X0007000Y0082000D03*
X0017000Y0082000D03*
X0027000Y0082000D03*
X0037000Y0082000D03*
X0047000Y0082000D03*
X0057000Y0082000D03*
X0067000Y0082000D03*
X0077000Y0082000D03*
X0077000Y0062000D03*
X0067000Y0062000D03*
X0057000Y0062000D03*
X0047000Y0062000D03*
X0037000Y0062000D03*
X0027000Y0062000D03*
X0017000Y0062000D03*
X0007000Y0062000D03*
X0007000Y0042000D03*
X0017000Y0042000D03*
X0027000Y0042000D03*
X0037000Y0042000D03*
X0047000Y0042000D03*
X0057000Y0042000D03*
X0067000Y0042000D03*
X0077000Y0042000D03*
X0077000Y0022000D03*
X0067000Y0022000D03*
X0057000Y0022000D03*
X0047000Y0022000D03*
X0037000Y0022000D03*
X0027000Y0022000D03*
X0017000Y0022000D03*
X0007000Y0022000D03*
D14*
X0014500Y0025000D03*
X0014500Y0045000D03*
X0014500Y0065000D03*
X0014500Y0085000D03*
X0034500Y0085000D03*
X0034500Y0065000D03*
X0034500Y0045000D03*
X0034500Y0025000D03*
X0054500Y0025000D03*
X0054500Y0045000D03*
X0054500Y0065000D03*
X0054500Y0085000D03*
X0074500Y0085000D03*
X0074500Y0065000D03*
X0074500Y0045000D03*
X0074500Y0025000D03*
D15*
X0070187Y0025251D02*
X0070187Y0023750D01*
X0070187Y0024250D02*
X0069436Y0024250D01*
X0069186Y0024501D01*
X0069186Y0025001D01*
X0069436Y0025251D01*
X0070187Y0025251D01*
X0069686Y0024250D02*
X0069186Y0023750D01*
X0069436Y0019751D02*
X0069186Y0019501D01*
X0069436Y0019751D02*
X0069936Y0019751D01*
X0070187Y0019501D01*
X0070187Y0018500D01*
X0069936Y0018250D01*
X0069436Y0018250D01*
X0069186Y0018500D01*
X0069186Y0019001D01*
X0069686Y0019001D01*
X0074186Y0019251D02*
X0074436Y0019001D01*
X0075187Y0019001D01*
X0075187Y0019751D02*
X0074436Y0019751D01*
X0074186Y0019501D01*
X0074186Y0019251D01*
X0074436Y0019001D02*
X0074186Y0018750D01*
X0074186Y0018500D01*
X0074436Y0018250D01*
X0075187Y0018250D01*
X0075187Y0019751D01*
X0075187Y0038250D02*
X0074436Y0038250D01*
X0074186Y0038500D01*
X0074186Y0038750D01*
X0074436Y0039001D01*
X0075187Y0039001D01*
X0075187Y0039751D02*
X0074436Y0039751D01*
X0074186Y0039501D01*
X0074186Y0039251D01*
X0074436Y0039001D01*
X0075187Y0039751D02*
X0075187Y0038250D01*
X0070187Y0038500D02*
X0069936Y0038250D01*
X0069436Y0038250D01*
X0069186Y0038500D01*
X0069186Y0039001D01*
X0069686Y0039001D01*
X0069186Y0039501D02*
X0069436Y0039751D01*
X0069936Y0039751D01*
X0070187Y0039501D01*
X0070187Y0038500D01*
X0070187Y0043750D02*
X0070187Y0045251D01*
X0069436Y0045251D01*
X0069186Y0045001D01*
X0069186Y0044501D01*
X0069436Y0044250D01*
X0070187Y0044250D01*
X0069686Y0044250D02*
X0069186Y0043750D01*
X0055187Y0039751D02*
X0055187Y0038250D01*
X0054436Y0038250D01*
X0054186Y0038500D01*
X0054186Y0038750D01*
X0054436Y0039001D01*
X0055187Y0039001D01*
X0055187Y0039751D02*
X0054436Y0039751D01*
X0054186Y0039501D01*
X0054186Y0039251D01*
X0054436Y0039001D01*
X0050187Y0039501D02*
X0050187Y0038500D01*
X0049936Y0038250D01*
X0049436Y0038250D01*
X0049186Y0038500D01*
X0049186Y0039001D01*
X0049686Y0039001D01*
X0049186Y0039501D02*
X0049436Y0039751D01*
X0049936Y0039751D01*
X0050187Y0039501D01*
X0050187Y0043750D02*
X0050187Y0045251D01*
X0049436Y0045251D01*
X0049186Y0045001D01*
X0049186Y0044501D01*
X0049436Y0044250D01*
X0050187Y0044250D01*
X0049686Y0044250D02*
X0049186Y0043750D01*
X0049436Y0058250D02*
X0049186Y0058500D01*
X0049186Y0059001D01*
X0049686Y0059001D01*
X0049186Y0059501D02*
X0049436Y0059751D01*
X0049936Y0059751D01*
X0050187Y0059501D01*
X0050187Y0058500D01*
X0049936Y0058250D01*
X0049436Y0058250D01*
X0054186Y0058500D02*
X0054436Y0058250D01*
X0055187Y0058250D01*
X0055187Y0059751D01*
X0054436Y0059751D01*
X0054186Y0059501D01*
X0054186Y0059251D01*
X0054436Y0059001D01*
X0055187Y0059001D01*
X0054436Y0059001D02*
X0054186Y0058750D01*
X0054186Y0058500D01*
X0050187Y0063750D02*
X0050187Y0065251D01*
X0049436Y0065251D01*
X0049186Y0065001D01*
X0049186Y0064501D01*
X0049436Y0064250D01*
X0050187Y0064250D01*
X0049686Y0064250D02*
X0049186Y0063750D01*
X0049436Y0078250D02*
X0049186Y0078500D01*
X0049186Y0079001D01*
X0049686Y0079001D01*
X0049186Y0079501D02*
X0049436Y0079751D01*
X0049936Y0079751D01*
X0050187Y0079501D01*
X0050187Y0078500D01*
X0049936Y0078250D01*
X0049436Y0078250D01*
X0054186Y0078500D02*
X0054436Y0078250D01*
X0055187Y0078250D01*
X0055187Y0079751D01*
X0054436Y0079751D01*
X0054186Y0079501D01*
X0054186Y0079251D01*
X0054436Y0079001D01*
X0055187Y0079001D01*
X0054436Y0079001D02*
X0054186Y0078750D01*
X0054186Y0078500D01*
X0050187Y0083750D02*
X0050187Y0085251D01*
X0049436Y0085251D01*
X0049186Y0085001D01*
X0049186Y0084501D01*
X0049436Y0084250D01*
X0050187Y0084250D01*
X0049686Y0084250D02*
X0049186Y0083750D01*
X0035187Y0079751D02*
X0035187Y0078250D01*
X0034436Y0078250D01*
X0034186Y0078500D01*
X0034186Y0078750D01*
X0034436Y0079001D01*
X0035187Y0079001D01*
X0035187Y0079751D02*
X0034436Y0079751D01*
X0034186Y0079501D01*
X0034186Y0079251D01*
X0034436Y0079001D01*
X0030187Y0079501D02*
X0030187Y0078500D01*
X0029936Y0078250D01*
X0029436Y0078250D01*
X0029186Y0078500D01*
X0029186Y0079001D01*
X0029686Y0079001D01*
X0029186Y0079501D02*
X0029436Y0079751D01*
X0029936Y0079751D01*
X0030187Y0079501D01*
X0030187Y0083750D02*
X0030187Y0085251D01*
X0029436Y0085251D01*
X0029186Y0085001D01*
X0029186Y0084501D01*
X0029436Y0084250D01*
X0030187Y0084250D01*
X0029686Y0084250D02*
X0029186Y0083750D01*
X0015187Y0079751D02*
X0015187Y0078250D01*
X0014436Y0078250D01*
X0014186Y0078500D01*
X0014186Y0078750D01*
X0014436Y0079001D01*
X0015187Y0079001D01*
X0015187Y0079751D02*
X0014436Y0079751D01*
X0014186Y0079501D01*
X0014186Y0079251D01*
X0014436Y0079001D01*
X0010187Y0079501D02*
X0010187Y0078500D01*
X0009936Y0078250D01*
X0009436Y0078250D01*
X0009186Y0078500D01*
X0009186Y0079001D01*
X0009686Y0079001D01*
X0009186Y0079501D02*
X0009436Y0079751D01*
X0009936Y0079751D01*
X0010187Y0079501D01*
X0010187Y0083750D02*
X0010187Y0085251D01*
X0009436Y0085251D01*
X0009186Y0085001D01*
X0009186Y0084501D01*
X0009436Y0084250D01*
X0010187Y0084250D01*
X0009686Y0084250D02*
X0009186Y0083750D01*
X0009436Y0065251D02*
X0009186Y0065001D01*
X0009186Y0064501D01*
X0009436Y0064250D01*
X0010187Y0064250D01*
X0010187Y0063750D02*
X0010187Y0065251D01*
X0009436Y0065251D01*
X0009686Y0064250D02*
X0009186Y0063750D01*
X0009436Y0059751D02*
X0009936Y0059751D01*
X0010187Y0059501D01*
X0010187Y0058500D01*
X0009936Y0058250D01*
X0009436Y0058250D01*
X0009186Y0058500D01*
X0009186Y0059001D01*
X0009686Y0059001D01*
X0009186Y0059501D02*
X0009436Y0059751D01*
X0014186Y0059501D02*
X0014186Y0059251D01*
X0014436Y0059001D01*
X0015187Y0059001D01*
X0015187Y0059751D02*
X0015187Y0058250D01*
X0014436Y0058250D01*
X0014186Y0058500D01*
X0014186Y0058750D01*
X0014436Y0059001D01*
X0014186Y0059501D02*
X0014436Y0059751D01*
X0015187Y0059751D01*
X0029186Y0059501D02*
X0029436Y0059751D01*
X0029936Y0059751D01*
X0030187Y0059501D01*
X0030187Y0058500D01*
X0029936Y0058250D01*
X0029436Y0058250D01*
X0029186Y0058500D01*
X0029186Y0059001D01*
X0029686Y0059001D01*
X0034186Y0059251D02*
X0034436Y0059001D01*
X0035187Y0059001D01*
X0035187Y0059751D02*
X0035187Y0058250D01*
X0034436Y0058250D01*
X0034186Y0058500D01*
X0034186Y0058750D01*
X0034436Y0059001D01*
X0034186Y0059251D02*
X0034186Y0059501D01*
X0034436Y0059751D01*
X0035187Y0059751D01*
X0030187Y0063750D02*
X0030187Y0065251D01*
X0029436Y0065251D01*
X0029186Y0065001D01*
X0029186Y0064501D01*
X0029436Y0064250D01*
X0030187Y0064250D01*
X0029686Y0064250D02*
X0029186Y0063750D01*
X0029436Y0045251D02*
X0029186Y0045001D01*
X0029186Y0044501D01*
X0029436Y0044250D01*
X0030187Y0044250D01*
X0030187Y0043750D02*
X0030187Y0045251D01*
X0029436Y0045251D01*
X0029686Y0044250D02*
X0029186Y0043750D01*
X0029436Y0039751D02*
X0029936Y0039751D01*
X0030187Y0039501D01*
X0030187Y0038500D01*
X0029936Y0038250D01*
X0029436Y0038250D01*
X0029186Y0038500D01*
X0029186Y0039001D01*
X0029686Y0039001D01*
X0029186Y0039501D02*
X0029436Y0039751D01*
X0034186Y0039501D02*
X0034186Y0039251D01*
X0034436Y0039001D01*
X0035187Y0039001D01*
X0035187Y0039751D02*
X0034436Y0039751D01*
X0034186Y0039501D01*
X0034436Y0039001D02*
X0034186Y0038750D01*
X0034186Y0038500D01*
X0034436Y0038250D01*
X0035187Y0038250D01*
X0035187Y0039751D01*
X0030187Y0025251D02*
X0029436Y0025251D01*
X0029186Y0025001D01*
X0029186Y0024501D01*
X0029436Y0024250D01*
X0030187Y0024250D01*
X0030187Y0023750D02*
X0030187Y0025251D01*
X0029686Y0024250D02*
X0029186Y0023750D01*
X0029436Y0019751D02*
X0029936Y0019751D01*
X0030187Y0019501D01*
X0030187Y0018500D01*
X0029936Y0018250D01*
X0029436Y0018250D01*
X0029186Y0018500D01*
X0029186Y0019001D01*
X0029686Y0019001D01*
X0029186Y0019501D02*
X0029436Y0019751D01*
X0034186Y0019501D02*
X0034186Y0019251D01*
X0034436Y0019001D01*
X0035187Y0019001D01*
X0035187Y0019751D02*
X0034436Y0019751D01*
X0034186Y0019501D01*
X0034436Y0019001D02*
X0034186Y0018750D01*
X0034186Y0018500D01*
X0034436Y0018250D01*
X0035187Y0018250D01*
X0035187Y0019751D01*
X0049186Y0019501D02*
X0049436Y0019751D01*
X0049936Y0019751D01*
X0050187Y0019501D01*
X0050187Y0018500D01*
X0049936Y0018250D01*
X0049436Y0018250D01*
X0049186Y0018500D01*
X0049186Y0019001D01*
X0049686Y0019001D01*
X0049186Y0023750D02*
X0049686Y0024250D01*
X0049436Y0024250D02*
X0050187Y0024250D01*
X0050187Y0023750D02*
X0050187Y0025251D01*
X0049436Y0025251D01*
X0049186Y0025001D01*
X0049186Y0024501D01*
X0049436Y0024250D01*
X0054186Y0019501D02*
X0054186Y0019251D01*
X0054436Y0019001D01*
X0055187Y0019001D01*
X0055187Y0019751D02*
X0054436Y0019751D01*
X0054186Y0019501D01*
X0054436Y0019001D02*
X0054186Y0018750D01*
X0054186Y0018500D01*
X0054436Y0018250D01*
X0055187Y0018250D01*
X0055187Y0019751D01*
X0069436Y0058250D02*
X0069186Y0058500D01*
X0069186Y0059001D01*
X0069686Y0059001D01*
X0069186Y0059501D02*
X0069436Y0059751D01*
X0069936Y0059751D01*
X0070187Y0059501D01*
X0070187Y0058500D01*
X0069936Y0058250D01*
X0069436Y0058250D01*
X0074186Y0058500D02*
X0074436Y0058250D01*
X0075187Y0058250D01*
X0075187Y0059751D01*
X0074436Y0059751D01*
X0074186Y0059501D01*
X0074186Y0059251D01*
X0074436Y0059001D01*
X0075187Y0059001D01*
X0074436Y0059001D02*
X0074186Y0058750D01*
X0074186Y0058500D01*
X0070187Y0063750D02*
X0070187Y0065251D01*
X0069436Y0065251D01*
X0069186Y0065001D01*
X0069186Y0064501D01*
X0069436Y0064250D01*
X0070187Y0064250D01*
X0069686Y0064250D02*
X0069186Y0063750D01*
X0069436Y0078250D02*
X0069186Y0078500D01*
X0069186Y0079001D01*
X0069686Y0079001D01*
X0069186Y0079501D02*
X0069436Y0079751D01*
X0069936Y0079751D01*
X0070187Y0079501D01*
X0070187Y0078500D01*
X0069936Y0078250D01*
X0069436Y0078250D01*
X0074186Y0078500D02*
X0074436Y0078250D01*
X0075187Y0078250D01*
X0075187Y0079751D01*
X0074436Y0079751D01*
X0074186Y0079501D01*
X0074186Y0079251D01*
X0074436Y0079001D01*
X0075187Y0079001D01*
X0074436Y0079001D02*
X0074186Y0078750D01*
X0074186Y0078500D01*
X0070187Y0083750D02*
X0070187Y0085251D01*
X0069436Y0085251D01*
X0069186Y0085001D01*
X0069186Y0084501D01*
X0069436Y0084250D01*
X0070187Y0084250D01*
X0069686Y0084250D02*
X0069186Y0083750D01*
X0015187Y0039751D02*
X0015187Y0038250D01*
X0014436Y0038250D01*
X0014186Y0038500D01*
X0014186Y0038750D01*
X0014436Y0039001D01*
X0015187Y0039001D01*
X0015187Y0039751D02*
X0014436Y0039751D01*
X0014186Y0039501D01*
X0014186Y0039251D01*
X0014436Y0039001D01*
X0010187Y0039501D02*
X0010187Y0038500D01*
X0009936Y0038250D01*
X0009436Y0038250D01*
X0009186Y0038500D01*
X0009186Y0039001D01*
X0009686Y0039001D01*
X0009186Y0039501D02*
X0009436Y0039751D01*
X0009936Y0039751D01*
X0010187Y0039501D01*
X0010187Y0043750D02*
X0010187Y0045251D01*
X0009436Y0045251D01*
X0009186Y0045001D01*
X0009186Y0044501D01*
X0009436Y0044250D01*
X0010187Y0044250D01*
X0009686Y0044250D02*
X0009186Y0043750D01*
X0009436Y0025251D02*
X0009186Y0025001D01*
X0009186Y0024501D01*
X0009436Y0024250D01*
X0010187Y0024250D01*
X0010187Y0023750D02*
X0010187Y0025251D01*
X0009436Y0025251D01*
X0009686Y0024250D02*
X0009186Y0023750D01*
X0009436Y0019751D02*
X0009936Y0019751D01*
X0010187Y0019501D01*
X0010187Y0018500D01*
X0009936Y0018250D01*
X0009436Y0018250D01*
X0009186Y0018500D01*
X0009186Y0019001D01*
X0009686Y0019001D01*
X0009186Y0019501D02*
X0009436Y0019751D01*
X0014186Y0019501D02*
X0014186Y0019251D01*
X0014436Y0019001D01*
X0015187Y0019001D01*
X0015187Y0019751D02*
X0014436Y0019751D01*
X0014186Y0019501D01*
X0014436Y0019001D02*
X0014186Y0018750D01*
X0014186Y0018500D01*
X0014436Y0018250D01*
X0015187Y0018250D01*
X0015187Y0019751D01*
D16*
X0016000Y0022000D02*
X0012000Y0026000D01*
X0016000Y0026000D01*
X0016000Y0022000D01*
X0016000Y0022439D02*
X0015561Y0022439D01*
X0016000Y0022937D02*
X0015063Y0022937D01*
X0014564Y0023436D02*
X0016000Y0023436D01*
X0016000Y0023934D02*
X0014066Y0023934D01*
X0013567Y0024433D02*
X0016000Y0024433D01*
X0016000Y0024932D02*
X0013068Y0024932D01*
X0012570Y0025430D02*
X0016000Y0025430D01*
X0016000Y0025929D02*
X0012071Y0025929D01*
X0016000Y0042000D02*
X0012000Y0046000D01*
X0016000Y0046000D01*
X0016000Y0042000D01*
X0016000Y0042379D02*
X0015621Y0042379D01*
X0016000Y0042878D02*
X0015122Y0042878D01*
X0014624Y0043376D02*
X0016000Y0043376D01*
X0016000Y0043875D02*
X0014125Y0043875D01*
X0013627Y0044373D02*
X0016000Y0044373D01*
X0016000Y0044872D02*
X0013128Y0044872D01*
X0012630Y0045370D02*
X0016000Y0045370D01*
X0016000Y0045869D02*
X0012131Y0045869D01*
X0016000Y0062000D02*
X0012000Y0066000D01*
X0016000Y0066000D01*
X0016000Y0062000D01*
X0016000Y0062320D02*
X0015680Y0062320D01*
X0016000Y0062818D02*
X0015182Y0062818D01*
X0014683Y0063317D02*
X0016000Y0063317D01*
X0016000Y0063815D02*
X0014185Y0063815D01*
X0013686Y0064314D02*
X0016000Y0064314D01*
X0016000Y0064812D02*
X0013188Y0064812D01*
X0012689Y0065311D02*
X0016000Y0065311D01*
X0016000Y0065809D02*
X0012191Y0065809D01*
X0016000Y0082000D02*
X0012000Y0086000D01*
X0016000Y0086000D01*
X0016000Y0082000D01*
X0016000Y0082260D02*
X0015740Y0082260D01*
X0016000Y0082759D02*
X0015241Y0082759D01*
X0014743Y0083257D02*
X0016000Y0083257D01*
X0016000Y0083756D02*
X0014244Y0083756D01*
X0013746Y0084254D02*
X0016000Y0084254D01*
X0016000Y0084753D02*
X0013247Y0084753D01*
X0012749Y0085251D02*
X0016000Y0085251D01*
X0016000Y0085750D02*
X0012250Y0085750D01*
X0032000Y0086000D02*
X0036000Y0082000D01*
X0036000Y0086000D01*
X0032000Y0086000D01*
X0032250Y0085750D02*
X0036000Y0085750D01*
X0036000Y0085251D02*
X0032749Y0085251D01*
X0033247Y0084753D02*
X0036000Y0084753D01*
X0036000Y0084254D02*
X0033746Y0084254D01*
X0034244Y0083756D02*
X0036000Y0083756D01*
X0036000Y0083257D02*
X0034743Y0083257D01*
X0035241Y0082759D02*
X0036000Y0082759D01*
X0036000Y0082260D02*
X0035740Y0082260D01*
X0052000Y0086000D02*
X0056000Y0082000D01*
X0056000Y0086000D01*
X0052000Y0086000D01*
X0052250Y0085750D02*
X0056000Y0085750D01*
X0056000Y0085251D02*
X0052749Y0085251D01*
X0053247Y0084753D02*
X0056000Y0084753D01*
X0056000Y0084254D02*
X0053746Y0084254D01*
X0054244Y0083756D02*
X0056000Y0083756D01*
X0056000Y0083257D02*
X0054743Y0083257D01*
X0055241Y0082759D02*
X0056000Y0082759D01*
X0056000Y0082260D02*
X0055740Y0082260D01*
X0056000Y0066000D02*
X0052000Y0066000D01*
X0056000Y0062000D01*
X0056000Y0066000D01*
X0056000Y0065809D02*
X0052191Y0065809D01*
X0052689Y0065311D02*
X0056000Y0065311D01*
X0056000Y0064812D02*
X0053188Y0064812D01*
X0053686Y0064314D02*
X0056000Y0064314D01*
X0056000Y0063815D02*
X0054185Y0063815D01*
X0054683Y0063317D02*
X0056000Y0063317D01*
X0056000Y0062818D02*
X0055182Y0062818D01*
X0055680Y0062320D02*
X0056000Y0062320D01*
X0056000Y0046000D02*
X0052000Y0046000D01*
X0056000Y0042000D01*
X0056000Y0046000D01*
X0056000Y0045869D02*
X0052131Y0045869D01*
X0052630Y0045370D02*
X0056000Y0045370D01*
X0056000Y0044872D02*
X0053128Y0044872D01*
X0053627Y0044373D02*
X0056000Y0044373D01*
X0056000Y0043875D02*
X0054125Y0043875D01*
X0054624Y0043376D02*
X0056000Y0043376D01*
X0056000Y0042878D02*
X0055122Y0042878D01*
X0055621Y0042379D02*
X0056000Y0042379D01*
X0056000Y0026000D02*
X0052000Y0026000D01*
X0056000Y0022000D01*
X0056000Y0026000D01*
X0056000Y0025929D02*
X0052071Y0025929D01*
X0052570Y0025430D02*
X0056000Y0025430D01*
X0056000Y0024932D02*
X0053068Y0024932D01*
X0053567Y0024433D02*
X0056000Y0024433D01*
X0056000Y0023934D02*
X0054066Y0023934D01*
X0054564Y0023436D02*
X0056000Y0023436D01*
X0056000Y0022937D02*
X0055063Y0022937D01*
X0055561Y0022439D02*
X0056000Y0022439D01*
X0072000Y0026000D02*
X0076000Y0022000D01*
X0076000Y0026000D01*
X0072000Y0026000D01*
X0072071Y0025929D02*
X0076000Y0025929D01*
X0076000Y0025430D02*
X0072570Y0025430D01*
X0073068Y0024932D02*
X0076000Y0024932D01*
X0076000Y0024433D02*
X0073567Y0024433D01*
X0074066Y0023934D02*
X0076000Y0023934D01*
X0076000Y0023436D02*
X0074564Y0023436D01*
X0075063Y0022937D02*
X0076000Y0022937D01*
X0076000Y0022439D02*
X0075561Y0022439D01*
X0076000Y0042000D02*
X0072000Y0046000D01*
X0076000Y0046000D01*
X0076000Y0042000D01*
X0076000Y0042379D02*
X0075621Y0042379D01*
X0076000Y0042878D02*
X0075122Y0042878D01*
X0074624Y0043376D02*
X0076000Y0043376D01*
X0076000Y0043875D02*
X0074125Y0043875D01*
X0073627Y0044373D02*
X0076000Y0044373D01*
X0076000Y0044872D02*
X0073128Y0044872D01*
X0072630Y0045370D02*
X0076000Y0045370D01*
X0076000Y0045869D02*
X0072131Y0045869D01*
X0076000Y0062000D02*
X0072000Y0066000D01*
X0076000Y0066000D01*
X0076000Y0062000D01*
X0076000Y0062320D02*
X0075680Y0062320D01*
X0076000Y0062818D02*
X0075182Y0062818D01*
X0074683Y0063317D02*
X0076000Y0063317D01*
X0076000Y0063815D02*
X0074185Y0063815D01*
X0073686Y0064314D02*
X0076000Y0064314D01*
X0076000Y0064812D02*
X0073188Y0064812D01*
X0072689Y0065311D02*
X0076000Y0065311D01*
X0076000Y0065809D02*
X0072191Y0065809D01*
X0076000Y0082000D02*
X0072000Y0086000D01*
X0076000Y0086000D01*
X0076000Y0082000D01*
X0076000Y0082260D02*
X0075740Y0082260D01*
X0076000Y0082759D02*
X0075241Y0082759D01*
X0074743Y0083257D02*
X0076000Y0083257D01*
X0076000Y0083756D02*
X0074244Y0083756D01*
X0073746Y0084254D02*
X0076000Y0084254D01*
X0076000Y0084753D02*
X0073247Y0084753D01*
X0072749Y0085251D02*
X0076000Y0085251D01*
X0076000Y0085750D02*
X0072250Y0085750D01*
X0036000Y0066000D02*
X0036000Y0062000D01*
X0032000Y0066000D01*
X0036000Y0066000D01*
X0036000Y0065809D02*
X0032191Y0065809D01*
X0032689Y0065311D02*
X0036000Y0065311D01*
X0036000Y0064812D02*
X0033188Y0064812D01*
X0033686Y0064314D02*
X0036000Y0064314D01*
X0036000Y0063815D02*
X0034185Y0063815D01*
X0034683Y0063317D02*
X0036000Y0063317D01*
X0036000Y0062818D02*
X0035182Y0062818D01*
X0035680Y0062320D02*
X0036000Y0062320D01*
X0036000Y0046000D02*
X0032000Y0046000D01*
X0036000Y0042000D01*
X0036000Y0046000D01*
X0036000Y0045869D02*
X0032131Y0045869D01*
X0032630Y0045370D02*
X0036000Y0045370D01*
X0036000Y0044872D02*
X0033128Y0044872D01*
X0033627Y0044373D02*
X0036000Y0044373D01*
X0036000Y0043875D02*
X0034125Y0043875D01*
X0034624Y0043376D02*
X0036000Y0043376D01*
X0036000Y0042878D02*
X0035122Y0042878D01*
X0035621Y0042379D02*
X0036000Y0042379D01*
X0036000Y0026000D02*
X0032000Y0026000D01*
X0036000Y0022000D01*
X0036000Y0026000D01*
X0036000Y0025929D02*
X0032071Y0025929D01*
X0032570Y0025430D02*
X0036000Y0025430D01*
X0036000Y0024932D02*
X0033068Y0024932D01*
X0033567Y0024433D02*
X0036000Y0024433D01*
X0036000Y0023934D02*
X0034066Y0023934D01*
X0034564Y0023436D02*
X0036000Y0023436D01*
X0036000Y0022937D02*
X0035063Y0022937D01*
X0035561Y0022439D02*
X0036000Y0022439D01*
M02*
