G75*
%MOIN*%
%OFA0B0*%
%FSLAX25Y25*%
%IPPOS*%
%LPD*%
%AMOC8*
5,1,8,0,0,1.08239X$1,22.5*
%
%ADD10C,0.00300*%
%ADD11C,0.00400*%
%ADD12R,0.05000X0.01000*%
%ADD13R,0.01000X0.05000*%
%ADD14C,0.01000*%
%ADD15C,0.00100*%
%ADD16C,0.00500*%
D10*
X0006633Y0011550D02*
X0008568Y0011550D01*
X0006633Y0013485D01*
X0006633Y0013969D01*
X0007117Y0014452D01*
X0008085Y0014452D01*
X0008568Y0013969D01*
X0009580Y0013969D02*
X0010064Y0014452D01*
X0011515Y0014452D01*
X0011515Y0011550D01*
X0010064Y0011550D01*
X0009580Y0012034D01*
X0009580Y0013969D01*
X0012117Y0020550D02*
X0013085Y0020550D01*
X0013568Y0021034D01*
X0014580Y0020550D02*
X0016515Y0020550D01*
X0015547Y0020550D02*
X0015547Y0023452D01*
X0016515Y0022485D01*
X0013568Y0022969D02*
X0013085Y0023452D01*
X0012117Y0023452D01*
X0011633Y0022969D01*
X0011633Y0022485D01*
X0012117Y0022001D01*
X0011633Y0021517D01*
X0011633Y0021034D01*
X0012117Y0020550D01*
X0012117Y0022001D02*
X0012601Y0022001D01*
X0017117Y0014452D02*
X0016633Y0013969D01*
X0016633Y0013485D01*
X0017117Y0013001D01*
X0016633Y0012517D01*
X0016633Y0012034D01*
X0017117Y0011550D01*
X0018085Y0011550D01*
X0018568Y0012034D01*
X0019580Y0012034D02*
X0019580Y0013969D01*
X0020064Y0014452D01*
X0021515Y0014452D01*
X0021515Y0011550D01*
X0020064Y0011550D01*
X0019580Y0012034D01*
X0018568Y0013969D02*
X0018085Y0014452D01*
X0017117Y0014452D01*
X0017117Y0013001D02*
X0017601Y0013001D01*
X0026633Y0013001D02*
X0028568Y0013001D01*
X0027117Y0014452D01*
X0027117Y0011550D01*
X0029580Y0012034D02*
X0029580Y0013969D01*
X0030064Y0014452D01*
X0031515Y0014452D01*
X0031515Y0011550D01*
X0030064Y0011550D01*
X0029580Y0012034D01*
X0036633Y0012034D02*
X0037117Y0011550D01*
X0038085Y0011550D01*
X0038568Y0012034D01*
X0038568Y0013001D02*
X0037601Y0013485D01*
X0037117Y0013485D01*
X0036633Y0013001D01*
X0036633Y0012034D01*
X0038568Y0013001D02*
X0038568Y0014452D01*
X0036633Y0014452D01*
X0039580Y0013969D02*
X0039580Y0012034D01*
X0040064Y0011550D01*
X0041515Y0011550D01*
X0041515Y0014452D01*
X0040064Y0014452D01*
X0039580Y0013969D01*
X0046633Y0014452D02*
X0047601Y0013969D01*
X0048568Y0013001D01*
X0047117Y0013001D01*
X0046633Y0012517D01*
X0046633Y0012034D01*
X0047117Y0011550D01*
X0048085Y0011550D01*
X0048568Y0012034D01*
X0048568Y0013001D01*
X0049580Y0012034D02*
X0049580Y0013969D01*
X0050064Y0014452D01*
X0051515Y0014452D01*
X0051515Y0011550D01*
X0050064Y0011550D01*
X0049580Y0012034D01*
X0056633Y0013969D02*
X0058568Y0012034D01*
X0058568Y0011550D01*
X0059580Y0012034D02*
X0059580Y0013969D01*
X0060064Y0014452D01*
X0061515Y0014452D01*
X0061515Y0011550D01*
X0060064Y0011550D01*
X0059580Y0012034D01*
X0058568Y0014452D02*
X0056633Y0014452D01*
X0056633Y0013969D01*
X0056515Y0020550D02*
X0054580Y0020550D01*
X0055547Y0020550D02*
X0055547Y0023452D01*
X0056515Y0022485D01*
X0053568Y0022001D02*
X0052601Y0022485D01*
X0052117Y0022485D01*
X0051633Y0022001D01*
X0051633Y0021034D01*
X0052117Y0020550D01*
X0053085Y0020550D01*
X0053568Y0021034D01*
X0053568Y0022001D02*
X0053568Y0023452D01*
X0051633Y0023452D01*
X0036515Y0022485D02*
X0035547Y0023452D01*
X0035547Y0020550D01*
X0034580Y0020550D02*
X0036515Y0020550D01*
X0033568Y0022001D02*
X0031633Y0022001D01*
X0032117Y0020550D02*
X0032117Y0023452D01*
X0033568Y0022001D01*
X0033085Y0040550D02*
X0032117Y0040550D01*
X0031633Y0041034D01*
X0031633Y0042969D01*
X0033568Y0041034D01*
X0033085Y0040550D01*
X0033568Y0041034D02*
X0033568Y0042969D01*
X0033085Y0043452D01*
X0032117Y0043452D01*
X0031633Y0042969D01*
X0034580Y0040550D02*
X0036515Y0040550D01*
X0035547Y0040550D02*
X0035547Y0043452D01*
X0036515Y0042485D01*
X0051633Y0040550D02*
X0053568Y0040550D01*
X0052601Y0040550D02*
X0052601Y0043452D01*
X0053568Y0042485D01*
X0054580Y0040550D02*
X0056515Y0040550D01*
X0055547Y0040550D02*
X0055547Y0043452D01*
X0056515Y0042485D01*
X0071633Y0042485D02*
X0071633Y0042969D01*
X0072117Y0043452D01*
X0073085Y0043452D01*
X0073568Y0042969D01*
X0071633Y0042485D02*
X0073568Y0040550D01*
X0071633Y0040550D01*
X0074580Y0040550D02*
X0076515Y0040550D01*
X0075547Y0040550D02*
X0075547Y0043452D01*
X0076515Y0042485D01*
X0074558Y0060550D02*
X0073590Y0060550D01*
X0073107Y0061034D01*
X0073107Y0061517D01*
X0073590Y0062001D01*
X0074558Y0062001D01*
X0075042Y0062485D01*
X0075042Y0062969D01*
X0074558Y0063452D01*
X0073590Y0063452D01*
X0073107Y0062969D01*
X0073107Y0062485D01*
X0073590Y0062001D01*
X0074558Y0062001D02*
X0075042Y0061517D01*
X0075042Y0061034D01*
X0074558Y0060550D01*
X0055042Y0060550D02*
X0055042Y0061034D01*
X0053107Y0062969D01*
X0053107Y0063452D01*
X0055042Y0063452D01*
X0054558Y0080550D02*
X0053590Y0080550D01*
X0053107Y0081034D01*
X0053107Y0081517D01*
X0053590Y0082001D01*
X0054074Y0082001D01*
X0053590Y0082001D02*
X0053107Y0082485D01*
X0053107Y0082969D01*
X0053590Y0083452D01*
X0054558Y0083452D01*
X0055042Y0082969D01*
X0055042Y0081034D02*
X0054558Y0080550D01*
X0055160Y0090550D02*
X0057095Y0090550D01*
X0055160Y0092485D01*
X0055160Y0092969D01*
X0055644Y0093452D01*
X0056611Y0093452D01*
X0057095Y0092969D01*
X0059074Y0093452D02*
X0059074Y0090550D01*
X0058107Y0090550D02*
X0060042Y0090550D01*
X0061053Y0091034D02*
X0061053Y0092969D01*
X0061537Y0093452D01*
X0062988Y0093452D01*
X0062988Y0090550D01*
X0061537Y0090550D01*
X0061053Y0091034D01*
X0060042Y0092485D02*
X0059074Y0093452D01*
X0052988Y0093452D02*
X0052988Y0090550D01*
X0051537Y0090550D01*
X0051053Y0091034D01*
X0051053Y0092969D01*
X0051537Y0093452D01*
X0052988Y0093452D01*
X0050042Y0092485D02*
X0049074Y0093452D01*
X0049074Y0090550D01*
X0048107Y0090550D02*
X0050042Y0090550D01*
X0047095Y0091034D02*
X0046611Y0090550D01*
X0045644Y0090550D01*
X0045160Y0091034D01*
X0045160Y0091517D01*
X0045644Y0092001D01*
X0046128Y0092001D01*
X0045644Y0092001D02*
X0045160Y0092485D01*
X0045160Y0092969D01*
X0045644Y0093452D01*
X0046611Y0093452D01*
X0047095Y0092969D01*
X0041515Y0092485D02*
X0041515Y0090550D01*
X0041515Y0092001D02*
X0039580Y0092001D01*
X0039580Y0092485D02*
X0039580Y0090550D01*
X0038568Y0091034D02*
X0036633Y0092969D01*
X0036633Y0091034D01*
X0037117Y0090550D01*
X0038085Y0090550D01*
X0038568Y0091034D01*
X0038568Y0092969D01*
X0038085Y0093452D01*
X0037117Y0093452D01*
X0036633Y0092969D01*
X0039580Y0092485D02*
X0040547Y0093452D01*
X0041515Y0092485D01*
X0034558Y0083452D02*
X0033590Y0083452D01*
X0033107Y0082969D01*
X0033107Y0082485D01*
X0035042Y0080550D01*
X0033107Y0080550D01*
X0035042Y0082969D02*
X0034558Y0083452D01*
X0031515Y0090550D02*
X0031515Y0092485D01*
X0030547Y0093452D01*
X0029580Y0092485D01*
X0029580Y0090550D01*
X0028568Y0090550D02*
X0026633Y0090550D01*
X0027601Y0090550D02*
X0027601Y0093452D01*
X0028568Y0092485D01*
X0029580Y0092001D02*
X0031515Y0092001D01*
X0021515Y0092001D02*
X0019580Y0092001D01*
X0019580Y0092485D02*
X0019580Y0090550D01*
X0018568Y0090550D02*
X0016633Y0092485D01*
X0016633Y0092969D01*
X0017117Y0093452D01*
X0018085Y0093452D01*
X0018568Y0092969D01*
X0019580Y0092485D02*
X0020547Y0093452D01*
X0021515Y0092485D01*
X0021515Y0090550D01*
X0018568Y0090550D02*
X0016633Y0090550D01*
X0012252Y0090150D02*
X0012252Y0092619D01*
X0011017Y0093853D01*
X0009783Y0092619D01*
X0009783Y0090150D01*
X0008568Y0090767D02*
X0007951Y0090150D01*
X0006717Y0090150D01*
X0006100Y0090767D01*
X0006100Y0091384D01*
X0006717Y0092002D01*
X0007334Y0092002D01*
X0006717Y0092002D02*
X0006100Y0092619D01*
X0006100Y0093236D01*
X0006717Y0093853D01*
X0007951Y0093853D01*
X0008568Y0093236D01*
X0009783Y0092002D02*
X0012252Y0092002D01*
X0014074Y0083452D02*
X0014074Y0080550D01*
X0013107Y0080550D02*
X0015042Y0080550D01*
X0015042Y0082485D02*
X0014074Y0083452D01*
X0013107Y0063452D02*
X0015042Y0063452D01*
X0015042Y0062001D01*
X0014074Y0062485D01*
X0013590Y0062485D01*
X0013107Y0062001D01*
X0013107Y0061034D01*
X0013590Y0060550D01*
X0014558Y0060550D01*
X0015042Y0061034D01*
X0014558Y0043452D02*
X0013590Y0043452D01*
X0013107Y0042969D01*
X0013107Y0041034D01*
X0013590Y0040550D01*
X0014558Y0040550D01*
X0015042Y0041034D01*
X0014558Y0042001D02*
X0013107Y0042001D01*
X0014558Y0042001D02*
X0015042Y0042485D01*
X0015042Y0042969D01*
X0014558Y0043452D01*
X0033107Y0061034D02*
X0033107Y0061517D01*
X0033590Y0062001D01*
X0035042Y0062001D01*
X0035042Y0061034D01*
X0034558Y0060550D01*
X0033590Y0060550D01*
X0033107Y0061034D01*
X0034074Y0062969D02*
X0035042Y0062001D01*
X0034074Y0062969D02*
X0033107Y0063452D01*
X0065160Y0090550D02*
X0067095Y0090550D01*
X0066128Y0090550D02*
X0066128Y0093452D01*
X0067095Y0092485D01*
X0068107Y0090550D02*
X0070042Y0090550D01*
X0069074Y0090550D02*
X0069074Y0093452D01*
X0070042Y0092485D01*
X0071053Y0092969D02*
X0071053Y0091034D01*
X0071537Y0090550D01*
X0072988Y0090550D01*
X0072988Y0093452D01*
X0071537Y0093452D01*
X0071053Y0092969D01*
X0075160Y0092969D02*
X0075160Y0091034D01*
X0075644Y0090550D01*
X0076611Y0090550D01*
X0077095Y0091034D01*
X0075160Y0092969D01*
X0075644Y0093452D01*
X0076611Y0093452D01*
X0077095Y0092969D01*
X0077095Y0091034D01*
X0078107Y0090550D02*
X0080042Y0090550D01*
X0079074Y0090550D02*
X0079074Y0093452D01*
X0080042Y0092485D01*
X0081053Y0092969D02*
X0081053Y0091034D01*
X0081537Y0090550D01*
X0082988Y0090550D01*
X0082988Y0093452D01*
X0081537Y0093452D01*
X0081053Y0092969D01*
X0073590Y0083452D02*
X0075042Y0082001D01*
X0073107Y0082001D01*
X0073590Y0080550D02*
X0073590Y0083452D01*
X0071633Y0023452D02*
X0072601Y0022969D01*
X0073568Y0022001D01*
X0072117Y0022001D01*
X0071633Y0021517D01*
X0071633Y0021034D01*
X0072117Y0020550D01*
X0073085Y0020550D01*
X0073568Y0021034D01*
X0073568Y0022001D01*
X0074580Y0020550D02*
X0076515Y0020550D01*
X0075547Y0020550D02*
X0075547Y0023452D01*
X0076515Y0022485D01*
X0077117Y0014452D02*
X0076633Y0013969D01*
X0076633Y0012034D01*
X0077117Y0011550D01*
X0078085Y0011550D01*
X0078568Y0012034D01*
X0079580Y0012034D02*
X0079580Y0013969D01*
X0080064Y0014452D01*
X0081515Y0014452D01*
X0081515Y0011550D01*
X0080064Y0011550D01*
X0079580Y0012034D01*
X0078568Y0013485D02*
X0078085Y0013001D01*
X0076633Y0013001D01*
X0077117Y0014452D02*
X0078085Y0014452D01*
X0078568Y0013969D01*
X0078568Y0013485D01*
X0071515Y0014452D02*
X0071515Y0011550D01*
X0070064Y0011550D01*
X0069580Y0012034D01*
X0069580Y0013969D01*
X0070064Y0014452D01*
X0071515Y0014452D01*
X0068568Y0013969D02*
X0068568Y0013485D01*
X0068085Y0013001D01*
X0067117Y0013001D01*
X0066633Y0012517D01*
X0066633Y0012034D01*
X0067117Y0011550D01*
X0068085Y0011550D01*
X0068568Y0012034D01*
X0068568Y0012517D01*
X0068085Y0013001D01*
X0067117Y0013001D02*
X0066633Y0013485D01*
X0066633Y0013969D01*
X0067117Y0014452D01*
X0068085Y0014452D01*
X0068568Y0013969D01*
D11*
X0068840Y0029700D02*
X0068840Y0034304D01*
X0069607Y0034304D02*
X0068073Y0034304D01*
X0071142Y0033537D02*
X0071142Y0032002D01*
X0071909Y0031235D01*
X0074211Y0031235D01*
X0072677Y0031235D02*
X0071142Y0029700D01*
X0069607Y0029700D02*
X0068073Y0029700D01*
X0071142Y0033537D02*
X0071909Y0034304D01*
X0074211Y0034304D01*
X0074211Y0029700D01*
X0075746Y0029700D02*
X0075746Y0032769D01*
X0077281Y0034304D01*
X0078815Y0032769D01*
X0078815Y0029700D01*
X0080350Y0029700D02*
X0080350Y0034304D01*
X0080350Y0032002D02*
X0083419Y0032002D01*
X0083419Y0029700D02*
X0083419Y0034304D01*
X0078815Y0032002D02*
X0075746Y0032002D01*
X0061934Y0034304D02*
X0061934Y0029700D01*
X0060400Y0031235D01*
X0058865Y0029700D01*
X0058865Y0034304D01*
X0057330Y0034304D02*
X0055796Y0034304D01*
X0056563Y0034304D02*
X0056563Y0029700D01*
X0057330Y0029700D02*
X0055796Y0029700D01*
X0054261Y0030467D02*
X0053494Y0029700D01*
X0051959Y0029700D01*
X0051192Y0030467D01*
X0051192Y0032002D01*
X0052726Y0032002D01*
X0051192Y0033537D02*
X0051959Y0034304D01*
X0053494Y0034304D01*
X0054261Y0033537D01*
X0054261Y0030467D01*
X0049657Y0030467D02*
X0048890Y0029700D01*
X0047355Y0029700D01*
X0046588Y0030467D01*
X0046588Y0034304D01*
X0045053Y0034304D02*
X0041984Y0029700D01*
X0041984Y0034304D01*
X0040449Y0032769D02*
X0038915Y0034304D01*
X0037380Y0032769D01*
X0037380Y0029700D01*
X0037380Y0032002D02*
X0040449Y0032002D01*
X0040449Y0032769D02*
X0040449Y0029700D01*
X0045053Y0029700D02*
X0045053Y0034304D01*
X0049657Y0034304D02*
X0049657Y0030467D01*
X0031241Y0032002D02*
X0028172Y0032002D01*
X0022034Y0033537D02*
X0021266Y0034304D01*
X0019732Y0034304D01*
X0018964Y0033537D01*
X0018964Y0032769D01*
X0022034Y0029700D01*
X0018964Y0029700D01*
X0017430Y0030467D02*
X0016662Y0029700D01*
X0015128Y0029700D01*
X0014360Y0030467D01*
X0014360Y0033537D01*
X0017430Y0030467D01*
X0017430Y0033537D01*
X0016662Y0034304D01*
X0015128Y0034304D01*
X0014360Y0033537D01*
X0012826Y0032769D02*
X0011291Y0034304D01*
X0011291Y0029700D01*
X0012826Y0029700D02*
X0009756Y0029700D01*
X0008222Y0030467D02*
X0008222Y0032002D01*
X0005920Y0032002D01*
X0005152Y0031235D01*
X0005152Y0030467D01*
X0005920Y0029700D01*
X0007454Y0029700D01*
X0008222Y0030467D01*
X0008222Y0032002D02*
X0006687Y0033537D01*
X0005152Y0034304D01*
X0017430Y0049700D02*
X0020499Y0049700D01*
X0020499Y0054304D01*
X0017430Y0054304D01*
X0018964Y0052002D02*
X0020499Y0052002D01*
X0022034Y0052769D02*
X0022801Y0052002D01*
X0025103Y0052002D01*
X0026637Y0050467D02*
X0026637Y0054304D01*
X0025103Y0054304D02*
X0022801Y0054304D01*
X0022034Y0053537D01*
X0022034Y0052769D01*
X0022801Y0052002D02*
X0022034Y0051235D01*
X0022034Y0050467D01*
X0022801Y0049700D01*
X0025103Y0049700D01*
X0025103Y0054304D01*
X0026637Y0050467D02*
X0027405Y0049700D01*
X0028939Y0049700D01*
X0029707Y0050467D01*
X0029707Y0054304D01*
X0031241Y0053537D02*
X0032009Y0054304D01*
X0033543Y0054304D01*
X0034311Y0053537D01*
X0034311Y0050467D01*
X0033543Y0049700D01*
X0032009Y0049700D01*
X0031241Y0050467D01*
X0040449Y0050467D02*
X0040449Y0053537D01*
X0041217Y0054304D01*
X0043518Y0054304D01*
X0043518Y0049700D01*
X0041217Y0049700D01*
X0040449Y0050467D01*
X0045053Y0049700D02*
X0048122Y0049700D01*
X0048122Y0054304D01*
X0045053Y0054304D01*
X0046588Y0052002D02*
X0048122Y0052002D01*
X0049657Y0049700D02*
X0052726Y0049700D01*
X0052726Y0054304D01*
X0058865Y0053537D02*
X0058865Y0052769D01*
X0059632Y0052002D01*
X0061934Y0052002D01*
X0063469Y0052002D02*
X0063469Y0050467D01*
X0064236Y0049700D01*
X0065771Y0049700D01*
X0066538Y0050467D01*
X0066538Y0053537D01*
X0065771Y0054304D01*
X0064236Y0054304D01*
X0063469Y0053537D01*
X0063469Y0052002D02*
X0065003Y0052002D01*
X0068073Y0052002D02*
X0068840Y0051235D01*
X0071142Y0051235D01*
X0069607Y0051235D02*
X0068073Y0049700D01*
X0068073Y0052002D02*
X0068073Y0053537D01*
X0068840Y0054304D01*
X0071142Y0054304D01*
X0071142Y0049700D01*
X0061934Y0049700D02*
X0059632Y0049700D01*
X0058865Y0050467D01*
X0058865Y0051235D01*
X0059632Y0052002D01*
X0058865Y0053537D02*
X0059632Y0054304D01*
X0061934Y0054304D01*
X0061934Y0049700D01*
X0060783Y0069700D02*
X0059249Y0069700D01*
X0058481Y0070467D01*
X0058481Y0073537D01*
X0059249Y0074304D01*
X0060783Y0074304D01*
X0061551Y0073537D01*
X0061551Y0070467D01*
X0060783Y0069700D01*
X0063085Y0069700D02*
X0063085Y0074304D01*
X0066154Y0074304D02*
X0066154Y0069700D01*
X0064620Y0071235D01*
X0063085Y0069700D01*
X0056947Y0069700D02*
X0056947Y0074304D01*
X0054645Y0074304D01*
X0053877Y0073537D01*
X0053877Y0072002D01*
X0054645Y0071235D01*
X0056947Y0071235D01*
X0055412Y0071235D02*
X0053877Y0069700D01*
X0052343Y0069700D02*
X0049273Y0069700D01*
X0047739Y0069700D02*
X0045437Y0069700D01*
X0044669Y0070467D01*
X0044669Y0073537D01*
X0045437Y0074304D01*
X0047739Y0074304D01*
X0047739Y0069700D01*
X0052343Y0069700D02*
X0052343Y0074304D01*
X0043135Y0072769D02*
X0042368Y0073537D01*
X0042368Y0075071D01*
X0040833Y0073537D02*
X0040833Y0072769D01*
X0040066Y0072002D01*
X0038531Y0072002D01*
X0037764Y0071235D01*
X0037764Y0070467D01*
X0038531Y0069700D01*
X0040066Y0069700D01*
X0040833Y0070467D01*
X0040833Y0073537D02*
X0040066Y0074304D01*
X0038531Y0074304D01*
X0037764Y0073537D01*
X0031625Y0074304D02*
X0028556Y0074304D01*
X0027021Y0074304D02*
X0025486Y0074304D01*
X0026254Y0074304D02*
X0026254Y0069700D01*
X0027021Y0069700D02*
X0025486Y0069700D01*
X0023952Y0069700D02*
X0023952Y0074304D01*
X0020883Y0069700D01*
X0020883Y0074304D01*
X0019348Y0074304D02*
X0017813Y0074304D01*
X0018581Y0074304D02*
X0018581Y0069700D01*
X0019348Y0069700D02*
X0017813Y0069700D01*
X0016279Y0069700D02*
X0013209Y0069700D01*
X0011675Y0070467D02*
X0010907Y0069700D01*
X0009373Y0069700D01*
X0008605Y0070467D01*
X0008605Y0071235D01*
X0009373Y0072002D01*
X0010907Y0072002D01*
X0011675Y0072769D01*
X0011675Y0073537D01*
X0010907Y0074304D01*
X0009373Y0074304D01*
X0008605Y0073537D01*
X0007071Y0074304D02*
X0004002Y0074304D01*
X0005536Y0074304D02*
X0005536Y0069700D01*
X0013209Y0074304D02*
X0016279Y0074304D01*
X0016279Y0069700D01*
X0016279Y0072002D02*
X0014744Y0072002D01*
X0030090Y0069700D02*
X0030090Y0074304D01*
X0072293Y0074304D02*
X0075362Y0074304D01*
X0075362Y0069700D01*
X0072293Y0069700D01*
X0073828Y0072002D02*
X0075362Y0072002D01*
X0076897Y0072002D02*
X0079966Y0072002D01*
X0079966Y0069700D02*
X0079966Y0074304D01*
X0081501Y0074304D02*
X0084570Y0074304D01*
X0083036Y0074304D02*
X0083036Y0069700D01*
X0076897Y0069700D02*
X0076897Y0074304D01*
D12*
X0073718Y0077000D03*
X0073718Y0087000D03*
X0073718Y0067000D03*
X0073718Y0057000D03*
X0073718Y0047000D03*
X0073718Y0037000D03*
X0073718Y0027000D03*
X0073718Y0017000D03*
X0053718Y0017000D03*
X0053718Y0027000D03*
X0053718Y0037000D03*
X0053718Y0047000D03*
X0053718Y0057000D03*
X0053718Y0067000D03*
X0053718Y0077000D03*
X0053718Y0087000D03*
X0033718Y0087000D03*
X0033718Y0077000D03*
X0033718Y0067000D03*
X0033718Y0057000D03*
X0033718Y0047000D03*
X0033718Y0037000D03*
X0033718Y0027000D03*
X0033718Y0017000D03*
X0013718Y0017000D03*
X0013718Y0027000D03*
X0013718Y0037000D03*
X0013718Y0047000D03*
X0013718Y0057000D03*
X0013718Y0067000D03*
X0013718Y0077000D03*
X0013718Y0087000D03*
D13*
X0008718Y0082000D03*
X0018718Y0082000D03*
X0028718Y0082000D03*
X0038718Y0082000D03*
X0048718Y0082000D03*
X0058718Y0082000D03*
X0068718Y0082000D03*
X0078718Y0082000D03*
X0078718Y0062000D03*
X0068718Y0062000D03*
X0058718Y0062000D03*
X0048718Y0062000D03*
X0038718Y0062000D03*
X0028718Y0062000D03*
X0018718Y0062000D03*
X0008718Y0062000D03*
X0008718Y0042000D03*
X0018718Y0042000D03*
X0028718Y0042000D03*
X0038718Y0042000D03*
X0048718Y0042000D03*
X0058718Y0042000D03*
X0068718Y0042000D03*
X0078718Y0042000D03*
X0078718Y0022000D03*
X0068718Y0022000D03*
X0058718Y0022000D03*
X0048718Y0022000D03*
X0038718Y0022000D03*
X0028718Y0022000D03*
X0018718Y0022000D03*
X0008718Y0022000D03*
D14*
X0016218Y0025000D03*
X0016218Y0045000D03*
X0016218Y0065000D03*
X0016218Y0085000D03*
X0036218Y0085000D03*
X0036218Y0065000D03*
X0036218Y0045000D03*
X0036218Y0025000D03*
X0056218Y0025000D03*
X0056218Y0045000D03*
X0056218Y0065000D03*
X0056218Y0085000D03*
X0076218Y0085000D03*
X0076218Y0065000D03*
X0076218Y0045000D03*
X0076218Y0025000D03*
D15*
X0071905Y0025251D02*
X0071905Y0023750D01*
X0071905Y0024250D02*
X0071154Y0024250D01*
X0070904Y0024501D01*
X0070904Y0025001D01*
X0071154Y0025251D01*
X0071905Y0025251D01*
X0071405Y0024250D02*
X0070904Y0023750D01*
X0071154Y0019751D02*
X0071655Y0019751D01*
X0071905Y0019501D01*
X0071905Y0018500D01*
X0071655Y0018250D01*
X0071154Y0018250D01*
X0070904Y0018500D01*
X0070904Y0019001D01*
X0071405Y0019001D01*
X0070904Y0019501D02*
X0071154Y0019751D01*
X0075904Y0019501D02*
X0075904Y0019251D01*
X0076154Y0019001D01*
X0076905Y0019001D01*
X0076905Y0019751D02*
X0076154Y0019751D01*
X0075904Y0019501D01*
X0076154Y0019001D02*
X0075904Y0018750D01*
X0075904Y0018500D01*
X0076154Y0018250D01*
X0076905Y0018250D01*
X0076905Y0019751D01*
X0076905Y0038250D02*
X0076154Y0038250D01*
X0075904Y0038500D01*
X0075904Y0038750D01*
X0076154Y0039001D01*
X0076905Y0039001D01*
X0076905Y0039751D02*
X0076154Y0039751D01*
X0075904Y0039501D01*
X0075904Y0039251D01*
X0076154Y0039001D01*
X0076905Y0039751D02*
X0076905Y0038250D01*
X0071905Y0038500D02*
X0071655Y0038250D01*
X0071154Y0038250D01*
X0070904Y0038500D01*
X0070904Y0039001D01*
X0071405Y0039001D01*
X0071905Y0039501D02*
X0071655Y0039751D01*
X0071154Y0039751D01*
X0070904Y0039501D01*
X0071905Y0039501D02*
X0071905Y0038500D01*
X0071905Y0043750D02*
X0071905Y0045251D01*
X0071154Y0045251D01*
X0070904Y0045001D01*
X0070904Y0044501D01*
X0071154Y0044250D01*
X0071905Y0044250D01*
X0071405Y0044250D02*
X0070904Y0043750D01*
X0071154Y0058250D02*
X0070904Y0058500D01*
X0070904Y0059001D01*
X0071405Y0059001D01*
X0071905Y0059501D02*
X0071905Y0058500D01*
X0071655Y0058250D01*
X0071154Y0058250D01*
X0070904Y0059501D02*
X0071154Y0059751D01*
X0071655Y0059751D01*
X0071905Y0059501D01*
X0075904Y0059501D02*
X0075904Y0059251D01*
X0076154Y0059001D01*
X0076905Y0059001D01*
X0076905Y0059751D02*
X0076905Y0058250D01*
X0076154Y0058250D01*
X0075904Y0058500D01*
X0075904Y0058750D01*
X0076154Y0059001D01*
X0075904Y0059501D02*
X0076154Y0059751D01*
X0076905Y0059751D01*
X0071905Y0063750D02*
X0071905Y0065251D01*
X0071154Y0065251D01*
X0070904Y0065001D01*
X0070904Y0064501D01*
X0071154Y0064250D01*
X0071905Y0064250D01*
X0071405Y0064250D02*
X0070904Y0063750D01*
X0071154Y0078250D02*
X0070904Y0078500D01*
X0070904Y0079001D01*
X0071405Y0079001D01*
X0071905Y0079501D02*
X0071905Y0078500D01*
X0071655Y0078250D01*
X0071154Y0078250D01*
X0070904Y0079501D02*
X0071154Y0079751D01*
X0071655Y0079751D01*
X0071905Y0079501D01*
X0075904Y0079501D02*
X0075904Y0079251D01*
X0076154Y0079001D01*
X0076905Y0079001D01*
X0076905Y0079751D02*
X0076905Y0078250D01*
X0076154Y0078250D01*
X0075904Y0078500D01*
X0075904Y0078750D01*
X0076154Y0079001D01*
X0075904Y0079501D02*
X0076154Y0079751D01*
X0076905Y0079751D01*
X0071905Y0083750D02*
X0071905Y0085251D01*
X0071154Y0085251D01*
X0070904Y0085001D01*
X0070904Y0084501D01*
X0071154Y0084250D01*
X0071905Y0084250D01*
X0071405Y0084250D02*
X0070904Y0083750D01*
X0056905Y0079751D02*
X0056905Y0078250D01*
X0056154Y0078250D01*
X0055904Y0078500D01*
X0055904Y0078750D01*
X0056154Y0079001D01*
X0056905Y0079001D01*
X0056905Y0079751D02*
X0056154Y0079751D01*
X0055904Y0079501D01*
X0055904Y0079251D01*
X0056154Y0079001D01*
X0051905Y0079501D02*
X0051905Y0078500D01*
X0051655Y0078250D01*
X0051154Y0078250D01*
X0050904Y0078500D01*
X0050904Y0079001D01*
X0051405Y0079001D01*
X0051905Y0079501D02*
X0051655Y0079751D01*
X0051154Y0079751D01*
X0050904Y0079501D01*
X0050904Y0083750D02*
X0051405Y0084250D01*
X0051154Y0084250D02*
X0051905Y0084250D01*
X0051905Y0083750D02*
X0051905Y0085251D01*
X0051154Y0085251D01*
X0050904Y0085001D01*
X0050904Y0084501D01*
X0051154Y0084250D01*
X0036905Y0079751D02*
X0036905Y0078250D01*
X0036154Y0078250D01*
X0035904Y0078500D01*
X0035904Y0078750D01*
X0036154Y0079001D01*
X0036905Y0079001D01*
X0036905Y0079751D02*
X0036154Y0079751D01*
X0035904Y0079501D01*
X0035904Y0079251D01*
X0036154Y0079001D01*
X0031905Y0079501D02*
X0031905Y0078500D01*
X0031655Y0078250D01*
X0031154Y0078250D01*
X0030904Y0078500D01*
X0030904Y0079001D01*
X0031405Y0079001D01*
X0031905Y0079501D02*
X0031655Y0079751D01*
X0031154Y0079751D01*
X0030904Y0079501D01*
X0030904Y0083750D02*
X0031405Y0084250D01*
X0031154Y0084250D02*
X0031905Y0084250D01*
X0031905Y0083750D02*
X0031905Y0085251D01*
X0031154Y0085251D01*
X0030904Y0085001D01*
X0030904Y0084501D01*
X0031154Y0084250D01*
X0016905Y0079751D02*
X0016905Y0078250D01*
X0016154Y0078250D01*
X0015904Y0078500D01*
X0015904Y0078750D01*
X0016154Y0079001D01*
X0016905Y0079001D01*
X0016905Y0079751D02*
X0016154Y0079751D01*
X0015904Y0079501D01*
X0015904Y0079251D01*
X0016154Y0079001D01*
X0011905Y0079501D02*
X0011905Y0078500D01*
X0011655Y0078250D01*
X0011154Y0078250D01*
X0010904Y0078500D01*
X0010904Y0079001D01*
X0011405Y0079001D01*
X0011905Y0079501D02*
X0011655Y0079751D01*
X0011154Y0079751D01*
X0010904Y0079501D01*
X0010904Y0083750D02*
X0011405Y0084250D01*
X0011154Y0084250D02*
X0011905Y0084250D01*
X0011905Y0083750D02*
X0011905Y0085251D01*
X0011154Y0085251D01*
X0010904Y0085001D01*
X0010904Y0084501D01*
X0011154Y0084250D01*
X0011154Y0065251D02*
X0010904Y0065001D01*
X0010904Y0064501D01*
X0011154Y0064250D01*
X0011905Y0064250D01*
X0011905Y0063750D02*
X0011905Y0065251D01*
X0011154Y0065251D01*
X0011405Y0064250D02*
X0010904Y0063750D01*
X0011154Y0059751D02*
X0011655Y0059751D01*
X0011905Y0059501D01*
X0011905Y0058500D01*
X0011655Y0058250D01*
X0011154Y0058250D01*
X0010904Y0058500D01*
X0010904Y0059001D01*
X0011405Y0059001D01*
X0010904Y0059501D02*
X0011154Y0059751D01*
X0015904Y0059501D02*
X0015904Y0059251D01*
X0016154Y0059001D01*
X0016905Y0059001D01*
X0016905Y0059751D02*
X0016905Y0058250D01*
X0016154Y0058250D01*
X0015904Y0058500D01*
X0015904Y0058750D01*
X0016154Y0059001D01*
X0015904Y0059501D02*
X0016154Y0059751D01*
X0016905Y0059751D01*
X0030904Y0059501D02*
X0031154Y0059751D01*
X0031655Y0059751D01*
X0031905Y0059501D01*
X0031905Y0058500D01*
X0031655Y0058250D01*
X0031154Y0058250D01*
X0030904Y0058500D01*
X0030904Y0059001D01*
X0031405Y0059001D01*
X0035904Y0059251D02*
X0036154Y0059001D01*
X0036905Y0059001D01*
X0036905Y0059751D02*
X0036905Y0058250D01*
X0036154Y0058250D01*
X0035904Y0058500D01*
X0035904Y0058750D01*
X0036154Y0059001D01*
X0035904Y0059251D02*
X0035904Y0059501D01*
X0036154Y0059751D01*
X0036905Y0059751D01*
X0031905Y0063750D02*
X0031905Y0065251D01*
X0031154Y0065251D01*
X0030904Y0065001D01*
X0030904Y0064501D01*
X0031154Y0064250D01*
X0031905Y0064250D01*
X0031405Y0064250D02*
X0030904Y0063750D01*
X0031154Y0045251D02*
X0030904Y0045001D01*
X0030904Y0044501D01*
X0031154Y0044250D01*
X0031905Y0044250D01*
X0031905Y0043750D02*
X0031905Y0045251D01*
X0031154Y0045251D01*
X0031405Y0044250D02*
X0030904Y0043750D01*
X0031154Y0039751D02*
X0031655Y0039751D01*
X0031905Y0039501D01*
X0031905Y0038500D01*
X0031655Y0038250D01*
X0031154Y0038250D01*
X0030904Y0038500D01*
X0030904Y0039001D01*
X0031405Y0039001D01*
X0030904Y0039501D02*
X0031154Y0039751D01*
X0035904Y0039501D02*
X0035904Y0039251D01*
X0036154Y0039001D01*
X0036905Y0039001D01*
X0036905Y0039751D02*
X0036154Y0039751D01*
X0035904Y0039501D01*
X0036154Y0039001D02*
X0035904Y0038750D01*
X0035904Y0038500D01*
X0036154Y0038250D01*
X0036905Y0038250D01*
X0036905Y0039751D01*
X0050904Y0039501D02*
X0051154Y0039751D01*
X0051655Y0039751D01*
X0051905Y0039501D01*
X0051905Y0038500D01*
X0051655Y0038250D01*
X0051154Y0038250D01*
X0050904Y0038500D01*
X0050904Y0039001D01*
X0051405Y0039001D01*
X0055904Y0039251D02*
X0056154Y0039001D01*
X0056905Y0039001D01*
X0056905Y0039751D02*
X0056905Y0038250D01*
X0056154Y0038250D01*
X0055904Y0038500D01*
X0055904Y0038750D01*
X0056154Y0039001D01*
X0055904Y0039251D02*
X0055904Y0039501D01*
X0056154Y0039751D01*
X0056905Y0039751D01*
X0051905Y0043750D02*
X0051905Y0045251D01*
X0051154Y0045251D01*
X0050904Y0045001D01*
X0050904Y0044501D01*
X0051154Y0044250D01*
X0051905Y0044250D01*
X0051405Y0044250D02*
X0050904Y0043750D01*
X0051154Y0058250D02*
X0050904Y0058500D01*
X0050904Y0059001D01*
X0051405Y0059001D01*
X0051905Y0059501D02*
X0051655Y0059751D01*
X0051154Y0059751D01*
X0050904Y0059501D01*
X0051905Y0059501D02*
X0051905Y0058500D01*
X0051655Y0058250D01*
X0051154Y0058250D01*
X0055904Y0058500D02*
X0056154Y0058250D01*
X0056905Y0058250D01*
X0056905Y0059751D01*
X0056154Y0059751D01*
X0055904Y0059501D01*
X0055904Y0059251D01*
X0056154Y0059001D01*
X0056905Y0059001D01*
X0056154Y0059001D02*
X0055904Y0058750D01*
X0055904Y0058500D01*
X0051905Y0063750D02*
X0051905Y0065251D01*
X0051154Y0065251D01*
X0050904Y0065001D01*
X0050904Y0064501D01*
X0051154Y0064250D01*
X0051905Y0064250D01*
X0051405Y0064250D02*
X0050904Y0063750D01*
X0016905Y0039751D02*
X0016905Y0038250D01*
X0016154Y0038250D01*
X0015904Y0038500D01*
X0015904Y0038750D01*
X0016154Y0039001D01*
X0016905Y0039001D01*
X0016905Y0039751D02*
X0016154Y0039751D01*
X0015904Y0039501D01*
X0015904Y0039251D01*
X0016154Y0039001D01*
X0011905Y0039501D02*
X0011905Y0038500D01*
X0011655Y0038250D01*
X0011154Y0038250D01*
X0010904Y0038500D01*
X0010904Y0039001D01*
X0011405Y0039001D01*
X0011905Y0039501D02*
X0011655Y0039751D01*
X0011154Y0039751D01*
X0010904Y0039501D01*
X0010904Y0043750D02*
X0011405Y0044250D01*
X0011154Y0044250D02*
X0011905Y0044250D01*
X0011905Y0043750D02*
X0011905Y0045251D01*
X0011154Y0045251D01*
X0010904Y0045001D01*
X0010904Y0044501D01*
X0011154Y0044250D01*
X0011154Y0025251D02*
X0010904Y0025001D01*
X0010904Y0024501D01*
X0011154Y0024250D01*
X0011905Y0024250D01*
X0011905Y0023750D02*
X0011905Y0025251D01*
X0011154Y0025251D01*
X0011405Y0024250D02*
X0010904Y0023750D01*
X0011154Y0019751D02*
X0011655Y0019751D01*
X0011905Y0019501D01*
X0011905Y0018500D01*
X0011655Y0018250D01*
X0011154Y0018250D01*
X0010904Y0018500D01*
X0010904Y0019001D01*
X0011405Y0019001D01*
X0010904Y0019501D02*
X0011154Y0019751D01*
X0015904Y0019501D02*
X0015904Y0019251D01*
X0016154Y0019001D01*
X0016905Y0019001D01*
X0016905Y0019751D02*
X0016154Y0019751D01*
X0015904Y0019501D01*
X0016154Y0019001D02*
X0015904Y0018750D01*
X0015904Y0018500D01*
X0016154Y0018250D01*
X0016905Y0018250D01*
X0016905Y0019751D01*
X0030904Y0019501D02*
X0031154Y0019751D01*
X0031655Y0019751D01*
X0031905Y0019501D01*
X0031905Y0018500D01*
X0031655Y0018250D01*
X0031154Y0018250D01*
X0030904Y0018500D01*
X0030904Y0019001D01*
X0031405Y0019001D01*
X0035904Y0019251D02*
X0036154Y0019001D01*
X0036905Y0019001D01*
X0036905Y0019751D02*
X0036154Y0019751D01*
X0035904Y0019501D01*
X0035904Y0019251D01*
X0036154Y0019001D02*
X0035904Y0018750D01*
X0035904Y0018500D01*
X0036154Y0018250D01*
X0036905Y0018250D01*
X0036905Y0019751D01*
X0031905Y0023750D02*
X0031905Y0025251D01*
X0031154Y0025251D01*
X0030904Y0025001D01*
X0030904Y0024501D01*
X0031154Y0024250D01*
X0031905Y0024250D01*
X0031405Y0024250D02*
X0030904Y0023750D01*
X0050904Y0023750D02*
X0051405Y0024250D01*
X0051154Y0024250D02*
X0051905Y0024250D01*
X0051905Y0023750D02*
X0051905Y0025251D01*
X0051154Y0025251D01*
X0050904Y0025001D01*
X0050904Y0024501D01*
X0051154Y0024250D01*
X0051154Y0019751D02*
X0051655Y0019751D01*
X0051905Y0019501D01*
X0051905Y0018500D01*
X0051655Y0018250D01*
X0051154Y0018250D01*
X0050904Y0018500D01*
X0050904Y0019001D01*
X0051405Y0019001D01*
X0050904Y0019501D02*
X0051154Y0019751D01*
X0055904Y0019501D02*
X0055904Y0019251D01*
X0056154Y0019001D01*
X0056905Y0019001D01*
X0056905Y0019751D02*
X0056154Y0019751D01*
X0055904Y0019501D01*
X0056154Y0019001D02*
X0055904Y0018750D01*
X0055904Y0018500D01*
X0056154Y0018250D01*
X0056905Y0018250D01*
X0056905Y0019751D01*
D16*
X0057718Y0022000D02*
X0053718Y0026000D01*
X0057718Y0026000D01*
X0057718Y0022000D01*
X0057718Y0022439D02*
X0057279Y0022439D01*
X0057718Y0022937D02*
X0056781Y0022937D01*
X0056282Y0023436D02*
X0057718Y0023436D01*
X0057718Y0023934D02*
X0055784Y0023934D01*
X0055285Y0024433D02*
X0057718Y0024433D01*
X0057718Y0024932D02*
X0054787Y0024932D01*
X0054288Y0025430D02*
X0057718Y0025430D01*
X0057718Y0025929D02*
X0053790Y0025929D01*
X0037718Y0025929D02*
X0033790Y0025929D01*
X0033718Y0026000D02*
X0037718Y0022000D01*
X0037718Y0026000D01*
X0033718Y0026000D01*
X0034288Y0025430D02*
X0037718Y0025430D01*
X0037718Y0024932D02*
X0034787Y0024932D01*
X0035285Y0024433D02*
X0037718Y0024433D01*
X0037718Y0023934D02*
X0035784Y0023934D01*
X0036282Y0023436D02*
X0037718Y0023436D01*
X0037718Y0022937D02*
X0036781Y0022937D01*
X0037279Y0022439D02*
X0037718Y0022439D01*
X0037718Y0042000D02*
X0033718Y0046000D01*
X0037718Y0046000D01*
X0037718Y0042000D01*
X0037718Y0042379D02*
X0037339Y0042379D01*
X0037718Y0042878D02*
X0036840Y0042878D01*
X0036342Y0043376D02*
X0037718Y0043376D01*
X0037718Y0043875D02*
X0035843Y0043875D01*
X0035345Y0044373D02*
X0037718Y0044373D01*
X0037718Y0044872D02*
X0034846Y0044872D01*
X0034348Y0045370D02*
X0037718Y0045370D01*
X0037718Y0045869D02*
X0033849Y0045869D01*
X0017718Y0045869D02*
X0013849Y0045869D01*
X0013718Y0046000D02*
X0017718Y0042000D01*
X0017718Y0046000D01*
X0013718Y0046000D01*
X0014348Y0045370D02*
X0017718Y0045370D01*
X0017718Y0044872D02*
X0014846Y0044872D01*
X0015345Y0044373D02*
X0017718Y0044373D01*
X0017718Y0043875D02*
X0015843Y0043875D01*
X0016342Y0043376D02*
X0017718Y0043376D01*
X0017718Y0042878D02*
X0016840Y0042878D01*
X0017339Y0042379D02*
X0017718Y0042379D01*
X0017718Y0026000D02*
X0013718Y0026000D01*
X0017718Y0022000D01*
X0017718Y0026000D01*
X0017718Y0025929D02*
X0013790Y0025929D01*
X0014288Y0025430D02*
X0017718Y0025430D01*
X0017718Y0024932D02*
X0014787Y0024932D01*
X0015285Y0024433D02*
X0017718Y0024433D01*
X0017718Y0023934D02*
X0015784Y0023934D01*
X0016282Y0023436D02*
X0017718Y0023436D01*
X0017718Y0022937D02*
X0016781Y0022937D01*
X0017279Y0022439D02*
X0017718Y0022439D01*
X0053718Y0046000D02*
X0057718Y0042000D01*
X0057718Y0046000D01*
X0053718Y0046000D01*
X0053849Y0045869D02*
X0057718Y0045869D01*
X0057718Y0045370D02*
X0054348Y0045370D01*
X0054846Y0044872D02*
X0057718Y0044872D01*
X0057718Y0044373D02*
X0055345Y0044373D01*
X0055843Y0043875D02*
X0057718Y0043875D01*
X0057718Y0043376D02*
X0056342Y0043376D01*
X0056840Y0042878D02*
X0057718Y0042878D01*
X0057718Y0042379D02*
X0057339Y0042379D01*
X0073718Y0046000D02*
X0077718Y0042000D01*
X0077718Y0046000D01*
X0073718Y0046000D01*
X0073849Y0045869D02*
X0077718Y0045869D01*
X0077718Y0045370D02*
X0074348Y0045370D01*
X0074846Y0044872D02*
X0077718Y0044872D01*
X0077718Y0044373D02*
X0075345Y0044373D01*
X0075843Y0043875D02*
X0077718Y0043875D01*
X0077718Y0043376D02*
X0076342Y0043376D01*
X0076840Y0042878D02*
X0077718Y0042878D01*
X0077718Y0042379D02*
X0077339Y0042379D01*
X0077718Y0026000D02*
X0073718Y0026000D01*
X0077718Y0022000D01*
X0077718Y0026000D01*
X0077718Y0025929D02*
X0073790Y0025929D01*
X0074288Y0025430D02*
X0077718Y0025430D01*
X0077718Y0024932D02*
X0074787Y0024932D01*
X0075285Y0024433D02*
X0077718Y0024433D01*
X0077718Y0023934D02*
X0075784Y0023934D01*
X0076282Y0023436D02*
X0077718Y0023436D01*
X0077718Y0022937D02*
X0076781Y0022937D01*
X0077279Y0022439D02*
X0077718Y0022439D01*
X0077718Y0062000D02*
X0073718Y0066000D01*
X0077718Y0066000D01*
X0077718Y0062000D01*
X0077718Y0062320D02*
X0077399Y0062320D01*
X0077718Y0062818D02*
X0076900Y0062818D01*
X0076402Y0063317D02*
X0077718Y0063317D01*
X0077718Y0063815D02*
X0075903Y0063815D01*
X0075405Y0064314D02*
X0077718Y0064314D01*
X0077718Y0064812D02*
X0074906Y0064812D01*
X0074407Y0065311D02*
X0077718Y0065311D01*
X0077718Y0065809D02*
X0073909Y0065809D01*
X0077718Y0082000D02*
X0073718Y0086000D01*
X0077718Y0086000D01*
X0077718Y0082000D01*
X0077718Y0082260D02*
X0077458Y0082260D01*
X0077718Y0082759D02*
X0076960Y0082759D01*
X0076461Y0083257D02*
X0077718Y0083257D01*
X0077718Y0083756D02*
X0075963Y0083756D01*
X0075464Y0084254D02*
X0077718Y0084254D01*
X0077718Y0084753D02*
X0074966Y0084753D01*
X0074467Y0085251D02*
X0077718Y0085251D01*
X0077718Y0085750D02*
X0073969Y0085750D01*
X0057718Y0085750D02*
X0053969Y0085750D01*
X0053718Y0086000D02*
X0057718Y0082000D01*
X0057718Y0086000D01*
X0053718Y0086000D01*
X0054467Y0085251D02*
X0057718Y0085251D01*
X0057718Y0084753D02*
X0054966Y0084753D01*
X0055464Y0084254D02*
X0057718Y0084254D01*
X0057718Y0083756D02*
X0055963Y0083756D01*
X0056461Y0083257D02*
X0057718Y0083257D01*
X0057718Y0082759D02*
X0056960Y0082759D01*
X0057458Y0082260D02*
X0057718Y0082260D01*
X0057718Y0066000D02*
X0053718Y0066000D01*
X0057718Y0062000D01*
X0057718Y0066000D01*
X0057718Y0065809D02*
X0053909Y0065809D01*
X0054407Y0065311D02*
X0057718Y0065311D01*
X0057718Y0064812D02*
X0054906Y0064812D01*
X0055405Y0064314D02*
X0057718Y0064314D01*
X0057718Y0063815D02*
X0055903Y0063815D01*
X0056402Y0063317D02*
X0057718Y0063317D01*
X0057718Y0062818D02*
X0056900Y0062818D01*
X0057399Y0062320D02*
X0057718Y0062320D01*
X0037718Y0062320D02*
X0037399Y0062320D01*
X0037718Y0062000D02*
X0033718Y0066000D01*
X0037718Y0066000D01*
X0037718Y0062000D01*
X0037718Y0062818D02*
X0036900Y0062818D01*
X0036402Y0063317D02*
X0037718Y0063317D01*
X0037718Y0063815D02*
X0035903Y0063815D01*
X0035405Y0064314D02*
X0037718Y0064314D01*
X0037718Y0064812D02*
X0034906Y0064812D01*
X0034407Y0065311D02*
X0037718Y0065311D01*
X0037718Y0065809D02*
X0033909Y0065809D01*
X0017718Y0065809D02*
X0013909Y0065809D01*
X0013718Y0066000D02*
X0017718Y0062000D01*
X0017718Y0066000D01*
X0013718Y0066000D01*
X0014407Y0065311D02*
X0017718Y0065311D01*
X0017718Y0064812D02*
X0014906Y0064812D01*
X0015405Y0064314D02*
X0017718Y0064314D01*
X0017718Y0063815D02*
X0015903Y0063815D01*
X0016402Y0063317D02*
X0017718Y0063317D01*
X0017718Y0062818D02*
X0016900Y0062818D01*
X0017399Y0062320D02*
X0017718Y0062320D01*
X0017718Y0082000D02*
X0013718Y0086000D01*
X0017718Y0086000D01*
X0017718Y0082000D01*
X0017718Y0082260D02*
X0017458Y0082260D01*
X0017718Y0082759D02*
X0016960Y0082759D01*
X0016461Y0083257D02*
X0017718Y0083257D01*
X0017718Y0083756D02*
X0015963Y0083756D01*
X0015464Y0084254D02*
X0017718Y0084254D01*
X0017718Y0084753D02*
X0014966Y0084753D01*
X0014467Y0085251D02*
X0017718Y0085251D01*
X0017718Y0085750D02*
X0013969Y0085750D01*
X0033718Y0086000D02*
X0037718Y0082000D01*
X0037718Y0086000D01*
X0033718Y0086000D01*
X0033969Y0085750D02*
X0037718Y0085750D01*
X0037718Y0085251D02*
X0034467Y0085251D01*
X0034966Y0084753D02*
X0037718Y0084753D01*
X0037718Y0084254D02*
X0035464Y0084254D01*
X0035963Y0083756D02*
X0037718Y0083756D01*
X0037718Y0083257D02*
X0036461Y0083257D01*
X0036960Y0082759D02*
X0037718Y0082759D01*
X0037718Y0082260D02*
X0037458Y0082260D01*
M02*
