G75*
%MOIN*%
%OFA0B0*%
%FSLAX25Y25*%
%IPPOS*%
%LPD*%
%AMOC8*
5,1,8,0,0,1.08239X$1,22.5*
%
%ADD10C,0.04500*%
%ADD11C,0.05600*%
%ADD12C,0.00600*%
%ADD13C,0.02700*%
D10*
X0008718Y0017000D03*
X0008718Y0027000D03*
X0008718Y0037000D03*
X0008718Y0047000D03*
X0008718Y0057000D03*
X0008718Y0067000D03*
X0008718Y0077000D03*
X0008718Y0087000D03*
X0018718Y0087000D03*
X0018718Y0077000D03*
X0028718Y0077000D03*
X0028718Y0087000D03*
X0038718Y0087000D03*
X0038718Y0077000D03*
X0048718Y0077000D03*
X0048718Y0087000D03*
X0058718Y0087000D03*
X0058718Y0077000D03*
X0058718Y0067000D03*
X0048718Y0067000D03*
X0038718Y0067000D03*
X0028718Y0067000D03*
X0018718Y0067000D03*
X0018718Y0057000D03*
X0018718Y0047000D03*
X0028718Y0047000D03*
X0028718Y0057000D03*
X0038718Y0057000D03*
X0038718Y0047000D03*
X0048718Y0047000D03*
X0048718Y0057000D03*
X0058718Y0057000D03*
X0058718Y0047000D03*
X0058718Y0037000D03*
X0048718Y0037000D03*
X0038718Y0037000D03*
X0028718Y0037000D03*
X0018718Y0037000D03*
X0018718Y0027000D03*
X0018718Y0017000D03*
X0028718Y0017000D03*
X0028718Y0027000D03*
X0038718Y0027000D03*
X0038718Y0017000D03*
X0048718Y0017000D03*
X0048718Y0027000D03*
X0058718Y0027000D03*
X0058718Y0017000D03*
X0068718Y0017000D03*
X0068718Y0027000D03*
X0078718Y0027000D03*
X0078718Y0017000D03*
X0078718Y0037000D03*
X0068718Y0037000D03*
X0068718Y0047000D03*
X0068718Y0057000D03*
X0078718Y0057000D03*
X0078718Y0047000D03*
X0078718Y0067000D03*
X0068718Y0067000D03*
X0068718Y0077000D03*
X0068718Y0087000D03*
X0078718Y0087000D03*
X0078718Y0077000D03*
D11*
X0008718Y0007000D03*
X0018718Y0007000D03*
X0028718Y0007000D03*
X0038718Y0007000D03*
X0048718Y0007000D03*
X0058718Y0007000D03*
X0068718Y0007000D03*
X0078718Y0007000D03*
X0078718Y0097000D03*
X0068718Y0097000D03*
X0058718Y0097000D03*
X0048718Y0097000D03*
X0038718Y0097000D03*
X0028718Y0097000D03*
X0018718Y0097000D03*
X0008718Y0097000D03*
D12*
X0014318Y0092600D02*
X0018718Y0097000D01*
X0014918Y0097400D02*
X0014918Y0098600D01*
X0017318Y0101000D01*
X0034718Y0101000D01*
X0038718Y0097000D01*
X0038318Y0096800D01*
X0038318Y0091400D01*
X0035318Y0088400D01*
X0035318Y0085400D01*
X0038918Y0081800D01*
X0040718Y0081800D01*
X0043118Y0079400D01*
X0043118Y0072800D01*
X0048518Y0067400D01*
X0048718Y0067000D01*
X0052118Y0068600D02*
X0045518Y0075200D01*
X0045518Y0074000D01*
X0045518Y0075200D02*
X0045518Y0080000D01*
X0041318Y0084200D01*
X0049718Y0092600D01*
X0059918Y0092600D01*
X0064118Y0096800D01*
X0068318Y0096800D01*
X0068718Y0097000D01*
X0072518Y0093200D01*
X0077318Y0093200D01*
X0082118Y0088400D01*
X0082118Y0055400D01*
X0079118Y0052400D01*
X0079118Y0047000D01*
X0078718Y0047000D01*
X0073718Y0042000D02*
X0078718Y0037000D01*
X0073718Y0032000D01*
X0073718Y0022000D01*
X0078718Y0017000D01*
X0082118Y0015800D02*
X0079718Y0013400D01*
X0077318Y0013400D01*
X0063518Y0027200D01*
X0063518Y0036800D01*
X0058718Y0041600D01*
X0058718Y0047000D01*
X0053718Y0042000D02*
X0058718Y0037000D01*
X0053718Y0032000D01*
X0053718Y0022000D01*
X0058718Y0017000D01*
X0057518Y0013400D02*
X0052118Y0018800D01*
X0052118Y0068600D01*
X0055118Y0068600D02*
X0055118Y0065600D01*
X0064718Y0056000D01*
X0064718Y0033800D01*
X0068318Y0030200D01*
X0068318Y0027200D01*
X0068718Y0027000D01*
X0069518Y0032600D02*
X0071918Y0035000D01*
X0071918Y0063800D01*
X0068718Y0067000D01*
X0064118Y0067400D02*
X0078518Y0081800D01*
X0078518Y0086600D01*
X0078718Y0087000D01*
X0075518Y0090200D01*
X0055718Y0090200D01*
X0053918Y0086600D02*
X0049118Y0086600D01*
X0048718Y0087000D01*
X0053918Y0086600D02*
X0062318Y0078200D01*
X0062318Y0075800D01*
X0055118Y0068600D01*
X0058718Y0067400D02*
X0058718Y0067000D01*
X0058718Y0067400D02*
X0064118Y0067400D01*
X0073718Y0072000D02*
X0073718Y0062000D01*
X0078718Y0057000D01*
X0073718Y0052000D01*
X0073718Y0042000D01*
X0078718Y0027000D02*
X0082118Y0023600D01*
X0082118Y0015800D01*
X0078718Y0007000D02*
X0078518Y0006800D01*
X0074318Y0006800D01*
X0070718Y0003200D01*
X0016718Y0003200D01*
X0012518Y0007400D01*
X0012518Y0008600D01*
X0005318Y0015800D01*
X0005318Y0028400D01*
X0007118Y0030200D01*
X0013718Y0030200D01*
X0013718Y0022000D01*
X0018718Y0017000D01*
X0022118Y0015800D02*
X0019718Y0013400D01*
X0017318Y0013400D01*
X0011318Y0019400D01*
X0011318Y0023000D01*
X0013718Y0030200D02*
X0013718Y0032000D01*
X0018718Y0037000D01*
X0013718Y0042000D01*
X0013718Y0052000D01*
X0018718Y0057000D01*
X0013718Y0062000D01*
X0013718Y0072000D01*
X0018718Y0077000D01*
X0019718Y0080600D02*
X0017318Y0080600D01*
X0014318Y0077600D01*
X0014318Y0074600D01*
X0011918Y0072200D01*
X0011918Y0065600D01*
X0010118Y0063800D01*
X0005318Y0063800D01*
X0005318Y0055400D01*
X0008318Y0052400D01*
X0008318Y0047000D01*
X0008718Y0047000D01*
X0018718Y0047000D02*
X0019118Y0047000D01*
X0019118Y0041600D01*
X0022118Y0038600D01*
X0022118Y0015800D01*
X0023918Y0015800D02*
X0023918Y0051800D01*
X0028718Y0056600D01*
X0028718Y0057000D01*
X0032318Y0061400D02*
X0031118Y0062600D01*
X0032318Y0061400D02*
X0032318Y0035600D01*
X0028718Y0032000D01*
X0028718Y0027000D01*
X0033718Y0032000D02*
X0033718Y0022000D01*
X0038718Y0017000D01*
X0038918Y0017000D01*
X0043718Y0012200D01*
X0059318Y0012200D01*
X0064118Y0007400D01*
X0068318Y0007400D01*
X0068718Y0007000D01*
X0059918Y0013400D02*
X0062318Y0015800D01*
X0062318Y0018200D01*
X0058718Y0021800D01*
X0058718Y0027000D01*
X0048718Y0027000D02*
X0048518Y0027200D01*
X0048518Y0029000D01*
X0044318Y0033200D01*
X0044318Y0066200D01*
X0041918Y0070400D02*
X0038918Y0067400D01*
X0038718Y0067000D01*
X0038918Y0066800D01*
X0038918Y0061400D01*
X0041918Y0058400D01*
X0041918Y0054200D01*
X0038718Y0057000D02*
X0033718Y0052000D01*
X0033718Y0042000D01*
X0038718Y0037000D01*
X0033718Y0032000D01*
X0028718Y0036800D02*
X0028718Y0037000D01*
X0028718Y0036800D02*
X0025118Y0033200D01*
X0025118Y0015800D01*
X0028718Y0012200D01*
X0028718Y0007000D01*
X0019118Y0007400D02*
X0018718Y0007000D01*
X0019118Y0007400D02*
X0019118Y0011000D01*
X0023918Y0015800D01*
X0041918Y0030200D02*
X0041918Y0044000D01*
X0038918Y0047000D01*
X0038718Y0047000D01*
X0045518Y0044000D02*
X0048518Y0047000D01*
X0048718Y0047000D01*
X0045518Y0044000D02*
X0045518Y0035600D01*
X0048518Y0032600D01*
X0053718Y0042000D02*
X0053718Y0052000D01*
X0058718Y0057000D01*
X0053718Y0062000D01*
X0053718Y0072000D01*
X0058718Y0077000D01*
X0073718Y0072000D02*
X0078718Y0077000D01*
X0041918Y0078800D02*
X0041918Y0070400D01*
X0038718Y0077000D02*
X0033718Y0072000D01*
X0033718Y0062000D01*
X0038718Y0057000D01*
X0028718Y0067000D02*
X0028718Y0071600D01*
X0019718Y0080600D01*
X0019118Y0086600D02*
X0018718Y0087000D01*
X0019118Y0086600D02*
X0024518Y0086600D01*
X0030518Y0080600D01*
X0040118Y0080600D01*
X0041918Y0078800D01*
X0041318Y0084200D02*
X0038918Y0086600D01*
X0038718Y0087000D01*
X0028718Y0096800D02*
X0028718Y0097000D01*
X0028718Y0096800D02*
X0023918Y0096800D01*
X0015518Y0088400D01*
X0015518Y0087200D01*
X0013118Y0084800D01*
X0013118Y0076400D01*
X0008918Y0072200D01*
X0008918Y0067400D01*
X0008718Y0067000D01*
X0005318Y0063800D02*
X0005318Y0078800D01*
X0014318Y0087800D01*
X0014318Y0092600D01*
X0014918Y0097400D02*
X0008918Y0091400D01*
X0008918Y0087200D01*
X0008718Y0087000D01*
X0057518Y0013400D02*
X0059918Y0013400D01*
D13*
X0041918Y0030200D03*
X0048518Y0032600D03*
X0069518Y0032600D03*
X0041918Y0054200D03*
X0031118Y0062600D03*
X0044318Y0066200D03*
X0045518Y0074000D03*
X0055718Y0090200D03*
X0011318Y0023000D03*
M02*
