G75*
%MOIN*%
%OFA0B0*%
%FSLAX25Y25*%
%IPPOS*%
%LPD*%
%AMOC8*
5,1,8,0,0,1.08239X$1,22.5*
%
%ADD10C,0.04500*%
%ADD11C,0.05600*%
%ADD12C,0.00600*%
%ADD13C,0.02700*%
D10*
X0007000Y0017000D03*
X0007000Y0027000D03*
X0007000Y0037000D03*
X0007000Y0047000D03*
X0007000Y0057000D03*
X0007000Y0067000D03*
X0007000Y0077000D03*
X0007000Y0087000D03*
X0017000Y0087000D03*
X0017000Y0077000D03*
X0017000Y0067000D03*
X0017000Y0057000D03*
X0017000Y0047000D03*
X0017000Y0037000D03*
X0017000Y0027000D03*
X0017000Y0017000D03*
X0027000Y0017000D03*
X0027000Y0027000D03*
X0027000Y0037000D03*
X0027000Y0047000D03*
X0027000Y0057000D03*
X0027000Y0067000D03*
X0027000Y0077000D03*
X0027000Y0087000D03*
X0037000Y0087000D03*
X0037000Y0077000D03*
X0037000Y0067000D03*
X0037000Y0057000D03*
X0037000Y0047000D03*
X0037000Y0037000D03*
X0037000Y0027000D03*
X0037000Y0017000D03*
X0047000Y0017000D03*
X0047000Y0027000D03*
X0057000Y0027000D03*
X0057000Y0017000D03*
X0067000Y0017000D03*
X0067000Y0027000D03*
X0067000Y0037000D03*
X0067000Y0047000D03*
X0067000Y0057000D03*
X0067000Y0067000D03*
X0067000Y0077000D03*
X0067000Y0087000D03*
X0057000Y0087000D03*
X0057000Y0077000D03*
X0047000Y0077000D03*
X0047000Y0087000D03*
X0047000Y0067000D03*
X0057000Y0067000D03*
X0057000Y0057000D03*
X0057000Y0047000D03*
X0047000Y0047000D03*
X0047000Y0057000D03*
X0047000Y0037000D03*
X0057000Y0037000D03*
X0077000Y0037000D03*
X0077000Y0027000D03*
X0077000Y0017000D03*
X0077000Y0047000D03*
X0077000Y0057000D03*
X0077000Y0067000D03*
X0077000Y0077000D03*
X0077000Y0087000D03*
D11*
X0007000Y0007000D03*
X0017000Y0007000D03*
X0027000Y0007000D03*
X0037000Y0007000D03*
X0047000Y0007000D03*
X0057000Y0007000D03*
X0067000Y0007000D03*
X0077000Y0007000D03*
X0077000Y0097000D03*
X0067000Y0097000D03*
X0057000Y0097000D03*
X0047000Y0097000D03*
X0037000Y0097000D03*
X0027000Y0097000D03*
X0017000Y0097000D03*
X0007000Y0097000D03*
D12*
X0007200Y0097400D01*
X0012000Y0097400D01*
X0015600Y0101000D01*
X0068400Y0101000D01*
X0073200Y0096200D01*
X0073200Y0095000D01*
X0075000Y0093200D01*
X0079200Y0093200D01*
X0079800Y0092600D01*
X0076800Y0092000D02*
X0072000Y0092000D01*
X0067000Y0097000D01*
X0065400Y0093200D02*
X0051000Y0093200D01*
X0047400Y0096800D01*
X0047000Y0097000D01*
X0045600Y0093200D02*
X0040800Y0093200D01*
X0037000Y0097000D01*
X0031800Y0096800D02*
X0027000Y0096800D01*
X0027000Y0097000D01*
X0027000Y0096800D02*
X0023400Y0093200D01*
X0023400Y0078200D01*
X0022200Y0077000D01*
X0036600Y0062600D01*
X0046200Y0062600D01*
X0050400Y0058400D01*
X0050400Y0055400D01*
X0048600Y0053600D01*
X0039000Y0053600D01*
X0032400Y0047000D01*
X0036000Y0043400D01*
X0045600Y0043400D01*
X0050400Y0038600D01*
X0050400Y0018800D01*
X0055800Y0013400D01*
X0058200Y0013400D01*
X0066600Y0021800D01*
X0066600Y0026600D01*
X0067000Y0027000D01*
X0060600Y0026000D02*
X0060600Y0033200D01*
X0057000Y0036800D01*
X0057000Y0037000D01*
X0057000Y0042200D01*
X0060600Y0045800D01*
X0060600Y0053000D01*
X0057000Y0056600D01*
X0057000Y0057000D01*
X0057000Y0057200D01*
X0061800Y0062000D01*
X0061800Y0068600D01*
X0057000Y0073400D01*
X0057000Y0077000D01*
X0055800Y0080600D02*
X0069600Y0080600D01*
X0072600Y0077600D01*
X0080400Y0085400D01*
X0080400Y0088400D01*
X0076800Y0092000D01*
X0076800Y0087200D02*
X0077000Y0087000D01*
X0076800Y0087200D02*
X0071400Y0087200D01*
X0065400Y0093200D01*
X0067000Y0087000D02*
X0066600Y0086600D01*
X0061200Y0086600D01*
X0056400Y0081800D01*
X0055200Y0081800D01*
X0050400Y0077000D01*
X0050400Y0065600D01*
X0048600Y0063800D01*
X0042600Y0063800D01*
X0041400Y0065000D01*
X0037000Y0067000D02*
X0036600Y0067400D01*
X0036600Y0072200D01*
X0027600Y0081200D01*
X0025800Y0081200D01*
X0022200Y0077000D02*
X0012600Y0067400D01*
X0007200Y0067400D01*
X0007000Y0067000D01*
X0005400Y0063800D02*
X0003600Y0065600D01*
X0003600Y0078800D01*
X0016800Y0092000D01*
X0016800Y0096800D01*
X0017000Y0097000D01*
X0022200Y0098000D02*
X0022200Y0087200D01*
X0012600Y0077600D01*
X0012600Y0071000D01*
X0010200Y0063800D02*
X0005400Y0063800D01*
X0010200Y0063800D02*
X0010200Y0060200D01*
X0012600Y0057200D02*
X0007200Y0057200D01*
X0007000Y0057000D01*
X0003600Y0053600D01*
X0003600Y0035600D01*
X0013200Y0026000D01*
X0013200Y0015800D01*
X0016800Y0012200D01*
X0016800Y0007400D01*
X0017000Y0007000D01*
X0015000Y0003200D02*
X0069000Y0003200D01*
X0070800Y0005000D01*
X0070800Y0043400D01*
X0078000Y0043400D01*
X0080400Y0045800D01*
X0080400Y0068600D01*
X0079800Y0069200D01*
X0079800Y0072800D01*
X0076800Y0071600D02*
X0073800Y0068600D01*
X0073800Y0060200D01*
X0077000Y0057000D01*
X0072600Y0056600D02*
X0076800Y0052400D01*
X0076800Y0047000D01*
X0077000Y0047000D01*
X0070800Y0043400D02*
X0070800Y0063200D01*
X0067000Y0067000D01*
X0060600Y0068000D02*
X0060600Y0065600D01*
X0053400Y0058400D01*
X0053400Y0035600D01*
X0057000Y0032000D01*
X0057000Y0027000D01*
X0060600Y0026000D02*
X0057000Y0022400D01*
X0057000Y0017000D01*
X0057600Y0012200D02*
X0042000Y0012200D01*
X0037200Y0017000D01*
X0037000Y0017000D01*
X0037000Y0027000D02*
X0036600Y0027200D01*
X0031800Y0027200D01*
X0017400Y0041600D01*
X0017400Y0047000D01*
X0017000Y0047000D01*
X0018000Y0050600D02*
X0015600Y0050600D01*
X0007200Y0042200D01*
X0007200Y0037400D01*
X0007000Y0037000D01*
X0012600Y0031400D02*
X0017000Y0027000D01*
X0020400Y0025400D02*
X0020400Y0033800D01*
X0017400Y0036800D01*
X0017000Y0037000D01*
X0021600Y0042800D02*
X0027000Y0037400D01*
X0027000Y0037000D01*
X0027000Y0036800D01*
X0032400Y0036800D01*
X0042000Y0027200D01*
X0027000Y0012200D01*
X0027000Y0007000D01*
X0017400Y0017000D02*
X0017000Y0017000D01*
X0017400Y0017000D02*
X0017400Y0022400D01*
X0020400Y0025400D01*
X0012000Y0017000D02*
X0012000Y0006200D01*
X0015000Y0003200D01*
X0012000Y0017000D02*
X0007200Y0021800D01*
X0007200Y0026600D01*
X0007000Y0027000D01*
X0021600Y0042800D02*
X0021600Y0047000D01*
X0018000Y0050600D01*
X0018600Y0051800D02*
X0012000Y0051800D01*
X0007200Y0047000D01*
X0007000Y0047000D01*
X0012600Y0057200D02*
X0015600Y0060200D01*
X0024000Y0060200D01*
X0027000Y0057200D01*
X0027000Y0057000D01*
X0027000Y0057200D02*
X0030000Y0060200D01*
X0038400Y0060200D01*
X0041400Y0057200D01*
X0046800Y0057200D01*
X0047000Y0057000D01*
X0051600Y0058400D02*
X0051600Y0054800D01*
X0047400Y0050600D01*
X0040800Y0050600D01*
X0037200Y0047000D01*
X0037000Y0047000D01*
X0032400Y0047000D02*
X0027000Y0047000D01*
X0022800Y0047600D02*
X0022800Y0046400D01*
X0027000Y0042200D01*
X0036600Y0042200D01*
X0041400Y0037400D01*
X0046800Y0036800D02*
X0046800Y0032000D01*
X0042000Y0027200D01*
X0046800Y0036800D02*
X0047000Y0037000D01*
X0062400Y0037400D02*
X0062400Y0042800D01*
X0066600Y0047000D01*
X0067000Y0047000D01*
X0072600Y0056600D02*
X0072600Y0077600D01*
X0076800Y0077000D02*
X0077000Y0077000D01*
X0076800Y0077000D02*
X0076800Y0071600D01*
X0060600Y0068000D02*
X0053400Y0075200D01*
X0053400Y0078200D01*
X0055800Y0080600D01*
X0050400Y0085400D02*
X0050400Y0088400D01*
X0045600Y0093200D01*
X0046800Y0087200D02*
X0041400Y0087200D01*
X0031800Y0096800D01*
X0046800Y0087200D02*
X0047000Y0087000D01*
X0050400Y0085400D02*
X0043800Y0078800D01*
X0043800Y0075200D01*
X0046800Y0072200D01*
X0046800Y0067400D01*
X0047000Y0067000D01*
X0051600Y0058400D02*
X0057000Y0063800D01*
X0057000Y0067000D01*
X0027000Y0066800D02*
X0027000Y0067000D01*
X0027000Y0066800D02*
X0021600Y0066800D01*
X0018600Y0063800D01*
X0010200Y0063800D01*
X0018600Y0051800D02*
X0022800Y0047600D01*
X0057600Y0012200D02*
X0062400Y0007400D01*
X0066600Y0007400D01*
X0067000Y0007000D01*
D13*
X0062400Y0037400D03*
X0041400Y0037400D03*
X0041400Y0065000D03*
X0025800Y0081200D03*
X0012600Y0071000D03*
X0010200Y0060200D03*
X0012600Y0031400D03*
X0022200Y0098000D03*
X0079800Y0092600D03*
X0079800Y0072800D03*
M02*
