G75*
%MOIN*%
%OFA0B0*%
%FSLAX25Y25*%
%IPPOS*%
%LPD*%
%AMOC8*
5,1,8,0,0,1.08239X$1,22.5*
%
%ADD10C,0.00300*%
%ADD11C,0.00100*%
%ADD12R,0.05000X0.01000*%
%ADD13R,0.01000X0.05000*%
D10*
X0005922Y0011550D02*
X0007373Y0011550D01*
X0007857Y0012034D01*
X0007857Y0013969D01*
X0007373Y0014452D01*
X0005922Y0014452D01*
X0005922Y0011550D01*
X0007373Y0011550D01*
X0007857Y0012034D01*
X0007857Y0013969D01*
X0007373Y0014452D01*
X0005922Y0014452D01*
X0005922Y0011550D01*
X0008868Y0011550D02*
X0010803Y0013485D01*
X0010803Y0013969D01*
X0010320Y0014452D01*
X0009352Y0014452D01*
X0008868Y0013969D01*
X0009352Y0014452D01*
X0010320Y0014452D01*
X0010803Y0013969D01*
X0010803Y0013485D01*
X0008868Y0011550D01*
X0010803Y0011550D01*
X0008868Y0011550D01*
X0015922Y0011550D02*
X0017373Y0011550D01*
X0017857Y0012034D01*
X0017857Y0013969D01*
X0017373Y0014452D01*
X0015922Y0014452D01*
X0015922Y0011550D01*
X0017373Y0011550D01*
X0017857Y0012034D01*
X0017857Y0013969D01*
X0017373Y0014452D01*
X0015922Y0014452D01*
X0015922Y0011550D01*
X0018868Y0012034D02*
X0019352Y0011550D01*
X0020320Y0011550D01*
X0020803Y0012034D01*
X0020803Y0012517D01*
X0020320Y0013001D01*
X0019836Y0013001D01*
X0020320Y0013001D01*
X0020803Y0013485D01*
X0020803Y0013969D01*
X0020320Y0014452D01*
X0019352Y0014452D01*
X0018868Y0013969D01*
X0019352Y0014452D01*
X0020320Y0014452D01*
X0020803Y0013969D01*
X0020803Y0013485D01*
X0020320Y0013001D01*
X0020803Y0012517D01*
X0020803Y0012034D01*
X0020320Y0011550D01*
X0019352Y0011550D01*
X0018868Y0012034D01*
X0025922Y0011550D02*
X0027373Y0011550D01*
X0027857Y0012034D01*
X0027857Y0013969D01*
X0027373Y0014452D01*
X0025922Y0014452D01*
X0025922Y0011550D01*
X0027373Y0011550D01*
X0027857Y0012034D01*
X0027857Y0013969D01*
X0027373Y0014452D01*
X0025922Y0014452D01*
X0025922Y0011550D01*
X0028868Y0013001D02*
X0030803Y0013001D01*
X0028868Y0013001D01*
X0030320Y0014452D01*
X0030320Y0011550D01*
X0030320Y0014452D01*
X0028868Y0013001D01*
X0035922Y0011550D02*
X0037373Y0011550D01*
X0037857Y0012034D01*
X0037857Y0013969D01*
X0037373Y0014452D01*
X0035922Y0014452D01*
X0035922Y0011550D01*
X0037373Y0011550D01*
X0037857Y0012034D01*
X0037857Y0013969D01*
X0037373Y0014452D01*
X0035922Y0014452D01*
X0035922Y0011550D01*
X0038868Y0012034D02*
X0039352Y0011550D01*
X0040320Y0011550D01*
X0040803Y0012034D01*
X0040803Y0013001D01*
X0040320Y0013485D01*
X0039836Y0013485D01*
X0038868Y0013001D01*
X0038868Y0014452D01*
X0040803Y0014452D01*
X0038868Y0014452D01*
X0038868Y0013001D01*
X0039836Y0013485D01*
X0040320Y0013485D01*
X0040803Y0013001D01*
X0040803Y0012034D01*
X0040320Y0011550D01*
X0039352Y0011550D01*
X0038868Y0012034D01*
X0045922Y0011550D02*
X0047373Y0011550D01*
X0047857Y0012034D01*
X0047857Y0013969D01*
X0047373Y0014452D01*
X0045922Y0014452D01*
X0045922Y0011550D01*
X0047373Y0011550D01*
X0047857Y0012034D01*
X0047857Y0013969D01*
X0047373Y0014452D01*
X0045922Y0014452D01*
X0045922Y0011550D01*
X0048868Y0012034D02*
X0049352Y0011550D01*
X0050320Y0011550D01*
X0050803Y0012034D01*
X0050803Y0012517D01*
X0050320Y0013001D01*
X0048868Y0013001D01*
X0048868Y0012034D01*
X0049352Y0011550D01*
X0050320Y0011550D01*
X0050803Y0012034D01*
X0050803Y0012517D01*
X0050320Y0013001D01*
X0048868Y0013001D01*
X0049836Y0013969D01*
X0050803Y0014452D01*
X0049836Y0013969D01*
X0048868Y0013001D01*
X0048868Y0012034D01*
X0055922Y0011550D02*
X0057373Y0011550D01*
X0057857Y0012034D01*
X0057857Y0013969D01*
X0057373Y0014452D01*
X0055922Y0014452D01*
X0055922Y0011550D01*
X0057373Y0011550D01*
X0057857Y0012034D01*
X0057857Y0013969D01*
X0057373Y0014452D01*
X0055922Y0014452D01*
X0055922Y0011550D01*
X0058868Y0011550D02*
X0058868Y0012034D01*
X0060803Y0013969D01*
X0060803Y0014452D01*
X0058868Y0014452D01*
X0060803Y0014452D01*
X0060803Y0013969D01*
X0058868Y0012034D01*
X0058868Y0011550D01*
X0065922Y0011550D02*
X0067373Y0011550D01*
X0067857Y0012034D01*
X0067857Y0013969D01*
X0067373Y0014452D01*
X0065922Y0014452D01*
X0065922Y0011550D01*
X0067373Y0011550D01*
X0067857Y0012034D01*
X0067857Y0013969D01*
X0067373Y0014452D01*
X0065922Y0014452D01*
X0065922Y0011550D01*
X0068868Y0012034D02*
X0068868Y0012517D01*
X0069352Y0013001D01*
X0070320Y0013001D01*
X0070803Y0012517D01*
X0070803Y0012034D01*
X0070320Y0011550D01*
X0069352Y0011550D01*
X0068868Y0012034D01*
X0068868Y0012517D01*
X0069352Y0013001D01*
X0068868Y0013485D01*
X0068868Y0013969D01*
X0069352Y0014452D01*
X0070320Y0014452D01*
X0070803Y0013969D01*
X0070803Y0013485D01*
X0070320Y0013001D01*
X0069352Y0013001D01*
X0068868Y0013485D01*
X0068868Y0013969D01*
X0069352Y0014452D01*
X0070320Y0014452D01*
X0070803Y0013969D01*
X0070803Y0013485D01*
X0070320Y0013001D01*
X0070803Y0012517D01*
X0070803Y0012034D01*
X0070320Y0011550D01*
X0069352Y0011550D01*
X0068868Y0012034D01*
X0075922Y0011550D02*
X0077373Y0011550D01*
X0077857Y0012034D01*
X0077857Y0013969D01*
X0077373Y0014452D01*
X0075922Y0014452D01*
X0075922Y0011550D01*
X0077373Y0011550D01*
X0077857Y0012034D01*
X0077857Y0013969D01*
X0077373Y0014452D01*
X0075922Y0014452D01*
X0075922Y0011550D01*
X0078868Y0012034D02*
X0079352Y0011550D01*
X0080320Y0011550D01*
X0080803Y0012034D01*
X0080803Y0013969D01*
X0080320Y0014452D01*
X0079352Y0014452D01*
X0078868Y0013969D01*
X0078868Y0013485D01*
X0079352Y0013001D01*
X0080803Y0013001D01*
X0079352Y0013001D01*
X0078868Y0013485D01*
X0078868Y0013969D01*
X0079352Y0014452D01*
X0080320Y0014452D01*
X0080803Y0013969D01*
X0080803Y0012034D01*
X0080320Y0011550D01*
X0079352Y0011550D01*
X0078868Y0012034D01*
X0075320Y0020550D02*
X0074352Y0020550D01*
X0073868Y0021034D01*
X0073868Y0022001D01*
X0075320Y0022001D01*
X0075803Y0021517D01*
X0075803Y0021034D01*
X0075320Y0020550D01*
X0073868Y0022001D02*
X0074836Y0022969D01*
X0075803Y0023452D01*
X0072857Y0020550D02*
X0070922Y0020550D01*
X0071889Y0020550D02*
X0071889Y0023452D01*
X0070922Y0022485D01*
X0055803Y0022001D02*
X0055803Y0021034D01*
X0055320Y0020550D01*
X0054352Y0020550D01*
X0053868Y0021034D01*
X0053868Y0022001D02*
X0054836Y0022485D01*
X0055320Y0022485D01*
X0055803Y0022001D01*
X0055803Y0023452D02*
X0053868Y0023452D01*
X0053868Y0022001D01*
X0051889Y0023452D02*
X0051889Y0020550D01*
X0050922Y0020550D02*
X0052857Y0020550D01*
X0050922Y0022485D02*
X0051889Y0023452D01*
X0035803Y0022001D02*
X0033868Y0022001D01*
X0035320Y0023452D01*
X0035320Y0020550D01*
X0032857Y0020550D02*
X0030922Y0020550D01*
X0031889Y0020550D02*
X0031889Y0023452D01*
X0030922Y0022485D01*
X0015803Y0022485D02*
X0015320Y0022001D01*
X0015803Y0021517D01*
X0015803Y0021034D01*
X0015320Y0020550D01*
X0014352Y0020550D01*
X0013868Y0021034D01*
X0012857Y0020550D02*
X0010922Y0020550D01*
X0011889Y0020550D02*
X0011889Y0023452D01*
X0010922Y0022485D01*
X0013868Y0022969D02*
X0014352Y0023452D01*
X0015320Y0023452D01*
X0015803Y0022969D01*
X0015803Y0022485D01*
X0015320Y0022001D02*
X0014836Y0022001D01*
X0013846Y0040550D02*
X0012879Y0040550D01*
X0012395Y0041034D01*
X0012879Y0042001D02*
X0012395Y0042485D01*
X0012395Y0042969D01*
X0012879Y0043452D01*
X0013846Y0043452D01*
X0014330Y0042969D01*
X0014330Y0041034D01*
X0013846Y0040550D01*
X0014330Y0042001D02*
X0012879Y0042001D01*
X0030922Y0042485D02*
X0031889Y0043452D01*
X0031889Y0040550D01*
X0030922Y0040550D02*
X0032857Y0040550D01*
X0033868Y0041034D02*
X0035803Y0042969D01*
X0035803Y0041034D01*
X0035320Y0040550D01*
X0034352Y0040550D01*
X0033868Y0041034D01*
X0033868Y0042969D01*
X0034352Y0043452D01*
X0035320Y0043452D01*
X0035803Y0042969D01*
X0050922Y0042485D02*
X0051889Y0043452D01*
X0051889Y0040550D01*
X0050922Y0040550D02*
X0052857Y0040550D01*
X0053868Y0040550D02*
X0055803Y0040550D01*
X0054836Y0040550D02*
X0054836Y0043452D01*
X0053868Y0042485D01*
X0070922Y0042485D02*
X0071889Y0043452D01*
X0071889Y0040550D01*
X0070922Y0040550D02*
X0072857Y0040550D01*
X0073868Y0040550D02*
X0075803Y0042485D01*
X0075803Y0042969D01*
X0075320Y0043452D01*
X0074352Y0043452D01*
X0073868Y0042969D01*
X0073868Y0040550D02*
X0075803Y0040550D01*
X0073846Y0060550D02*
X0072879Y0060550D01*
X0072395Y0061034D01*
X0072395Y0061517D01*
X0072879Y0062001D01*
X0073846Y0062001D01*
X0074330Y0061517D01*
X0074330Y0061034D01*
X0073846Y0060550D01*
X0073846Y0062001D02*
X0074330Y0062485D01*
X0074330Y0062969D01*
X0073846Y0063452D01*
X0072879Y0063452D01*
X0072395Y0062969D01*
X0072395Y0062485D01*
X0072879Y0062001D01*
X0054330Y0062969D02*
X0052395Y0061034D01*
X0052395Y0060550D01*
X0054330Y0062969D02*
X0054330Y0063452D01*
X0052395Y0063452D01*
X0052879Y0080550D02*
X0052395Y0081034D01*
X0052879Y0080550D02*
X0053846Y0080550D01*
X0054330Y0081034D01*
X0054330Y0081517D01*
X0053846Y0082001D01*
X0053363Y0082001D01*
X0053846Y0082001D02*
X0054330Y0082485D01*
X0054330Y0082969D01*
X0053846Y0083452D01*
X0052879Y0083452D01*
X0052395Y0082969D01*
X0051793Y0090550D02*
X0050825Y0090550D01*
X0050342Y0091034D01*
X0049330Y0090550D02*
X0047395Y0090550D01*
X0048363Y0090550D02*
X0048363Y0093452D01*
X0047395Y0092485D01*
X0046384Y0092969D02*
X0046384Y0091034D01*
X0045900Y0090550D01*
X0044449Y0090550D01*
X0044449Y0093452D01*
X0045900Y0093452D01*
X0046384Y0092969D01*
X0050342Y0092969D02*
X0050825Y0093452D01*
X0051793Y0093452D01*
X0052277Y0092969D01*
X0052277Y0092485D01*
X0051793Y0092001D01*
X0052277Y0091517D01*
X0052277Y0091034D01*
X0051793Y0090550D01*
X0051793Y0092001D02*
X0051309Y0092001D01*
X0054449Y0090550D02*
X0055900Y0090550D01*
X0056384Y0091034D01*
X0056384Y0092969D01*
X0055900Y0093452D01*
X0054449Y0093452D01*
X0054449Y0090550D01*
X0057395Y0090550D02*
X0059330Y0090550D01*
X0058363Y0090550D02*
X0058363Y0093452D01*
X0057395Y0092485D01*
X0060342Y0092969D02*
X0060825Y0093452D01*
X0061793Y0093452D01*
X0062277Y0092969D01*
X0062277Y0092485D01*
X0060342Y0090550D01*
X0062277Y0090550D01*
X0064449Y0090550D02*
X0064449Y0093452D01*
X0065900Y0093452D01*
X0066384Y0092969D01*
X0066384Y0091034D01*
X0065900Y0090550D01*
X0064449Y0090550D01*
X0067395Y0090550D02*
X0069330Y0090550D01*
X0068363Y0090550D02*
X0068363Y0093452D01*
X0067395Y0092485D01*
X0070342Y0092485D02*
X0071309Y0093452D01*
X0071309Y0090550D01*
X0070342Y0090550D02*
X0072277Y0090550D01*
X0074449Y0090550D02*
X0074449Y0093452D01*
X0075900Y0093452D01*
X0076384Y0092969D01*
X0076384Y0091034D01*
X0075900Y0090550D01*
X0074449Y0090550D01*
X0077395Y0090550D02*
X0079330Y0090550D01*
X0078363Y0090550D02*
X0078363Y0093452D01*
X0077395Y0092485D01*
X0080342Y0092969D02*
X0080342Y0091034D01*
X0082277Y0092969D01*
X0082277Y0091034D01*
X0081793Y0090550D01*
X0080825Y0090550D01*
X0080342Y0091034D01*
X0080342Y0092969D02*
X0080825Y0093452D01*
X0081793Y0093452D01*
X0082277Y0092969D01*
X0073846Y0083452D02*
X0072395Y0082001D01*
X0074330Y0082001D01*
X0073846Y0080550D02*
X0073846Y0083452D01*
X0040803Y0091034D02*
X0040320Y0090550D01*
X0039352Y0090550D01*
X0038868Y0091034D01*
X0040803Y0092969D01*
X0040803Y0091034D01*
X0038868Y0091034D02*
X0038868Y0092969D01*
X0039352Y0093452D01*
X0040320Y0093452D01*
X0040803Y0092969D01*
X0037857Y0092485D02*
X0037857Y0090550D01*
X0037857Y0092001D02*
X0035922Y0092001D01*
X0035922Y0092485D02*
X0036889Y0093452D01*
X0037857Y0092485D01*
X0035922Y0092485D02*
X0035922Y0090550D01*
X0030803Y0090550D02*
X0028868Y0090550D01*
X0029836Y0090550D02*
X0029836Y0093452D01*
X0028868Y0092485D01*
X0027857Y0092485D02*
X0027857Y0090550D01*
X0027857Y0092001D02*
X0025922Y0092001D01*
X0025922Y0092485D02*
X0026889Y0093452D01*
X0027857Y0092485D01*
X0025922Y0092485D02*
X0025922Y0090550D01*
X0020803Y0090550D02*
X0018868Y0090550D01*
X0020803Y0092485D01*
X0020803Y0092969D01*
X0020320Y0093452D01*
X0019352Y0093452D01*
X0018868Y0092969D01*
X0017857Y0092485D02*
X0017857Y0090550D01*
X0017857Y0092001D02*
X0015922Y0092001D01*
X0015922Y0092485D02*
X0016889Y0093452D01*
X0017857Y0092485D01*
X0015922Y0092485D02*
X0015922Y0090550D01*
X0011337Y0090767D02*
X0010720Y0090150D01*
X0009486Y0090150D01*
X0008868Y0090767D01*
X0007654Y0090150D02*
X0007654Y0092619D01*
X0006420Y0093853D01*
X0005185Y0092619D01*
X0005185Y0090150D01*
X0005185Y0092002D02*
X0007654Y0092002D01*
X0008868Y0093236D02*
X0009486Y0093853D01*
X0010720Y0093853D01*
X0011337Y0093236D01*
X0011337Y0092619D01*
X0010720Y0092002D01*
X0011337Y0091384D01*
X0011337Y0090767D01*
X0010720Y0092002D02*
X0010103Y0092002D01*
X0013363Y0083452D02*
X0013363Y0080550D01*
X0014330Y0080550D02*
X0012395Y0080550D01*
X0012395Y0082485D02*
X0013363Y0083452D01*
X0032395Y0082969D02*
X0032879Y0083452D01*
X0033846Y0083452D01*
X0034330Y0082969D01*
X0034330Y0082485D01*
X0032395Y0080550D01*
X0034330Y0080550D01*
X0034330Y0063452D02*
X0033363Y0062969D01*
X0032395Y0062001D01*
X0033846Y0062001D01*
X0034330Y0061517D01*
X0034330Y0061034D01*
X0033846Y0060550D01*
X0032879Y0060550D01*
X0032395Y0061034D01*
X0032395Y0062001D01*
X0014330Y0062001D02*
X0014330Y0061034D01*
X0013846Y0060550D01*
X0012879Y0060550D01*
X0012395Y0061034D01*
X0012395Y0062001D02*
X0013363Y0062485D01*
X0013846Y0062485D01*
X0014330Y0062001D01*
X0014330Y0063452D02*
X0012395Y0063452D01*
X0012395Y0062001D01*
D11*
X0011533Y0063750D02*
X0011032Y0064250D01*
X0011282Y0064250D02*
X0010532Y0064250D01*
X0010532Y0063750D02*
X0010532Y0065251D01*
X0011282Y0065251D01*
X0011533Y0065001D01*
X0011533Y0064501D01*
X0011282Y0064250D01*
X0011282Y0059751D02*
X0010782Y0059751D01*
X0010532Y0059501D01*
X0010532Y0058500D01*
X0010782Y0058250D01*
X0011282Y0058250D01*
X0011533Y0058500D01*
X0011533Y0059001D01*
X0011032Y0059001D01*
X0011533Y0059501D02*
X0011282Y0059751D01*
X0015532Y0059751D02*
X0015532Y0058250D01*
X0016282Y0058250D01*
X0016533Y0058500D01*
X0016533Y0058750D01*
X0016282Y0059001D01*
X0015532Y0059001D01*
X0015532Y0059751D02*
X0016282Y0059751D01*
X0016533Y0059501D01*
X0016533Y0059251D01*
X0016282Y0059001D01*
X0011282Y0045251D02*
X0011533Y0045001D01*
X0011533Y0044501D01*
X0011282Y0044250D01*
X0010532Y0044250D01*
X0010532Y0043750D02*
X0010532Y0045251D01*
X0011282Y0045251D01*
X0011032Y0044250D02*
X0011533Y0043750D01*
X0011282Y0039751D02*
X0010782Y0039751D01*
X0010532Y0039501D01*
X0010532Y0038500D01*
X0010782Y0038250D01*
X0011282Y0038250D01*
X0011533Y0038500D01*
X0011533Y0039001D01*
X0011032Y0039001D01*
X0011533Y0039501D02*
X0011282Y0039751D01*
X0015532Y0039751D02*
X0015532Y0038250D01*
X0016282Y0038250D01*
X0016533Y0038500D01*
X0016533Y0038750D01*
X0016282Y0039001D01*
X0015532Y0039001D01*
X0015532Y0039751D02*
X0016282Y0039751D01*
X0016533Y0039501D01*
X0016533Y0039251D01*
X0016282Y0039001D01*
X0011282Y0025251D02*
X0011533Y0025001D01*
X0011533Y0024501D01*
X0011282Y0024250D01*
X0010532Y0024250D01*
X0010532Y0023750D02*
X0010532Y0025251D01*
X0011282Y0025251D01*
X0011032Y0024250D02*
X0011533Y0023750D01*
X0011282Y0019751D02*
X0010782Y0019751D01*
X0010532Y0019501D01*
X0010532Y0018500D01*
X0010782Y0018250D01*
X0011282Y0018250D01*
X0011533Y0018500D01*
X0011533Y0019001D01*
X0011032Y0019001D01*
X0011533Y0019501D02*
X0011282Y0019751D01*
X0015532Y0019751D02*
X0015532Y0018250D01*
X0016282Y0018250D01*
X0016533Y0018500D01*
X0016533Y0018750D01*
X0016282Y0019001D01*
X0015532Y0019001D01*
X0015532Y0019751D02*
X0016282Y0019751D01*
X0016533Y0019501D01*
X0016533Y0019251D01*
X0016282Y0019001D01*
X0030532Y0019501D02*
X0030532Y0018500D01*
X0030782Y0018250D01*
X0031282Y0018250D01*
X0031533Y0018500D01*
X0031533Y0019001D01*
X0031032Y0019001D01*
X0030532Y0019501D02*
X0030782Y0019751D01*
X0031282Y0019751D01*
X0031533Y0019501D01*
X0035532Y0019751D02*
X0035532Y0018250D01*
X0036282Y0018250D01*
X0036533Y0018500D01*
X0036533Y0018750D01*
X0036282Y0019001D01*
X0035532Y0019001D01*
X0035532Y0019751D02*
X0036282Y0019751D01*
X0036533Y0019501D01*
X0036533Y0019251D01*
X0036282Y0019001D01*
X0031533Y0023750D02*
X0031032Y0024250D01*
X0031282Y0024250D02*
X0030532Y0024250D01*
X0030532Y0023750D02*
X0030532Y0025251D01*
X0031282Y0025251D01*
X0031533Y0025001D01*
X0031533Y0024501D01*
X0031282Y0024250D01*
X0031282Y0038250D02*
X0030782Y0038250D01*
X0030532Y0038500D01*
X0030532Y0039501D01*
X0030782Y0039751D01*
X0031282Y0039751D01*
X0031533Y0039501D01*
X0031533Y0039001D02*
X0031032Y0039001D01*
X0031533Y0039001D02*
X0031533Y0038500D01*
X0031282Y0038250D01*
X0035532Y0038250D02*
X0036282Y0038250D01*
X0036533Y0038500D01*
X0036533Y0038750D01*
X0036282Y0039001D01*
X0035532Y0039001D01*
X0035532Y0039751D02*
X0035532Y0038250D01*
X0036282Y0039001D02*
X0036533Y0039251D01*
X0036533Y0039501D01*
X0036282Y0039751D01*
X0035532Y0039751D01*
X0031533Y0043750D02*
X0031032Y0044250D01*
X0031282Y0044250D02*
X0030532Y0044250D01*
X0030532Y0043750D02*
X0030532Y0045251D01*
X0031282Y0045251D01*
X0031533Y0045001D01*
X0031533Y0044501D01*
X0031282Y0044250D01*
X0031282Y0058250D02*
X0030782Y0058250D01*
X0030532Y0058500D01*
X0030532Y0059501D01*
X0030782Y0059751D01*
X0031282Y0059751D01*
X0031533Y0059501D01*
X0031533Y0059001D02*
X0031032Y0059001D01*
X0031533Y0059001D02*
X0031533Y0058500D01*
X0031282Y0058250D01*
X0035532Y0058250D02*
X0036282Y0058250D01*
X0036533Y0058500D01*
X0036533Y0058750D01*
X0036282Y0059001D01*
X0035532Y0059001D01*
X0035532Y0059751D02*
X0035532Y0058250D01*
X0036282Y0059001D02*
X0036533Y0059251D01*
X0036533Y0059501D01*
X0036282Y0059751D01*
X0035532Y0059751D01*
X0031533Y0063750D02*
X0031032Y0064250D01*
X0031282Y0064250D02*
X0030532Y0064250D01*
X0030532Y0063750D02*
X0030532Y0065251D01*
X0031282Y0065251D01*
X0031533Y0065001D01*
X0031533Y0064501D01*
X0031282Y0064250D01*
X0031282Y0078250D02*
X0030782Y0078250D01*
X0030532Y0078500D01*
X0030532Y0079501D01*
X0030782Y0079751D01*
X0031282Y0079751D01*
X0031533Y0079501D01*
X0031533Y0079001D02*
X0031032Y0079001D01*
X0031533Y0079001D02*
X0031533Y0078500D01*
X0031282Y0078250D01*
X0035532Y0078250D02*
X0036282Y0078250D01*
X0036533Y0078500D01*
X0036533Y0078750D01*
X0036282Y0079001D01*
X0035532Y0079001D01*
X0035532Y0079751D02*
X0035532Y0078250D01*
X0036282Y0079001D02*
X0036533Y0079251D01*
X0036533Y0079501D01*
X0036282Y0079751D01*
X0035532Y0079751D01*
X0031533Y0083750D02*
X0031032Y0084250D01*
X0031282Y0084250D02*
X0030532Y0084250D01*
X0030532Y0083750D02*
X0030532Y0085251D01*
X0031282Y0085251D01*
X0031533Y0085001D01*
X0031533Y0084501D01*
X0031282Y0084250D01*
X0016533Y0079501D02*
X0016533Y0079251D01*
X0016282Y0079001D01*
X0015532Y0079001D01*
X0015532Y0079751D02*
X0015532Y0078250D01*
X0016282Y0078250D01*
X0016533Y0078500D01*
X0016533Y0078750D01*
X0016282Y0079001D01*
X0016533Y0079501D02*
X0016282Y0079751D01*
X0015532Y0079751D01*
X0011533Y0079501D02*
X0011282Y0079751D01*
X0010782Y0079751D01*
X0010532Y0079501D01*
X0010532Y0078500D01*
X0010782Y0078250D01*
X0011282Y0078250D01*
X0011533Y0078500D01*
X0011533Y0079001D01*
X0011032Y0079001D01*
X0010532Y0083750D02*
X0010532Y0085251D01*
X0011282Y0085251D01*
X0011533Y0085001D01*
X0011533Y0084501D01*
X0011282Y0084250D01*
X0010532Y0084250D01*
X0011032Y0084250D02*
X0011533Y0083750D01*
X0050532Y0083750D02*
X0050532Y0085251D01*
X0051282Y0085251D01*
X0051533Y0085001D01*
X0051533Y0084501D01*
X0051282Y0084250D01*
X0050532Y0084250D01*
X0051032Y0084250D02*
X0051533Y0083750D01*
X0051282Y0079751D02*
X0050782Y0079751D01*
X0050532Y0079501D01*
X0050532Y0078500D01*
X0050782Y0078250D01*
X0051282Y0078250D01*
X0051533Y0078500D01*
X0051533Y0079001D01*
X0051032Y0079001D01*
X0051533Y0079501D02*
X0051282Y0079751D01*
X0055532Y0079751D02*
X0055532Y0078250D01*
X0056282Y0078250D01*
X0056533Y0078500D01*
X0056533Y0078750D01*
X0056282Y0079001D01*
X0055532Y0079001D01*
X0055532Y0079751D02*
X0056282Y0079751D01*
X0056533Y0079501D01*
X0056533Y0079251D01*
X0056282Y0079001D01*
X0051282Y0065251D02*
X0050532Y0065251D01*
X0050532Y0063750D01*
X0050532Y0064250D02*
X0051282Y0064250D01*
X0051533Y0064501D01*
X0051533Y0065001D01*
X0051282Y0065251D01*
X0051032Y0064250D02*
X0051533Y0063750D01*
X0051282Y0059751D02*
X0050782Y0059751D01*
X0050532Y0059501D01*
X0050532Y0058500D01*
X0050782Y0058250D01*
X0051282Y0058250D01*
X0051533Y0058500D01*
X0051533Y0059001D01*
X0051032Y0059001D01*
X0051533Y0059501D02*
X0051282Y0059751D01*
X0055532Y0059751D02*
X0055532Y0058250D01*
X0056282Y0058250D01*
X0056533Y0058500D01*
X0056533Y0058750D01*
X0056282Y0059001D01*
X0055532Y0059001D01*
X0055532Y0059751D02*
X0056282Y0059751D01*
X0056533Y0059501D01*
X0056533Y0059251D01*
X0056282Y0059001D01*
X0051282Y0045251D02*
X0050532Y0045251D01*
X0050532Y0043750D01*
X0050532Y0044250D02*
X0051282Y0044250D01*
X0051533Y0044501D01*
X0051533Y0045001D01*
X0051282Y0045251D01*
X0051032Y0044250D02*
X0051533Y0043750D01*
X0051282Y0039751D02*
X0050782Y0039751D01*
X0050532Y0039501D01*
X0050532Y0038500D01*
X0050782Y0038250D01*
X0051282Y0038250D01*
X0051533Y0038500D01*
X0051533Y0039001D01*
X0051032Y0039001D01*
X0051533Y0039501D02*
X0051282Y0039751D01*
X0055532Y0039751D02*
X0055532Y0038250D01*
X0056282Y0038250D01*
X0056533Y0038500D01*
X0056533Y0038750D01*
X0056282Y0039001D01*
X0055532Y0039001D01*
X0055532Y0039751D02*
X0056282Y0039751D01*
X0056533Y0039501D01*
X0056533Y0039251D01*
X0056282Y0039001D01*
X0051282Y0025251D02*
X0050532Y0025251D01*
X0050532Y0023750D01*
X0050532Y0024250D02*
X0051282Y0024250D01*
X0051533Y0024501D01*
X0051533Y0025001D01*
X0051282Y0025251D01*
X0051032Y0024250D02*
X0051533Y0023750D01*
X0051282Y0019751D02*
X0050782Y0019751D01*
X0050532Y0019501D01*
X0050532Y0018500D01*
X0050782Y0018250D01*
X0051282Y0018250D01*
X0051533Y0018500D01*
X0051533Y0019001D01*
X0051032Y0019001D01*
X0051533Y0019501D02*
X0051282Y0019751D01*
X0055532Y0019751D02*
X0055532Y0018250D01*
X0056282Y0018250D01*
X0056533Y0018500D01*
X0056533Y0018750D01*
X0056282Y0019001D01*
X0055532Y0019001D01*
X0055532Y0019751D02*
X0056282Y0019751D01*
X0056533Y0019501D01*
X0056533Y0019251D01*
X0056282Y0019001D01*
X0070532Y0019501D02*
X0070532Y0018500D01*
X0070782Y0018250D01*
X0071282Y0018250D01*
X0071533Y0018500D01*
X0071533Y0019001D01*
X0071032Y0019001D01*
X0070532Y0019501D02*
X0070782Y0019751D01*
X0071282Y0019751D01*
X0071533Y0019501D01*
X0075532Y0019751D02*
X0075532Y0018250D01*
X0076282Y0018250D01*
X0076533Y0018500D01*
X0076533Y0018750D01*
X0076282Y0019001D01*
X0075532Y0019001D01*
X0075532Y0019751D02*
X0076282Y0019751D01*
X0076533Y0019501D01*
X0076533Y0019251D01*
X0076282Y0019001D01*
X0071533Y0023750D02*
X0071032Y0024250D01*
X0071282Y0024250D02*
X0070532Y0024250D01*
X0070532Y0023750D02*
X0070532Y0025251D01*
X0071282Y0025251D01*
X0071533Y0025001D01*
X0071533Y0024501D01*
X0071282Y0024250D01*
X0071282Y0038250D02*
X0071533Y0038500D01*
X0071533Y0039001D01*
X0071032Y0039001D01*
X0070532Y0039501D02*
X0070532Y0038500D01*
X0070782Y0038250D01*
X0071282Y0038250D01*
X0071533Y0039501D02*
X0071282Y0039751D01*
X0070782Y0039751D01*
X0070532Y0039501D01*
X0075532Y0039751D02*
X0075532Y0038250D01*
X0076282Y0038250D01*
X0076533Y0038500D01*
X0076533Y0038750D01*
X0076282Y0039001D01*
X0075532Y0039001D01*
X0075532Y0039751D02*
X0076282Y0039751D01*
X0076533Y0039501D01*
X0076533Y0039251D01*
X0076282Y0039001D01*
X0071533Y0043750D02*
X0071032Y0044250D01*
X0071282Y0044250D02*
X0070532Y0044250D01*
X0070532Y0043750D02*
X0070532Y0045251D01*
X0071282Y0045251D01*
X0071533Y0045001D01*
X0071533Y0044501D01*
X0071282Y0044250D01*
X0071282Y0058250D02*
X0071533Y0058500D01*
X0071533Y0059001D01*
X0071032Y0059001D01*
X0070532Y0059501D02*
X0070532Y0058500D01*
X0070782Y0058250D01*
X0071282Y0058250D01*
X0071533Y0059501D02*
X0071282Y0059751D01*
X0070782Y0059751D01*
X0070532Y0059501D01*
X0070532Y0063750D02*
X0070532Y0065251D01*
X0071282Y0065251D01*
X0071533Y0065001D01*
X0071533Y0064501D01*
X0071282Y0064250D01*
X0070532Y0064250D01*
X0071032Y0064250D02*
X0071533Y0063750D01*
X0075532Y0059751D02*
X0076282Y0059751D01*
X0076533Y0059501D01*
X0076533Y0059251D01*
X0076282Y0059001D01*
X0075532Y0059001D01*
X0075532Y0059751D02*
X0075532Y0058250D01*
X0076282Y0058250D01*
X0076533Y0058500D01*
X0076533Y0058750D01*
X0076282Y0059001D01*
X0076282Y0078250D02*
X0075532Y0078250D01*
X0075532Y0079751D01*
X0076282Y0079751D01*
X0076533Y0079501D01*
X0076533Y0079251D01*
X0076282Y0079001D01*
X0075532Y0079001D01*
X0076282Y0079001D02*
X0076533Y0078750D01*
X0076533Y0078500D01*
X0076282Y0078250D01*
X0071533Y0078500D02*
X0071533Y0079001D01*
X0071032Y0079001D01*
X0070532Y0079501D02*
X0070532Y0078500D01*
X0070782Y0078250D01*
X0071282Y0078250D01*
X0071533Y0078500D01*
X0071533Y0079501D02*
X0071282Y0079751D01*
X0070782Y0079751D01*
X0070532Y0079501D01*
X0070532Y0083750D02*
X0070532Y0085251D01*
X0071282Y0085251D01*
X0071533Y0085001D01*
X0071533Y0084501D01*
X0071282Y0084250D01*
X0070532Y0084250D01*
X0071032Y0084250D02*
X0071533Y0083750D01*
D12*
X0073718Y0087000D03*
X0073718Y0077000D03*
X0073718Y0067000D03*
X0073718Y0057000D03*
X0073718Y0047000D03*
X0073718Y0037000D03*
X0073718Y0027000D03*
X0073718Y0017000D03*
X0053718Y0017000D03*
X0053718Y0027000D03*
X0053718Y0037000D03*
X0053718Y0047000D03*
X0053718Y0057000D03*
X0053718Y0067000D03*
X0053718Y0077000D03*
X0053718Y0087000D03*
X0033718Y0087000D03*
X0033718Y0077000D03*
X0033718Y0067000D03*
X0033718Y0057000D03*
X0033718Y0047000D03*
X0033718Y0037000D03*
X0033718Y0027000D03*
X0033718Y0017000D03*
X0013718Y0017000D03*
X0013718Y0027000D03*
X0013718Y0037000D03*
X0013718Y0047000D03*
X0013718Y0057000D03*
X0013718Y0067000D03*
X0013718Y0077000D03*
X0013718Y0087000D03*
D13*
X0008718Y0082000D03*
X0018718Y0082000D03*
X0028718Y0082000D03*
X0038718Y0082000D03*
X0048718Y0082000D03*
X0058718Y0082000D03*
X0068718Y0082000D03*
X0078718Y0082000D03*
X0078718Y0062000D03*
X0068718Y0062000D03*
X0058718Y0062000D03*
X0048718Y0062000D03*
X0038718Y0062000D03*
X0028718Y0062000D03*
X0018718Y0062000D03*
X0008718Y0062000D03*
X0008718Y0042000D03*
X0018718Y0042000D03*
X0028718Y0042000D03*
X0038718Y0042000D03*
X0048718Y0042000D03*
X0058718Y0042000D03*
X0068718Y0042000D03*
X0078718Y0042000D03*
X0078718Y0022000D03*
X0068718Y0022000D03*
X0058718Y0022000D03*
X0048718Y0022000D03*
X0038718Y0022000D03*
X0028718Y0022000D03*
X0018718Y0022000D03*
X0008718Y0022000D03*
M02*
