G75*
%MOIN*%
%OFA0B0*%
%FSLAX25Y25*%
%IPPOS*%
%LPD*%
%AMOC8*
5,1,8,0,0,1.08239X$1,22.5*
%
%ADD10C,0.05000*%
%ADD11C,0.06100*%
%ADD12C,0.03200*%
D10*
X0008718Y0017000D03*
X0008718Y0027000D03*
X0008718Y0037000D03*
X0008718Y0047000D03*
X0008718Y0057000D03*
X0008718Y0067000D03*
X0008718Y0077000D03*
X0008718Y0087000D03*
X0018718Y0087000D03*
X0018718Y0077000D03*
X0028718Y0077000D03*
X0028718Y0087000D03*
X0038718Y0087000D03*
X0038718Y0077000D03*
X0048718Y0077000D03*
X0048718Y0087000D03*
X0058718Y0087000D03*
X0058718Y0077000D03*
X0058718Y0067000D03*
X0048718Y0067000D03*
X0038718Y0067000D03*
X0028718Y0067000D03*
X0018718Y0067000D03*
X0018718Y0057000D03*
X0018718Y0047000D03*
X0028718Y0047000D03*
X0028718Y0057000D03*
X0038718Y0057000D03*
X0038718Y0047000D03*
X0048718Y0047000D03*
X0048718Y0057000D03*
X0058718Y0057000D03*
X0058718Y0047000D03*
X0058718Y0037000D03*
X0048718Y0037000D03*
X0038718Y0037000D03*
X0028718Y0037000D03*
X0018718Y0037000D03*
X0018718Y0027000D03*
X0018718Y0017000D03*
X0028718Y0017000D03*
X0028718Y0027000D03*
X0038718Y0027000D03*
X0038718Y0017000D03*
X0048718Y0017000D03*
X0048718Y0027000D03*
X0058718Y0027000D03*
X0058718Y0017000D03*
X0068718Y0017000D03*
X0068718Y0027000D03*
X0078718Y0027000D03*
X0078718Y0017000D03*
X0078718Y0037000D03*
X0068718Y0037000D03*
X0068718Y0047000D03*
X0068718Y0057000D03*
X0078718Y0057000D03*
X0078718Y0047000D03*
X0078718Y0067000D03*
X0068718Y0067000D03*
X0068718Y0077000D03*
X0068718Y0087000D03*
X0078718Y0087000D03*
X0078718Y0077000D03*
D11*
X0008718Y0007000D03*
X0018718Y0007000D03*
X0028718Y0007000D03*
X0038718Y0007000D03*
X0048718Y0007000D03*
X0058718Y0007000D03*
X0068718Y0007000D03*
X0078718Y0007000D03*
X0078718Y0097000D03*
X0068718Y0097000D03*
X0058718Y0097000D03*
X0048718Y0097000D03*
X0038718Y0097000D03*
X0028718Y0097000D03*
X0018718Y0097000D03*
X0008718Y0097000D03*
D12*
X0031118Y0062600D03*
X0041918Y0054200D03*
X0044318Y0066200D03*
X0045518Y0074000D03*
X0055718Y0090200D03*
X0048518Y0032600D03*
X0041918Y0030200D03*
X0069518Y0032600D03*
X0011318Y0023000D03*
M02*
