%
M48
M72
T01C0.0130
T02C0.0236
%
T01
X700Y1700
X700Y2700
X1260Y3140
X1700Y2700
X1700Y1700
X2700Y1700
X2700Y2700
X2700Y3700
X2700Y4700
X2700Y5700
X2700Y6700
X2700Y7700
X2580Y8120
X2700Y8700
X1700Y8700
X1700Y7700
X1260Y7100
X1700Y6700
X1020Y6020
X700Y5700
X700Y4700
X700Y3700
X1700Y3700
X1700Y4700
X1700Y5700
X700Y6700
X700Y7700
X700Y8700
X2220Y9800
X3700Y8700
X3700Y7700
X3700Y6700
X4140Y6500
X4700Y6700
X5700Y6700
X5700Y5700
X5700Y4700
X4700Y4700
X4700Y5700
X3700Y5700
X3700Y4700
X3700Y3700
X4140Y3740
X4700Y3700
X5700Y3700
X6240Y3740
X6700Y3700
X6700Y2700
X6700Y1700
X5700Y1700
X5700Y2700
X4700Y2700
X4700Y1700
X3700Y1700
X3700Y2700
X6700Y4700
X6700Y5700
X6700Y6700
X6700Y7700
X6700Y8700
X5700Y8700
X5700Y7700
X4700Y7700
X4700Y8700
X7700Y8700
X7980Y9260
X7700Y7700
X7980Y7280
X7700Y6700
X7700Y5700
X7700Y4700
X7700Y3700
X7700Y2700
X7700Y1700
T02
X700Y700
X1700Y700
X2700Y700
X3700Y700
X4700Y700
X5700Y700
X6700Y700
X7700Y700
X7700Y9700
X6700Y9700
X5700Y9700
X4700Y9700
X3700Y9700
X2700Y9700
X1700Y9700
X700Y9700
M30
