G75*
%MOIN*%
%OFA0B0*%
%FSLAX25Y25*%
%IPPOS*%
%LPD*%
%AMOC8*
5,1,8,0,0,1.08239X$1,22.5*
%
%ADD10R,0.05000X0.01000*%
%ADD11R,0.01000X0.05000*%
%ADD12C,0.00100*%
%ADD13C,0.01000*%
D10*
X0036000Y0026000D03*
X0036000Y0036000D03*
X0036000Y0046000D03*
X0036000Y0056000D03*
X0036000Y0066000D03*
X0036000Y0076000D03*
X0036000Y0086000D03*
X0036000Y0096000D03*
X0056000Y0096000D03*
X0056000Y0086000D03*
X0056000Y0076000D03*
X0056000Y0066000D03*
X0056000Y0056000D03*
X0056000Y0046000D03*
X0056000Y0036000D03*
X0056000Y0026000D03*
X0076000Y0026000D03*
X0076000Y0036000D03*
X0076000Y0046000D03*
X0076000Y0056000D03*
X0076000Y0066000D03*
X0076000Y0076000D03*
X0076000Y0086000D03*
X0076000Y0096000D03*
X0096000Y0096000D03*
X0096000Y0086000D03*
X0096000Y0076000D03*
X0096000Y0066000D03*
X0096000Y0056000D03*
X0096000Y0046000D03*
X0096000Y0036000D03*
X0096000Y0026000D03*
D11*
X0091000Y0031000D03*
X0081000Y0031000D03*
X0071000Y0031000D03*
X0061000Y0031000D03*
X0051000Y0031000D03*
X0041000Y0031000D03*
X0031000Y0031000D03*
X0031000Y0051000D03*
X0041000Y0051000D03*
X0051000Y0051000D03*
X0061000Y0051000D03*
X0071000Y0051000D03*
X0081000Y0051000D03*
X0091000Y0051000D03*
X0101000Y0051000D03*
X0101000Y0031000D03*
X0101000Y0071000D03*
X0091000Y0071000D03*
X0081000Y0071000D03*
X0071000Y0071000D03*
X0061000Y0071000D03*
X0051000Y0071000D03*
X0041000Y0071000D03*
X0031000Y0071000D03*
X0031000Y0091000D03*
X0041000Y0091000D03*
X0051000Y0091000D03*
X0061000Y0091000D03*
X0071000Y0091000D03*
X0081000Y0091000D03*
X0091000Y0091000D03*
X0101000Y0091000D03*
D12*
X0033186Y0028001D02*
X0033186Y0027500D01*
X0033436Y0027250D01*
X0033936Y0027250D01*
X0034187Y0027500D01*
X0034187Y0028501D01*
X0033936Y0028751D01*
X0033436Y0028751D01*
X0033186Y0028501D01*
X0033186Y0028001D02*
X0033686Y0028001D01*
X0033726Y0030250D02*
X0034227Y0030250D01*
X0034477Y0030500D01*
X0034949Y0030250D02*
X0035950Y0030250D01*
X0035450Y0030250D02*
X0035450Y0031751D01*
X0035950Y0031251D01*
X0036422Y0031501D02*
X0036673Y0031751D01*
X0037173Y0031751D01*
X0037423Y0031501D01*
X0037423Y0031251D01*
X0037173Y0031001D01*
X0036673Y0031001D01*
X0036422Y0030750D01*
X0036422Y0030500D01*
X0036673Y0030250D01*
X0037173Y0030250D01*
X0037423Y0030500D01*
X0037896Y0030500D02*
X0037896Y0031751D01*
X0038897Y0031751D02*
X0038897Y0030500D01*
X0038646Y0030250D01*
X0038146Y0030250D01*
X0037896Y0030500D01*
X0036923Y0030000D02*
X0036923Y0032001D01*
X0034477Y0031501D02*
X0034227Y0031751D01*
X0033726Y0031751D01*
X0033476Y0031501D01*
X0033476Y0031251D01*
X0033726Y0031001D01*
X0033476Y0030750D01*
X0033476Y0030500D01*
X0033726Y0030250D01*
X0033726Y0031001D02*
X0033976Y0031001D01*
X0034187Y0032750D02*
X0034187Y0034251D01*
X0033436Y0034251D01*
X0033186Y0034001D01*
X0033186Y0033501D01*
X0033436Y0033250D01*
X0034187Y0033250D01*
X0033686Y0033250D02*
X0033186Y0032750D01*
X0038186Y0028501D02*
X0038186Y0028251D01*
X0038436Y0028001D01*
X0039187Y0028001D01*
X0039187Y0028751D02*
X0038436Y0028751D01*
X0038186Y0028501D01*
X0038436Y0028001D02*
X0038186Y0027750D01*
X0038186Y0027500D01*
X0038436Y0027250D01*
X0039187Y0027250D01*
X0039187Y0028751D01*
X0053186Y0028501D02*
X0053436Y0028751D01*
X0053936Y0028751D01*
X0054187Y0028501D01*
X0054187Y0027500D01*
X0053936Y0027250D01*
X0053436Y0027250D01*
X0053186Y0027500D01*
X0053186Y0028001D01*
X0053686Y0028001D01*
X0053726Y0030250D02*
X0053726Y0031751D01*
X0054477Y0031001D01*
X0053476Y0031001D01*
X0054949Y0030250D02*
X0055950Y0030250D01*
X0055450Y0030250D02*
X0055450Y0031751D01*
X0055950Y0031251D01*
X0056422Y0031501D02*
X0056673Y0031751D01*
X0057173Y0031751D01*
X0057423Y0031501D01*
X0057423Y0031251D01*
X0057173Y0031001D01*
X0056673Y0031001D01*
X0056422Y0030750D01*
X0056422Y0030500D01*
X0056673Y0030250D01*
X0057173Y0030250D01*
X0057423Y0030500D01*
X0057896Y0030500D02*
X0057896Y0031751D01*
X0058897Y0031751D02*
X0058897Y0030500D01*
X0058646Y0030250D01*
X0058146Y0030250D01*
X0057896Y0030500D01*
X0056923Y0030000D02*
X0056923Y0032001D01*
X0054187Y0032750D02*
X0054187Y0034251D01*
X0053436Y0034251D01*
X0053186Y0034001D01*
X0053186Y0033501D01*
X0053436Y0033250D01*
X0054187Y0033250D01*
X0053686Y0033250D02*
X0053186Y0032750D01*
X0058186Y0028501D02*
X0058186Y0028251D01*
X0058436Y0028001D01*
X0059187Y0028001D01*
X0059187Y0028751D02*
X0058436Y0028751D01*
X0058186Y0028501D01*
X0058436Y0028001D02*
X0058186Y0027750D01*
X0058186Y0027500D01*
X0058436Y0027250D01*
X0059187Y0027250D01*
X0059187Y0028751D01*
X0073186Y0028501D02*
X0073436Y0028751D01*
X0073936Y0028751D01*
X0074187Y0028501D01*
X0074187Y0027500D01*
X0073936Y0027250D01*
X0073436Y0027250D01*
X0073186Y0027500D01*
X0073186Y0028001D01*
X0073686Y0028001D01*
X0073726Y0030250D02*
X0074227Y0030250D01*
X0074477Y0030500D01*
X0074477Y0031001D02*
X0073976Y0031251D01*
X0073726Y0031251D01*
X0073476Y0031001D01*
X0073476Y0030500D01*
X0073726Y0030250D01*
X0074477Y0031001D02*
X0074477Y0031751D01*
X0073476Y0031751D01*
X0073186Y0032750D02*
X0073686Y0033250D01*
X0073436Y0033250D02*
X0074187Y0033250D01*
X0074187Y0032750D02*
X0074187Y0034251D01*
X0073436Y0034251D01*
X0073186Y0034001D01*
X0073186Y0033501D01*
X0073436Y0033250D01*
X0075450Y0031751D02*
X0075450Y0030250D01*
X0075950Y0030250D02*
X0074949Y0030250D01*
X0075950Y0031251D02*
X0075450Y0031751D01*
X0076422Y0031501D02*
X0076673Y0031751D01*
X0077173Y0031751D01*
X0077423Y0031501D01*
X0077423Y0031251D01*
X0077173Y0031001D01*
X0076673Y0031001D01*
X0076422Y0030750D01*
X0076422Y0030500D01*
X0076673Y0030250D01*
X0077173Y0030250D01*
X0077423Y0030500D01*
X0077896Y0030500D02*
X0077896Y0031751D01*
X0078897Y0031751D02*
X0078897Y0030500D01*
X0078646Y0030250D01*
X0078146Y0030250D01*
X0077896Y0030500D01*
X0076923Y0030000D02*
X0076923Y0032001D01*
X0078436Y0028751D02*
X0078186Y0028501D01*
X0078186Y0028251D01*
X0078436Y0028001D01*
X0079187Y0028001D01*
X0079187Y0028751D02*
X0078436Y0028751D01*
X0078436Y0028001D02*
X0078186Y0027750D01*
X0078186Y0027500D01*
X0078436Y0027250D01*
X0079187Y0027250D01*
X0079187Y0028751D01*
X0093186Y0028501D02*
X0093436Y0028751D01*
X0093936Y0028751D01*
X0094187Y0028501D01*
X0094187Y0027500D01*
X0093936Y0027250D01*
X0093436Y0027250D01*
X0093186Y0027500D01*
X0093186Y0028001D01*
X0093686Y0028001D01*
X0093726Y0030250D02*
X0093476Y0030500D01*
X0093476Y0030750D01*
X0093726Y0031001D01*
X0094477Y0031001D01*
X0094477Y0030500D01*
X0094227Y0030250D01*
X0093726Y0030250D01*
X0094477Y0031001D02*
X0093976Y0031501D01*
X0093476Y0031751D01*
X0093186Y0032750D02*
X0093686Y0033250D01*
X0093436Y0033250D02*
X0094187Y0033250D01*
X0094187Y0032750D02*
X0094187Y0034251D01*
X0093436Y0034251D01*
X0093186Y0034001D01*
X0093186Y0033501D01*
X0093436Y0033250D01*
X0095450Y0031751D02*
X0095450Y0030250D01*
X0095950Y0030250D02*
X0094949Y0030250D01*
X0095950Y0031251D02*
X0095450Y0031751D01*
X0096422Y0031501D02*
X0096673Y0031751D01*
X0097173Y0031751D01*
X0097423Y0031501D01*
X0097423Y0031251D01*
X0097173Y0031001D01*
X0096673Y0031001D01*
X0096422Y0030750D01*
X0096422Y0030500D01*
X0096673Y0030250D01*
X0097173Y0030250D01*
X0097423Y0030500D01*
X0097896Y0030500D02*
X0097896Y0031751D01*
X0098897Y0031751D02*
X0098897Y0030500D01*
X0098646Y0030250D01*
X0098146Y0030250D01*
X0097896Y0030500D01*
X0096923Y0030000D02*
X0096923Y0032001D01*
X0098436Y0028751D02*
X0098186Y0028501D01*
X0098186Y0028251D01*
X0098436Y0028001D01*
X0099187Y0028001D01*
X0099187Y0028751D02*
X0098436Y0028751D01*
X0098436Y0028001D02*
X0098186Y0027750D01*
X0098186Y0027500D01*
X0098436Y0027250D01*
X0099187Y0027250D01*
X0099187Y0028751D01*
X0099187Y0047250D02*
X0098436Y0047250D01*
X0098186Y0047500D01*
X0098186Y0047750D01*
X0098436Y0048001D01*
X0099187Y0048001D01*
X0099187Y0048751D02*
X0099187Y0047250D01*
X0098436Y0048001D02*
X0098186Y0048251D01*
X0098186Y0048501D01*
X0098436Y0048751D01*
X0099187Y0048751D01*
X0098646Y0050250D02*
X0098146Y0050250D01*
X0097896Y0050500D01*
X0097896Y0051751D01*
X0097423Y0051501D02*
X0097173Y0051751D01*
X0096673Y0051751D01*
X0096422Y0051501D01*
X0095950Y0051251D02*
X0095450Y0051751D01*
X0095450Y0050250D01*
X0095950Y0050250D02*
X0094949Y0050250D01*
X0094477Y0050250D02*
X0093476Y0051251D01*
X0093476Y0051501D01*
X0093726Y0051751D01*
X0094227Y0051751D01*
X0094477Y0051501D01*
X0094477Y0050250D02*
X0093476Y0050250D01*
X0093436Y0048751D02*
X0093936Y0048751D01*
X0094187Y0048501D01*
X0094187Y0047500D01*
X0093936Y0047250D01*
X0093436Y0047250D01*
X0093186Y0047500D01*
X0093186Y0048001D01*
X0093686Y0048001D01*
X0093186Y0048501D02*
X0093436Y0048751D01*
X0096422Y0050500D02*
X0096422Y0050750D01*
X0096673Y0051001D01*
X0097173Y0051001D01*
X0097423Y0051251D01*
X0097423Y0051501D01*
X0096923Y0052001D02*
X0096923Y0050000D01*
X0097173Y0050250D02*
X0096673Y0050250D01*
X0096422Y0050500D01*
X0097173Y0050250D02*
X0097423Y0050500D01*
X0098646Y0050250D02*
X0098897Y0050500D01*
X0098897Y0051751D01*
X0094187Y0052750D02*
X0094187Y0054251D01*
X0093436Y0054251D01*
X0093186Y0054001D01*
X0093186Y0053501D01*
X0093436Y0053250D01*
X0094187Y0053250D01*
X0093686Y0053250D02*
X0093186Y0052750D01*
X0078897Y0051751D02*
X0078897Y0050500D01*
X0078646Y0050250D01*
X0078146Y0050250D01*
X0077896Y0050500D01*
X0077896Y0051751D01*
X0077423Y0051501D02*
X0077173Y0051751D01*
X0076673Y0051751D01*
X0076422Y0051501D01*
X0075950Y0051251D02*
X0075450Y0051751D01*
X0075450Y0050250D01*
X0075950Y0050250D02*
X0074949Y0050250D01*
X0074477Y0050250D02*
X0073476Y0050250D01*
X0073976Y0050250D02*
X0073976Y0051751D01*
X0074477Y0051251D01*
X0074187Y0052750D02*
X0074187Y0054251D01*
X0073436Y0054251D01*
X0073186Y0054001D01*
X0073186Y0053501D01*
X0073436Y0053250D01*
X0074187Y0053250D01*
X0073686Y0053250D02*
X0073186Y0052750D01*
X0076422Y0050750D02*
X0076673Y0051001D01*
X0077173Y0051001D01*
X0077423Y0051251D01*
X0077423Y0051501D01*
X0076923Y0052001D02*
X0076923Y0050000D01*
X0077173Y0050250D02*
X0076673Y0050250D01*
X0076422Y0050500D01*
X0076422Y0050750D01*
X0077173Y0050250D02*
X0077423Y0050500D01*
X0078436Y0048751D02*
X0078186Y0048501D01*
X0078186Y0048251D01*
X0078436Y0048001D01*
X0079187Y0048001D01*
X0079187Y0048751D02*
X0079187Y0047250D01*
X0078436Y0047250D01*
X0078186Y0047500D01*
X0078186Y0047750D01*
X0078436Y0048001D01*
X0078436Y0048751D02*
X0079187Y0048751D01*
X0074187Y0048501D02*
X0074187Y0047500D01*
X0073936Y0047250D01*
X0073436Y0047250D01*
X0073186Y0047500D01*
X0073186Y0048001D01*
X0073686Y0048001D01*
X0073186Y0048501D02*
X0073436Y0048751D01*
X0073936Y0048751D01*
X0074187Y0048501D01*
X0059187Y0048751D02*
X0059187Y0047250D01*
X0058436Y0047250D01*
X0058186Y0047500D01*
X0058186Y0047750D01*
X0058436Y0048001D01*
X0059187Y0048001D01*
X0059187Y0048751D02*
X0058436Y0048751D01*
X0058186Y0048501D01*
X0058186Y0048251D01*
X0058436Y0048001D01*
X0058646Y0050250D02*
X0058146Y0050250D01*
X0057896Y0050500D01*
X0057896Y0051751D01*
X0057423Y0051501D02*
X0057173Y0051751D01*
X0056673Y0051751D01*
X0056422Y0051501D01*
X0055950Y0051251D02*
X0055450Y0051751D01*
X0055450Y0050250D01*
X0055950Y0050250D02*
X0054949Y0050250D01*
X0054477Y0050500D02*
X0053476Y0051501D01*
X0053476Y0050500D01*
X0053726Y0050250D01*
X0054227Y0050250D01*
X0054477Y0050500D01*
X0054477Y0051501D01*
X0054227Y0051751D01*
X0053726Y0051751D01*
X0053476Y0051501D01*
X0053186Y0052750D02*
X0053686Y0053250D01*
X0053436Y0053250D02*
X0054187Y0053250D01*
X0054187Y0052750D02*
X0054187Y0054251D01*
X0053436Y0054251D01*
X0053186Y0054001D01*
X0053186Y0053501D01*
X0053436Y0053250D01*
X0056923Y0052001D02*
X0056923Y0050000D01*
X0057173Y0050250D02*
X0056673Y0050250D01*
X0056422Y0050500D01*
X0056422Y0050750D01*
X0056673Y0051001D01*
X0057173Y0051001D01*
X0057423Y0051251D01*
X0057423Y0051501D01*
X0057423Y0050500D02*
X0057173Y0050250D01*
X0058646Y0050250D02*
X0058897Y0050500D01*
X0058897Y0051751D01*
X0054187Y0048501D02*
X0054187Y0047500D01*
X0053936Y0047250D01*
X0053436Y0047250D01*
X0053186Y0047500D01*
X0053186Y0048001D01*
X0053686Y0048001D01*
X0053186Y0048501D02*
X0053436Y0048751D01*
X0053936Y0048751D01*
X0054187Y0048501D01*
X0039187Y0048751D02*
X0039187Y0047250D01*
X0038436Y0047250D01*
X0038186Y0047500D01*
X0038186Y0047750D01*
X0038436Y0048001D01*
X0039187Y0048001D01*
X0039187Y0048751D02*
X0038436Y0048751D01*
X0038186Y0048501D01*
X0038186Y0048251D01*
X0038436Y0048001D01*
X0037910Y0050250D02*
X0037409Y0050250D01*
X0037159Y0050500D01*
X0037159Y0051751D01*
X0036687Y0051501D02*
X0036436Y0051751D01*
X0035936Y0051751D01*
X0035686Y0051501D01*
X0035213Y0051501D02*
X0034963Y0051751D01*
X0034463Y0051751D01*
X0034213Y0051501D01*
X0034213Y0050500D01*
X0034463Y0050250D01*
X0034963Y0050250D01*
X0035213Y0050500D01*
X0035686Y0050500D02*
X0035936Y0050250D01*
X0036436Y0050250D01*
X0036687Y0050500D01*
X0036436Y0051001D02*
X0036687Y0051251D01*
X0036687Y0051501D01*
X0036436Y0051001D02*
X0035936Y0051001D01*
X0035686Y0050750D01*
X0035686Y0050500D01*
X0036186Y0050000D02*
X0036186Y0052001D01*
X0035213Y0051501D02*
X0035213Y0051251D01*
X0034963Y0051001D01*
X0034213Y0051001D01*
X0034187Y0052750D02*
X0034187Y0054251D01*
X0033436Y0054251D01*
X0033186Y0054001D01*
X0033186Y0053501D01*
X0033436Y0053250D01*
X0034187Y0053250D01*
X0033686Y0053250D02*
X0033186Y0052750D01*
X0033436Y0048751D02*
X0033936Y0048751D01*
X0034187Y0048501D01*
X0034187Y0047500D01*
X0033936Y0047250D01*
X0033436Y0047250D01*
X0033186Y0047500D01*
X0033186Y0048001D01*
X0033686Y0048001D01*
X0033186Y0048501D02*
X0033436Y0048751D01*
X0037910Y0050250D02*
X0038160Y0050500D01*
X0038160Y0051751D01*
X0038436Y0067250D02*
X0039187Y0067250D01*
X0039187Y0068751D01*
X0038436Y0068751D01*
X0038186Y0068501D01*
X0038186Y0068251D01*
X0038436Y0068001D01*
X0039187Y0068001D01*
X0038436Y0068001D02*
X0038186Y0067750D01*
X0038186Y0067500D01*
X0038436Y0067250D01*
X0037910Y0070250D02*
X0037409Y0070250D01*
X0037159Y0070500D01*
X0037159Y0071751D01*
X0036687Y0071501D02*
X0036436Y0071751D01*
X0035936Y0071751D01*
X0035686Y0071501D01*
X0035213Y0071751D02*
X0035213Y0071001D01*
X0034713Y0071251D01*
X0034463Y0071251D01*
X0034213Y0071001D01*
X0034213Y0070500D01*
X0034463Y0070250D01*
X0034963Y0070250D01*
X0035213Y0070500D01*
X0035686Y0070500D02*
X0035686Y0070750D01*
X0035936Y0071001D01*
X0036436Y0071001D01*
X0036687Y0071251D01*
X0036687Y0071501D01*
X0036186Y0072001D02*
X0036186Y0070000D01*
X0035936Y0070250D02*
X0035686Y0070500D01*
X0035936Y0070250D02*
X0036436Y0070250D01*
X0036687Y0070500D01*
X0037910Y0070250D02*
X0038160Y0070500D01*
X0038160Y0071751D01*
X0035213Y0071751D02*
X0034213Y0071751D01*
X0034187Y0072750D02*
X0034187Y0074251D01*
X0033436Y0074251D01*
X0033186Y0074001D01*
X0033186Y0073501D01*
X0033436Y0073250D01*
X0034187Y0073250D01*
X0033686Y0073250D02*
X0033186Y0072750D01*
X0033436Y0068751D02*
X0033936Y0068751D01*
X0034187Y0068501D01*
X0034187Y0067500D01*
X0033936Y0067250D01*
X0033436Y0067250D01*
X0033186Y0067500D01*
X0033186Y0068001D01*
X0033686Y0068001D01*
X0033186Y0068501D02*
X0033436Y0068751D01*
X0053186Y0068501D02*
X0053436Y0068751D01*
X0053936Y0068751D01*
X0054187Y0068501D01*
X0054187Y0067500D01*
X0053936Y0067250D01*
X0053436Y0067250D01*
X0053186Y0067500D01*
X0053186Y0068001D01*
X0053686Y0068001D01*
X0054463Y0070250D02*
X0054213Y0070500D01*
X0054213Y0070750D01*
X0054463Y0071001D01*
X0055213Y0071001D01*
X0055213Y0070500D01*
X0054963Y0070250D01*
X0054463Y0070250D01*
X0055213Y0071001D02*
X0054713Y0071501D01*
X0054213Y0071751D01*
X0054187Y0072750D02*
X0054187Y0074251D01*
X0053436Y0074251D01*
X0053186Y0074001D01*
X0053186Y0073501D01*
X0053436Y0073250D01*
X0054187Y0073250D01*
X0053686Y0073250D02*
X0053186Y0072750D01*
X0055686Y0071501D02*
X0055936Y0071751D01*
X0056436Y0071751D01*
X0056687Y0071501D01*
X0056687Y0071251D01*
X0056436Y0071001D01*
X0055936Y0071001D01*
X0055686Y0070750D01*
X0055686Y0070500D01*
X0055936Y0070250D01*
X0056436Y0070250D01*
X0056687Y0070500D01*
X0057159Y0070500D02*
X0057159Y0071751D01*
X0058160Y0071751D02*
X0058160Y0070500D01*
X0057910Y0070250D01*
X0057409Y0070250D01*
X0057159Y0070500D01*
X0056186Y0070000D02*
X0056186Y0072001D01*
X0058436Y0068751D02*
X0058186Y0068501D01*
X0058186Y0068251D01*
X0058436Y0068001D01*
X0059187Y0068001D01*
X0059187Y0068751D02*
X0059187Y0067250D01*
X0058436Y0067250D01*
X0058186Y0067500D01*
X0058186Y0067750D01*
X0058436Y0068001D01*
X0058436Y0068751D02*
X0059187Y0068751D01*
X0073186Y0068501D02*
X0073436Y0068751D01*
X0073936Y0068751D01*
X0074187Y0068501D01*
X0074187Y0067500D01*
X0073936Y0067250D01*
X0073436Y0067250D01*
X0073186Y0067500D01*
X0073186Y0068001D01*
X0073686Y0068001D01*
X0075213Y0070250D02*
X0075213Y0070500D01*
X0074213Y0071501D01*
X0074213Y0071751D01*
X0075213Y0071751D01*
X0075686Y0071501D02*
X0075936Y0071751D01*
X0076436Y0071751D01*
X0076687Y0071501D01*
X0076687Y0071251D01*
X0076436Y0071001D01*
X0075936Y0071001D01*
X0075686Y0070750D01*
X0075686Y0070500D01*
X0075936Y0070250D01*
X0076436Y0070250D01*
X0076687Y0070500D01*
X0077159Y0070500D02*
X0077159Y0071751D01*
X0078160Y0071751D02*
X0078160Y0070500D01*
X0077910Y0070250D01*
X0077409Y0070250D01*
X0077159Y0070500D01*
X0076186Y0070000D02*
X0076186Y0072001D01*
X0074187Y0072750D02*
X0074187Y0074251D01*
X0073436Y0074251D01*
X0073186Y0074001D01*
X0073186Y0073501D01*
X0073436Y0073250D01*
X0074187Y0073250D01*
X0073686Y0073250D02*
X0073186Y0072750D01*
X0078186Y0068501D02*
X0078186Y0068251D01*
X0078436Y0068001D01*
X0079187Y0068001D01*
X0079187Y0068751D02*
X0079187Y0067250D01*
X0078436Y0067250D01*
X0078186Y0067500D01*
X0078186Y0067750D01*
X0078436Y0068001D01*
X0078186Y0068501D02*
X0078436Y0068751D01*
X0079187Y0068751D01*
X0093186Y0068501D02*
X0093436Y0068751D01*
X0093936Y0068751D01*
X0094187Y0068501D01*
X0094187Y0067500D01*
X0093936Y0067250D01*
X0093436Y0067250D01*
X0093186Y0067500D01*
X0093186Y0068001D01*
X0093686Y0068001D01*
X0094463Y0070250D02*
X0094963Y0070250D01*
X0095213Y0070500D01*
X0095213Y0070750D01*
X0094963Y0071001D01*
X0094463Y0071001D01*
X0094213Y0070750D01*
X0094213Y0070500D01*
X0094463Y0070250D01*
X0094463Y0071001D02*
X0094213Y0071251D01*
X0094213Y0071501D01*
X0094463Y0071751D01*
X0094963Y0071751D01*
X0095213Y0071501D01*
X0095213Y0071251D01*
X0094963Y0071001D01*
X0095686Y0070750D02*
X0095686Y0070500D01*
X0095936Y0070250D01*
X0096436Y0070250D01*
X0096687Y0070500D01*
X0097159Y0070500D02*
X0097159Y0071751D01*
X0096687Y0071501D02*
X0096436Y0071751D01*
X0095936Y0071751D01*
X0095686Y0071501D01*
X0095936Y0071001D02*
X0096436Y0071001D01*
X0096687Y0071251D01*
X0096687Y0071501D01*
X0096186Y0072001D02*
X0096186Y0070000D01*
X0095686Y0070750D02*
X0095936Y0071001D01*
X0097159Y0070500D02*
X0097409Y0070250D01*
X0097910Y0070250D01*
X0098160Y0070500D01*
X0098160Y0071751D01*
X0098436Y0068751D02*
X0098186Y0068501D01*
X0098186Y0068251D01*
X0098436Y0068001D01*
X0099187Y0068001D01*
X0099187Y0068751D02*
X0099187Y0067250D01*
X0098436Y0067250D01*
X0098186Y0067500D01*
X0098186Y0067750D01*
X0098436Y0068001D01*
X0098436Y0068751D02*
X0099187Y0068751D01*
X0094187Y0072750D02*
X0094187Y0074251D01*
X0093436Y0074251D01*
X0093186Y0074001D01*
X0093186Y0073501D01*
X0093436Y0073250D01*
X0094187Y0073250D01*
X0093686Y0073250D02*
X0093186Y0072750D01*
X0093436Y0087250D02*
X0093186Y0087500D01*
X0093186Y0088001D01*
X0093686Y0088001D01*
X0093186Y0088501D02*
X0093436Y0088751D01*
X0093936Y0088751D01*
X0094187Y0088501D01*
X0094187Y0087500D01*
X0093936Y0087250D01*
X0093436Y0087250D01*
X0094463Y0090250D02*
X0094463Y0091751D01*
X0095213Y0091001D01*
X0094213Y0091001D01*
X0095686Y0090750D02*
X0095686Y0090500D01*
X0095936Y0090250D01*
X0096436Y0090250D01*
X0096687Y0090500D01*
X0097159Y0090500D02*
X0097159Y0091751D01*
X0096687Y0091501D02*
X0096436Y0091751D01*
X0095936Y0091751D01*
X0095686Y0091501D01*
X0095936Y0091001D02*
X0096436Y0091001D01*
X0096687Y0091251D01*
X0096687Y0091501D01*
X0096186Y0092001D02*
X0096186Y0090000D01*
X0095686Y0090750D02*
X0095936Y0091001D01*
X0097159Y0090500D02*
X0097409Y0090250D01*
X0097910Y0090250D01*
X0098160Y0090500D01*
X0098160Y0091751D01*
X0098436Y0088751D02*
X0098186Y0088501D01*
X0098186Y0088251D01*
X0098436Y0088001D01*
X0099187Y0088001D01*
X0099187Y0088751D02*
X0099187Y0087250D01*
X0098436Y0087250D01*
X0098186Y0087500D01*
X0098186Y0087750D01*
X0098436Y0088001D01*
X0098436Y0088751D02*
X0099187Y0088751D01*
X0094187Y0092750D02*
X0094187Y0094251D01*
X0093436Y0094251D01*
X0093186Y0094001D01*
X0093186Y0093501D01*
X0093436Y0093250D01*
X0094187Y0093250D01*
X0093686Y0093250D02*
X0093186Y0092750D01*
X0079187Y0088751D02*
X0079187Y0087250D01*
X0078436Y0087250D01*
X0078186Y0087500D01*
X0078186Y0087750D01*
X0078436Y0088001D01*
X0079187Y0088001D01*
X0079187Y0088751D02*
X0078436Y0088751D01*
X0078186Y0088501D01*
X0078186Y0088251D01*
X0078436Y0088001D01*
X0077910Y0090250D02*
X0077409Y0090250D01*
X0077159Y0090500D01*
X0077159Y0091751D01*
X0076687Y0091501D02*
X0076436Y0091751D01*
X0075936Y0091751D01*
X0075686Y0091501D01*
X0075213Y0091501D02*
X0074963Y0091751D01*
X0074463Y0091751D01*
X0074213Y0091501D01*
X0074213Y0091251D01*
X0074463Y0091001D01*
X0074213Y0090750D01*
X0074213Y0090500D01*
X0074463Y0090250D01*
X0074963Y0090250D01*
X0075213Y0090500D01*
X0075686Y0090500D02*
X0075686Y0090750D01*
X0075936Y0091001D01*
X0076436Y0091001D01*
X0076687Y0091251D01*
X0076687Y0091501D01*
X0076186Y0092001D02*
X0076186Y0090000D01*
X0075936Y0090250D02*
X0075686Y0090500D01*
X0075936Y0090250D02*
X0076436Y0090250D01*
X0076687Y0090500D01*
X0077910Y0090250D02*
X0078160Y0090500D01*
X0078160Y0091751D01*
X0074713Y0091001D02*
X0074463Y0091001D01*
X0074187Y0092750D02*
X0074187Y0094251D01*
X0073436Y0094251D01*
X0073186Y0094001D01*
X0073186Y0093501D01*
X0073436Y0093250D01*
X0074187Y0093250D01*
X0073686Y0093250D02*
X0073186Y0092750D01*
X0073436Y0088751D02*
X0073186Y0088501D01*
X0073436Y0088751D02*
X0073936Y0088751D01*
X0074187Y0088501D01*
X0074187Y0087500D01*
X0073936Y0087250D01*
X0073436Y0087250D01*
X0073186Y0087500D01*
X0073186Y0088001D01*
X0073686Y0088001D01*
X0059187Y0088001D02*
X0058436Y0088001D01*
X0058186Y0087750D01*
X0058186Y0087500D01*
X0058436Y0087250D01*
X0059187Y0087250D01*
X0059187Y0088751D01*
X0058436Y0088751D01*
X0058186Y0088501D01*
X0058186Y0088251D01*
X0058436Y0088001D01*
X0057910Y0090250D02*
X0057409Y0090250D01*
X0057159Y0090500D01*
X0057159Y0091751D01*
X0056687Y0091501D02*
X0056436Y0091751D01*
X0055936Y0091751D01*
X0055686Y0091501D01*
X0055213Y0091501D02*
X0054963Y0091751D01*
X0054463Y0091751D01*
X0054213Y0091501D01*
X0054213Y0091251D01*
X0055213Y0090250D01*
X0054213Y0090250D01*
X0055686Y0090500D02*
X0055686Y0090750D01*
X0055936Y0091001D01*
X0056436Y0091001D01*
X0056687Y0091251D01*
X0056687Y0091501D01*
X0056186Y0092001D02*
X0056186Y0090000D01*
X0055936Y0090250D02*
X0055686Y0090500D01*
X0055936Y0090250D02*
X0056436Y0090250D01*
X0056687Y0090500D01*
X0057910Y0090250D02*
X0058160Y0090500D01*
X0058160Y0091751D01*
X0054187Y0092750D02*
X0054187Y0094251D01*
X0053436Y0094251D01*
X0053186Y0094001D01*
X0053186Y0093501D01*
X0053436Y0093250D01*
X0054187Y0093250D01*
X0053686Y0093250D02*
X0053186Y0092750D01*
X0053436Y0088751D02*
X0053936Y0088751D01*
X0054187Y0088501D01*
X0054187Y0087500D01*
X0053936Y0087250D01*
X0053436Y0087250D01*
X0053186Y0087500D01*
X0053186Y0088001D01*
X0053686Y0088001D01*
X0053186Y0088501D02*
X0053436Y0088751D01*
X0039187Y0088751D02*
X0039187Y0087250D01*
X0038436Y0087250D01*
X0038186Y0087500D01*
X0038186Y0087750D01*
X0038436Y0088001D01*
X0039187Y0088001D01*
X0039187Y0088751D02*
X0038436Y0088751D01*
X0038186Y0088501D01*
X0038186Y0088251D01*
X0038436Y0088001D01*
X0037910Y0090250D02*
X0037409Y0090250D01*
X0037159Y0090500D01*
X0037159Y0091751D01*
X0036687Y0091501D02*
X0036436Y0091751D01*
X0035936Y0091751D01*
X0035686Y0091501D01*
X0035213Y0091251D02*
X0034713Y0091751D01*
X0034713Y0090250D01*
X0035213Y0090250D02*
X0034213Y0090250D01*
X0035686Y0090500D02*
X0035686Y0090750D01*
X0035936Y0091001D01*
X0036436Y0091001D01*
X0036687Y0091251D01*
X0036687Y0091501D01*
X0036186Y0092001D02*
X0036186Y0090000D01*
X0035936Y0090250D02*
X0035686Y0090500D01*
X0035936Y0090250D02*
X0036436Y0090250D01*
X0036687Y0090500D01*
X0037910Y0090250D02*
X0038160Y0090500D01*
X0038160Y0091751D01*
X0034187Y0092750D02*
X0034187Y0094251D01*
X0033436Y0094251D01*
X0033186Y0094001D01*
X0033186Y0093501D01*
X0033436Y0093250D01*
X0034187Y0093250D01*
X0033686Y0093250D02*
X0033186Y0092750D01*
X0033436Y0088751D02*
X0033936Y0088751D01*
X0034187Y0088501D01*
X0034187Y0087500D01*
X0033936Y0087250D01*
X0033436Y0087250D01*
X0033186Y0087500D01*
X0033186Y0088001D01*
X0033686Y0088001D01*
X0033186Y0088501D02*
X0033436Y0088751D01*
D13*
X0038500Y0094000D03*
X0058500Y0094000D03*
X0078500Y0094000D03*
X0098500Y0094000D03*
X0098500Y0074000D03*
X0078500Y0074000D03*
X0058500Y0074000D03*
X0038500Y0074000D03*
X0038500Y0054000D03*
X0058500Y0054000D03*
X0078500Y0054000D03*
X0098500Y0054000D03*
X0098500Y0034000D03*
X0078500Y0034000D03*
X0058500Y0034000D03*
X0038500Y0034000D03*
M02*
