<?xml version="1.0" standalone="no"?>
<!DOCTYPE svg PUBLIC "-//W3C//DTD SVG 1.1//EN" "http://www.w3.org/Graphics/SVG/1.1/DTD/svg11.dtd">
<svg width="25" height="25" viewBox="-5 -20 25 25" xmlns="http://www.w3.org/2000/svg" version="1.1">
<title>OpenSCAD Model</title>
<path d="
M 19.5,-19.5 L -4.5,-19.5 L -4.5,4.5 L 19.5,4.5 z
M 13.255,-14.115 L 13.255,-15.885 L 16.745,-15.885 L 16.745,-14.115 z
M 8.25499,-14.115 L 8.25499,-15.885 L 11.745,-15.885 L 11.745,-14.115 z
M 3.25499,-14.115 L 3.25499,-15.885 L 6.745,-15.885 L 6.745,-14.115 z
M -1.745,-14.115 L -1.745,-15.885 L 1.745,-15.885 L 1.745,-14.115 z
M -1.38499,-9.11499 L -1.38499,-10.885 L 1.38499,-10.885 L 1.38499,-9.11499 z
M 8.61499,-9.11499 L 8.61499,-10.885 L 11.385,-10.885 L 11.385,-9.11499 z
M 3.61499,-9.11499 L 3.61499,-10.885 L 6.38499,-10.885 L 6.38499,-9.11499 z
M 13.615,-9.11499 L 13.615,-10.885 L 16.385,-10.885 L 16.385,-9.11499 z
M -1.745,-4.11499 L -1.745,-5.88499 L 1.745,-5.88499 L 1.745,-4.11499 z
M 3.25499,-4.11499 L 3.25499,-5.88499 L 6.745,-5.88499 L 6.745,-4.11499 z
M 8.25499,-4.11499 L 8.25499,-5.88499 L 11.745,-5.88499 L 11.745,-4.11499 z
M 13.255,-4.11499 L 13.255,-5.88499 L 16.745,-5.88499 L 16.745,-4.11499 z
M 13.615,0.884995 L 13.615,-0.884995 L 16.385,-0.884995 L 16.385,0.884995 z
M 3.61499,0.884995 L 3.61499,-0.884995 L 6.38499,-0.884995 L 6.38499,0.884995 z
M -1.38499,0.884995 L -1.38499,-0.884995 L 1.38499,-0.884995 L 1.38499,0.884995 z
M 8.61499,0.884995 L 8.61499,-0.884995 L 11.385,-0.884995 L 11.385,0.884995 z
" stroke="black" fill="lightgray" stroke-width="0.5"/></svg>
