G75*
%MOIN*%
%OFA0B0*%
%FSLAX25Y25*%
%IPPOS*%
%LPD*%
%AMOC8*
5,1,8,0,0,1.08239X$1,22.5*
%
%ADD10C,0.00600*%
%ADD11R,0.05000X0.01000*%
%ADD12R,0.01000X0.05000*%
%ADD13C,0.00100*%
%ADD14C,0.01000*%
%ADD15C,0.00500*%
D10*
X0070652Y0044868D02*
X0071720Y0043800D01*
X0073855Y0043800D01*
X0074923Y0044868D01*
X0074923Y0049138D01*
X0073855Y0050205D01*
X0071720Y0050205D01*
X0070652Y0049138D01*
X0054923Y0128800D02*
X0051720Y0128800D01*
X0050652Y0129868D01*
X0050652Y0130935D01*
X0051720Y0132003D01*
X0054923Y0132003D01*
X0054923Y0135205D02*
X0054923Y0128800D01*
X0051720Y0132003D02*
X0050652Y0133070D01*
X0050652Y0134138D01*
X0051720Y0135205D01*
X0054923Y0135205D01*
X0034923Y0133070D02*
X0034923Y0128800D01*
X0034923Y0132003D02*
X0030652Y0132003D01*
X0030652Y0133070D02*
X0030652Y0128800D01*
X0030652Y0133070D02*
X0032788Y0135205D01*
X0034923Y0133070D01*
D11*
X0042000Y0137000D03*
X0042000Y0127000D03*
X0042000Y0117000D03*
X0042000Y0107000D03*
X0042000Y0097000D03*
X0042000Y0082000D03*
X0042000Y0072000D03*
X0042000Y0062000D03*
X0042000Y0052000D03*
X0042000Y0042000D03*
X0042000Y0032000D03*
X0042000Y0022000D03*
X0042000Y0012000D03*
X0022000Y0012000D03*
X0022000Y0022000D03*
X0022000Y0032000D03*
X0022000Y0042000D03*
X0022000Y0052000D03*
X0022000Y0062000D03*
X0022000Y0072000D03*
X0022000Y0082000D03*
X0022000Y0097000D03*
X0022000Y0107000D03*
X0022000Y0117000D03*
X0022000Y0127000D03*
X0022000Y0137000D03*
X0022000Y0147000D03*
X0022000Y0157000D03*
X0022000Y0167000D03*
X0042000Y0167000D03*
X0042000Y0157000D03*
X0042000Y0147000D03*
X0062000Y0147000D03*
X0062000Y0137000D03*
X0062000Y0127000D03*
X0062000Y0117000D03*
X0062000Y0107000D03*
X0062000Y0097000D03*
X0062000Y0082000D03*
X0062000Y0072000D03*
X0062000Y0062000D03*
X0062000Y0052000D03*
X0062000Y0042000D03*
X0062000Y0032000D03*
X0062000Y0022000D03*
X0062000Y0012000D03*
X0082000Y0012000D03*
X0082000Y0022000D03*
X0082000Y0032000D03*
X0082000Y0042000D03*
X0082000Y0052000D03*
X0082000Y0062000D03*
X0082000Y0072000D03*
X0082000Y0082000D03*
X0082000Y0097000D03*
X0082000Y0107000D03*
X0082000Y0117000D03*
X0082000Y0127000D03*
X0082000Y0137000D03*
X0082000Y0147000D03*
X0082000Y0157000D03*
X0082000Y0167000D03*
X0062000Y0167000D03*
X0062000Y0157000D03*
D12*
X0017000Y0017000D03*
X0027000Y0017000D03*
X0037000Y0017000D03*
X0047000Y0017000D03*
X0057000Y0017000D03*
X0067000Y0017000D03*
X0077000Y0017000D03*
X0087000Y0017000D03*
X0087000Y0037000D03*
X0077000Y0037000D03*
X0067000Y0037000D03*
X0057000Y0037000D03*
X0047000Y0037000D03*
X0037000Y0037000D03*
X0027000Y0037000D03*
X0017000Y0037000D03*
X0017000Y0057000D03*
X0027000Y0057000D03*
X0037000Y0057000D03*
X0047000Y0057000D03*
X0057000Y0057000D03*
X0067000Y0057000D03*
X0077000Y0057000D03*
X0087000Y0057000D03*
X0087000Y0077000D03*
X0077000Y0077000D03*
X0067000Y0077000D03*
X0057000Y0077000D03*
X0047000Y0077000D03*
X0037000Y0077000D03*
X0027000Y0077000D03*
X0017000Y0077000D03*
X0017000Y0102000D03*
X0027000Y0102000D03*
X0037000Y0102000D03*
X0047000Y0102000D03*
X0057000Y0102000D03*
X0067000Y0102000D03*
X0077000Y0102000D03*
X0087000Y0102000D03*
X0087000Y0122000D03*
X0077000Y0122000D03*
X0067000Y0122000D03*
X0057000Y0122000D03*
X0047000Y0122000D03*
X0037000Y0122000D03*
X0027000Y0122000D03*
X0017000Y0122000D03*
X0017000Y0142000D03*
X0027000Y0142000D03*
X0037000Y0142000D03*
X0047000Y0142000D03*
X0057000Y0142000D03*
X0067000Y0142000D03*
X0077000Y0142000D03*
X0087000Y0142000D03*
X0087000Y0162000D03*
X0077000Y0162000D03*
X0067000Y0162000D03*
X0057000Y0162000D03*
X0047000Y0162000D03*
X0037000Y0162000D03*
X0027000Y0162000D03*
X0017000Y0162000D03*
D13*
X0019476Y0162001D02*
X0019476Y0161500D01*
X0019726Y0161250D01*
X0020227Y0161250D01*
X0020477Y0161500D01*
X0020949Y0161500D02*
X0021199Y0161250D01*
X0021700Y0161250D01*
X0021950Y0161500D01*
X0022422Y0161500D02*
X0022422Y0161750D01*
X0022673Y0162001D01*
X0023173Y0162001D01*
X0023423Y0162251D01*
X0023423Y0162501D01*
X0023173Y0162751D01*
X0022673Y0162751D01*
X0022422Y0162501D01*
X0021950Y0162501D02*
X0021700Y0162751D01*
X0021199Y0162751D01*
X0020949Y0162501D01*
X0020949Y0162251D01*
X0021199Y0162001D01*
X0020949Y0161750D01*
X0020949Y0161500D01*
X0021199Y0162001D02*
X0021450Y0162001D01*
X0020477Y0162001D02*
X0019976Y0162251D01*
X0019726Y0162251D01*
X0019476Y0162001D01*
X0019476Y0162751D02*
X0020477Y0162751D01*
X0020477Y0162001D01*
X0020187Y0163750D02*
X0020187Y0165251D01*
X0019436Y0165251D01*
X0019186Y0165001D01*
X0019186Y0164501D01*
X0019436Y0164250D01*
X0020187Y0164250D01*
X0019686Y0164250D02*
X0019186Y0163750D01*
X0022422Y0161500D02*
X0022673Y0161250D01*
X0023173Y0161250D01*
X0023423Y0161500D01*
X0023896Y0161500D02*
X0023896Y0162751D01*
X0024897Y0162751D02*
X0024897Y0161500D01*
X0024646Y0161250D01*
X0024146Y0161250D01*
X0023896Y0161500D01*
X0022923Y0161000D02*
X0022923Y0163001D01*
X0024436Y0159751D02*
X0024186Y0159501D01*
X0024186Y0159251D01*
X0024436Y0159001D01*
X0025187Y0159001D01*
X0025187Y0159751D02*
X0024436Y0159751D01*
X0024436Y0159001D02*
X0024186Y0158750D01*
X0024186Y0158500D01*
X0024436Y0158250D01*
X0025187Y0158250D01*
X0025187Y0159751D01*
X0020187Y0159501D02*
X0020187Y0158500D01*
X0019936Y0158250D01*
X0019436Y0158250D01*
X0019186Y0158500D01*
X0019186Y0159001D01*
X0019686Y0159001D01*
X0019186Y0159501D02*
X0019436Y0159751D01*
X0019936Y0159751D01*
X0020187Y0159501D01*
X0020187Y0145251D02*
X0019436Y0145251D01*
X0019186Y0145001D01*
X0019186Y0144501D01*
X0019436Y0144250D01*
X0020187Y0144250D01*
X0020187Y0143750D02*
X0020187Y0145251D01*
X0019686Y0144250D02*
X0019186Y0143750D01*
X0019726Y0142751D02*
X0020227Y0142751D01*
X0020477Y0142501D01*
X0020477Y0142251D01*
X0020227Y0142001D01*
X0019476Y0142001D01*
X0019476Y0142501D02*
X0019726Y0142751D01*
X0019476Y0142501D02*
X0019476Y0141500D01*
X0019726Y0141250D01*
X0020227Y0141250D01*
X0020477Y0141500D01*
X0020949Y0141500D02*
X0021199Y0141250D01*
X0021700Y0141250D01*
X0021950Y0141500D01*
X0022422Y0141500D02*
X0022422Y0141750D01*
X0022673Y0142001D01*
X0023173Y0142001D01*
X0023423Y0142251D01*
X0023423Y0142501D01*
X0023173Y0142751D01*
X0022673Y0142751D01*
X0022422Y0142501D01*
X0021950Y0142501D02*
X0021700Y0142751D01*
X0021199Y0142751D01*
X0020949Y0142501D01*
X0020949Y0142251D01*
X0021199Y0142001D01*
X0020949Y0141750D01*
X0020949Y0141500D01*
X0021199Y0142001D02*
X0021450Y0142001D01*
X0022422Y0141500D02*
X0022673Y0141250D01*
X0023173Y0141250D01*
X0023423Y0141500D01*
X0023896Y0141500D02*
X0023896Y0142751D01*
X0024897Y0142751D02*
X0024897Y0141500D01*
X0024646Y0141250D01*
X0024146Y0141250D01*
X0023896Y0141500D01*
X0022923Y0141000D02*
X0022923Y0143001D01*
X0024436Y0139751D02*
X0024186Y0139501D01*
X0024186Y0139251D01*
X0024436Y0139001D01*
X0025187Y0139001D01*
X0025187Y0139751D02*
X0025187Y0138250D01*
X0024436Y0138250D01*
X0024186Y0138500D01*
X0024186Y0138750D01*
X0024436Y0139001D01*
X0024436Y0139751D02*
X0025187Y0139751D01*
X0020187Y0139501D02*
X0020187Y0138500D01*
X0019936Y0138250D01*
X0019436Y0138250D01*
X0019186Y0138500D01*
X0019186Y0139001D01*
X0019686Y0139001D01*
X0019186Y0139501D02*
X0019436Y0139751D01*
X0019936Y0139751D01*
X0020187Y0139501D01*
X0020187Y0125251D02*
X0019436Y0125251D01*
X0019186Y0125001D01*
X0019186Y0124501D01*
X0019436Y0124250D01*
X0020187Y0124250D01*
X0020187Y0123750D02*
X0020187Y0125251D01*
X0019686Y0124250D02*
X0019186Y0123750D01*
X0019726Y0122751D02*
X0019476Y0122501D01*
X0019476Y0122251D01*
X0019726Y0122001D01*
X0019476Y0121750D01*
X0019476Y0121500D01*
X0019726Y0121250D01*
X0020227Y0121250D01*
X0020477Y0121500D01*
X0020949Y0122001D02*
X0021950Y0122001D01*
X0021199Y0122751D01*
X0021199Y0121250D01*
X0022422Y0121500D02*
X0022422Y0121750D01*
X0022673Y0122001D01*
X0023173Y0122001D01*
X0023423Y0122251D01*
X0023423Y0122501D01*
X0023173Y0122751D01*
X0022673Y0122751D01*
X0022422Y0122501D01*
X0022923Y0123001D02*
X0022923Y0121000D01*
X0023173Y0121250D02*
X0022673Y0121250D01*
X0022422Y0121500D01*
X0023173Y0121250D02*
X0023423Y0121500D01*
X0023896Y0121500D02*
X0023896Y0122751D01*
X0024897Y0122751D02*
X0024897Y0121500D01*
X0024646Y0121250D01*
X0024146Y0121250D01*
X0023896Y0121500D01*
X0024436Y0119751D02*
X0024186Y0119501D01*
X0024186Y0119251D01*
X0024436Y0119001D01*
X0025187Y0119001D01*
X0025187Y0119751D02*
X0024436Y0119751D01*
X0024436Y0119001D02*
X0024186Y0118750D01*
X0024186Y0118500D01*
X0024436Y0118250D01*
X0025187Y0118250D01*
X0025187Y0119751D01*
X0020187Y0119501D02*
X0020187Y0118500D01*
X0019936Y0118250D01*
X0019436Y0118250D01*
X0019186Y0118500D01*
X0019186Y0119001D01*
X0019686Y0119001D01*
X0019186Y0119501D02*
X0019436Y0119751D01*
X0019936Y0119751D01*
X0020187Y0119501D01*
X0019976Y0122001D02*
X0019726Y0122001D01*
X0019726Y0122751D02*
X0020227Y0122751D01*
X0020477Y0122501D01*
X0020187Y0105251D02*
X0019436Y0105251D01*
X0019186Y0105001D01*
X0019186Y0104501D01*
X0019436Y0104250D01*
X0020187Y0104250D01*
X0020187Y0103750D02*
X0020187Y0105251D01*
X0019686Y0104250D02*
X0019186Y0103750D01*
X0019476Y0102751D02*
X0019476Y0102501D01*
X0020477Y0101500D01*
X0020477Y0101250D01*
X0021199Y0101250D02*
X0021199Y0102751D01*
X0021950Y0102001D01*
X0020949Y0102001D01*
X0020477Y0102751D02*
X0019476Y0102751D01*
X0019436Y0099751D02*
X0019936Y0099751D01*
X0020187Y0099501D01*
X0020187Y0098500D01*
X0019936Y0098250D01*
X0019436Y0098250D01*
X0019186Y0098500D01*
X0019186Y0099001D01*
X0019686Y0099001D01*
X0019186Y0099501D02*
X0019436Y0099751D01*
X0022422Y0101500D02*
X0022422Y0101750D01*
X0022673Y0102001D01*
X0023173Y0102001D01*
X0023423Y0102251D01*
X0023423Y0102501D01*
X0023173Y0102751D01*
X0022673Y0102751D01*
X0022422Y0102501D01*
X0022923Y0103001D02*
X0022923Y0101000D01*
X0023173Y0101250D02*
X0022673Y0101250D01*
X0022422Y0101500D01*
X0023173Y0101250D02*
X0023423Y0101500D01*
X0023896Y0101500D02*
X0023896Y0102751D01*
X0024897Y0102751D02*
X0024897Y0101500D01*
X0024646Y0101250D01*
X0024146Y0101250D01*
X0023896Y0101500D01*
X0024436Y0099751D02*
X0024186Y0099501D01*
X0024186Y0099251D01*
X0024436Y0099001D01*
X0025187Y0099001D01*
X0025187Y0099751D02*
X0025187Y0098250D01*
X0024436Y0098250D01*
X0024186Y0098500D01*
X0024186Y0098750D01*
X0024436Y0099001D01*
X0024436Y0099751D02*
X0025187Y0099751D01*
X0020187Y0080251D02*
X0019436Y0080251D01*
X0019186Y0080001D01*
X0019186Y0079501D01*
X0019436Y0079250D01*
X0020187Y0079250D01*
X0020187Y0078750D02*
X0020187Y0080251D01*
X0019686Y0079250D02*
X0019186Y0078750D01*
X0020713Y0077751D02*
X0020713Y0076250D01*
X0021213Y0076250D02*
X0020213Y0076250D01*
X0021213Y0077251D02*
X0020713Y0077751D01*
X0021686Y0077501D02*
X0021936Y0077751D01*
X0022436Y0077751D01*
X0022687Y0077501D01*
X0022687Y0077251D01*
X0022436Y0077001D01*
X0021936Y0077001D01*
X0021686Y0076750D01*
X0021686Y0076500D01*
X0021936Y0076250D01*
X0022436Y0076250D01*
X0022687Y0076500D01*
X0023159Y0076500D02*
X0023159Y0077751D01*
X0024160Y0077751D02*
X0024160Y0076500D01*
X0023910Y0076250D01*
X0023409Y0076250D01*
X0023159Y0076500D01*
X0022186Y0076000D02*
X0022186Y0078001D01*
X0019936Y0074751D02*
X0020187Y0074501D01*
X0020187Y0073500D01*
X0019936Y0073250D01*
X0019436Y0073250D01*
X0019186Y0073500D01*
X0019186Y0074001D01*
X0019686Y0074001D01*
X0019186Y0074501D02*
X0019436Y0074751D01*
X0019936Y0074751D01*
X0024186Y0074501D02*
X0024186Y0074251D01*
X0024436Y0074001D01*
X0025187Y0074001D01*
X0025187Y0074751D02*
X0024436Y0074751D01*
X0024186Y0074501D01*
X0024436Y0074001D02*
X0024186Y0073750D01*
X0024186Y0073500D01*
X0024436Y0073250D01*
X0025187Y0073250D01*
X0025187Y0074751D01*
X0020187Y0060251D02*
X0019436Y0060251D01*
X0019186Y0060001D01*
X0019186Y0059501D01*
X0019436Y0059250D01*
X0020187Y0059250D01*
X0020187Y0058750D02*
X0020187Y0060251D01*
X0019686Y0059250D02*
X0019186Y0058750D01*
X0020213Y0057751D02*
X0021213Y0057751D01*
X0021213Y0057001D01*
X0020713Y0057251D01*
X0020463Y0057251D01*
X0020213Y0057001D01*
X0020213Y0056500D01*
X0020463Y0056250D01*
X0020963Y0056250D01*
X0021213Y0056500D01*
X0021686Y0056500D02*
X0021686Y0056750D01*
X0021936Y0057001D01*
X0022436Y0057001D01*
X0022687Y0057251D01*
X0022687Y0057501D01*
X0022436Y0057751D01*
X0021936Y0057751D01*
X0021686Y0057501D01*
X0022186Y0058001D02*
X0022186Y0056000D01*
X0021936Y0056250D02*
X0021686Y0056500D01*
X0021936Y0056250D02*
X0022436Y0056250D01*
X0022687Y0056500D01*
X0023159Y0056500D02*
X0023159Y0057751D01*
X0024160Y0057751D02*
X0024160Y0056500D01*
X0023910Y0056250D01*
X0023409Y0056250D01*
X0023159Y0056500D01*
X0024436Y0054751D02*
X0024186Y0054501D01*
X0024186Y0054251D01*
X0024436Y0054001D01*
X0025187Y0054001D01*
X0025187Y0054751D02*
X0024436Y0054751D01*
X0024436Y0054001D02*
X0024186Y0053750D01*
X0024186Y0053500D01*
X0024436Y0053250D01*
X0025187Y0053250D01*
X0025187Y0054751D01*
X0020187Y0054501D02*
X0020187Y0053500D01*
X0019936Y0053250D01*
X0019436Y0053250D01*
X0019186Y0053500D01*
X0019186Y0054001D01*
X0019686Y0054001D01*
X0019186Y0054501D02*
X0019436Y0054751D01*
X0019936Y0054751D01*
X0020187Y0054501D01*
X0020187Y0040251D02*
X0019436Y0040251D01*
X0019186Y0040001D01*
X0019186Y0039501D01*
X0019436Y0039250D01*
X0020187Y0039250D01*
X0020187Y0038750D02*
X0020187Y0040251D01*
X0019686Y0039250D02*
X0019186Y0038750D01*
X0020213Y0037501D02*
X0020463Y0037751D01*
X0020963Y0037751D01*
X0021213Y0037501D01*
X0021213Y0037251D01*
X0020963Y0037001D01*
X0020213Y0037001D01*
X0020213Y0037501D02*
X0020213Y0036500D01*
X0020463Y0036250D01*
X0020963Y0036250D01*
X0021213Y0036500D01*
X0021686Y0036500D02*
X0021686Y0036750D01*
X0021936Y0037001D01*
X0022436Y0037001D01*
X0022687Y0037251D01*
X0022687Y0037501D01*
X0022436Y0037751D01*
X0021936Y0037751D01*
X0021686Y0037501D01*
X0022186Y0038001D02*
X0022186Y0036000D01*
X0021936Y0036250D02*
X0021686Y0036500D01*
X0021936Y0036250D02*
X0022436Y0036250D01*
X0022687Y0036500D01*
X0023159Y0036500D02*
X0023159Y0037751D01*
X0024160Y0037751D02*
X0024160Y0036500D01*
X0023910Y0036250D01*
X0023409Y0036250D01*
X0023159Y0036500D01*
X0024436Y0034751D02*
X0024186Y0034501D01*
X0024186Y0034251D01*
X0024436Y0034001D01*
X0025187Y0034001D01*
X0025187Y0034751D02*
X0024436Y0034751D01*
X0024436Y0034001D02*
X0024186Y0033750D01*
X0024186Y0033500D01*
X0024436Y0033250D01*
X0025187Y0033250D01*
X0025187Y0034751D01*
X0020187Y0034501D02*
X0020187Y0033500D01*
X0019936Y0033250D01*
X0019436Y0033250D01*
X0019186Y0033500D01*
X0019186Y0034001D01*
X0019686Y0034001D01*
X0019186Y0034501D02*
X0019436Y0034751D01*
X0019936Y0034751D01*
X0020187Y0034501D01*
X0020187Y0020251D02*
X0019436Y0020251D01*
X0019186Y0020001D01*
X0019186Y0019501D01*
X0019436Y0019250D01*
X0020187Y0019250D01*
X0020187Y0018750D02*
X0020187Y0020251D01*
X0019686Y0019250D02*
X0019186Y0018750D01*
X0019726Y0017751D02*
X0019476Y0017501D01*
X0019476Y0017251D01*
X0019726Y0017001D01*
X0019476Y0016750D01*
X0019476Y0016500D01*
X0019726Y0016250D01*
X0020227Y0016250D01*
X0020477Y0016500D01*
X0020949Y0016250D02*
X0021950Y0016250D01*
X0021450Y0016250D02*
X0021450Y0017751D01*
X0021950Y0017251D01*
X0022422Y0017501D02*
X0022673Y0017751D01*
X0023173Y0017751D01*
X0023423Y0017501D01*
X0023423Y0017251D01*
X0023173Y0017001D01*
X0022673Y0017001D01*
X0022422Y0016750D01*
X0022422Y0016500D01*
X0022673Y0016250D01*
X0023173Y0016250D01*
X0023423Y0016500D01*
X0023896Y0016500D02*
X0023896Y0017751D01*
X0024897Y0017751D02*
X0024897Y0016500D01*
X0024646Y0016250D01*
X0024146Y0016250D01*
X0023896Y0016500D01*
X0022923Y0016000D02*
X0022923Y0018001D01*
X0024436Y0014751D02*
X0024186Y0014501D01*
X0024186Y0014251D01*
X0024436Y0014001D01*
X0025187Y0014001D01*
X0025187Y0014751D02*
X0024436Y0014751D01*
X0024436Y0014001D02*
X0024186Y0013750D01*
X0024186Y0013500D01*
X0024436Y0013250D01*
X0025187Y0013250D01*
X0025187Y0014751D01*
X0020187Y0014501D02*
X0020187Y0013500D01*
X0019936Y0013250D01*
X0019436Y0013250D01*
X0019186Y0013500D01*
X0019186Y0014001D01*
X0019686Y0014001D01*
X0019186Y0014501D02*
X0019436Y0014751D01*
X0019936Y0014751D01*
X0020187Y0014501D01*
X0019976Y0017001D02*
X0019726Y0017001D01*
X0019726Y0017751D02*
X0020227Y0017751D01*
X0020477Y0017501D01*
X0039186Y0018750D02*
X0039686Y0019250D01*
X0039436Y0019250D02*
X0040187Y0019250D01*
X0040187Y0018750D02*
X0040187Y0020251D01*
X0039436Y0020251D01*
X0039186Y0020001D01*
X0039186Y0019501D01*
X0039436Y0019250D01*
X0039726Y0017751D02*
X0040477Y0017001D01*
X0039476Y0017001D01*
X0039726Y0017751D02*
X0039726Y0016250D01*
X0040949Y0016250D02*
X0041950Y0016250D01*
X0041450Y0016250D02*
X0041450Y0017751D01*
X0041950Y0017251D01*
X0042422Y0017501D02*
X0042673Y0017751D01*
X0043173Y0017751D01*
X0043423Y0017501D01*
X0043423Y0017251D01*
X0043173Y0017001D01*
X0042673Y0017001D01*
X0042422Y0016750D01*
X0042422Y0016500D01*
X0042673Y0016250D01*
X0043173Y0016250D01*
X0043423Y0016500D01*
X0043896Y0016500D02*
X0043896Y0017751D01*
X0044897Y0017751D02*
X0044897Y0016500D01*
X0044646Y0016250D01*
X0044146Y0016250D01*
X0043896Y0016500D01*
X0042923Y0016000D02*
X0042923Y0018001D01*
X0044436Y0014751D02*
X0044186Y0014501D01*
X0044186Y0014251D01*
X0044436Y0014001D01*
X0045187Y0014001D01*
X0045187Y0014751D02*
X0044436Y0014751D01*
X0044436Y0014001D02*
X0044186Y0013750D01*
X0044186Y0013500D01*
X0044436Y0013250D01*
X0045187Y0013250D01*
X0045187Y0014751D01*
X0040187Y0014501D02*
X0040187Y0013500D01*
X0039936Y0013250D01*
X0039436Y0013250D01*
X0039186Y0013500D01*
X0039186Y0014001D01*
X0039686Y0014001D01*
X0039186Y0014501D02*
X0039436Y0014751D01*
X0039936Y0014751D01*
X0040187Y0014501D01*
X0039936Y0033250D02*
X0039436Y0033250D01*
X0039186Y0033500D01*
X0039186Y0034001D01*
X0039686Y0034001D01*
X0039186Y0034501D02*
X0039436Y0034751D01*
X0039936Y0034751D01*
X0040187Y0034501D01*
X0040187Y0033500D01*
X0039936Y0033250D01*
X0039726Y0036250D02*
X0039476Y0036500D01*
X0039476Y0037501D01*
X0040477Y0036500D01*
X0040227Y0036250D01*
X0039726Y0036250D01*
X0040477Y0036500D02*
X0040477Y0037501D01*
X0040227Y0037751D01*
X0039726Y0037751D01*
X0039476Y0037501D01*
X0039186Y0038750D02*
X0039686Y0039250D01*
X0039436Y0039250D02*
X0040187Y0039250D01*
X0040187Y0038750D02*
X0040187Y0040251D01*
X0039436Y0040251D01*
X0039186Y0040001D01*
X0039186Y0039501D01*
X0039436Y0039250D01*
X0041450Y0037751D02*
X0041450Y0036250D01*
X0041950Y0036250D02*
X0040949Y0036250D01*
X0041950Y0037251D02*
X0041450Y0037751D01*
X0042422Y0037501D02*
X0042673Y0037751D01*
X0043173Y0037751D01*
X0043423Y0037501D01*
X0043423Y0037251D01*
X0043173Y0037001D01*
X0042673Y0037001D01*
X0042422Y0036750D01*
X0042422Y0036500D01*
X0042673Y0036250D01*
X0043173Y0036250D01*
X0043423Y0036500D01*
X0043896Y0036500D02*
X0043896Y0037751D01*
X0044897Y0037751D02*
X0044897Y0036500D01*
X0044646Y0036250D01*
X0044146Y0036250D01*
X0043896Y0036500D01*
X0042923Y0036000D02*
X0042923Y0038001D01*
X0044436Y0034751D02*
X0044186Y0034501D01*
X0044186Y0034251D01*
X0044436Y0034001D01*
X0045187Y0034001D01*
X0045187Y0034751D02*
X0044436Y0034751D01*
X0044436Y0034001D02*
X0044186Y0033750D01*
X0044186Y0033500D01*
X0044436Y0033250D01*
X0045187Y0033250D01*
X0045187Y0034751D01*
X0045187Y0053250D02*
X0044436Y0053250D01*
X0044186Y0053500D01*
X0044186Y0053750D01*
X0044436Y0054001D01*
X0045187Y0054001D01*
X0045187Y0054751D02*
X0044436Y0054751D01*
X0044186Y0054501D01*
X0044186Y0054251D01*
X0044436Y0054001D01*
X0045187Y0054751D02*
X0045187Y0053250D01*
X0043910Y0056250D02*
X0043409Y0056250D01*
X0043159Y0056500D01*
X0043159Y0057751D01*
X0042687Y0057501D02*
X0042436Y0057751D01*
X0041936Y0057751D01*
X0041686Y0057501D01*
X0041936Y0057001D02*
X0042436Y0057001D01*
X0042687Y0057251D01*
X0042687Y0057501D01*
X0042186Y0058001D02*
X0042186Y0056000D01*
X0041936Y0056250D02*
X0041686Y0056500D01*
X0041686Y0056750D01*
X0041936Y0057001D01*
X0041213Y0057001D02*
X0040713Y0057501D01*
X0040213Y0057751D01*
X0040463Y0057001D02*
X0041213Y0057001D01*
X0041213Y0056500D01*
X0040963Y0056250D01*
X0040463Y0056250D01*
X0040213Y0056500D01*
X0040213Y0056750D01*
X0040463Y0057001D01*
X0040187Y0058750D02*
X0040187Y0060251D01*
X0039436Y0060251D01*
X0039186Y0060001D01*
X0039186Y0059501D01*
X0039436Y0059250D01*
X0040187Y0059250D01*
X0039686Y0059250D02*
X0039186Y0058750D01*
X0039436Y0054751D02*
X0039936Y0054751D01*
X0040187Y0054501D01*
X0040187Y0053500D01*
X0039936Y0053250D01*
X0039436Y0053250D01*
X0039186Y0053500D01*
X0039186Y0054001D01*
X0039686Y0054001D01*
X0039186Y0054501D02*
X0039436Y0054751D01*
X0041936Y0056250D02*
X0042436Y0056250D01*
X0042687Y0056500D01*
X0043910Y0056250D02*
X0044160Y0056500D01*
X0044160Y0057751D01*
X0044436Y0073250D02*
X0045187Y0073250D01*
X0045187Y0074751D01*
X0044436Y0074751D01*
X0044186Y0074501D01*
X0044186Y0074251D01*
X0044436Y0074001D01*
X0045187Y0074001D01*
X0044436Y0074001D02*
X0044186Y0073750D01*
X0044186Y0073500D01*
X0044436Y0073250D01*
X0043910Y0076250D02*
X0043409Y0076250D01*
X0043159Y0076500D01*
X0043159Y0077751D01*
X0042687Y0077501D02*
X0042436Y0077751D01*
X0041936Y0077751D01*
X0041686Y0077501D01*
X0041213Y0077501D02*
X0040963Y0077751D01*
X0040463Y0077751D01*
X0040213Y0077501D01*
X0040213Y0077251D01*
X0041213Y0076250D01*
X0040213Y0076250D01*
X0039936Y0074751D02*
X0039436Y0074751D01*
X0039186Y0074501D01*
X0039186Y0074001D02*
X0039686Y0074001D01*
X0039186Y0074001D02*
X0039186Y0073500D01*
X0039436Y0073250D01*
X0039936Y0073250D01*
X0040187Y0073500D01*
X0040187Y0074501D01*
X0039936Y0074751D01*
X0041686Y0076500D02*
X0041686Y0076750D01*
X0041936Y0077001D01*
X0042436Y0077001D01*
X0042687Y0077251D01*
X0042687Y0077501D01*
X0042186Y0078001D02*
X0042186Y0076000D01*
X0041936Y0076250D02*
X0041686Y0076500D01*
X0041936Y0076250D02*
X0042436Y0076250D01*
X0042687Y0076500D01*
X0043910Y0076250D02*
X0044160Y0076500D01*
X0044160Y0077751D01*
X0040187Y0078750D02*
X0040187Y0080251D01*
X0039436Y0080251D01*
X0039186Y0080001D01*
X0039186Y0079501D01*
X0039436Y0079250D01*
X0040187Y0079250D01*
X0039686Y0079250D02*
X0039186Y0078750D01*
X0039436Y0098250D02*
X0039186Y0098500D01*
X0039186Y0099001D01*
X0039686Y0099001D01*
X0039186Y0099501D02*
X0039436Y0099751D01*
X0039936Y0099751D01*
X0040187Y0099501D01*
X0040187Y0098500D01*
X0039936Y0098250D01*
X0039436Y0098250D01*
X0039726Y0101250D02*
X0039476Y0101500D01*
X0039476Y0101750D01*
X0039726Y0102001D01*
X0040227Y0102001D01*
X0040477Y0102251D01*
X0040477Y0102501D01*
X0040227Y0102751D01*
X0039726Y0102751D01*
X0039476Y0102501D01*
X0039476Y0102251D01*
X0039726Y0102001D01*
X0040227Y0102001D02*
X0040477Y0101750D01*
X0040477Y0101500D01*
X0040227Y0101250D01*
X0039726Y0101250D01*
X0040949Y0102001D02*
X0041950Y0102001D01*
X0041199Y0102751D01*
X0041199Y0101250D01*
X0042422Y0101500D02*
X0042422Y0101750D01*
X0042673Y0102001D01*
X0043173Y0102001D01*
X0043423Y0102251D01*
X0043423Y0102501D01*
X0043173Y0102751D01*
X0042673Y0102751D01*
X0042422Y0102501D01*
X0042923Y0103001D02*
X0042923Y0101000D01*
X0043173Y0101250D02*
X0042673Y0101250D01*
X0042422Y0101500D01*
X0043173Y0101250D02*
X0043423Y0101500D01*
X0043896Y0101500D02*
X0043896Y0102751D01*
X0044897Y0102751D02*
X0044897Y0101500D01*
X0044646Y0101250D01*
X0044146Y0101250D01*
X0043896Y0101500D01*
X0044436Y0099751D02*
X0044186Y0099501D01*
X0044186Y0099251D01*
X0044436Y0099001D01*
X0045187Y0099001D01*
X0045187Y0099751D02*
X0045187Y0098250D01*
X0044436Y0098250D01*
X0044186Y0098500D01*
X0044186Y0098750D01*
X0044436Y0099001D01*
X0044436Y0099751D02*
X0045187Y0099751D01*
X0040187Y0103750D02*
X0040187Y0105251D01*
X0039436Y0105251D01*
X0039186Y0105001D01*
X0039186Y0104501D01*
X0039436Y0104250D01*
X0040187Y0104250D01*
X0039686Y0104250D02*
X0039186Y0103750D01*
X0039436Y0118250D02*
X0039186Y0118500D01*
X0039186Y0119001D01*
X0039686Y0119001D01*
X0039186Y0119501D02*
X0039436Y0119751D01*
X0039936Y0119751D01*
X0040187Y0119501D01*
X0040187Y0118500D01*
X0039936Y0118250D01*
X0039436Y0118250D01*
X0039726Y0121250D02*
X0039726Y0122751D01*
X0040477Y0122001D01*
X0039476Y0122001D01*
X0039186Y0123750D02*
X0039686Y0124250D01*
X0039436Y0124250D02*
X0040187Y0124250D01*
X0040187Y0123750D02*
X0040187Y0125251D01*
X0039436Y0125251D01*
X0039186Y0125001D01*
X0039186Y0124501D01*
X0039436Y0124250D01*
X0041199Y0122751D02*
X0041199Y0121250D01*
X0040949Y0122001D02*
X0041950Y0122001D01*
X0041199Y0122751D01*
X0042422Y0122501D02*
X0042673Y0122751D01*
X0043173Y0122751D01*
X0043423Y0122501D01*
X0043423Y0122251D01*
X0043173Y0122001D01*
X0042673Y0122001D01*
X0042422Y0121750D01*
X0042422Y0121500D01*
X0042673Y0121250D01*
X0043173Y0121250D01*
X0043423Y0121500D01*
X0043896Y0121500D02*
X0043896Y0122751D01*
X0044897Y0122751D02*
X0044897Y0121500D01*
X0044646Y0121250D01*
X0044146Y0121250D01*
X0043896Y0121500D01*
X0042923Y0121000D02*
X0042923Y0123001D01*
X0044436Y0119751D02*
X0044186Y0119501D01*
X0044186Y0119251D01*
X0044436Y0119001D01*
X0045187Y0119001D01*
X0045187Y0119751D02*
X0044436Y0119751D01*
X0044436Y0119001D02*
X0044186Y0118750D01*
X0044186Y0118500D01*
X0044436Y0118250D01*
X0045187Y0118250D01*
X0045187Y0119751D01*
X0045187Y0138250D02*
X0044436Y0138250D01*
X0044186Y0138500D01*
X0044186Y0138750D01*
X0044436Y0139001D01*
X0045187Y0139001D01*
X0045187Y0139751D02*
X0045187Y0138250D01*
X0044436Y0139001D02*
X0044186Y0139251D01*
X0044186Y0139501D01*
X0044436Y0139751D01*
X0045187Y0139751D01*
X0044646Y0141250D02*
X0044146Y0141250D01*
X0043896Y0141500D01*
X0043896Y0142751D01*
X0043423Y0142501D02*
X0043173Y0142751D01*
X0042673Y0142751D01*
X0042422Y0142501D01*
X0042673Y0142001D02*
X0042422Y0141750D01*
X0042422Y0141500D01*
X0042673Y0141250D01*
X0043173Y0141250D01*
X0043423Y0141500D01*
X0043173Y0142001D02*
X0043423Y0142251D01*
X0043423Y0142501D01*
X0043173Y0142001D02*
X0042673Y0142001D01*
X0041950Y0142001D02*
X0040949Y0142001D01*
X0040477Y0142501D02*
X0040227Y0142751D01*
X0039726Y0142751D01*
X0039476Y0142501D01*
X0040477Y0141500D01*
X0040227Y0141250D01*
X0039726Y0141250D01*
X0039476Y0141500D01*
X0039476Y0142501D01*
X0040477Y0142501D02*
X0040477Y0141500D01*
X0041199Y0141250D02*
X0041199Y0142751D01*
X0041950Y0142001D01*
X0042923Y0143001D02*
X0042923Y0141000D01*
X0044646Y0141250D02*
X0044897Y0141500D01*
X0044897Y0142751D01*
X0040187Y0143750D02*
X0040187Y0145251D01*
X0039436Y0145251D01*
X0039186Y0145001D01*
X0039186Y0144501D01*
X0039436Y0144250D01*
X0040187Y0144250D01*
X0039686Y0144250D02*
X0039186Y0143750D01*
X0039436Y0139751D02*
X0039936Y0139751D01*
X0040187Y0139501D01*
X0040187Y0138500D01*
X0039936Y0138250D01*
X0039436Y0138250D01*
X0039186Y0138500D01*
X0039186Y0139001D01*
X0039686Y0139001D01*
X0039186Y0139501D02*
X0039436Y0139751D01*
X0039436Y0158250D02*
X0039186Y0158500D01*
X0039186Y0159001D01*
X0039686Y0159001D01*
X0039186Y0159501D02*
X0039436Y0159751D01*
X0039936Y0159751D01*
X0040187Y0159501D01*
X0040187Y0158500D01*
X0039936Y0158250D01*
X0039436Y0158250D01*
X0039726Y0161250D02*
X0039476Y0161500D01*
X0039476Y0161750D01*
X0039726Y0162001D01*
X0040477Y0162001D01*
X0040477Y0161500D01*
X0040227Y0161250D01*
X0039726Y0161250D01*
X0040477Y0162001D02*
X0039976Y0162501D01*
X0039476Y0162751D01*
X0039186Y0163750D02*
X0039686Y0164250D01*
X0039436Y0164250D02*
X0040187Y0164250D01*
X0040187Y0163750D02*
X0040187Y0165251D01*
X0039436Y0165251D01*
X0039186Y0165001D01*
X0039186Y0164501D01*
X0039436Y0164250D01*
X0040949Y0162501D02*
X0040949Y0162251D01*
X0041199Y0162001D01*
X0040949Y0161750D01*
X0040949Y0161500D01*
X0041199Y0161250D01*
X0041700Y0161250D01*
X0041950Y0161500D01*
X0042422Y0161500D02*
X0042422Y0161750D01*
X0042673Y0162001D01*
X0043173Y0162001D01*
X0043423Y0162251D01*
X0043423Y0162501D01*
X0043173Y0162751D01*
X0042673Y0162751D01*
X0042422Y0162501D01*
X0041950Y0162501D02*
X0041700Y0162751D01*
X0041199Y0162751D01*
X0040949Y0162501D01*
X0041199Y0162001D02*
X0041450Y0162001D01*
X0042422Y0161500D02*
X0042673Y0161250D01*
X0043173Y0161250D01*
X0043423Y0161500D01*
X0043896Y0161500D02*
X0043896Y0162751D01*
X0044897Y0162751D02*
X0044897Y0161500D01*
X0044646Y0161250D01*
X0044146Y0161250D01*
X0043896Y0161500D01*
X0042923Y0161000D02*
X0042923Y0163001D01*
X0044436Y0159751D02*
X0044186Y0159501D01*
X0044186Y0159251D01*
X0044436Y0159001D01*
X0045187Y0159001D01*
X0045187Y0159751D02*
X0044436Y0159751D01*
X0044436Y0159001D02*
X0044186Y0158750D01*
X0044186Y0158500D01*
X0044436Y0158250D01*
X0045187Y0158250D01*
X0045187Y0159751D01*
X0059186Y0159501D02*
X0059436Y0159751D01*
X0059936Y0159751D01*
X0060187Y0159501D01*
X0060187Y0158500D01*
X0059936Y0158250D01*
X0059436Y0158250D01*
X0059186Y0158500D01*
X0059186Y0159001D01*
X0059686Y0159001D01*
X0060477Y0161250D02*
X0060477Y0161500D01*
X0059476Y0162501D01*
X0059476Y0162751D01*
X0060477Y0162751D01*
X0060949Y0162501D02*
X0060949Y0162251D01*
X0061199Y0162001D01*
X0060949Y0161750D01*
X0060949Y0161500D01*
X0061199Y0161250D01*
X0061700Y0161250D01*
X0061950Y0161500D01*
X0062422Y0161500D02*
X0062422Y0161750D01*
X0062673Y0162001D01*
X0063173Y0162001D01*
X0063423Y0162251D01*
X0063423Y0162501D01*
X0063173Y0162751D01*
X0062673Y0162751D01*
X0062422Y0162501D01*
X0061950Y0162501D02*
X0061700Y0162751D01*
X0061199Y0162751D01*
X0060949Y0162501D01*
X0061199Y0162001D02*
X0061450Y0162001D01*
X0062422Y0161500D02*
X0062673Y0161250D01*
X0063173Y0161250D01*
X0063423Y0161500D01*
X0063896Y0161500D02*
X0063896Y0162751D01*
X0064897Y0162751D02*
X0064897Y0161500D01*
X0064646Y0161250D01*
X0064146Y0161250D01*
X0063896Y0161500D01*
X0062923Y0161000D02*
X0062923Y0163001D01*
X0064436Y0159751D02*
X0064186Y0159501D01*
X0064186Y0159251D01*
X0064436Y0159001D01*
X0065187Y0159001D01*
X0065187Y0159751D02*
X0064436Y0159751D01*
X0064436Y0159001D02*
X0064186Y0158750D01*
X0064186Y0158500D01*
X0064436Y0158250D01*
X0065187Y0158250D01*
X0065187Y0159751D01*
X0060187Y0163750D02*
X0060187Y0165251D01*
X0059436Y0165251D01*
X0059186Y0165001D01*
X0059186Y0164501D01*
X0059436Y0164250D01*
X0060187Y0164250D01*
X0059686Y0164250D02*
X0059186Y0163750D01*
X0059436Y0145251D02*
X0059186Y0145001D01*
X0059186Y0144501D01*
X0059436Y0144250D01*
X0060187Y0144250D01*
X0060187Y0143750D02*
X0060187Y0145251D01*
X0059436Y0145251D01*
X0059686Y0144250D02*
X0059186Y0143750D01*
X0059976Y0142751D02*
X0059976Y0141250D01*
X0059476Y0141250D02*
X0060477Y0141250D01*
X0061199Y0141250D02*
X0061199Y0142751D01*
X0061950Y0142001D01*
X0060949Y0142001D01*
X0060477Y0142251D02*
X0059976Y0142751D01*
X0059936Y0139751D02*
X0060187Y0139501D01*
X0060187Y0138500D01*
X0059936Y0138250D01*
X0059436Y0138250D01*
X0059186Y0138500D01*
X0059186Y0139001D01*
X0059686Y0139001D01*
X0059186Y0139501D02*
X0059436Y0139751D01*
X0059936Y0139751D01*
X0062422Y0141500D02*
X0062422Y0141750D01*
X0062673Y0142001D01*
X0063173Y0142001D01*
X0063423Y0142251D01*
X0063423Y0142501D01*
X0063173Y0142751D01*
X0062673Y0142751D01*
X0062422Y0142501D01*
X0062923Y0143001D02*
X0062923Y0141000D01*
X0063173Y0141250D02*
X0062673Y0141250D01*
X0062422Y0141500D01*
X0063173Y0141250D02*
X0063423Y0141500D01*
X0063896Y0141500D02*
X0063896Y0142751D01*
X0064897Y0142751D02*
X0064897Y0141500D01*
X0064646Y0141250D01*
X0064146Y0141250D01*
X0063896Y0141500D01*
X0064436Y0139751D02*
X0064186Y0139501D01*
X0064186Y0139251D01*
X0064436Y0139001D01*
X0065187Y0139001D01*
X0065187Y0139751D02*
X0065187Y0138250D01*
X0064436Y0138250D01*
X0064186Y0138500D01*
X0064186Y0138750D01*
X0064436Y0139001D01*
X0064436Y0139751D02*
X0065187Y0139751D01*
X0060187Y0125251D02*
X0059436Y0125251D01*
X0059186Y0125001D01*
X0059186Y0124501D01*
X0059436Y0124250D01*
X0060187Y0124250D01*
X0060187Y0123750D02*
X0060187Y0125251D01*
X0059686Y0124250D02*
X0059186Y0123750D01*
X0059476Y0122751D02*
X0060477Y0122751D01*
X0060477Y0122001D01*
X0059976Y0122251D01*
X0059726Y0122251D01*
X0059476Y0122001D01*
X0059476Y0121500D01*
X0059726Y0121250D01*
X0060227Y0121250D01*
X0060477Y0121500D01*
X0060949Y0122001D02*
X0061950Y0122001D01*
X0061199Y0122751D01*
X0061199Y0121250D01*
X0059936Y0119751D02*
X0060187Y0119501D01*
X0060187Y0118500D01*
X0059936Y0118250D01*
X0059436Y0118250D01*
X0059186Y0118500D01*
X0059186Y0119001D01*
X0059686Y0119001D01*
X0059186Y0119501D02*
X0059436Y0119751D01*
X0059936Y0119751D01*
X0062422Y0121500D02*
X0062422Y0121750D01*
X0062673Y0122001D01*
X0063173Y0122001D01*
X0063423Y0122251D01*
X0063423Y0122501D01*
X0063173Y0122751D01*
X0062673Y0122751D01*
X0062422Y0122501D01*
X0062923Y0123001D02*
X0062923Y0121000D01*
X0063173Y0121250D02*
X0062673Y0121250D01*
X0062422Y0121500D01*
X0063173Y0121250D02*
X0063423Y0121500D01*
X0063896Y0121500D02*
X0063896Y0122751D01*
X0064897Y0122751D02*
X0064897Y0121500D01*
X0064646Y0121250D01*
X0064146Y0121250D01*
X0063896Y0121500D01*
X0064436Y0119751D02*
X0064186Y0119501D01*
X0064186Y0119251D01*
X0064436Y0119001D01*
X0065187Y0119001D01*
X0065187Y0119751D02*
X0064436Y0119751D01*
X0064436Y0119001D02*
X0064186Y0118750D01*
X0064186Y0118500D01*
X0064436Y0118250D01*
X0065187Y0118250D01*
X0065187Y0119751D01*
X0060187Y0105251D02*
X0059436Y0105251D01*
X0059186Y0105001D01*
X0059186Y0104501D01*
X0059436Y0104250D01*
X0060187Y0104250D01*
X0060187Y0103750D02*
X0060187Y0105251D01*
X0059686Y0104250D02*
X0059186Y0103750D01*
X0059726Y0102751D02*
X0059476Y0102501D01*
X0059476Y0101500D01*
X0059726Y0101250D01*
X0060227Y0101250D01*
X0060477Y0101500D01*
X0060227Y0102001D02*
X0060477Y0102251D01*
X0060477Y0102501D01*
X0060227Y0102751D01*
X0059726Y0102751D01*
X0059476Y0102001D02*
X0060227Y0102001D01*
X0060949Y0102001D02*
X0061950Y0102001D01*
X0061199Y0102751D01*
X0061199Y0101250D01*
X0059936Y0099751D02*
X0060187Y0099501D01*
X0060187Y0098500D01*
X0059936Y0098250D01*
X0059436Y0098250D01*
X0059186Y0098500D01*
X0059186Y0099001D01*
X0059686Y0099001D01*
X0059186Y0099501D02*
X0059436Y0099751D01*
X0059936Y0099751D01*
X0062422Y0101500D02*
X0062422Y0101750D01*
X0062673Y0102001D01*
X0063173Y0102001D01*
X0063423Y0102251D01*
X0063423Y0102501D01*
X0063173Y0102751D01*
X0062673Y0102751D01*
X0062422Y0102501D01*
X0062923Y0103001D02*
X0062923Y0101000D01*
X0063173Y0101250D02*
X0062673Y0101250D01*
X0062422Y0101500D01*
X0063173Y0101250D02*
X0063423Y0101500D01*
X0063896Y0101500D02*
X0063896Y0102751D01*
X0064897Y0102751D02*
X0064897Y0101500D01*
X0064646Y0101250D01*
X0064146Y0101250D01*
X0063896Y0101500D01*
X0064436Y0099751D02*
X0064186Y0099501D01*
X0064186Y0099251D01*
X0064436Y0099001D01*
X0065187Y0099001D01*
X0065187Y0099751D02*
X0065187Y0098250D01*
X0064436Y0098250D01*
X0064186Y0098500D01*
X0064186Y0098750D01*
X0064436Y0099001D01*
X0064436Y0099751D02*
X0065187Y0099751D01*
X0060187Y0080251D02*
X0059436Y0080251D01*
X0059186Y0080001D01*
X0059186Y0079501D01*
X0059436Y0079250D01*
X0060187Y0079250D01*
X0060187Y0078750D02*
X0060187Y0080251D01*
X0059686Y0079250D02*
X0059186Y0078750D01*
X0060213Y0077501D02*
X0060213Y0077251D01*
X0060463Y0077001D01*
X0060213Y0076750D01*
X0060213Y0076500D01*
X0060463Y0076250D01*
X0060963Y0076250D01*
X0061213Y0076500D01*
X0061686Y0076500D02*
X0061686Y0076750D01*
X0061936Y0077001D01*
X0062436Y0077001D01*
X0062687Y0077251D01*
X0062687Y0077501D01*
X0062436Y0077751D01*
X0061936Y0077751D01*
X0061686Y0077501D01*
X0061213Y0077501D02*
X0060963Y0077751D01*
X0060463Y0077751D01*
X0060213Y0077501D01*
X0060463Y0077001D02*
X0060713Y0077001D01*
X0061686Y0076500D02*
X0061936Y0076250D01*
X0062436Y0076250D01*
X0062687Y0076500D01*
X0063159Y0076500D02*
X0063159Y0077751D01*
X0064160Y0077751D02*
X0064160Y0076500D01*
X0063910Y0076250D01*
X0063409Y0076250D01*
X0063159Y0076500D01*
X0062186Y0076000D02*
X0062186Y0078001D01*
X0059936Y0074751D02*
X0060187Y0074501D01*
X0060187Y0073500D01*
X0059936Y0073250D01*
X0059436Y0073250D01*
X0059186Y0073500D01*
X0059186Y0074001D01*
X0059686Y0074001D01*
X0059186Y0074501D02*
X0059436Y0074751D01*
X0059936Y0074751D01*
X0064186Y0074501D02*
X0064186Y0074251D01*
X0064436Y0074001D01*
X0065187Y0074001D01*
X0065187Y0074751D02*
X0064436Y0074751D01*
X0064186Y0074501D01*
X0064436Y0074001D02*
X0064186Y0073750D01*
X0064186Y0073500D01*
X0064436Y0073250D01*
X0065187Y0073250D01*
X0065187Y0074751D01*
X0060187Y0060251D02*
X0059436Y0060251D01*
X0059186Y0060001D01*
X0059186Y0059501D01*
X0059436Y0059250D01*
X0060187Y0059250D01*
X0060187Y0058750D02*
X0060187Y0060251D01*
X0059686Y0059250D02*
X0059186Y0058750D01*
X0060213Y0057751D02*
X0060213Y0057501D01*
X0061213Y0056500D01*
X0061213Y0056250D01*
X0061686Y0056500D02*
X0061686Y0056750D01*
X0061936Y0057001D01*
X0062436Y0057001D01*
X0062687Y0057251D01*
X0062687Y0057501D01*
X0062436Y0057751D01*
X0061936Y0057751D01*
X0061686Y0057501D01*
X0061213Y0057751D02*
X0060213Y0057751D01*
X0061686Y0056500D02*
X0061936Y0056250D01*
X0062436Y0056250D01*
X0062687Y0056500D01*
X0063159Y0056500D02*
X0063159Y0057751D01*
X0064160Y0057751D02*
X0064160Y0056500D01*
X0063910Y0056250D01*
X0063409Y0056250D01*
X0063159Y0056500D01*
X0062186Y0056000D02*
X0062186Y0058001D01*
X0059936Y0054751D02*
X0060187Y0054501D01*
X0060187Y0053500D01*
X0059936Y0053250D01*
X0059436Y0053250D01*
X0059186Y0053500D01*
X0059186Y0054001D01*
X0059686Y0054001D01*
X0059186Y0054501D02*
X0059436Y0054751D01*
X0059936Y0054751D01*
X0064186Y0054501D02*
X0064186Y0054251D01*
X0064436Y0054001D01*
X0065187Y0054001D01*
X0065187Y0054751D02*
X0064436Y0054751D01*
X0064186Y0054501D01*
X0064436Y0054001D02*
X0064186Y0053750D01*
X0064186Y0053500D01*
X0064436Y0053250D01*
X0065187Y0053250D01*
X0065187Y0054751D01*
X0060187Y0040251D02*
X0059436Y0040251D01*
X0059186Y0040001D01*
X0059186Y0039501D01*
X0059436Y0039250D01*
X0060187Y0039250D01*
X0060187Y0038750D02*
X0060187Y0040251D01*
X0059686Y0039250D02*
X0059186Y0038750D01*
X0059976Y0037751D02*
X0059976Y0036250D01*
X0059476Y0036250D02*
X0060477Y0036250D01*
X0060949Y0036250D02*
X0061950Y0036250D01*
X0061450Y0036250D02*
X0061450Y0037751D01*
X0061950Y0037251D01*
X0062422Y0037501D02*
X0062673Y0037751D01*
X0063173Y0037751D01*
X0063423Y0037501D01*
X0063423Y0037251D01*
X0063173Y0037001D01*
X0062673Y0037001D01*
X0062422Y0036750D01*
X0062422Y0036500D01*
X0062673Y0036250D01*
X0063173Y0036250D01*
X0063423Y0036500D01*
X0063896Y0036500D02*
X0063896Y0037751D01*
X0064897Y0037751D02*
X0064897Y0036500D01*
X0064646Y0036250D01*
X0064146Y0036250D01*
X0063896Y0036500D01*
X0062923Y0036000D02*
X0062923Y0038001D01*
X0060477Y0037251D02*
X0059976Y0037751D01*
X0059936Y0034751D02*
X0060187Y0034501D01*
X0060187Y0033500D01*
X0059936Y0033250D01*
X0059436Y0033250D01*
X0059186Y0033500D01*
X0059186Y0034001D01*
X0059686Y0034001D01*
X0059186Y0034501D02*
X0059436Y0034751D01*
X0059936Y0034751D01*
X0064186Y0034501D02*
X0064186Y0034251D01*
X0064436Y0034001D01*
X0065187Y0034001D01*
X0065187Y0034751D02*
X0064436Y0034751D01*
X0064186Y0034501D01*
X0064436Y0034001D02*
X0064186Y0033750D01*
X0064186Y0033500D01*
X0064436Y0033250D01*
X0065187Y0033250D01*
X0065187Y0034751D01*
X0060187Y0020251D02*
X0059436Y0020251D01*
X0059186Y0020001D01*
X0059186Y0019501D01*
X0059436Y0019250D01*
X0060187Y0019250D01*
X0060187Y0018750D02*
X0060187Y0020251D01*
X0059686Y0019250D02*
X0059186Y0018750D01*
X0059476Y0017751D02*
X0060477Y0017751D01*
X0060477Y0017001D01*
X0059976Y0017251D01*
X0059726Y0017251D01*
X0059476Y0017001D01*
X0059476Y0016500D01*
X0059726Y0016250D01*
X0060227Y0016250D01*
X0060477Y0016500D01*
X0060949Y0016250D02*
X0061950Y0016250D01*
X0061450Y0016250D02*
X0061450Y0017751D01*
X0061950Y0017251D01*
X0062422Y0017501D02*
X0062673Y0017751D01*
X0063173Y0017751D01*
X0063423Y0017501D01*
X0063423Y0017251D01*
X0063173Y0017001D01*
X0062673Y0017001D01*
X0062422Y0016750D01*
X0062422Y0016500D01*
X0062673Y0016250D01*
X0063173Y0016250D01*
X0063423Y0016500D01*
X0063896Y0016500D02*
X0063896Y0017751D01*
X0064897Y0017751D02*
X0064897Y0016500D01*
X0064646Y0016250D01*
X0064146Y0016250D01*
X0063896Y0016500D01*
X0062923Y0016000D02*
X0062923Y0018001D01*
X0064436Y0014751D02*
X0064186Y0014501D01*
X0064186Y0014251D01*
X0064436Y0014001D01*
X0065187Y0014001D01*
X0065187Y0014751D02*
X0064436Y0014751D01*
X0064436Y0014001D02*
X0064186Y0013750D01*
X0064186Y0013500D01*
X0064436Y0013250D01*
X0065187Y0013250D01*
X0065187Y0014751D01*
X0060187Y0014501D02*
X0060187Y0013500D01*
X0059936Y0013250D01*
X0059436Y0013250D01*
X0059186Y0013500D01*
X0059186Y0014001D01*
X0059686Y0014001D01*
X0059186Y0014501D02*
X0059436Y0014751D01*
X0059936Y0014751D01*
X0060187Y0014501D01*
X0079186Y0014501D02*
X0079436Y0014751D01*
X0079936Y0014751D01*
X0080187Y0014501D01*
X0080187Y0013500D01*
X0079936Y0013250D01*
X0079436Y0013250D01*
X0079186Y0013500D01*
X0079186Y0014001D01*
X0079686Y0014001D01*
X0079726Y0016250D02*
X0079476Y0016500D01*
X0079476Y0016750D01*
X0079726Y0017001D01*
X0080477Y0017001D01*
X0080477Y0016500D01*
X0080227Y0016250D01*
X0079726Y0016250D01*
X0080477Y0017001D02*
X0079976Y0017501D01*
X0079476Y0017751D01*
X0079186Y0018750D02*
X0079686Y0019250D01*
X0079436Y0019250D02*
X0080187Y0019250D01*
X0080187Y0018750D02*
X0080187Y0020251D01*
X0079436Y0020251D01*
X0079186Y0020001D01*
X0079186Y0019501D01*
X0079436Y0019250D01*
X0081450Y0017751D02*
X0081450Y0016250D01*
X0081950Y0016250D02*
X0080949Y0016250D01*
X0081950Y0017251D02*
X0081450Y0017751D01*
X0082422Y0017501D02*
X0082673Y0017751D01*
X0083173Y0017751D01*
X0083423Y0017501D01*
X0083423Y0017251D01*
X0083173Y0017001D01*
X0082673Y0017001D01*
X0082422Y0016750D01*
X0082422Y0016500D01*
X0082673Y0016250D01*
X0083173Y0016250D01*
X0083423Y0016500D01*
X0083896Y0016500D02*
X0083896Y0017751D01*
X0084897Y0017751D02*
X0084897Y0016500D01*
X0084646Y0016250D01*
X0084146Y0016250D01*
X0083896Y0016500D01*
X0082923Y0016000D02*
X0082923Y0018001D01*
X0084436Y0014751D02*
X0084186Y0014501D01*
X0084186Y0014251D01*
X0084436Y0014001D01*
X0085187Y0014001D01*
X0085187Y0014751D02*
X0084436Y0014751D01*
X0084436Y0014001D02*
X0084186Y0013750D01*
X0084186Y0013500D01*
X0084436Y0013250D01*
X0085187Y0013250D01*
X0085187Y0014751D01*
X0085187Y0033250D02*
X0084436Y0033250D01*
X0084186Y0033500D01*
X0084186Y0033750D01*
X0084436Y0034001D01*
X0085187Y0034001D01*
X0085187Y0034751D02*
X0084436Y0034751D01*
X0084186Y0034501D01*
X0084186Y0034251D01*
X0084436Y0034001D01*
X0085187Y0034751D02*
X0085187Y0033250D01*
X0084646Y0036250D02*
X0084146Y0036250D01*
X0083896Y0036500D01*
X0083896Y0037751D01*
X0083423Y0037501D02*
X0083173Y0037751D01*
X0082673Y0037751D01*
X0082422Y0037501D01*
X0081950Y0037251D02*
X0081450Y0037751D01*
X0081450Y0036250D01*
X0081950Y0036250D02*
X0080949Y0036250D01*
X0080477Y0036250D02*
X0079476Y0037251D01*
X0079476Y0037501D01*
X0079726Y0037751D01*
X0080227Y0037751D01*
X0080477Y0037501D01*
X0080477Y0036250D02*
X0079476Y0036250D01*
X0079436Y0034751D02*
X0079936Y0034751D01*
X0080187Y0034501D01*
X0080187Y0033500D01*
X0079936Y0033250D01*
X0079436Y0033250D01*
X0079186Y0033500D01*
X0079186Y0034001D01*
X0079686Y0034001D01*
X0079186Y0034501D02*
X0079436Y0034751D01*
X0082422Y0036500D02*
X0082422Y0036750D01*
X0082673Y0037001D01*
X0083173Y0037001D01*
X0083423Y0037251D01*
X0083423Y0037501D01*
X0082923Y0038001D02*
X0082923Y0036000D01*
X0083173Y0036250D02*
X0082673Y0036250D01*
X0082422Y0036500D01*
X0083173Y0036250D02*
X0083423Y0036500D01*
X0084646Y0036250D02*
X0084897Y0036500D01*
X0084897Y0037751D01*
X0080187Y0038750D02*
X0080187Y0040251D01*
X0079436Y0040251D01*
X0079186Y0040001D01*
X0079186Y0039501D01*
X0079436Y0039250D01*
X0080187Y0039250D01*
X0079686Y0039250D02*
X0079186Y0038750D01*
X0079436Y0053250D02*
X0079186Y0053500D01*
X0079186Y0054001D01*
X0079686Y0054001D01*
X0079186Y0054501D02*
X0079436Y0054751D01*
X0079936Y0054751D01*
X0080187Y0054501D01*
X0080187Y0053500D01*
X0079936Y0053250D01*
X0079436Y0053250D01*
X0080463Y0056250D02*
X0080963Y0056250D01*
X0081213Y0056500D01*
X0081213Y0056750D01*
X0080963Y0057001D01*
X0080463Y0057001D01*
X0080213Y0056750D01*
X0080213Y0056500D01*
X0080463Y0056250D01*
X0080463Y0057001D02*
X0080213Y0057251D01*
X0080213Y0057501D01*
X0080463Y0057751D01*
X0080963Y0057751D01*
X0081213Y0057501D01*
X0081213Y0057251D01*
X0080963Y0057001D01*
X0081686Y0056750D02*
X0081936Y0057001D01*
X0082436Y0057001D01*
X0082687Y0057251D01*
X0082687Y0057501D01*
X0082436Y0057751D01*
X0081936Y0057751D01*
X0081686Y0057501D01*
X0082186Y0058001D02*
X0082186Y0056000D01*
X0082436Y0056250D02*
X0081936Y0056250D01*
X0081686Y0056500D01*
X0081686Y0056750D01*
X0082436Y0056250D02*
X0082687Y0056500D01*
X0083159Y0056500D02*
X0083159Y0057751D01*
X0084160Y0057751D02*
X0084160Y0056500D01*
X0083910Y0056250D01*
X0083409Y0056250D01*
X0083159Y0056500D01*
X0084436Y0054751D02*
X0084186Y0054501D01*
X0084186Y0054251D01*
X0084436Y0054001D01*
X0085187Y0054001D01*
X0085187Y0054751D02*
X0084436Y0054751D01*
X0084436Y0054001D02*
X0084186Y0053750D01*
X0084186Y0053500D01*
X0084436Y0053250D01*
X0085187Y0053250D01*
X0085187Y0054751D01*
X0080187Y0058750D02*
X0080187Y0060251D01*
X0079436Y0060251D01*
X0079186Y0060001D01*
X0079186Y0059501D01*
X0079436Y0059250D01*
X0080187Y0059250D01*
X0079686Y0059250D02*
X0079186Y0058750D01*
X0079436Y0073250D02*
X0079186Y0073500D01*
X0079186Y0074001D01*
X0079686Y0074001D01*
X0079186Y0074501D02*
X0079436Y0074751D01*
X0079936Y0074751D01*
X0080187Y0074501D01*
X0080187Y0073500D01*
X0079936Y0073250D01*
X0079436Y0073250D01*
X0080463Y0076250D02*
X0080463Y0077751D01*
X0081213Y0077001D01*
X0080213Y0077001D01*
X0081686Y0076750D02*
X0081686Y0076500D01*
X0081936Y0076250D01*
X0082436Y0076250D01*
X0082687Y0076500D01*
X0083159Y0076500D02*
X0083159Y0077751D01*
X0082687Y0077501D02*
X0082436Y0077751D01*
X0081936Y0077751D01*
X0081686Y0077501D01*
X0081936Y0077001D02*
X0082436Y0077001D01*
X0082687Y0077251D01*
X0082687Y0077501D01*
X0082186Y0078001D02*
X0082186Y0076000D01*
X0081686Y0076750D02*
X0081936Y0077001D01*
X0083159Y0076500D02*
X0083409Y0076250D01*
X0083910Y0076250D01*
X0084160Y0076500D01*
X0084160Y0077751D01*
X0084436Y0074751D02*
X0084186Y0074501D01*
X0084186Y0074251D01*
X0084436Y0074001D01*
X0085187Y0074001D01*
X0085187Y0074751D02*
X0084436Y0074751D01*
X0084436Y0074001D02*
X0084186Y0073750D01*
X0084186Y0073500D01*
X0084436Y0073250D01*
X0085187Y0073250D01*
X0085187Y0074751D01*
X0080187Y0078750D02*
X0080187Y0080251D01*
X0079436Y0080251D01*
X0079186Y0080001D01*
X0079186Y0079501D01*
X0079436Y0079250D01*
X0080187Y0079250D01*
X0079686Y0079250D02*
X0079186Y0078750D01*
X0079436Y0098250D02*
X0079186Y0098500D01*
X0079186Y0099001D01*
X0079686Y0099001D01*
X0079186Y0099501D02*
X0079436Y0099751D01*
X0079936Y0099751D01*
X0080187Y0099501D01*
X0080187Y0098500D01*
X0079936Y0098250D01*
X0079436Y0098250D01*
X0079726Y0101250D02*
X0080227Y0101250D01*
X0080477Y0101500D01*
X0079476Y0102501D01*
X0079476Y0101500D01*
X0079726Y0101250D01*
X0080477Y0101500D02*
X0080477Y0102501D01*
X0080227Y0102751D01*
X0079726Y0102751D01*
X0079476Y0102501D01*
X0079186Y0103750D02*
X0079686Y0104250D01*
X0079436Y0104250D02*
X0080187Y0104250D01*
X0080187Y0103750D02*
X0080187Y0105251D01*
X0079436Y0105251D01*
X0079186Y0105001D01*
X0079186Y0104501D01*
X0079436Y0104250D01*
X0080949Y0102751D02*
X0081950Y0102751D01*
X0081950Y0102001D01*
X0081450Y0102251D01*
X0081199Y0102251D01*
X0080949Y0102001D01*
X0080949Y0101500D01*
X0081199Y0101250D01*
X0081700Y0101250D01*
X0081950Y0101500D01*
X0082422Y0101500D02*
X0082422Y0101750D01*
X0082673Y0102001D01*
X0083173Y0102001D01*
X0083423Y0102251D01*
X0083423Y0102501D01*
X0083173Y0102751D01*
X0082673Y0102751D01*
X0082422Y0102501D01*
X0082923Y0103001D02*
X0082923Y0101000D01*
X0083173Y0101250D02*
X0082673Y0101250D01*
X0082422Y0101500D01*
X0083173Y0101250D02*
X0083423Y0101500D01*
X0083896Y0101500D02*
X0083896Y0102751D01*
X0084897Y0102751D02*
X0084897Y0101500D01*
X0084646Y0101250D01*
X0084146Y0101250D01*
X0083896Y0101500D01*
X0084436Y0099751D02*
X0084186Y0099501D01*
X0084186Y0099251D01*
X0084436Y0099001D01*
X0085187Y0099001D01*
X0085187Y0099751D02*
X0085187Y0098250D01*
X0084436Y0098250D01*
X0084186Y0098500D01*
X0084186Y0098750D01*
X0084436Y0099001D01*
X0084436Y0099751D02*
X0085187Y0099751D01*
X0085187Y0118250D02*
X0084436Y0118250D01*
X0084186Y0118500D01*
X0084186Y0118750D01*
X0084436Y0119001D01*
X0085187Y0119001D01*
X0085187Y0119751D02*
X0084436Y0119751D01*
X0084186Y0119501D01*
X0084186Y0119251D01*
X0084436Y0119001D01*
X0085187Y0119751D02*
X0085187Y0118250D01*
X0084646Y0121250D02*
X0084146Y0121250D01*
X0083896Y0121500D01*
X0083896Y0122751D01*
X0083423Y0122501D02*
X0083173Y0122751D01*
X0082673Y0122751D01*
X0082422Y0122501D01*
X0082673Y0122001D02*
X0083173Y0122001D01*
X0083423Y0122251D01*
X0083423Y0122501D01*
X0082923Y0123001D02*
X0082923Y0121000D01*
X0083173Y0121250D02*
X0082673Y0121250D01*
X0082422Y0121500D01*
X0082422Y0121750D01*
X0082673Y0122001D01*
X0081950Y0122001D02*
X0080949Y0122001D01*
X0080477Y0122001D02*
X0079726Y0122001D01*
X0079476Y0121750D01*
X0079476Y0121500D01*
X0079726Y0121250D01*
X0080227Y0121250D01*
X0080477Y0121500D01*
X0080477Y0122001D01*
X0079976Y0122501D01*
X0079476Y0122751D01*
X0079186Y0123750D02*
X0079686Y0124250D01*
X0079436Y0124250D02*
X0080187Y0124250D01*
X0080187Y0123750D02*
X0080187Y0125251D01*
X0079436Y0125251D01*
X0079186Y0125001D01*
X0079186Y0124501D01*
X0079436Y0124250D01*
X0081199Y0122751D02*
X0081199Y0121250D01*
X0081950Y0122001D02*
X0081199Y0122751D01*
X0083173Y0121250D02*
X0083423Y0121500D01*
X0084646Y0121250D02*
X0084897Y0121500D01*
X0084897Y0122751D01*
X0080187Y0119501D02*
X0080187Y0118500D01*
X0079936Y0118250D01*
X0079436Y0118250D01*
X0079186Y0118500D01*
X0079186Y0119001D01*
X0079686Y0119001D01*
X0079186Y0119501D02*
X0079436Y0119751D01*
X0079936Y0119751D01*
X0080187Y0119501D01*
X0079936Y0138250D02*
X0079436Y0138250D01*
X0079186Y0138500D01*
X0079186Y0139001D01*
X0079686Y0139001D01*
X0079186Y0139501D02*
X0079436Y0139751D01*
X0079936Y0139751D01*
X0080187Y0139501D01*
X0080187Y0138500D01*
X0079936Y0138250D01*
X0079476Y0141250D02*
X0080477Y0141250D01*
X0079476Y0142251D01*
X0079476Y0142501D01*
X0079726Y0142751D01*
X0080227Y0142751D01*
X0080477Y0142501D01*
X0080949Y0142001D02*
X0081950Y0142001D01*
X0081199Y0142751D01*
X0081199Y0141250D01*
X0082422Y0141500D02*
X0082422Y0141750D01*
X0082673Y0142001D01*
X0083173Y0142001D01*
X0083423Y0142251D01*
X0083423Y0142501D01*
X0083173Y0142751D01*
X0082673Y0142751D01*
X0082422Y0142501D01*
X0082923Y0143001D02*
X0082923Y0141000D01*
X0083173Y0141250D02*
X0082673Y0141250D01*
X0082422Y0141500D01*
X0083173Y0141250D02*
X0083423Y0141500D01*
X0083896Y0141500D02*
X0083896Y0142751D01*
X0084897Y0142751D02*
X0084897Y0141500D01*
X0084646Y0141250D01*
X0084146Y0141250D01*
X0083896Y0141500D01*
X0084436Y0139751D02*
X0084186Y0139501D01*
X0084186Y0139251D01*
X0084436Y0139001D01*
X0085187Y0139001D01*
X0085187Y0139751D02*
X0085187Y0138250D01*
X0084436Y0138250D01*
X0084186Y0138500D01*
X0084186Y0138750D01*
X0084436Y0139001D01*
X0084436Y0139751D02*
X0085187Y0139751D01*
X0080187Y0143750D02*
X0080187Y0145251D01*
X0079436Y0145251D01*
X0079186Y0145001D01*
X0079186Y0144501D01*
X0079436Y0144250D01*
X0080187Y0144250D01*
X0079686Y0144250D02*
X0079186Y0143750D01*
X0079436Y0158250D02*
X0079186Y0158500D01*
X0079186Y0159001D01*
X0079686Y0159001D01*
X0079186Y0159501D02*
X0079436Y0159751D01*
X0079936Y0159751D01*
X0080187Y0159501D01*
X0080187Y0158500D01*
X0079936Y0158250D01*
X0079436Y0158250D01*
X0079726Y0161250D02*
X0080227Y0161250D01*
X0080477Y0161500D01*
X0080477Y0161750D01*
X0080227Y0162001D01*
X0079726Y0162001D01*
X0079476Y0161750D01*
X0079476Y0161500D01*
X0079726Y0161250D01*
X0079726Y0162001D02*
X0079476Y0162251D01*
X0079476Y0162501D01*
X0079726Y0162751D01*
X0080227Y0162751D01*
X0080477Y0162501D01*
X0080477Y0162251D01*
X0080227Y0162001D01*
X0080949Y0162251D02*
X0081199Y0162001D01*
X0080949Y0161750D01*
X0080949Y0161500D01*
X0081199Y0161250D01*
X0081700Y0161250D01*
X0081950Y0161500D01*
X0082422Y0161500D02*
X0082422Y0161750D01*
X0082673Y0162001D01*
X0083173Y0162001D01*
X0083423Y0162251D01*
X0083423Y0162501D01*
X0083173Y0162751D01*
X0082673Y0162751D01*
X0082422Y0162501D01*
X0081950Y0162501D02*
X0081700Y0162751D01*
X0081199Y0162751D01*
X0080949Y0162501D01*
X0080949Y0162251D01*
X0081199Y0162001D02*
X0081450Y0162001D01*
X0082422Y0161500D02*
X0082673Y0161250D01*
X0083173Y0161250D01*
X0083423Y0161500D01*
X0083896Y0161500D02*
X0083896Y0162751D01*
X0084897Y0162751D02*
X0084897Y0161500D01*
X0084646Y0161250D01*
X0084146Y0161250D01*
X0083896Y0161500D01*
X0082923Y0161000D02*
X0082923Y0163001D01*
X0080187Y0163750D02*
X0080187Y0165251D01*
X0079436Y0165251D01*
X0079186Y0165001D01*
X0079186Y0164501D01*
X0079436Y0164250D01*
X0080187Y0164250D01*
X0079686Y0164250D02*
X0079186Y0163750D01*
X0084186Y0159501D02*
X0084186Y0159251D01*
X0084436Y0159001D01*
X0085187Y0159001D01*
X0085187Y0159751D02*
X0084436Y0159751D01*
X0084186Y0159501D01*
X0084436Y0159001D02*
X0084186Y0158750D01*
X0084186Y0158500D01*
X0084436Y0158250D01*
X0085187Y0158250D01*
X0085187Y0159751D01*
D14*
X0084500Y0165000D03*
X0084500Y0145000D03*
X0084500Y0125000D03*
X0084500Y0105000D03*
X0084500Y0080000D03*
X0084500Y0060000D03*
X0084500Y0040000D03*
X0084500Y0020000D03*
X0064500Y0020000D03*
X0064500Y0040000D03*
X0064500Y0060000D03*
X0064500Y0080000D03*
X0064500Y0105000D03*
X0064500Y0125000D03*
X0064500Y0145000D03*
X0064500Y0165000D03*
X0044500Y0165000D03*
X0044500Y0145000D03*
X0044500Y0125000D03*
X0044500Y0105000D03*
X0044500Y0080000D03*
X0044500Y0060000D03*
X0044500Y0040000D03*
X0044500Y0020000D03*
X0024500Y0020000D03*
X0024500Y0040000D03*
X0024500Y0060000D03*
X0024500Y0080000D03*
X0024500Y0105000D03*
X0024500Y0125000D03*
X0024500Y0145000D03*
X0024500Y0165000D03*
D15*
X0023999Y0164001D02*
X0026000Y0164001D01*
X0026000Y0163503D02*
X0024497Y0163503D01*
X0024996Y0163004D02*
X0026000Y0163004D01*
X0026000Y0162506D02*
X0025494Y0162506D01*
X0025993Y0162007D02*
X0026000Y0162007D01*
X0026000Y0162000D02*
X0022000Y0166000D01*
X0026000Y0166000D01*
X0026000Y0162000D01*
X0026000Y0164500D02*
X0023500Y0164500D01*
X0023002Y0164998D02*
X0026000Y0164998D01*
X0026000Y0165497D02*
X0022503Y0165497D01*
X0022005Y0165995D02*
X0026000Y0165995D01*
X0026000Y0146000D02*
X0022000Y0146000D01*
X0026000Y0142000D01*
X0026000Y0146000D01*
X0026000Y0145556D02*
X0022444Y0145556D01*
X0022942Y0145058D02*
X0026000Y0145058D01*
X0026000Y0144559D02*
X0023441Y0144559D01*
X0023939Y0144061D02*
X0026000Y0144061D01*
X0026000Y0143562D02*
X0024438Y0143562D01*
X0024936Y0143064D02*
X0026000Y0143064D01*
X0026000Y0142565D02*
X0025435Y0142565D01*
X0025933Y0142067D02*
X0026000Y0142067D01*
X0026000Y0126000D02*
X0022000Y0126000D01*
X0026000Y0122000D01*
X0026000Y0126000D01*
X0026000Y0125616D02*
X0022384Y0125616D01*
X0022883Y0125117D02*
X0026000Y0125117D01*
X0026000Y0124619D02*
X0023381Y0124619D01*
X0023880Y0124120D02*
X0026000Y0124120D01*
X0026000Y0123622D02*
X0024378Y0123622D01*
X0024877Y0123123D02*
X0026000Y0123123D01*
X0026000Y0122625D02*
X0025375Y0122625D01*
X0025874Y0122126D02*
X0026000Y0122126D01*
X0026000Y0106000D02*
X0022000Y0106000D01*
X0026000Y0102000D01*
X0026000Y0106000D01*
X0026000Y0105675D02*
X0022325Y0105675D01*
X0022823Y0105177D02*
X0026000Y0105177D01*
X0026000Y0104678D02*
X0023322Y0104678D01*
X0023820Y0104180D02*
X0026000Y0104180D01*
X0026000Y0103681D02*
X0024319Y0103681D01*
X0024817Y0103183D02*
X0026000Y0103183D01*
X0026000Y0102684D02*
X0025316Y0102684D01*
X0025814Y0102186D02*
X0026000Y0102186D01*
X0026000Y0081000D02*
X0022000Y0081000D01*
X0026000Y0077000D01*
X0026000Y0081000D01*
X0026000Y0080750D02*
X0022250Y0080750D01*
X0022749Y0080251D02*
X0026000Y0080251D01*
X0026000Y0079753D02*
X0023247Y0079753D01*
X0023746Y0079254D02*
X0026000Y0079254D01*
X0026000Y0078756D02*
X0024244Y0078756D01*
X0024743Y0078257D02*
X0026000Y0078257D01*
X0026000Y0077759D02*
X0025241Y0077759D01*
X0025740Y0077260D02*
X0026000Y0077260D01*
X0026000Y0061000D02*
X0022000Y0061000D01*
X0026000Y0057000D01*
X0026000Y0061000D01*
X0026000Y0060809D02*
X0022191Y0060809D01*
X0022689Y0060311D02*
X0026000Y0060311D01*
X0026000Y0059812D02*
X0023188Y0059812D01*
X0023686Y0059314D02*
X0026000Y0059314D01*
X0026000Y0058815D02*
X0024185Y0058815D01*
X0024683Y0058317D02*
X0026000Y0058317D01*
X0026000Y0057818D02*
X0025182Y0057818D01*
X0025680Y0057320D02*
X0026000Y0057320D01*
X0026000Y0041000D02*
X0022000Y0041000D01*
X0026000Y0037000D01*
X0026000Y0041000D01*
X0026000Y0040869D02*
X0022131Y0040869D01*
X0022630Y0040370D02*
X0026000Y0040370D01*
X0026000Y0039872D02*
X0023128Y0039872D01*
X0023627Y0039373D02*
X0026000Y0039373D01*
X0026000Y0038875D02*
X0024125Y0038875D01*
X0024624Y0038376D02*
X0026000Y0038376D01*
X0026000Y0037878D02*
X0025122Y0037878D01*
X0025621Y0037379D02*
X0026000Y0037379D01*
X0026000Y0021000D02*
X0022000Y0021000D01*
X0026000Y0017000D01*
X0026000Y0021000D01*
X0026000Y0020929D02*
X0022071Y0020929D01*
X0022570Y0020430D02*
X0026000Y0020430D01*
X0026000Y0019932D02*
X0023068Y0019932D01*
X0023567Y0019433D02*
X0026000Y0019433D01*
X0026000Y0018934D02*
X0024066Y0018934D01*
X0024564Y0018436D02*
X0026000Y0018436D01*
X0026000Y0017937D02*
X0025063Y0017937D01*
X0025561Y0017439D02*
X0026000Y0017439D01*
X0042000Y0021000D02*
X0046000Y0017000D01*
X0046000Y0021000D01*
X0042000Y0021000D01*
X0042071Y0020929D02*
X0046000Y0020929D01*
X0046000Y0020430D02*
X0042570Y0020430D01*
X0043068Y0019932D02*
X0046000Y0019932D01*
X0046000Y0019433D02*
X0043567Y0019433D01*
X0044066Y0018934D02*
X0046000Y0018934D01*
X0046000Y0018436D02*
X0044564Y0018436D01*
X0045063Y0017937D02*
X0046000Y0017937D01*
X0046000Y0017439D02*
X0045561Y0017439D01*
X0046000Y0037000D02*
X0042000Y0041000D01*
X0046000Y0041000D01*
X0046000Y0037000D01*
X0046000Y0037379D02*
X0045621Y0037379D01*
X0046000Y0037878D02*
X0045122Y0037878D01*
X0044624Y0038376D02*
X0046000Y0038376D01*
X0046000Y0038875D02*
X0044125Y0038875D01*
X0043627Y0039373D02*
X0046000Y0039373D01*
X0046000Y0039872D02*
X0043128Y0039872D01*
X0042630Y0040370D02*
X0046000Y0040370D01*
X0046000Y0040869D02*
X0042131Y0040869D01*
X0046000Y0057000D02*
X0042000Y0061000D01*
X0046000Y0061000D01*
X0046000Y0057000D01*
X0046000Y0057320D02*
X0045680Y0057320D01*
X0046000Y0057818D02*
X0045182Y0057818D01*
X0044683Y0058317D02*
X0046000Y0058317D01*
X0046000Y0058815D02*
X0044185Y0058815D01*
X0043686Y0059314D02*
X0046000Y0059314D01*
X0046000Y0059812D02*
X0043188Y0059812D01*
X0042689Y0060311D02*
X0046000Y0060311D01*
X0046000Y0060809D02*
X0042191Y0060809D01*
X0046000Y0077000D02*
X0042000Y0081000D01*
X0046000Y0081000D01*
X0046000Y0077000D01*
X0046000Y0077260D02*
X0045740Y0077260D01*
X0046000Y0077759D02*
X0045241Y0077759D01*
X0044743Y0078257D02*
X0046000Y0078257D01*
X0046000Y0078756D02*
X0044244Y0078756D01*
X0043746Y0079254D02*
X0046000Y0079254D01*
X0046000Y0079753D02*
X0043247Y0079753D01*
X0042749Y0080251D02*
X0046000Y0080251D01*
X0046000Y0080750D02*
X0042250Y0080750D01*
X0046000Y0102000D02*
X0042000Y0106000D01*
X0046000Y0106000D01*
X0046000Y0102000D01*
X0046000Y0102186D02*
X0045814Y0102186D01*
X0046000Y0102684D02*
X0045316Y0102684D01*
X0044817Y0103183D02*
X0046000Y0103183D01*
X0046000Y0103681D02*
X0044319Y0103681D01*
X0043820Y0104180D02*
X0046000Y0104180D01*
X0046000Y0104678D02*
X0043322Y0104678D01*
X0042823Y0105177D02*
X0046000Y0105177D01*
X0046000Y0105675D02*
X0042325Y0105675D01*
X0046000Y0122000D02*
X0042000Y0126000D01*
X0046000Y0126000D01*
X0046000Y0122000D01*
X0046000Y0122126D02*
X0045874Y0122126D01*
X0046000Y0122625D02*
X0045375Y0122625D01*
X0044877Y0123123D02*
X0046000Y0123123D01*
X0046000Y0123622D02*
X0044378Y0123622D01*
X0043880Y0124120D02*
X0046000Y0124120D01*
X0046000Y0124619D02*
X0043381Y0124619D01*
X0042883Y0125117D02*
X0046000Y0125117D01*
X0046000Y0125616D02*
X0042384Y0125616D01*
X0046000Y0142000D02*
X0042000Y0146000D01*
X0046000Y0146000D01*
X0046000Y0142000D01*
X0046000Y0142067D02*
X0045933Y0142067D01*
X0046000Y0142565D02*
X0045435Y0142565D01*
X0044936Y0143064D02*
X0046000Y0143064D01*
X0046000Y0143562D02*
X0044438Y0143562D01*
X0043939Y0144061D02*
X0046000Y0144061D01*
X0046000Y0144559D02*
X0043441Y0144559D01*
X0042942Y0145058D02*
X0046000Y0145058D01*
X0046000Y0145556D02*
X0042444Y0145556D01*
X0046000Y0162000D02*
X0042000Y0166000D01*
X0046000Y0166000D01*
X0046000Y0162000D01*
X0046000Y0162007D02*
X0045993Y0162007D01*
X0046000Y0162506D02*
X0045494Y0162506D01*
X0044996Y0163004D02*
X0046000Y0163004D01*
X0046000Y0163503D02*
X0044497Y0163503D01*
X0043999Y0164001D02*
X0046000Y0164001D01*
X0046000Y0164500D02*
X0043500Y0164500D01*
X0043002Y0164998D02*
X0046000Y0164998D01*
X0046000Y0165497D02*
X0042503Y0165497D01*
X0042005Y0165995D02*
X0046000Y0165995D01*
X0062000Y0166000D02*
X0066000Y0162000D01*
X0066000Y0166000D01*
X0062000Y0166000D01*
X0062005Y0165995D02*
X0066000Y0165995D01*
X0066000Y0165497D02*
X0062503Y0165497D01*
X0063002Y0164998D02*
X0066000Y0164998D01*
X0066000Y0164500D02*
X0063500Y0164500D01*
X0063999Y0164001D02*
X0066000Y0164001D01*
X0066000Y0163503D02*
X0064497Y0163503D01*
X0064996Y0163004D02*
X0066000Y0163004D01*
X0066000Y0162506D02*
X0065494Y0162506D01*
X0065993Y0162007D02*
X0066000Y0162007D01*
X0066000Y0146000D02*
X0062000Y0146000D01*
X0066000Y0142000D01*
X0066000Y0146000D01*
X0066000Y0145556D02*
X0062444Y0145556D01*
X0062942Y0145058D02*
X0066000Y0145058D01*
X0066000Y0144559D02*
X0063441Y0144559D01*
X0063939Y0144061D02*
X0066000Y0144061D01*
X0066000Y0143562D02*
X0064438Y0143562D01*
X0064936Y0143064D02*
X0066000Y0143064D01*
X0066000Y0142565D02*
X0065435Y0142565D01*
X0065933Y0142067D02*
X0066000Y0142067D01*
X0066000Y0126000D02*
X0062000Y0126000D01*
X0066000Y0122000D01*
X0066000Y0126000D01*
X0066000Y0125616D02*
X0062384Y0125616D01*
X0062883Y0125117D02*
X0066000Y0125117D01*
X0066000Y0124619D02*
X0063381Y0124619D01*
X0063880Y0124120D02*
X0066000Y0124120D01*
X0066000Y0123622D02*
X0064378Y0123622D01*
X0064877Y0123123D02*
X0066000Y0123123D01*
X0066000Y0122625D02*
X0065375Y0122625D01*
X0065874Y0122126D02*
X0066000Y0122126D01*
X0066000Y0106000D02*
X0062000Y0106000D01*
X0066000Y0102000D01*
X0066000Y0106000D01*
X0066000Y0105675D02*
X0062325Y0105675D01*
X0062823Y0105177D02*
X0066000Y0105177D01*
X0066000Y0104678D02*
X0063322Y0104678D01*
X0063820Y0104180D02*
X0066000Y0104180D01*
X0066000Y0103681D02*
X0064319Y0103681D01*
X0064817Y0103183D02*
X0066000Y0103183D01*
X0066000Y0102684D02*
X0065316Y0102684D01*
X0065814Y0102186D02*
X0066000Y0102186D01*
X0066000Y0081000D02*
X0062000Y0081000D01*
X0066000Y0077000D01*
X0066000Y0081000D01*
X0066000Y0080750D02*
X0062250Y0080750D01*
X0062749Y0080251D02*
X0066000Y0080251D01*
X0066000Y0079753D02*
X0063247Y0079753D01*
X0063746Y0079254D02*
X0066000Y0079254D01*
X0066000Y0078756D02*
X0064244Y0078756D01*
X0064743Y0078257D02*
X0066000Y0078257D01*
X0066000Y0077759D02*
X0065241Y0077759D01*
X0065740Y0077260D02*
X0066000Y0077260D01*
X0066000Y0061000D02*
X0062000Y0061000D01*
X0066000Y0057000D01*
X0066000Y0061000D01*
X0066000Y0060809D02*
X0062191Y0060809D01*
X0062689Y0060311D02*
X0066000Y0060311D01*
X0066000Y0059812D02*
X0063188Y0059812D01*
X0063686Y0059314D02*
X0066000Y0059314D01*
X0066000Y0058815D02*
X0064185Y0058815D01*
X0064683Y0058317D02*
X0066000Y0058317D01*
X0066000Y0057818D02*
X0065182Y0057818D01*
X0065680Y0057320D02*
X0066000Y0057320D01*
X0066000Y0041000D02*
X0062000Y0041000D01*
X0066000Y0037000D01*
X0066000Y0041000D01*
X0066000Y0040869D02*
X0062131Y0040869D01*
X0062630Y0040370D02*
X0066000Y0040370D01*
X0066000Y0039872D02*
X0063128Y0039872D01*
X0063627Y0039373D02*
X0066000Y0039373D01*
X0066000Y0038875D02*
X0064125Y0038875D01*
X0064624Y0038376D02*
X0066000Y0038376D01*
X0066000Y0037878D02*
X0065122Y0037878D01*
X0065621Y0037379D02*
X0066000Y0037379D01*
X0066000Y0021000D02*
X0062000Y0021000D01*
X0066000Y0017000D01*
X0066000Y0021000D01*
X0066000Y0020929D02*
X0062071Y0020929D01*
X0062570Y0020430D02*
X0066000Y0020430D01*
X0066000Y0019932D02*
X0063068Y0019932D01*
X0063567Y0019433D02*
X0066000Y0019433D01*
X0066000Y0018934D02*
X0064066Y0018934D01*
X0064564Y0018436D02*
X0066000Y0018436D01*
X0066000Y0017937D02*
X0065063Y0017937D01*
X0065561Y0017439D02*
X0066000Y0017439D01*
X0082000Y0021000D02*
X0086000Y0017000D01*
X0086000Y0021000D01*
X0082000Y0021000D01*
X0082071Y0020929D02*
X0086000Y0020929D01*
X0086000Y0020430D02*
X0082570Y0020430D01*
X0083068Y0019932D02*
X0086000Y0019932D01*
X0086000Y0019433D02*
X0083567Y0019433D01*
X0084066Y0018934D02*
X0086000Y0018934D01*
X0086000Y0018436D02*
X0084564Y0018436D01*
X0085063Y0017937D02*
X0086000Y0017937D01*
X0086000Y0017439D02*
X0085561Y0017439D01*
X0086000Y0037000D02*
X0082000Y0041000D01*
X0086000Y0041000D01*
X0086000Y0037000D01*
X0086000Y0037379D02*
X0085621Y0037379D01*
X0086000Y0037878D02*
X0085122Y0037878D01*
X0084624Y0038376D02*
X0086000Y0038376D01*
X0086000Y0038875D02*
X0084125Y0038875D01*
X0083627Y0039373D02*
X0086000Y0039373D01*
X0086000Y0039872D02*
X0083128Y0039872D01*
X0082630Y0040370D02*
X0086000Y0040370D01*
X0086000Y0040869D02*
X0082131Y0040869D01*
X0086000Y0057000D02*
X0082000Y0061000D01*
X0086000Y0061000D01*
X0086000Y0057000D01*
X0086000Y0057320D02*
X0085680Y0057320D01*
X0086000Y0057818D02*
X0085182Y0057818D01*
X0084683Y0058317D02*
X0086000Y0058317D01*
X0086000Y0058815D02*
X0084185Y0058815D01*
X0083686Y0059314D02*
X0086000Y0059314D01*
X0086000Y0059812D02*
X0083188Y0059812D01*
X0082689Y0060311D02*
X0086000Y0060311D01*
X0086000Y0060809D02*
X0082191Y0060809D01*
X0086000Y0077000D02*
X0082000Y0081000D01*
X0086000Y0081000D01*
X0086000Y0077000D01*
X0086000Y0077260D02*
X0085740Y0077260D01*
X0086000Y0077759D02*
X0085241Y0077759D01*
X0084743Y0078257D02*
X0086000Y0078257D01*
X0086000Y0078756D02*
X0084244Y0078756D01*
X0083746Y0079254D02*
X0086000Y0079254D01*
X0086000Y0079753D02*
X0083247Y0079753D01*
X0082749Y0080251D02*
X0086000Y0080251D01*
X0086000Y0080750D02*
X0082250Y0080750D01*
X0086000Y0102000D02*
X0082000Y0106000D01*
X0086000Y0106000D01*
X0086000Y0102000D01*
X0086000Y0102186D02*
X0085814Y0102186D01*
X0086000Y0102684D02*
X0085316Y0102684D01*
X0084817Y0103183D02*
X0086000Y0103183D01*
X0086000Y0103681D02*
X0084319Y0103681D01*
X0083820Y0104180D02*
X0086000Y0104180D01*
X0086000Y0104678D02*
X0083322Y0104678D01*
X0082823Y0105177D02*
X0086000Y0105177D01*
X0086000Y0105675D02*
X0082325Y0105675D01*
X0086000Y0122000D02*
X0082000Y0126000D01*
X0086000Y0126000D01*
X0086000Y0122000D01*
X0086000Y0122126D02*
X0085874Y0122126D01*
X0086000Y0122625D02*
X0085375Y0122625D01*
X0084877Y0123123D02*
X0086000Y0123123D01*
X0086000Y0123622D02*
X0084378Y0123622D01*
X0083880Y0124120D02*
X0086000Y0124120D01*
X0086000Y0124619D02*
X0083381Y0124619D01*
X0082883Y0125117D02*
X0086000Y0125117D01*
X0086000Y0125616D02*
X0082384Y0125616D01*
X0086000Y0142000D02*
X0082000Y0146000D01*
X0086000Y0146000D01*
X0086000Y0142000D01*
X0086000Y0142067D02*
X0085933Y0142067D01*
X0086000Y0142565D02*
X0085435Y0142565D01*
X0084936Y0143064D02*
X0086000Y0143064D01*
X0086000Y0143562D02*
X0084438Y0143562D01*
X0083939Y0144061D02*
X0086000Y0144061D01*
X0086000Y0144559D02*
X0083441Y0144559D01*
X0082942Y0145058D02*
X0086000Y0145058D01*
X0086000Y0145556D02*
X0082444Y0145556D01*
X0086000Y0162000D02*
X0082000Y0166000D01*
X0086000Y0166000D01*
X0086000Y0162000D01*
X0086000Y0162007D02*
X0085993Y0162007D01*
X0086000Y0162506D02*
X0085494Y0162506D01*
X0084996Y0163004D02*
X0086000Y0163004D01*
X0086000Y0163503D02*
X0084497Y0163503D01*
X0083999Y0164001D02*
X0086000Y0164001D01*
X0086000Y0164500D02*
X0083500Y0164500D01*
X0083002Y0164998D02*
X0086000Y0164998D01*
X0086000Y0165497D02*
X0082503Y0165497D01*
X0082005Y0165995D02*
X0086000Y0165995D01*
M02*
