%
M48
M72
T01C0.0130
T02C0.0236
%
T01
X1700Y1200
X1700Y2200
X1700Y3200
X1700Y4200
X1700Y5200
X1700Y6200
X1700Y7200
X1700Y8200
X1700Y9700
X1700Y10700
X1700Y11700
X1700Y12700
X1700Y13700
X1700Y14700
X1700Y15700
X1700Y16700
X2700Y16700
X2700Y15700
X2700Y14700
X2700Y13700
X2700Y12700
X2700Y11700
X2700Y10700
X2700Y9700
X2700Y8200
X2700Y7200
X2700Y6200
X2700Y5200
X2700Y4200
X2700Y3200
X2700Y2200
X2700Y1200
X3700Y1200
X3700Y2200
X3700Y3200
X3700Y4200
X3700Y5200
X3700Y6200
X3700Y7200
X3700Y8200
X3700Y9700
X3700Y10700
X3700Y11700
X3700Y12700
X3700Y13700
X3700Y14700
X3700Y15700
X3700Y16700
X4700Y16700
X5200Y16700
X5700Y16700
X5700Y15700
X5700Y14700
X5700Y13700
X5700Y12700
X5700Y11700
X5700Y10700
X5700Y9700
X5700Y8200
X5700Y7200
X5700Y6200
X5700Y5200
X5700Y4200
X5700Y3200
X5700Y2200
X5700Y1200
X4700Y1200
X4700Y2200
X4700Y3200
X4700Y4200
X4700Y5200
X4700Y6200
X4700Y7200
X4700Y8200
X4700Y9700
X4700Y10700
X4700Y11700
X4700Y12700
X4700Y13700
X4700Y14700
X4700Y15700
X6700Y15700
X6700Y16700
X7200Y16700
X7700Y16700
X7700Y15700
X7700Y14700
X7700Y13700
X7700Y12700
X7700Y11700
X7700Y10700
X7700Y9700
X7700Y8200
X7700Y7200
X7700Y6200
X7700Y5200
X7700Y4200
X7700Y3200
X7700Y2200
X7700Y1200
X8700Y1200
X8700Y2200
X8700Y3200
X8700Y4200
X8700Y5200
X8700Y6200
X8700Y7200
X8700Y8200
X8700Y9700
X8700Y10700
X8700Y11700
X8700Y12700
X8700Y13200
X8700Y13700
X8700Y14700
X8700Y15200
X8700Y15700
X8700Y16700
X6700Y14700
X6700Y13700
X6700Y12700
X6700Y11700
X6700Y10700
X6700Y9700
X6700Y8200
X6700Y7200
X6700Y6200
X6700Y5200
X6700Y4200
X6700Y3200
X6700Y2200
X6700Y1200
T02
X700Y1200
X700Y2200
X700Y3200
X700Y4200
X700Y5200
X700Y6200
X700Y7200
X700Y8200
X700Y9700
X700Y10700
X700Y11700
X700Y12700
X700Y13700
X700Y14700
X700Y15700
X700Y16700
X9700Y16700
X9700Y15700
X9700Y14700
X9700Y13700
X9700Y12700
X9700Y11700
X9700Y10700
X9700Y9700
X9700Y8200
X9700Y7200
X9700Y6200
X9700Y5200
X9700Y4200
X9700Y3200
X9700Y2200
X9700Y1200
M30
