G75*
%MOIN*%
%OFA0B0*%
%FSLAX25Y25*%
%IPPOS*%
%LPD*%
%AMOC8*
5,1,8,0,0,1.08239X$1,22.5*
%
%ADD10C,0.00100*%
%ADD11C,0.00600*%
%ADD12C,0.00500*%
%ADD13C,0.00200*%
%ADD14C,0.01000*%
%ADD15R,0.05000X0.01000*%
%ADD16R,0.01000X0.05000*%
D10*
X0009577Y0025250D02*
X0010327Y0025250D01*
X0010578Y0025500D01*
X0010578Y0026501D01*
X0010327Y0026751D01*
X0009577Y0026751D01*
X0009577Y0025250D01*
X0011050Y0025500D02*
X0011300Y0025250D01*
X0011801Y0025250D01*
X0012051Y0025500D01*
X0012051Y0026001D01*
X0011801Y0026251D01*
X0011550Y0026251D01*
X0011050Y0026001D01*
X0011050Y0026751D01*
X0012051Y0026751D01*
X0012037Y0035250D02*
X0011787Y0035500D01*
X0012037Y0035250D02*
X0012537Y0035250D01*
X0012787Y0035500D01*
X0012787Y0035750D01*
X0012537Y0036001D01*
X0012287Y0036001D01*
X0012537Y0036001D02*
X0012787Y0036251D01*
X0012787Y0036501D01*
X0012537Y0036751D01*
X0012037Y0036751D01*
X0011787Y0036501D01*
X0010814Y0036751D02*
X0010814Y0035250D01*
X0011314Y0035250D02*
X0010313Y0035250D01*
X0009841Y0035500D02*
X0009841Y0036501D01*
X0009591Y0036751D01*
X0008840Y0036751D01*
X0008840Y0035250D01*
X0009591Y0035250D01*
X0009841Y0035500D01*
X0010313Y0036251D02*
X0010814Y0036751D01*
X0010327Y0045250D02*
X0010578Y0045500D01*
X0010578Y0046501D01*
X0010327Y0046751D01*
X0009577Y0046751D01*
X0009577Y0045250D01*
X0010327Y0045250D01*
X0011050Y0046001D02*
X0012051Y0046001D01*
X0011801Y0046751D02*
X0011050Y0046001D01*
X0011801Y0046751D02*
X0011801Y0045250D01*
X0012051Y0055250D02*
X0011050Y0055250D01*
X0012051Y0056251D01*
X0012051Y0056501D01*
X0011801Y0056751D01*
X0011300Y0056751D01*
X0011050Y0056501D01*
X0010578Y0056251D02*
X0010578Y0055250D01*
X0010578Y0056001D02*
X0009577Y0056001D01*
X0009577Y0056251D02*
X0010077Y0056751D01*
X0010578Y0056251D01*
X0009577Y0056251D02*
X0009577Y0055250D01*
X0009577Y0065250D02*
X0010327Y0065250D01*
X0010578Y0065500D01*
X0010578Y0066501D01*
X0010327Y0066751D01*
X0009577Y0066751D01*
X0009577Y0065250D01*
X0011050Y0065500D02*
X0011300Y0065250D01*
X0011801Y0065250D01*
X0012051Y0065500D01*
X0012051Y0065750D01*
X0011801Y0066001D01*
X0011550Y0066001D01*
X0011801Y0066001D02*
X0012051Y0066251D01*
X0012051Y0066501D01*
X0011801Y0066751D01*
X0011300Y0066751D01*
X0011050Y0066501D01*
X0010814Y0075250D02*
X0010814Y0076751D01*
X0010313Y0076251D01*
X0009841Y0076501D02*
X0009591Y0076751D01*
X0008840Y0076751D01*
X0008840Y0075250D01*
X0009591Y0075250D01*
X0009841Y0075500D01*
X0009841Y0076501D01*
X0010313Y0075250D02*
X0011314Y0075250D01*
X0011787Y0075250D02*
X0012787Y0075250D01*
X0012287Y0075250D02*
X0012287Y0076751D01*
X0011787Y0076251D01*
X0012051Y0085250D02*
X0011050Y0085250D01*
X0012051Y0086251D01*
X0012051Y0086501D01*
X0011801Y0086751D01*
X0011300Y0086751D01*
X0011050Y0086501D01*
X0010578Y0086501D02*
X0010327Y0086751D01*
X0009577Y0086751D01*
X0009577Y0085250D01*
X0010327Y0085250D01*
X0010578Y0085500D01*
X0010578Y0086501D01*
X0010578Y0095250D02*
X0010578Y0096251D01*
X0010077Y0096751D01*
X0009577Y0096251D01*
X0009577Y0095250D01*
X0009577Y0096001D02*
X0010578Y0096001D01*
X0011050Y0096501D02*
X0011050Y0095500D01*
X0012051Y0096501D01*
X0012051Y0095500D01*
X0011801Y0095250D01*
X0011300Y0095250D01*
X0011050Y0095500D01*
X0011050Y0096501D02*
X0011300Y0096751D01*
X0011801Y0096751D01*
X0012051Y0096501D01*
X0032813Y0094251D02*
X0032813Y0092750D01*
X0032813Y0093250D02*
X0033564Y0093250D01*
X0033814Y0093501D01*
X0033814Y0094001D01*
X0033564Y0094251D01*
X0032813Y0094251D01*
X0033314Y0093250D02*
X0033814Y0092750D01*
X0033840Y0091751D02*
X0033840Y0090500D01*
X0034090Y0090250D01*
X0034591Y0090250D01*
X0034841Y0090500D01*
X0034841Y0091751D01*
X0035313Y0091501D02*
X0035564Y0091751D01*
X0036064Y0091751D01*
X0036314Y0091501D01*
X0036787Y0091251D02*
X0037287Y0091751D01*
X0037287Y0090250D01*
X0036787Y0090250D02*
X0037787Y0090250D01*
X0036314Y0090500D02*
X0036314Y0090750D01*
X0036064Y0091001D01*
X0035564Y0091001D01*
X0035313Y0091251D01*
X0035313Y0091501D01*
X0035814Y0092001D02*
X0035814Y0090000D01*
X0036064Y0090250D02*
X0036314Y0090500D01*
X0036064Y0090250D02*
X0035564Y0090250D01*
X0035313Y0090500D01*
X0037813Y0088751D02*
X0038564Y0088751D01*
X0038814Y0088501D01*
X0038814Y0088251D01*
X0038564Y0088001D01*
X0037813Y0088001D01*
X0037813Y0088751D02*
X0037813Y0087250D01*
X0038564Y0087250D01*
X0038814Y0087500D01*
X0038814Y0087750D01*
X0038564Y0088001D01*
X0033814Y0088001D02*
X0033314Y0088001D01*
X0033814Y0088001D02*
X0033814Y0087500D01*
X0033564Y0087250D01*
X0033064Y0087250D01*
X0032813Y0087500D01*
X0032813Y0088501D01*
X0033064Y0088751D01*
X0033564Y0088751D01*
X0033814Y0088501D01*
X0033564Y0074251D02*
X0033814Y0074001D01*
X0033814Y0073501D01*
X0033564Y0073250D01*
X0032813Y0073250D01*
X0032813Y0072750D02*
X0032813Y0074251D01*
X0033564Y0074251D01*
X0033314Y0073250D02*
X0033814Y0072750D01*
X0033840Y0071751D02*
X0033840Y0070500D01*
X0034090Y0070250D01*
X0034591Y0070250D01*
X0034841Y0070500D01*
X0034841Y0071751D01*
X0035313Y0071501D02*
X0035564Y0071751D01*
X0036064Y0071751D01*
X0036314Y0071501D01*
X0036787Y0071751D02*
X0036787Y0071001D01*
X0037287Y0071251D01*
X0037537Y0071251D01*
X0037787Y0071001D01*
X0037787Y0070500D01*
X0037537Y0070250D01*
X0037037Y0070250D01*
X0036787Y0070500D01*
X0036314Y0070500D02*
X0036314Y0070750D01*
X0036064Y0071001D01*
X0035564Y0071001D01*
X0035313Y0071251D01*
X0035313Y0071501D01*
X0035814Y0072001D02*
X0035814Y0070000D01*
X0036064Y0070250D02*
X0036314Y0070500D01*
X0036064Y0070250D02*
X0035564Y0070250D01*
X0035313Y0070500D01*
X0037813Y0068751D02*
X0038564Y0068751D01*
X0038814Y0068501D01*
X0038814Y0068251D01*
X0038564Y0068001D01*
X0037813Y0068001D01*
X0037813Y0068751D02*
X0037813Y0067250D01*
X0038564Y0067250D01*
X0038814Y0067500D01*
X0038814Y0067750D01*
X0038564Y0068001D01*
X0037787Y0071751D02*
X0036787Y0071751D01*
X0033564Y0068751D02*
X0033064Y0068751D01*
X0032813Y0068501D01*
X0032813Y0067500D01*
X0033064Y0067250D01*
X0033564Y0067250D01*
X0033814Y0067500D01*
X0033814Y0068001D01*
X0033314Y0068001D01*
X0033814Y0068501D02*
X0033564Y0068751D01*
X0033564Y0054251D02*
X0033814Y0054001D01*
X0033814Y0053501D01*
X0033564Y0053250D01*
X0032813Y0053250D01*
X0032813Y0052750D02*
X0032813Y0054251D01*
X0033564Y0054251D01*
X0033314Y0053250D02*
X0033814Y0052750D01*
X0033840Y0051751D02*
X0033840Y0050500D01*
X0034090Y0050250D01*
X0034591Y0050250D01*
X0034841Y0050500D01*
X0034841Y0051751D01*
X0035313Y0051501D02*
X0035564Y0051751D01*
X0036064Y0051751D01*
X0036314Y0051501D01*
X0036787Y0051501D02*
X0037037Y0051751D01*
X0037537Y0051751D01*
X0037787Y0051501D01*
X0037787Y0050500D01*
X0037537Y0050250D01*
X0037037Y0050250D01*
X0036787Y0050500D01*
X0036314Y0050500D02*
X0036064Y0050250D01*
X0035564Y0050250D01*
X0035313Y0050500D01*
X0035564Y0051001D02*
X0035313Y0051251D01*
X0035313Y0051501D01*
X0035564Y0051001D02*
X0036064Y0051001D01*
X0036314Y0050750D01*
X0036314Y0050500D01*
X0035814Y0050000D02*
X0035814Y0052001D01*
X0036787Y0051501D02*
X0036787Y0051251D01*
X0037037Y0051001D01*
X0037787Y0051001D01*
X0037813Y0048751D02*
X0038564Y0048751D01*
X0038814Y0048501D01*
X0038814Y0048251D01*
X0038564Y0048001D01*
X0037813Y0048001D01*
X0037813Y0048751D02*
X0037813Y0047250D01*
X0038564Y0047250D01*
X0038814Y0047500D01*
X0038814Y0047750D01*
X0038564Y0048001D01*
X0033814Y0048001D02*
X0033314Y0048001D01*
X0033814Y0048001D02*
X0033814Y0047500D01*
X0033564Y0047250D01*
X0033064Y0047250D01*
X0032813Y0047500D01*
X0032813Y0048501D01*
X0033064Y0048751D01*
X0033564Y0048751D01*
X0033814Y0048501D01*
X0033564Y0034251D02*
X0033814Y0034001D01*
X0033814Y0033501D01*
X0033564Y0033250D01*
X0032813Y0033250D01*
X0032813Y0032750D02*
X0032813Y0034251D01*
X0033564Y0034251D01*
X0033314Y0033250D02*
X0033814Y0032750D01*
X0034104Y0031751D02*
X0034104Y0030500D01*
X0033854Y0030250D01*
X0033354Y0030250D01*
X0033103Y0030500D01*
X0033103Y0031751D01*
X0034577Y0031501D02*
X0034577Y0031251D01*
X0034827Y0031001D01*
X0035327Y0031001D01*
X0035578Y0030750D01*
X0035578Y0030500D01*
X0035327Y0030250D01*
X0034827Y0030250D01*
X0034577Y0030500D01*
X0035077Y0030000D02*
X0035077Y0032001D01*
X0034827Y0031751D02*
X0035327Y0031751D01*
X0035578Y0031501D01*
X0036050Y0031251D02*
X0036550Y0031751D01*
X0036550Y0030250D01*
X0036050Y0030250D02*
X0037051Y0030250D01*
X0037523Y0030500D02*
X0037773Y0030250D01*
X0038274Y0030250D01*
X0038524Y0030500D01*
X0038524Y0030750D01*
X0038274Y0031001D01*
X0038024Y0031001D01*
X0038274Y0031001D02*
X0038524Y0031251D01*
X0038524Y0031501D01*
X0038274Y0031751D01*
X0037773Y0031751D01*
X0037523Y0031501D01*
X0034827Y0031751D02*
X0034577Y0031501D01*
X0033564Y0028751D02*
X0033064Y0028751D01*
X0032813Y0028501D01*
X0032813Y0027500D01*
X0033064Y0027250D01*
X0033564Y0027250D01*
X0033814Y0027500D01*
X0033814Y0028001D01*
X0033314Y0028001D01*
X0033814Y0028501D02*
X0033564Y0028751D01*
X0037813Y0028751D02*
X0037813Y0027250D01*
X0038564Y0027250D01*
X0038814Y0027500D01*
X0038814Y0027750D01*
X0038564Y0028001D01*
X0037813Y0028001D01*
X0037813Y0028751D02*
X0038564Y0028751D01*
X0038814Y0028501D01*
X0038814Y0028251D01*
X0038564Y0028001D01*
X0052813Y0028501D02*
X0052813Y0027500D01*
X0053064Y0027250D01*
X0053564Y0027250D01*
X0053814Y0027500D01*
X0053814Y0028001D01*
X0053314Y0028001D01*
X0053814Y0028501D02*
X0053564Y0028751D01*
X0053064Y0028751D01*
X0052813Y0028501D01*
X0053354Y0030250D02*
X0053854Y0030250D01*
X0054104Y0030500D01*
X0054104Y0031751D01*
X0054577Y0031501D02*
X0054827Y0031751D01*
X0055327Y0031751D01*
X0055578Y0031501D01*
X0056050Y0031251D02*
X0056550Y0031751D01*
X0056550Y0030250D01*
X0056050Y0030250D02*
X0057051Y0030250D01*
X0057523Y0031001D02*
X0058274Y0031751D01*
X0058274Y0030250D01*
X0058524Y0031001D02*
X0057523Y0031001D01*
X0055578Y0030750D02*
X0055327Y0031001D01*
X0054827Y0031001D01*
X0054577Y0031251D01*
X0054577Y0031501D01*
X0055077Y0032001D02*
X0055077Y0030000D01*
X0054827Y0030250D02*
X0055327Y0030250D01*
X0055578Y0030500D01*
X0055578Y0030750D01*
X0054827Y0030250D02*
X0054577Y0030500D01*
X0053354Y0030250D02*
X0053103Y0030500D01*
X0053103Y0031751D01*
X0052813Y0032750D02*
X0052813Y0034251D01*
X0053564Y0034251D01*
X0053814Y0034001D01*
X0053814Y0033501D01*
X0053564Y0033250D01*
X0052813Y0033250D01*
X0053314Y0033250D02*
X0053814Y0032750D01*
X0057813Y0028751D02*
X0058564Y0028751D01*
X0058814Y0028501D01*
X0058814Y0028251D01*
X0058564Y0028001D01*
X0057813Y0028001D01*
X0057813Y0028751D02*
X0057813Y0027250D01*
X0058564Y0027250D01*
X0058814Y0027500D01*
X0058814Y0027750D01*
X0058564Y0028001D01*
X0072813Y0028501D02*
X0072813Y0027500D01*
X0073064Y0027250D01*
X0073564Y0027250D01*
X0073814Y0027500D01*
X0073814Y0028001D01*
X0073314Y0028001D01*
X0073814Y0028501D02*
X0073564Y0028751D01*
X0073064Y0028751D01*
X0072813Y0028501D01*
X0073354Y0030250D02*
X0073103Y0030500D01*
X0073103Y0031751D01*
X0074104Y0031751D02*
X0074104Y0030500D01*
X0073854Y0030250D01*
X0073354Y0030250D01*
X0074577Y0030500D02*
X0074827Y0030250D01*
X0075327Y0030250D01*
X0075578Y0030500D01*
X0075578Y0030750D01*
X0075327Y0031001D01*
X0074827Y0031001D01*
X0074577Y0031251D01*
X0074577Y0031501D01*
X0074827Y0031751D01*
X0075327Y0031751D01*
X0075578Y0031501D01*
X0076050Y0031251D02*
X0076550Y0031751D01*
X0076550Y0030250D01*
X0076050Y0030250D02*
X0077051Y0030250D01*
X0077523Y0030500D02*
X0077773Y0030250D01*
X0078274Y0030250D01*
X0078524Y0030500D01*
X0078524Y0031001D01*
X0078274Y0031251D01*
X0078024Y0031251D01*
X0077523Y0031001D01*
X0077523Y0031751D01*
X0078524Y0031751D01*
X0078564Y0028751D02*
X0077813Y0028751D01*
X0077813Y0027250D01*
X0078564Y0027250D01*
X0078814Y0027500D01*
X0078814Y0027750D01*
X0078564Y0028001D01*
X0077813Y0028001D01*
X0078564Y0028001D02*
X0078814Y0028251D01*
X0078814Y0028501D01*
X0078564Y0028751D01*
X0075077Y0030000D02*
X0075077Y0032001D01*
X0073814Y0032750D02*
X0073314Y0033250D01*
X0073564Y0033250D02*
X0072813Y0033250D01*
X0072813Y0032750D02*
X0072813Y0034251D01*
X0073564Y0034251D01*
X0073814Y0034001D01*
X0073814Y0033501D01*
X0073564Y0033250D01*
X0073564Y0047250D02*
X0073064Y0047250D01*
X0072813Y0047500D01*
X0072813Y0048501D01*
X0073064Y0048751D01*
X0073564Y0048751D01*
X0073814Y0048501D01*
X0073814Y0048001D02*
X0073314Y0048001D01*
X0073814Y0048001D02*
X0073814Y0047500D01*
X0073564Y0047250D01*
X0073354Y0050250D02*
X0073854Y0050250D01*
X0074104Y0050500D01*
X0074104Y0051751D01*
X0074577Y0051501D02*
X0074827Y0051751D01*
X0075327Y0051751D01*
X0075578Y0051501D01*
X0076050Y0051251D02*
X0076550Y0051751D01*
X0076550Y0050250D01*
X0076050Y0050250D02*
X0077051Y0050250D01*
X0077523Y0050250D02*
X0078524Y0050250D01*
X0078024Y0050250D02*
X0078024Y0051751D01*
X0077523Y0051251D01*
X0075578Y0050750D02*
X0075327Y0051001D01*
X0074827Y0051001D01*
X0074577Y0051251D01*
X0074577Y0051501D01*
X0075077Y0052001D02*
X0075077Y0050000D01*
X0074827Y0050250D02*
X0075327Y0050250D01*
X0075578Y0050500D01*
X0075578Y0050750D01*
X0074827Y0050250D02*
X0074577Y0050500D01*
X0073354Y0050250D02*
X0073103Y0050500D01*
X0073103Y0051751D01*
X0072813Y0052750D02*
X0072813Y0054251D01*
X0073564Y0054251D01*
X0073814Y0054001D01*
X0073814Y0053501D01*
X0073564Y0053250D01*
X0072813Y0053250D01*
X0073314Y0053250D02*
X0073814Y0052750D01*
X0077813Y0048751D02*
X0078564Y0048751D01*
X0078814Y0048501D01*
X0078814Y0048251D01*
X0078564Y0048001D01*
X0077813Y0048001D01*
X0077813Y0048751D02*
X0077813Y0047250D01*
X0078564Y0047250D01*
X0078814Y0047500D01*
X0078814Y0047750D01*
X0078564Y0048001D01*
X0092813Y0048501D02*
X0092813Y0047500D01*
X0093064Y0047250D01*
X0093564Y0047250D01*
X0093814Y0047500D01*
X0093814Y0048001D01*
X0093314Y0048001D01*
X0093814Y0048501D02*
X0093564Y0048751D01*
X0093064Y0048751D01*
X0092813Y0048501D01*
X0093354Y0050250D02*
X0093854Y0050250D01*
X0094104Y0050500D01*
X0094104Y0051751D01*
X0094577Y0051501D02*
X0094827Y0051751D01*
X0095327Y0051751D01*
X0095578Y0051501D01*
X0096050Y0051251D02*
X0096550Y0051751D01*
X0096550Y0050250D01*
X0096050Y0050250D02*
X0097051Y0050250D01*
X0097523Y0050250D02*
X0098524Y0051251D01*
X0098524Y0051501D01*
X0098274Y0051751D01*
X0097773Y0051751D01*
X0097523Y0051501D01*
X0097523Y0050250D02*
X0098524Y0050250D01*
X0098564Y0048751D02*
X0097813Y0048751D01*
X0097813Y0047250D01*
X0098564Y0047250D01*
X0098814Y0047500D01*
X0098814Y0047750D01*
X0098564Y0048001D01*
X0097813Y0048001D01*
X0098564Y0048001D02*
X0098814Y0048251D01*
X0098814Y0048501D01*
X0098564Y0048751D01*
X0095578Y0050500D02*
X0095578Y0050750D01*
X0095327Y0051001D01*
X0094827Y0051001D01*
X0094577Y0051251D01*
X0094577Y0051501D01*
X0095077Y0052001D02*
X0095077Y0050000D01*
X0094827Y0050250D02*
X0095327Y0050250D01*
X0095578Y0050500D01*
X0094827Y0050250D02*
X0094577Y0050500D01*
X0093354Y0050250D02*
X0093103Y0050500D01*
X0093103Y0051751D01*
X0092813Y0052750D02*
X0092813Y0054251D01*
X0093564Y0054251D01*
X0093814Y0054001D01*
X0093814Y0053501D01*
X0093564Y0053250D01*
X0092813Y0053250D01*
X0093314Y0053250D02*
X0093814Y0052750D01*
X0093564Y0067250D02*
X0093814Y0067500D01*
X0093814Y0068001D01*
X0093314Y0068001D01*
X0093814Y0068501D02*
X0093564Y0068751D01*
X0093064Y0068751D01*
X0092813Y0068501D01*
X0092813Y0067500D01*
X0093064Y0067250D01*
X0093564Y0067250D01*
X0094090Y0070250D02*
X0094591Y0070250D01*
X0094841Y0070500D01*
X0094841Y0071751D01*
X0095313Y0071501D02*
X0095564Y0071751D01*
X0096064Y0071751D01*
X0096314Y0071501D01*
X0096787Y0071501D02*
X0097037Y0071751D01*
X0097537Y0071751D01*
X0097787Y0071501D01*
X0097787Y0071251D01*
X0097537Y0071001D01*
X0097037Y0071001D01*
X0096787Y0071251D01*
X0096787Y0071501D01*
X0097037Y0071001D02*
X0096787Y0070750D01*
X0096787Y0070500D01*
X0097037Y0070250D01*
X0097537Y0070250D01*
X0097787Y0070500D01*
X0097787Y0070750D01*
X0097537Y0071001D01*
X0096314Y0070750D02*
X0096314Y0070500D01*
X0096064Y0070250D01*
X0095564Y0070250D01*
X0095313Y0070500D01*
X0095564Y0071001D02*
X0095313Y0071251D01*
X0095313Y0071501D01*
X0095564Y0071001D02*
X0096064Y0071001D01*
X0096314Y0070750D01*
X0095814Y0070000D02*
X0095814Y0072001D01*
X0093840Y0071751D02*
X0093840Y0070500D01*
X0094090Y0070250D01*
X0093814Y0072750D02*
X0093314Y0073250D01*
X0093564Y0073250D02*
X0092813Y0073250D01*
X0092813Y0072750D02*
X0092813Y0074251D01*
X0093564Y0074251D01*
X0093814Y0074001D01*
X0093814Y0073501D01*
X0093564Y0073250D01*
X0097813Y0068751D02*
X0098564Y0068751D01*
X0098814Y0068501D01*
X0098814Y0068251D01*
X0098564Y0068001D01*
X0097813Y0068001D01*
X0097813Y0068751D02*
X0097813Y0067250D01*
X0098564Y0067250D01*
X0098814Y0067500D01*
X0098814Y0067750D01*
X0098564Y0068001D01*
X0078814Y0068251D02*
X0078564Y0068001D01*
X0077813Y0068001D01*
X0077813Y0068751D02*
X0077813Y0067250D01*
X0078564Y0067250D01*
X0078814Y0067500D01*
X0078814Y0067750D01*
X0078564Y0068001D01*
X0078814Y0068251D02*
X0078814Y0068501D01*
X0078564Y0068751D01*
X0077813Y0068751D01*
X0076787Y0070250D02*
X0076787Y0070500D01*
X0077787Y0071501D01*
X0077787Y0071751D01*
X0076787Y0071751D01*
X0076314Y0071501D02*
X0076064Y0071751D01*
X0075564Y0071751D01*
X0075313Y0071501D01*
X0075313Y0071251D01*
X0075564Y0071001D01*
X0076064Y0071001D01*
X0076314Y0070750D01*
X0076314Y0070500D01*
X0076064Y0070250D01*
X0075564Y0070250D01*
X0075313Y0070500D01*
X0074841Y0070500D02*
X0074841Y0071751D01*
X0073840Y0071751D02*
X0073840Y0070500D01*
X0074090Y0070250D01*
X0074591Y0070250D01*
X0074841Y0070500D01*
X0075814Y0070000D02*
X0075814Y0072001D01*
X0073814Y0072750D02*
X0073314Y0073250D01*
X0073564Y0073250D02*
X0072813Y0073250D01*
X0072813Y0072750D02*
X0072813Y0074251D01*
X0073564Y0074251D01*
X0073814Y0074001D01*
X0073814Y0073501D01*
X0073564Y0073250D01*
X0073564Y0068751D02*
X0073064Y0068751D01*
X0072813Y0068501D01*
X0072813Y0067500D01*
X0073064Y0067250D01*
X0073564Y0067250D01*
X0073814Y0067500D01*
X0073814Y0068001D01*
X0073314Y0068001D01*
X0073814Y0068501D02*
X0073564Y0068751D01*
X0058814Y0068501D02*
X0058814Y0068251D01*
X0058564Y0068001D01*
X0057813Y0068001D01*
X0057813Y0068751D02*
X0057813Y0067250D01*
X0058564Y0067250D01*
X0058814Y0067500D01*
X0058814Y0067750D01*
X0058564Y0068001D01*
X0058814Y0068501D02*
X0058564Y0068751D01*
X0057813Y0068751D01*
X0057537Y0070250D02*
X0057037Y0070250D01*
X0056787Y0070500D01*
X0056787Y0071001D01*
X0057537Y0071001D01*
X0057787Y0070750D01*
X0057787Y0070500D01*
X0057537Y0070250D01*
X0056787Y0071001D02*
X0057287Y0071501D01*
X0057787Y0071751D01*
X0056314Y0071501D02*
X0056064Y0071751D01*
X0055564Y0071751D01*
X0055313Y0071501D01*
X0055313Y0071251D01*
X0055564Y0071001D01*
X0056064Y0071001D01*
X0056314Y0070750D01*
X0056314Y0070500D01*
X0056064Y0070250D01*
X0055564Y0070250D01*
X0055313Y0070500D01*
X0054841Y0070500D02*
X0054841Y0071751D01*
X0053840Y0071751D02*
X0053840Y0070500D01*
X0054090Y0070250D01*
X0054591Y0070250D01*
X0054841Y0070500D01*
X0055814Y0070000D02*
X0055814Y0072001D01*
X0053814Y0072750D02*
X0053314Y0073250D01*
X0053564Y0073250D02*
X0052813Y0073250D01*
X0052813Y0072750D02*
X0052813Y0074251D01*
X0053564Y0074251D01*
X0053814Y0074001D01*
X0053814Y0073501D01*
X0053564Y0073250D01*
X0053564Y0068751D02*
X0053064Y0068751D01*
X0052813Y0068501D01*
X0052813Y0067500D01*
X0053064Y0067250D01*
X0053564Y0067250D01*
X0053814Y0067500D01*
X0053814Y0068001D01*
X0053314Y0068001D01*
X0053814Y0068501D02*
X0053564Y0068751D01*
X0053564Y0054251D02*
X0053814Y0054001D01*
X0053814Y0053501D01*
X0053564Y0053250D01*
X0052813Y0053250D01*
X0052813Y0052750D02*
X0052813Y0054251D01*
X0053564Y0054251D01*
X0053314Y0053250D02*
X0053814Y0052750D01*
X0054104Y0051751D02*
X0054104Y0050500D01*
X0053854Y0050250D01*
X0053354Y0050250D01*
X0053103Y0050500D01*
X0053103Y0051751D01*
X0054577Y0051501D02*
X0054827Y0051751D01*
X0055327Y0051751D01*
X0055578Y0051501D01*
X0056050Y0051251D02*
X0056550Y0051751D01*
X0056550Y0050250D01*
X0056050Y0050250D02*
X0057051Y0050250D01*
X0057523Y0050500D02*
X0058524Y0051501D01*
X0058524Y0050500D01*
X0058274Y0050250D01*
X0057773Y0050250D01*
X0057523Y0050500D01*
X0057523Y0051501D01*
X0057773Y0051751D01*
X0058274Y0051751D01*
X0058524Y0051501D01*
X0058564Y0048751D02*
X0058814Y0048501D01*
X0058814Y0048251D01*
X0058564Y0048001D01*
X0057813Y0048001D01*
X0057813Y0048751D02*
X0057813Y0047250D01*
X0058564Y0047250D01*
X0058814Y0047500D01*
X0058814Y0047750D01*
X0058564Y0048001D01*
X0058564Y0048751D02*
X0057813Y0048751D01*
X0055578Y0050500D02*
X0055578Y0050750D01*
X0055327Y0051001D01*
X0054827Y0051001D01*
X0054577Y0051251D01*
X0054577Y0051501D01*
X0055077Y0052001D02*
X0055077Y0050000D01*
X0054827Y0050250D02*
X0055327Y0050250D01*
X0055578Y0050500D01*
X0054827Y0050250D02*
X0054577Y0050500D01*
X0053564Y0048751D02*
X0053064Y0048751D01*
X0052813Y0048501D01*
X0052813Y0047500D01*
X0053064Y0047250D01*
X0053564Y0047250D01*
X0053814Y0047500D01*
X0053814Y0048001D01*
X0053314Y0048001D01*
X0053814Y0048501D02*
X0053564Y0048751D01*
X0092813Y0034251D02*
X0092813Y0032750D01*
X0092813Y0033250D02*
X0093564Y0033250D01*
X0093814Y0033501D01*
X0093814Y0034001D01*
X0093564Y0034251D01*
X0092813Y0034251D01*
X0093314Y0033250D02*
X0093814Y0032750D01*
X0094104Y0031751D02*
X0094104Y0030500D01*
X0093854Y0030250D01*
X0093354Y0030250D01*
X0093103Y0030500D01*
X0093103Y0031751D01*
X0094577Y0031501D02*
X0094577Y0031251D01*
X0094827Y0031001D01*
X0095327Y0031001D01*
X0095578Y0030750D01*
X0095578Y0030500D01*
X0095327Y0030250D01*
X0094827Y0030250D01*
X0094577Y0030500D01*
X0095077Y0030000D02*
X0095077Y0032001D01*
X0094827Y0031751D02*
X0095327Y0031751D01*
X0095578Y0031501D01*
X0096050Y0031251D02*
X0096550Y0031751D01*
X0096550Y0030250D01*
X0096050Y0030250D02*
X0097051Y0030250D01*
X0097523Y0030500D02*
X0097773Y0030250D01*
X0098274Y0030250D01*
X0098524Y0030500D01*
X0098524Y0030750D01*
X0098274Y0031001D01*
X0097523Y0031001D01*
X0097523Y0030500D01*
X0097523Y0031001D02*
X0098024Y0031501D01*
X0098524Y0031751D01*
X0098564Y0028751D02*
X0097813Y0028751D01*
X0097813Y0027250D01*
X0098564Y0027250D01*
X0098814Y0027500D01*
X0098814Y0027750D01*
X0098564Y0028001D01*
X0097813Y0028001D01*
X0098564Y0028001D02*
X0098814Y0028251D01*
X0098814Y0028501D01*
X0098564Y0028751D01*
X0094827Y0031751D02*
X0094577Y0031501D01*
X0093564Y0028751D02*
X0093064Y0028751D01*
X0092813Y0028501D01*
X0092813Y0027500D01*
X0093064Y0027250D01*
X0093564Y0027250D01*
X0093814Y0027500D01*
X0093814Y0028001D01*
X0093314Y0028001D01*
X0093814Y0028501D02*
X0093564Y0028751D01*
X0118840Y0045250D02*
X0119591Y0045250D01*
X0119841Y0045500D01*
X0119841Y0046501D01*
X0119591Y0046751D01*
X0118840Y0046751D01*
X0118840Y0045250D01*
X0120313Y0045250D02*
X0121314Y0045250D01*
X0120814Y0045250D02*
X0120814Y0046751D01*
X0120313Y0046251D01*
X0121787Y0046501D02*
X0121787Y0045500D01*
X0122787Y0046501D01*
X0122787Y0045500D01*
X0122537Y0045250D01*
X0122037Y0045250D01*
X0121787Y0045500D01*
X0121787Y0046501D02*
X0122037Y0046751D01*
X0122537Y0046751D01*
X0122787Y0046501D01*
X0122051Y0055250D02*
X0121050Y0055250D01*
X0120578Y0055250D02*
X0120578Y0056251D01*
X0120077Y0056751D01*
X0119577Y0056251D01*
X0119577Y0055250D01*
X0119577Y0056001D02*
X0120578Y0056001D01*
X0121050Y0056251D02*
X0121550Y0056751D01*
X0121550Y0055250D01*
X0121300Y0065250D02*
X0121050Y0065500D01*
X0121300Y0065250D02*
X0121801Y0065250D01*
X0122051Y0065500D01*
X0122051Y0065750D01*
X0121801Y0066001D01*
X0121550Y0066001D01*
X0121801Y0066001D02*
X0122051Y0066251D01*
X0122051Y0066501D01*
X0121801Y0066751D01*
X0121300Y0066751D01*
X0121050Y0066501D01*
X0120578Y0066251D02*
X0120578Y0065250D01*
X0120578Y0066001D02*
X0119577Y0066001D01*
X0119577Y0066251D02*
X0119577Y0065250D01*
X0119577Y0066251D02*
X0120077Y0066751D01*
X0120578Y0066251D01*
X0120814Y0075250D02*
X0120814Y0076751D01*
X0120313Y0076251D01*
X0119841Y0076501D02*
X0119841Y0075500D01*
X0119591Y0075250D01*
X0118840Y0075250D01*
X0118840Y0076751D01*
X0119591Y0076751D01*
X0119841Y0076501D01*
X0120313Y0075250D02*
X0121314Y0075250D01*
X0121787Y0075250D02*
X0122787Y0076251D01*
X0122787Y0076501D01*
X0122537Y0076751D01*
X0122037Y0076751D01*
X0121787Y0076501D01*
X0121787Y0075250D02*
X0122787Y0075250D01*
X0121801Y0085250D02*
X0121300Y0085250D01*
X0121050Y0085500D01*
X0121050Y0085750D01*
X0121300Y0086001D01*
X0121801Y0086001D01*
X0122051Y0085750D01*
X0122051Y0085500D01*
X0121801Y0085250D01*
X0121801Y0086001D02*
X0122051Y0086251D01*
X0122051Y0086501D01*
X0121801Y0086751D01*
X0121300Y0086751D01*
X0121050Y0086501D01*
X0121050Y0086251D01*
X0121300Y0086001D01*
X0120578Y0085500D02*
X0120578Y0086501D01*
X0120327Y0086751D01*
X0119577Y0086751D01*
X0119577Y0085250D01*
X0120327Y0085250D01*
X0120578Y0085500D01*
X0120327Y0095250D02*
X0119577Y0095250D01*
X0119577Y0096751D01*
X0120327Y0096751D01*
X0120578Y0096501D01*
X0120578Y0095500D01*
X0120327Y0095250D01*
X0121050Y0095500D02*
X0121300Y0095250D01*
X0121801Y0095250D01*
X0122051Y0095500D01*
X0122051Y0096501D01*
X0121801Y0096751D01*
X0121300Y0096751D01*
X0121050Y0096501D01*
X0121050Y0096251D01*
X0121300Y0096001D01*
X0122051Y0096001D01*
X0098814Y0088501D02*
X0098814Y0088251D01*
X0098564Y0088001D01*
X0097813Y0088001D01*
X0097813Y0088751D02*
X0097813Y0087250D01*
X0098564Y0087250D01*
X0098814Y0087500D01*
X0098814Y0087750D01*
X0098564Y0088001D01*
X0098814Y0088501D02*
X0098564Y0088751D01*
X0097813Y0088751D01*
X0097537Y0090250D02*
X0097537Y0091751D01*
X0096787Y0091001D01*
X0097787Y0091001D01*
X0096314Y0090750D02*
X0096314Y0090500D01*
X0096064Y0090250D01*
X0095564Y0090250D01*
X0095313Y0090500D01*
X0094841Y0090500D02*
X0094841Y0091751D01*
X0095313Y0091501D02*
X0095564Y0091751D01*
X0096064Y0091751D01*
X0096314Y0091501D01*
X0096064Y0091001D02*
X0095564Y0091001D01*
X0095313Y0091251D01*
X0095313Y0091501D01*
X0095814Y0092001D02*
X0095814Y0090000D01*
X0096314Y0090750D02*
X0096064Y0091001D01*
X0094841Y0090500D02*
X0094591Y0090250D01*
X0094090Y0090250D01*
X0093840Y0090500D01*
X0093840Y0091751D01*
X0093814Y0092750D02*
X0093314Y0093250D01*
X0093564Y0093250D02*
X0092813Y0093250D01*
X0092813Y0092750D02*
X0092813Y0094251D01*
X0093564Y0094251D01*
X0093814Y0094001D01*
X0093814Y0093501D01*
X0093564Y0093250D01*
X0093564Y0088751D02*
X0093064Y0088751D01*
X0092813Y0088501D01*
X0092813Y0087500D01*
X0093064Y0087250D01*
X0093564Y0087250D01*
X0093814Y0087500D01*
X0093814Y0088001D01*
X0093314Y0088001D01*
X0093814Y0088501D02*
X0093564Y0088751D01*
X0078814Y0088501D02*
X0078814Y0088251D01*
X0078564Y0088001D01*
X0077813Y0088001D01*
X0077813Y0088751D02*
X0077813Y0087250D01*
X0078564Y0087250D01*
X0078814Y0087500D01*
X0078814Y0087750D01*
X0078564Y0088001D01*
X0078814Y0088501D02*
X0078564Y0088751D01*
X0077813Y0088751D01*
X0077537Y0090250D02*
X0077037Y0090250D01*
X0076787Y0090500D01*
X0076314Y0090500D02*
X0076314Y0090750D01*
X0076064Y0091001D01*
X0075564Y0091001D01*
X0075313Y0091251D01*
X0075313Y0091501D01*
X0075564Y0091751D01*
X0076064Y0091751D01*
X0076314Y0091501D01*
X0076787Y0091501D02*
X0077037Y0091751D01*
X0077537Y0091751D01*
X0077787Y0091501D01*
X0077787Y0091251D01*
X0077537Y0091001D01*
X0077787Y0090750D01*
X0077787Y0090500D01*
X0077537Y0090250D01*
X0077537Y0091001D02*
X0077287Y0091001D01*
X0076314Y0090500D02*
X0076064Y0090250D01*
X0075564Y0090250D01*
X0075313Y0090500D01*
X0074841Y0090500D02*
X0074841Y0091751D01*
X0073840Y0091751D02*
X0073840Y0090500D01*
X0074090Y0090250D01*
X0074591Y0090250D01*
X0074841Y0090500D01*
X0075814Y0090000D02*
X0075814Y0092001D01*
X0073814Y0092750D02*
X0073314Y0093250D01*
X0073564Y0093250D02*
X0072813Y0093250D01*
X0072813Y0092750D02*
X0072813Y0094251D01*
X0073564Y0094251D01*
X0073814Y0094001D01*
X0073814Y0093501D01*
X0073564Y0093250D01*
X0073564Y0088751D02*
X0073064Y0088751D01*
X0072813Y0088501D01*
X0072813Y0087500D01*
X0073064Y0087250D01*
X0073564Y0087250D01*
X0073814Y0087500D01*
X0073814Y0088001D01*
X0073314Y0088001D01*
X0073814Y0088501D02*
X0073564Y0088751D01*
X0058814Y0088501D02*
X0058814Y0088251D01*
X0058564Y0088001D01*
X0057813Y0088001D01*
X0057813Y0088751D02*
X0057813Y0087250D01*
X0058564Y0087250D01*
X0058814Y0087500D01*
X0058814Y0087750D01*
X0058564Y0088001D01*
X0058814Y0088501D02*
X0058564Y0088751D01*
X0057813Y0088751D01*
X0057787Y0090250D02*
X0056787Y0090250D01*
X0057787Y0091251D01*
X0057787Y0091501D01*
X0057537Y0091751D01*
X0057037Y0091751D01*
X0056787Y0091501D01*
X0056314Y0091501D02*
X0056064Y0091751D01*
X0055564Y0091751D01*
X0055313Y0091501D01*
X0055313Y0091251D01*
X0055564Y0091001D01*
X0056064Y0091001D01*
X0056314Y0090750D01*
X0056314Y0090500D01*
X0056064Y0090250D01*
X0055564Y0090250D01*
X0055313Y0090500D01*
X0054841Y0090500D02*
X0054841Y0091751D01*
X0053840Y0091751D02*
X0053840Y0090500D01*
X0054090Y0090250D01*
X0054591Y0090250D01*
X0054841Y0090500D01*
X0055814Y0090000D02*
X0055814Y0092001D01*
X0053814Y0092750D02*
X0053314Y0093250D01*
X0053564Y0093250D02*
X0052813Y0093250D01*
X0052813Y0092750D02*
X0052813Y0094251D01*
X0053564Y0094251D01*
X0053814Y0094001D01*
X0053814Y0093501D01*
X0053564Y0093250D01*
X0053564Y0088751D02*
X0053064Y0088751D01*
X0052813Y0088501D01*
X0052813Y0087500D01*
X0053064Y0087250D01*
X0053564Y0087250D01*
X0053814Y0087500D01*
X0053814Y0088001D01*
X0053314Y0088001D01*
X0053814Y0088501D02*
X0053564Y0088751D01*
X0119577Y0036751D02*
X0119577Y0035250D01*
X0120327Y0035250D01*
X0120578Y0035500D01*
X0120578Y0036501D01*
X0120327Y0036751D01*
X0119577Y0036751D01*
X0121050Y0036001D02*
X0121050Y0035500D01*
X0121300Y0035250D01*
X0121801Y0035250D01*
X0122051Y0035500D01*
X0122051Y0035750D01*
X0121801Y0036001D01*
X0121050Y0036001D01*
X0121550Y0036501D01*
X0122051Y0036751D01*
X0122051Y0026751D02*
X0121050Y0026751D01*
X0120578Y0026501D02*
X0120327Y0026751D01*
X0119577Y0026751D01*
X0119577Y0025250D01*
X0120327Y0025250D01*
X0120578Y0025500D01*
X0120578Y0026501D01*
X0121050Y0025500D02*
X0121050Y0025250D01*
X0121050Y0025500D02*
X0122051Y0026501D01*
X0122051Y0026751D01*
D11*
X0010570Y0101300D02*
X0010570Y0105570D01*
X0008435Y0107705D01*
X0006300Y0105570D01*
X0006300Y0101300D01*
X0006300Y0104503D02*
X0010570Y0104503D01*
D12*
X0016000Y0101000D02*
X0016000Y0021000D01*
X0026000Y0021000D01*
X0026000Y0101000D01*
X0016000Y0101000D01*
X0106000Y0101000D02*
X0116000Y0101000D01*
X0116000Y0021000D01*
X0106000Y0021000D01*
X0106000Y0101000D01*
D13*
X0109985Y0099367D02*
X0110352Y0099000D01*
X0110719Y0099000D01*
X0111086Y0099367D01*
X0111086Y0101202D01*
X0110719Y0101202D02*
X0111453Y0101202D01*
X0112195Y0101202D02*
X0113296Y0101202D01*
X0113663Y0100835D01*
X0113663Y0100101D01*
X0113296Y0099734D01*
X0112195Y0099734D01*
X0112195Y0099000D02*
X0112195Y0101202D01*
X0114405Y0100835D02*
X0114772Y0101202D01*
X0115506Y0101202D01*
X0115873Y0100835D01*
X0115873Y0100468D01*
X0114405Y0099000D01*
X0115873Y0099000D01*
X0020873Y0099000D02*
X0019405Y0099000D01*
X0020139Y0099000D02*
X0020139Y0101202D01*
X0019405Y0100468D01*
X0018663Y0100835D02*
X0018663Y0100101D01*
X0018296Y0099734D01*
X0017195Y0099734D01*
X0017195Y0099000D02*
X0017195Y0101202D01*
X0018296Y0101202D01*
X0018663Y0100835D01*
X0016453Y0101202D02*
X0015719Y0101202D01*
X0016086Y0101202D02*
X0016086Y0099367D01*
X0015719Y0099000D01*
X0015352Y0099000D01*
X0014985Y0099367D01*
D14*
X0038500Y0093500D03*
X0058500Y0093500D03*
X0078500Y0093500D03*
X0098500Y0093500D03*
X0098500Y0073500D03*
X0078500Y0073500D03*
X0058500Y0073500D03*
X0038500Y0073500D03*
X0038500Y0053500D03*
X0058500Y0053500D03*
X0078500Y0053500D03*
X0098500Y0053500D03*
X0098500Y0033500D03*
X0078500Y0033500D03*
X0058500Y0033500D03*
X0038500Y0033500D03*
D15*
X0036000Y0036000D03*
X0036000Y0026000D03*
X0056000Y0026000D03*
X0056000Y0036000D03*
X0056000Y0046000D03*
X0056000Y0056000D03*
X0056000Y0066000D03*
X0056000Y0076000D03*
X0056000Y0086000D03*
X0056000Y0096000D03*
X0036000Y0096000D03*
X0036000Y0086000D03*
X0036000Y0076000D03*
X0036000Y0066000D03*
X0036000Y0056000D03*
X0036000Y0046000D03*
X0076000Y0046000D03*
X0076000Y0036000D03*
X0076000Y0026000D03*
X0096000Y0026000D03*
X0096000Y0036000D03*
X0096000Y0046000D03*
X0096000Y0056000D03*
X0096000Y0066000D03*
X0096000Y0076000D03*
X0096000Y0086000D03*
X0096000Y0096000D03*
X0076000Y0096000D03*
X0076000Y0086000D03*
X0076000Y0076000D03*
X0076000Y0066000D03*
X0076000Y0056000D03*
D16*
X0071000Y0051000D03*
X0081000Y0051000D03*
X0091000Y0051000D03*
X0101000Y0051000D03*
X0101000Y0031000D03*
X0091000Y0031000D03*
X0081000Y0031000D03*
X0071000Y0031000D03*
X0061000Y0031000D03*
X0051000Y0031000D03*
X0041000Y0031000D03*
X0031000Y0031000D03*
X0031000Y0051000D03*
X0041000Y0051000D03*
X0051000Y0051000D03*
X0061000Y0051000D03*
X0061000Y0071000D03*
X0051000Y0071000D03*
X0041000Y0071000D03*
X0031000Y0071000D03*
X0031000Y0091000D03*
X0041000Y0091000D03*
X0051000Y0091000D03*
X0061000Y0091000D03*
X0071000Y0091000D03*
X0081000Y0091000D03*
X0091000Y0091000D03*
X0101000Y0091000D03*
X0101000Y0071000D03*
X0091000Y0071000D03*
X0081000Y0071000D03*
X0071000Y0071000D03*
M02*
