%
M48
M72
T01C0.0130
T02C0.0400
%
T01
X3100Y2600
X4100Y2600
X5100Y2600
X6100Y2600
X7100Y2600
X8100Y2600
X9100Y2600
X10100Y2600
X10100Y3600
X9100Y3600
X8100Y3600
X7100Y3600
X6100Y3600
X5100Y3600
X4100Y3600
X3100Y3600
X3100Y4600
X4100Y4600
X5100Y4600
X6100Y4600
X7100Y4600
X8100Y4600
X9100Y4600
X10100Y4600
X10100Y5600
X10100Y6600
X9100Y6600
X9100Y5600
X8100Y5600
X7100Y5600
X7100Y6600
X8100Y6600
X8100Y7600
X7100Y7600
X6100Y7600
X5100Y7600
X4100Y7600
X3100Y7600
X3100Y6600
X3100Y5600
X4100Y5600
X4100Y6600
X5100Y6600
X6100Y6600
X6100Y5600
X5100Y5600
X5100Y8600
X6100Y8600
X7100Y8600
X8100Y8600
X9100Y8600
X10100Y8600
X10100Y7600
X9100Y7600
X9100Y9600
X8100Y9600
X7100Y9600
X6100Y9600
X5100Y9600
X4100Y9600
X3100Y9600
X3100Y8600
X4100Y8600
X10100Y9600
T02
X2100Y2600
X2100Y3600
X2100Y4600
X2100Y5600
X2100Y6600
X2100Y7600
X2100Y8600
X2100Y9600
X11100Y9600
X11100Y8600
X11100Y7600
X11100Y6600
X11100Y5600
X11100Y4600
X11100Y3600
X11100Y2600
M30
